<svg xmlns="http://www.w3.org/2000/svg" viewBox="0 0 686.51 331.34"><defs><style>.cls-1{fill:#4c7ff1}.cls-2{fill:#7ac7fa}.cls-3{fill:#5e9df3}.cls-4{opacity:.4}.cls-5{opacity:.5}.cls-6{fill:#fff}</style></defs><title>Recurso 13</title><g id="Capa_2" data-name="Capa 2"><g id="Capa_1-2" data-name="Capa 1"><path class="cls-1" d="M290.25 59.91h3.74v178.36h-3.74z"/><path class="cls-1" d="M255.42 86.95h152.16v3.74H255.42z"/><circle class="cls-2" cx="292.12" cy="88.82" r="8.01"/><circle class="cls-1" cx="292.12" cy="88.82" r="2.91"/><path class="cls-3" d="M399.62 162.48l-25.39-60.71V77.34h4.19a1.37 1.37 0 0 0 1.37-1.34v-5.24a1.37 1.37 0 0 0-1.37-1.37h-25.56a1.37 1.37 0 0 0-1.37 1.37V76a1.37 1.37 0 0 0 1.37 1.37h4.19v24.43l-25.4 60.71c-2.09 5 2 10.33 8 10.33h52c5.94-.03 10.06-5.37 7.97-10.36z"/><path class="cls-2" d="M350.9 129.34l-14.68 35.74a1.88 1.88 0 0 0 1.72 2.6c10.14.1 45.23.07 55.38 0a1.88 1.88 0 0 0 1.72-2.6l-14.68-35.72z"/><path class="cls-1" d="M351.49 75.09V76a1.37 1.37 0 0 0 1.37 1.37h4.19v24.43l-25.4 60.71c-2.09 5 2 10.33 8 10.33h26.26V75.09z"/><path class="cls-4 cls-2" d="M365.94 129.34h-15l-14.68 35.74a1.88 1.88 0 0 0 1.72 2.6c5.12 0 16.59.07 28 .06z"/><circle class="cls-4 cls-1" cx="375.41" cy="138.49" r="4.68"/><circle class="cls-4 cls-1" cx="371.52" cy="152.3" r="3.39"/><circle class="cls-2" cx="292.12" cy="131.08" r="8.01"/><circle class="cls-1" cx="292.12" cy="131.08" r="2.91"/><path class="cls-1" d="M361.21 206.18h9.46v14.8h-9.46z"/><path class="cls-1" d="M377.13 235.44h-22.38a10 10 0 1 1 0-20h22.38a10 10 0 0 1 0 20z"/><path class="cls-4 cls-1" d="M365.86 232.75v-10.38H349a6.75 6.75 0 0 0 5.7 10.39z"/><path class="cls-2" d="M382.91 222.37h-15.7v-20.93h-2.48v20.93H349a6.75 6.75 0 0 0 5.7 10.39h22.53a6.75 6.75 0 0 0 5.7-10.39z"/><circle class="cls-4 cls-1" cx="379.83" cy="226.51" r="2.54"/><path class="cls-2" d="M364.74 197.61h2.48v4.36h-2.48z"/><circle class="cls-2" cx="362.92" cy="51.05" r="3.47"/><circle class="cls-2" cx="376.47" cy="30.05" r="7.48"/><circle class="cls-2" cx="362.6" cy="19.84" r="4.7"/><path class="cls-1" d="M359.41 204.74h13.07a1.26 1.26 0 0 1 1.26 1.26v1.85a1.27 1.27 0 0 1-1.27 1.27h-13.06a1.27 1.27 0 0 1-1.27-1.27V206a1.26 1.26 0 0 1 1.27-1.26z"/><path class="cls-4 cls-1" d="M365.86 215.39v-6.27h-4.64v6.27h-6.46a10 10 0 1 0 0 20h11.11v-20z"/><path class="cls-1" d="M360 193.32c0 3.77 2.32 7.15 6 9.44 3.66-2.29 6-5.67 6-9.44s-2.32-7.15-6-9.44c-3.72 2.29-6 5.67-6 9.44z"/><path class="cls-3" d="M362.31 193.32a7.67 7.67 0 0 0 3.63 6.26 7.22 7.22 0 0 0 0-12.53 7.67 7.67 0 0 0-3.63 6.27z"/><path class="cls-1" d="M171.89 177.06h4.86v60.06h-4.86zM261.78 177.06h4.86v60.06h-4.86z"/><path class="cls-2" d="M441.35 232.69h113.31v5.59H441.35z"/><path class="cls-2" d="M525.41 232.69h78.29v5.59h-78.29zM96.23 232.69h78.28v5.59H96.23z"/><path class="cls-1" transform="rotate(180 358.45 235.49)" d="M170.84 232.69h375.22v5.59H170.84z"/><path class="cls-5 cls-2" d="M13.93 238.37v-.08H671a15.51 15.51 0 1 1 0 31H13.93v-.08a15.51 15.51 0 0 1 0-30.86z"/><path class="cls-2" d="M168.83 300.52v-.19h304a15.51 15.51 0 1 1 0 31h-304v-.19a15.49 15.49 0 0 1 0-30.63z"/><path class="cls-2" d="M67.9 269.31h567.45a15.51 15.51 0 1 1 0 31H67.9a15.51 15.51 0 0 1 0-31z"/><path class="cls-5 cls-2" d="M86.27 238.29h516.27a15.51 15.51 0 1 1 0 31H86.27a15.51 15.51 0 1 1 0-31zM135.06 300.32h390.69a15.51 15.51 0 1 1 0 31H135.06a15.51 15.51 0 0 1 0-31z"/><path class="cls-5 cls-1" d="M148.38 269.31h398.83a15.51 15.51 0 0 1 0 31H148.38a15.51 15.51 0 0 1 0-31z"/><path class="cls-6" d="M198.25 169H186.8v54.5a5.72 5.72 0 0 0 11.44 0z"/><path class="cls-3" d="M184.49 164h16.08a1.39 1.39 0 0 1 1.43 1.4v2.53a1.38 1.38 0 0 1-1.38 1.38h-16.13a1.38 1.38 0 0 1-1.38-1.38v-2.53a1.39 1.39 0 0 1 1.38-1.4z"/><path class="cls-3" d="M198.25 169H186.8v54.5a5.72 5.72 0 0 0 11.44 0z"/><path class="cls-2" d="M192.53 226.8a3.31 3.31 0 0 1-3.31-3.31v-30h6.61v30a3.31 3.31 0 0 1-3.3 3.31z"/><path class="cls-1" d="M186.93 224.65c0 .14.09.28.13.42a5.49 5.49 0 0 0 .21.66c.06.15.16.28.23.42a5.15 5.15 0 0 0 .3.55 4 4 0 0 0 .3.37 5.51 5.51 0 0 0 .4.48c.12.12.25.21.38.31a5.4 5.4 0 0 0 .47.39c.14.09.3.16.45.24a4.83 4.83 0 0 0 .52.28 4.77 4.77 0 0 0 .5.16 5.44 5.44 0 0 0 .58.18c.17 0 .35 0 .53.05a6 6 0 0 0 .63.06v-61.69h-9.46v.5a1.28 1.28 0 0 0 1.28 1.29h2.43v54.18a5.76 5.76 0 0 0 .12 1.15z"/><path class="cls-4 cls-2" d="M192.56 226.8v-33.31h-3.34v30a3.31 3.31 0 0 0 3.34 3.31z"/><path class="cls-6" d="M225 169h-11.42v54.5a5.72 5.72 0 0 0 11.44 0z"/><path class="cls-3" d="M211.26 164h16.08a1.39 1.39 0 0 1 1.39 1.39v2.53a1.38 1.38 0 0 1-1.38 1.38h-16.09a1.39 1.39 0 0 1-1.39-1.39v-2.51a1.39 1.39 0 0 1 1.39-1.4z"/><path class="cls-3" d="M225 169h-11.42v54.5a5.72 5.72 0 0 0 11.44 0z"/><path class="cls-2" d="M219.3 226.8a3.31 3.31 0 0 1-3.3-3.3v-30h6.61v30a3.31 3.31 0 0 1-3.31 3.3z"/><path class="cls-1" d="M213.7 224.65c0 .14.09.28.13.42a5.49 5.49 0 0 0 .21.66c.06.15.16.28.23.42a5.17 5.17 0 0 0 .3.55 4 4 0 0 0 .3.37 5.51 5.51 0 0 0 .4.48c.12.12.25.21.38.31a5.41 5.41 0 0 0 .47.39c.14.09.3.16.45.24a4.83 4.83 0 0 0 .52.28 4.77 4.77 0 0 0 .5.16 5.44 5.44 0 0 0 .58.18c.17 0 .35 0 .53.05a6 6 0 0 0 .63.06v-61.69h-9.46v.5a1.28 1.28 0 0 0 1.28 1.29h2.43v54.18a5.76 5.76 0 0 0 .12 1.15z"/><path class="cls-4 cls-2" d="M219.33 226.8v-33.31H216v30a3.31 3.31 0 0 0 3.33 3.31z"/><path class="cls-6" d="M225 169h-11.42v54.5a5.72 5.72 0 0 0 11.44 0z"/><path class="cls-3" d="M211.26 164h16.08a1.39 1.39 0 0 1 1.39 1.39v2.53a1.38 1.38 0 0 1-1.38 1.38h-16.09a1.39 1.39 0 0 1-1.39-1.39v-2.51a1.39 1.39 0 0 1 1.39-1.4z"/><path class="cls-3" d="M225 169h-11.42v54.5a5.72 5.72 0 0 0 11.44 0z"/><path class="cls-2" d="M219.3 226.8a3.31 3.31 0 0 1-3.3-3.3v-30h6.61v30a3.31 3.31 0 0 1-3.31 3.3z"/><path class="cls-1" d="M213.7 224.65c0 .14.09.28.13.42a5.49 5.49 0 0 0 .21.66c.06.15.16.28.23.42a5.17 5.17 0 0 0 .3.55 4 4 0 0 0 .3.37 5.51 5.51 0 0 0 .4.48c.12.12.25.21.38.31a5.41 5.41 0 0 0 .47.39c.14.09.3.16.45.24a4.83 4.83 0 0 0 .52.28 4.77 4.77 0 0 0 .5.16 5.44 5.44 0 0 0 .58.18c.17 0 .35 0 .53.05a6 6 0 0 0 .63.06v-61.69h-9.46v.5a1.28 1.28 0 0 0 1.28 1.29h2.43v54.18a5.76 5.76 0 0 0 .12 1.15z"/><path class="cls-4 cls-2" d="M219.33 226.8v-33.31H216v30a3.31 3.31 0 0 0 3.33 3.31z"/><path class="cls-6" d="M253.33 169h-11.45v54.5a5.72 5.72 0 0 0 11.44 0z"/><path class="cls-3" d="M239.57 164h16.08a1.39 1.39 0 0 1 1.35 1.4v2.53a1.38 1.38 0 0 1-1.38 1.38h-16.05a1.38 1.38 0 0 1-1.38-1.38v-2.53a1.39 1.39 0 0 1 1.38-1.4z"/><path class="cls-3" d="M253.33 169h-11.45v54.5a5.72 5.72 0 0 0 11.44 0z"/><path class="cls-2" d="M247.61 226.8a3.31 3.31 0 0 1-3.31-3.31v-30h6.61v30a3.31 3.31 0 0 1-3.3 3.31z"/><path class="cls-1" d="M242 224.65c0 .14.09.28.13.42a5.47 5.47 0 0 0 .21.66c.06.15.16.28.23.42a5.15 5.15 0 0 0 .3.55 4 4 0 0 0 .3.37 5.53 5.53 0 0 0 .4.48c.12.12.25.21.38.31a5.4 5.4 0 0 0 .47.39c.14.09.3.16.45.24a2.93 2.93 0 0 0 1 .44 5.43 5.43 0 0 0 .58.18c.17 0 .35 0 .53.05a6 6 0 0 0 .63.06v-61.69h-9.46v.5a1.28 1.28 0 0 0 1.28 1.29h2.43v54.18a5.76 5.76 0 0 0 .14 1.15z"/><path class="cls-4 cls-2" d="M247.64 226.8v-33.31h-3.34v30a3.31 3.31 0 0 0 3.34 3.31z"/><path class="cls-2" d="M171.89 177.06h94.76v4.86h-94.76z"/><path class="cls-1" d="M559.16 203.02l-35.23-26.09-35.23 26.09V82.1h70.46v120.92z"/><path class="cls-4 cls-1" d="M523.93 176.93l-35.23 26.09V82.1h35.6l-.37 94.83z"/><path class="cls-2" d="M562.24 209.12l-38.3-28.37-38.3 28.38V79h76.61zm-38.3-36l32.16 23.82V85.18h-64.33v111.75z"/><path class="cls-4 cls-1" d="M523.93 180.75l-38.3 28.38V79h38.67v6.14h-32.53v111.79l32.16-23.82z"/><path class="cls-1" d="M599.84 75.82c0 7.48-14.6 12.56-16.79 19.3-2.27 7 6.47 19.67 2.24 25.49s-19.06 1.46-24.94 5.73-6.16 19.69-13.15 22c-6.75 2.19-16.07-10-23.55-10s-16.8 12.23-23.55 10c-7-2.27-7.33-17.72-13.15-22s-20.66.14-24.94-5.73 4.51-18.5 2.24-25.49c-2.19-6.75-16.79-11.83-16.79-19.3s14.6-12.56 16.79-19.3c2.27-7-6.47-19.67-2.24-25.49s19.06-1.46 24.94-5.74 6.16-19.68 13.15-22c6.75-2.19 16.07 10 23.55 10s16.8-12.23 23.55-10c7 2.27 7.33 17.72 13.15 22S581 25.15 585.29 31s-4.51 18.5-2.24 25.49c2.19 6.78 16.79 11.86 16.79 19.33z"/><path class="cls-4 cls-1" d="M523.65 13.38c-7.48 0-16.8-12.23-23.55-10-7 2.27-7.33 17.72-13.15 22S466.28 25.15 462 31s4.51 18.5 2.24 25.49c-2.19 6.75-16.79 11.83-16.79 19.3s14.6 12.56 16.79 19.3c2.27 7-6.47 19.67-2.24 25.49s19.06 1.46 24.94 5.73 6.16 19.69 13.15 22c6.75 2.19 16.07-10 23.55-10z"/><path class="cls-2" d="M501.82 151.65a8.59 8.59 0 0 1-2.67-.42c-5.25-1.7-7.37-7.65-9.41-13.4-1.27-3.57-2.72-7.63-4.6-9s-6.08-1.52-10.1-1.64c-6.05-.18-12.31-.36-15.52-4.77s-1.43-10.34.25-16.12c1.13-3.89 2.3-7.91 1.55-10.23-.7-2.14-4.05-4.72-7-7-4.88-3.75-9.92-7.63-9.92-13.25s5-9.5 9.92-13.25c3-2.28 6.32-4.86 7-7 .75-2.32-.42-6.34-1.55-10.23-1.68-5.78-3.42-11.75-.25-16.12S469 24.63 475 24.45c4-.12 8.17-.24 10.1-1.64s3.32-5.42 4.6-9c2-5.75 4.16-11.69 9.41-13.4 5-1.64 10.14 1.83 15.06 5.18 3.4 2.31 6.91 4.71 9.43 4.71s6-2.39 9.44-4.71c4.92-3.35 10-6.82 15.06-5.18 5.25 1.71 7.37 7.65 9.41 13.4 1.27 3.58 2.72 7.63 4.6 9s6.08 1.52 10.1 1.64c6.05.18 12.31.36 15.52 4.77s1.43 10.34-.25 16.12c-1.13 3.89-2.3 7.91-1.55 10.23.7 2.14 4.05 4.72 7 7 4.88 3.75 9.92 7.63 9.92 13.25s-5 9.5-9.92 13.25c-3 2.28-6.32 4.87-7 7-.75 2.32.42 6.34 1.55 10.23 1.68 5.78 3.42 11.75.25 16.12s-9.47 4.59-15.52 4.77c-4 .12-8.18.24-10.1 1.64s-3.32 5.42-4.6 9c-2 5.75-4.16 11.69-9.41 13.4-5.05 1.64-10.14-1.83-15.06-5.18-3.4-2.31-6.91-4.71-9.44-4.71s-6 2.39-9.43 4.71c-4.01 2.76-8.17 5.6-12.35 5.6zm21.82-16.45c4.42 0 8.73 2.93 12.89 5.77 3.53 2.4 7.52 5.13 9.71 4.42 2.37-.77 4-5.47 5.52-9.61 1.65-4.63 3.35-9.42 6.77-11.9s8.58-2.67 13.53-2.82c4.36-.13 9.3-.27 10.73-2.24s0-6.63-1.18-10.78c-1.39-4.78-2.83-9.73-1.5-13.85 1.28-4 5.26-7 9.12-10 3.53-2.71 7.52-5.79 7.52-8.38s-4-5.67-7.52-8.38c-3.85-3-7.83-6-9.12-10-1.34-4.12.1-9.06 1.5-13.85 1.21-4.15 2.58-8.86 1.18-10.78s-6.37-2.11-10.73-2.24c-5-.15-10.07-.3-13.53-2.82s-5.12-7.27-6.77-11.9c-1.48-4.15-3.15-8.84-5.52-9.61-2.19-.71-6.18 2-9.71 4.42-4.17 2.84-8.47 5.77-12.89 5.77s-8.73-2.93-12.89-5.77c-3.53-2.4-7.52-5.13-9.71-4.42-2.37.77-4 5.47-5.52 9.61-1.65 4.63-3.35 9.42-6.77 11.9s-8.58 2.67-13.53 2.82c-4.36.13-9.3.27-10.73 2.24s0 6.63 1.18 10.78c1.39 4.79 2.83 9.73 1.5 13.85-1.28 4-5.26 7-9.11 10-3.53 2.71-7.52 5.79-7.52 8.38s4 5.66 7.52 8.38c3.85 3 7.83 6 9.12 10 1.34 4.12-.1 9.06-1.5 13.85-1.21 4.15-2.58 8.86-1.18 10.78s6.37 2.11 10.73 2.24c5 .15 10.07.3 13.53 2.82s5.12 7.27 6.77 11.9c1.48 4.15 3.15 8.84 5.52 9.62 2.18.71 6.18-2 9.71-4.42 4.16-2.85 8.47-5.79 12.89-5.79z"/><path class="cls-4 cls-1" d="M557.56 13.82l-33.91 127.52c-2.52 0-6 2.39-9.43 4.71-4.05 2.76-8.22 5.6-12.39 5.6a8.59 8.59 0 0 1-2.67-.42c-5.25-1.7-7.37-7.65-9.41-13.4-1.27-3.57-2.72-7.63-4.6-9s-6.08-1.52-10.1-1.64c-6.05-.18-12.31-.36-15.52-4.77s-1.43-10.34.25-16.12c1.13-3.89 2.3-7.91 1.55-10.23-.7-2.14-4.05-4.72-7-7-4.88-3.75-9.92-7.63-9.92-13.25s5-9.5 9.92-13.25c3-2.28 6.32-4.86 7-7 .75-2.32-.42-6.34-1.55-10.23-1.68-5.78-3.42-11.75-.25-16.12S469 24.63 475 24.45c4-.12 8.17-.24 10.1-1.64s3.32-5.42 4.6-9c2-5.75 4.16-11.69 9.41-13.4 5-1.64 10.14 1.83 15.06 5.18 3.4 2.31 6.91 4.71 9.43 4.71v6.15c-4.42 0-8.73-2.93-12.89-5.77-3.53-2.4-7.52-5.13-9.71-4.42-2.37.77-4 5.47-5.52 9.61-1.65 4.63-3.35 9.42-6.77 11.9s-8.58 2.67-13.53 2.82c-4.36.13-9.3.27-10.73 2.24s0 6.63 1.18 10.78c1.39 4.79 2.83 9.73 1.5 13.85-1.28 4-5.26 7-9.11 10-3.53 2.71-7.52 5.79-7.52 8.38s4 5.66 7.52 8.38c3.85 3 7.83 6 9.12 10 1.34 4.12-.1 9.06-1.5 13.85-1.21 4.15-2.58 8.86-1.18 10.78s6.37 2.11 10.73 2.24c5 .15 10.07.3 13.53 2.82s5.12 7.27 6.77 11.9c1.48 4.15 3.15 8.84 5.52 9.62 2.18.71 6.18-2 9.71-4.42 4.17-2.84 8.48-5.77 12.89-5.77z"/><circle class="cls-6" cx="523.65" cy="75.82" r="52.13"/><path class="cls-2" d="M523.65 131a55.2 55.2 0 1 1 55.2-55.2 55.27 55.27 0 0 1-55.2 55.2zm0-104.26a49.06 49.06 0 1 0 49.06 49.06 49.12 49.12 0 0 0-49.06-49.04z"/><path class="cls-4 cls-1" d="M523.65 131a55.2 55.2 0 1 1 0-110.41v6.14a49.06 49.06 0 0 0 0 98.12z"/><path class="cls-2" d="M510.16 104.46h-.3a4.33 4.33 0 0 1-3.27-1.87L492 81.38a4.33 4.33 0 1 1 7.14-4.9l11.46 16.71 39.84-43.46a4.33 4.33 0 0 1 6.38 5.85l-43.52 47.48a4.33 4.33 0 0 1-3.14 1.4z"/></g></g></svg>