<svg xmlns="http://www.w3.org/2000/svg" viewBox="0 0 193.51 109"><defs><style>.cls-1{fill:#4c7ff1}.cls-2,.cls-8{fill:#7ac7fa}.cls-3,.cls-7{fill:none;stroke:#4c7ff1;stroke-miterlimit:10}.cls-3{stroke-width:1.3px}.cls-4{fill:#5e9df3}.cls-5,.cls-9{fill:#3b69e0}.cls-6{fill:url(#linear-gradient)}.cls-7{stroke-linecap:round;stroke-width:2px}.cls-8,.cls-9{opacity:.5}</style><linearGradient id="linear-gradient" x1="129.12" y1="52.64" x2="129.24" y2="62.05" gradientUnits="userSpaceOnUse"><stop offset="0" stop-color="#3b69e0"/><stop offset="1" stop-color="#7ac7fa"/></linearGradient></defs><title>Recurso 2</title><g id="Capa_2" data-name="Capa 2"><g id="Capa_1-2" data-name="Capa 1"><path class="cls-1" d="M49.24 85.82s48.08 4.21 86 3.84c31.77-.31 58.65-5.15 58.21-5.73-5.51-7.31-27.46-32-65.69-32-37.82-.02-58.76 5.94-78.52 33.89z"/><path class="cls-2" d="M47.77 86.17l39.87 6.75 42.69-7.07s-23-24.77-63.91-24.77c-31.22 0-56 16.21-66.42 24.78zM122.85 48.92V34.74s0-5.38-5.12-5.38H102.5s-5.84-.26-6.3 5.51v7.9h1.86l.14-7.9s.26-3.18 4.56-3.15 14.77.07 14.77.07 3.15.13 3.15 3.15v14z"/><circle class="cls-1" cx="104.13" cy="48.44" r="2.42"/><path class="cls-3" d="M104.13 50.37v4.51"/><path class="cls-2" d="M100.76 42.77h-8.11v14.72h4.87v-9.97h2.04v9.97h-.02 1.25V42.77h-.03z"/><path class="cls-4" d="M96.72 57.49h4.07V42.77h-4.07M93.34 43.44h.93v1.66h-.93z"/><path class="cls-2" transform="rotate(-90 93.815 43.885)" d="M93.54 43.53h.55v.7h-.55z"/><path class="cls-2" transform="rotate(-90 93.82 44.62)" d="M93.54 44.27h.55v.7h-.55z"/><path class="cls-4" d="M95.07 43.44H96v1.66h-.93z"/><path class="cls-2" transform="rotate(-90 95.545 43.885)" d="M95.27 43.53h.55v.7h-.55z"/><path class="cls-2" transform="rotate(-90 95.55 44.62)" d="M95.27 44.27h.55v.7h-.55z"/><path class="cls-4" d="M97.23 43.44h.93v1.66h-.93z"/><path class="cls-2" transform="rotate(-90 97.705 43.885)" d="M97.43 43.53h.55v.7h-.55z"/><path class="cls-2" transform="rotate(-90 97.705 44.625)" d="M97.43 44.27h.55v.7h-.55z"/><path class="cls-4" d="M98.96 43.44h.93v1.66h-.93z"/><path class="cls-2" transform="rotate(-90 99.435 43.885)" d="M99.16 43.53h.55v.7h-.55z"/><path class="cls-2" transform="rotate(-90 99.435 44.625)" d="M99.16 44.27h.55v.7h-.55z"/><path class="cls-4" d="M93.34 46.02h.93v1.66h-.93z"/><path class="cls-2" transform="rotate(-90 93.815 46.465)" d="M93.54 46.12h.55v.7h-.55z"/><path class="cls-2" transform="rotate(-90 93.815 47.205)" d="M93.54 46.86h.55v.7h-.55z"/><path class="cls-4" d="M95.07 46.02H96v1.66h-.93z"/><path class="cls-2" transform="rotate(-90 95.545 46.465)" d="M95.27 46.12h.55v.7h-.55z"/><path class="cls-2" transform="rotate(-90 95.545 47.205)" d="M95.27 46.86h.55v.7h-.55z"/><path class="cls-4" d="M97.23 46.02h.93v1.66h-.93z"/><path class="cls-2" transform="rotate(-90 97.705 46.465)" d="M97.43 46.12h.55v.7h-.55z"/><path class="cls-2" transform="rotate(-90 97.705 47.205)" d="M97.43 46.86h.55v.7h-.55z"/><path class="cls-4" d="M98.96 46.02h.93v1.66h-.93z"/><path class="cls-2" transform="rotate(-90 99.435 46.465)" d="M99.16 46.12h.55v.7h-.55z"/><path class="cls-2" transform="rotate(-90 99.435 47.205)" d="M99.16 46.86h.55v.7h-.55z"/><path class="cls-4" d="M93.34 48.61h.93v1.66h-.93z"/><path class="cls-2" transform="rotate(-90 93.82 49.05)" d="M93.54 48.7h.55v.7h-.55z"/><path class="cls-2" transform="rotate(-90 93.82 49.79)" d="M93.54 49.44h.55v.7h-.55z"/><path class="cls-4" d="M95.07 48.61H96v1.66h-.93z"/><path class="cls-2" transform="rotate(-90 95.55 49.05)" d="M95.27 48.7h.55v.7h-.55z"/><path class="cls-2" transform="rotate(-90 95.55 49.79)" d="M95.27 49.44h.55v.7h-.55z"/><path class="cls-4" d="M97.23 48.61h.93v1.66h-.93z"/><path class="cls-2" transform="rotate(-90 97.705 49.055)" d="M97.43 48.7h.55v.7h-.55z"/><path class="cls-2" transform="rotate(-90 97.71 49.79)" d="M97.43 49.44h.55v.7h-.55z"/><path class="cls-4" d="M98.96 48.61h.93v1.66h-.93z"/><path class="cls-2" transform="rotate(-90 99.435 49.055)" d="M99.16 48.7h.55v.7h-.55z"/><path class="cls-2" transform="rotate(-90 99.435 49.785)" d="M99.16 49.44h.55v.7h-.55z"/><path class="cls-4" d="M93.34 51.19h.93v1.66h-.93z"/><path class="cls-2" transform="rotate(-90 93.815 51.635)" d="M93.54 51.29h.55v.7h-.55z"/><path class="cls-2" transform="rotate(-90 93.815 52.375)" d="M93.54 52.02h.55v.7h-.55z"/><path class="cls-4" d="M95.07 51.19H96v1.66h-.93z"/><path class="cls-2" transform="rotate(-90 95.545 51.635)" d="M95.27 51.29h.55v.7h-.55z"/><path class="cls-2" transform="rotate(-90 95.545 52.375)" d="M95.27 52.02h.55v.7h-.55z"/><path class="cls-4" d="M97.23 51.19h.93v1.66h-.93z"/><path class="cls-2" transform="rotate(-90 97.705 51.635)" d="M97.43 51.29h.55v.7h-.55z"/><path class="cls-2" transform="rotate(-90 97.705 52.375)" d="M97.43 52.02h.55v.7h-.55z"/><path class="cls-4" d="M98.96 51.19h.93v1.66h-.93z"/><path class="cls-2" transform="rotate(-90 99.435 51.635)" d="M99.16 51.29h.55v.7h-.55z"/><path class="cls-2" transform="rotate(-90 99.435 52.375)" d="M99.16 52.02h.55v.7h-.55z"/><path class="cls-1" d="M120.06 41.7h3.38v1.12h-3.38zM120.06 48.76h3.38v1.12h-3.38zM120.06 34.94h3.38v1.12h-3.38z"/><path class="cls-1" transform="rotate(-.13 118.964 30.987)" d="M115.74 28.81h1.12v3.38h-1.12z"/><path class="cls-1" transform="rotate(-.13 114.557 30.982)" d="M108.96 28.81h1.12v3.38h-1.12z"/><path class="cls-1" transform="rotate(-.13 105.742 30.972)" d="M101.43 28.81h1.12v3.38h-1.12z"/><path class="cls-1" transform="rotate(-.13 96.922 35.369)" d="M95.54 35.1h3.38v1.12h-3.38z"/><path class="cls-1" transform="rotate(-.13 96.912 44.184)" d="M95.37 41.65h3.38v1.12h-3.38z"/><path class="cls-2" d="M108.21 39.9h-.29l-.7 13.91h1.63l-.64-13.91z"/><rect class="cls-2" x="104.93" y="37.04" width=".43" height="5.38" rx=".17" ry=".17" transform="rotate(-82.5 105.51 39.73)"/><rect class="cls-2" x="109.19" y="40.08" width=".43" height="5.38" rx=".17" ry=".17" transform="rotate(-23.29 109.373 42.774)"/><rect class="cls-2" x="107.01" y="37.67" width="5.38" height=".43" rx=".17" ry=".17" transform="rotate(-53.67 109.704 37.886)"/><circle class="cls-1" cx="108.12" cy="40.07" r=".54" transform="rotate(-52.75 108.11 40.065)"/><path class="cls-2" d="M59.35 54.03h22.99v2.1H59.35z"/><path class="cls-1" transform="rotate(-.13 66.05 52.963)" d="M69.75 53.39h1.12v3.38h-1.12z"/><path class="cls-1" transform="rotate(-.13 79.268 57.386)" d="M79.97 53.39h1.12v3.38h-1.12z"/><path class="cls-1" transform="rotate(-.13 61.638 57.366)" d="M62.88 53.39H64v3.38h-1.12z"/><path class="cls-2" d="M26 58.32h27.88v2.1H26z"/><path class="cls-1" transform="rotate(-.13 57.226 61.768)" d="M52.76 57.69h1.12v3.38h-1.12z"/><path class="cls-1" transform="rotate(-.13 39.601 57.34)" d="M39.56 57.69h1.12v3.38h-1.12z"/><path class="cls-1" transform="rotate(-.13 26.38 57.326)" d="M27.79 57.69h1.12v3.38h-1.12z"/><path class="cls-2" d="M23.93 68.58v-5.22 5.22zM21.91 68.6v-6.07s.25-3.93 4.09-4.2 0 2.1 0 2.1-1.77.28-2.07 2.74v5.43z"/><path class="cls-1" transform="rotate(-.13 21.962 66.135)" d="M21.23 64.04h3.38v1.12h-3.38z"/><path class="cls-1" transform="rotate(-.13 21.957 70.543)" d="M21.23 67.48h3.38v1.12h-3.38z"/><path class="cls-1" d="M53.88 48.1h9v14.86h-9z"/><path class="cls-1" d="M65.47 45.67l-7.09 6.98-7.09-6.98h14.18z"/><path class="cls-2" d="M58.88 50l.18-.08a3.35 3.35 0 0 1 .43-.14c.14 0 .21 0 .18.16l-.06.12a2.1 2.1 0 0 0-.4 0h-.15zm-1.23.51V49.9c0-.16.12-.22.24-.15l.14.08L58 50v.2a.81.81 0 0 1-.34.34zm-.09 1.09h-.1a2.58 2.58 0 0 1-.57-.28c-.15-.1-.16-.19 0-.2h.21l.26.19a.46.46 0 0 1 .21.32zm1.13.27a.57.57 0 0 0-.16.13 3.91 3.91 0 0 1-.38.43c-.1.09-.2 0-.23-.08v-.2l.35-.21a.59.59 0 0 1 .43-.03zm.71-.83c.1.2.2.42.3.65s0 .27-.14.21h-.15l-.09-.55a.55.55 0 0 1 0-.13.73.73 0 0 1 .05-.24z"/><path class="cls-1" d="M58.7 51.91a.59.59 0 0 0-.47.07l-.35.21-.08-.27a.43.43 0 0 0-.13-.18l-.1-.07a.46.46 0 0 0-.2-.35l-.26-.19h.11l.2-.09a.58.58 0 0 0 .26-.4.81.81 0 0 0 .3-.34L58 50v-.09l.32.17a.65.65 0 0 0 .48 0l.16.06h.15a2.1 2.1 0 0 1 .4 0l-.21.43a.68.68 0 0 0 0 .43.73.73 0 0 0-.05.24.55.55 0 0 0 0 .13l.09.55a3.11 3.11 0 0 0-.43-.08h-.05a.58.58 0 0 0-.16.07z"/><path class="cls-4" d="M59.6 50.13h.18c.16 0 .2.2.08.28a4.94 4.94 0 0 0-.43.38.45.45 0 0 0-.09.15.68.68 0 0 1 0-.43zm-1.52-.26l.11-.26c.06-.15.18-.17.26-.07l.31.4a.34.34 0 0 0 .11.09.65.65 0 0 1-.48 0zm-1 1.2l-.19-.16c-.12-.11-.1-.18.05-.19a2 2 0 0 0 .61-.13h.05a.58.58 0 0 1-.26.4l-.2.09zm.79 1.11l-.14.06c-.13.05-.22 0-.21-.12v-.5l.1.07a.43.43 0 0 1 .13.18l.08.27zm1.58-.06c0 .14-.08.19-.2.1a3.33 3.33 0 0 0-.43-.26h-.1a.58.58 0 0 1 .24-.08H59a3.11 3.11 0 0 1 .43.08v.15a.32.32 0 0 1 .02.01zM15.26 74.13H35v5.51H15.26z"/><path class="cls-1" d="M15.26 68.6H35v5.53H15.26z"/><path class="cls-2" d="M16.6 69.73h17.07v1.83H16.6z"/><path class="cls-5" d="M114.05 55.39h19.74v5.51h-19.74z"/><path class="cls-4" d="M114.05 49.87h19.74v5.53h-19.74z"/><path class="cls-5" d="M115.39 50.99h17.07v1.83h-17.07zM125.69 71.5h29.91v5.51h-29.91z"/><path class="cls-4" d="M125.69 65.97h29.91v5.53h-29.91z"/><path class="cls-2" d="M127.03 67.1h27v1.83h-27z"/><path class="cls-6" d="M128.1 51.91h2.23v16.83h-2.23z"/><path class="cls-2" d="M83.24 55.93h.89v.71h-.89zM84.48 55.93h.89v.71h-.89zM84.48 55.03h.89v.6h-.89zM83.24 55.03h.89v.6h-.89z"/><path class="cls-2" d="M90.64 53.19l-4.38-3.62-2.18 1.89v-.63H83v1.56l-.92.8v5h5.14v-3.38h1.91v3.39h1.54v-5zm-5 3.7H83v-2.1h2.66z"/><path class="cls-1" d="M86.38 58.2h4.3v-5l-4.38-3.62"/><path class="cls-4" d="M78.78 57.54h.59v2.79h-.59zM80.56 57.54h.59v2.79h-.59zM82.34 57.54h.59v2.79h-.59zM84.11 57.54h.59v2.79h-.59zM85.89 57.54h.59v2.79h-.59zM87.67 57.54h.59v2.79h-.59zM89.44 57.54h.59v2.79h-.59zM91.22 57.54h.59v2.79h-.59z"/><path class="cls-4" d="M78.78 59.38h13.03v.26H78.78zM78.78 58.42h13.03v.26H78.78z"/><circle class="cls-2" cx="52.48" cy="8.83" r="8.83"/><circle class="cls-4" cx="52.48" cy="8.83" r="7.64"/><circle class="cls-1" cx="52.48" cy="8.83" r="6.07"/><path id="_Trazado_" data-name="&amp;lt;Trazado&amp;gt;" class="cls-2" d="M92.93 8.19h25.48a2.1 2.1 0 0 0-2.71-1.75A6.09 6.09 0 0 0 109.8 2a6.57 6.57 0 0 0-4.2 1.52 4.46 4.46 0 0 0-2.76-.82 4.32 4.32 0 0 0-3.82 2c-3.46-.77-5.68 1.38-6.09 3.49z"/><path id="_Trazado_2" data-name="&amp;lt;Trazado&amp;gt;" class="cls-2" d="M155 31h20.67a1.71 1.71 0 0 0-2.2-1.42 4.94 4.94 0 0 0-4.8-3.58 5.33 5.33 0 0 0-3.41 1.23 3.62 3.62 0 0 0-2.24-.67 3.5 3.5 0 0 0-3.1 1.64A3.84 3.84 0 0 0 155 31z"/><path id="_Trazado_3" data-name="&amp;lt;Trazado&amp;gt;" class="cls-2" d="M25.67 11h24.81a2 2 0 0 0-2.64-1.7A5.93 5.93 0 0 0 42.09 5 6.39 6.39 0 0 0 38 6.5a4.35 4.35 0 0 0-2.69-.8 4.21 4.21 0 0 0-3.72 2c-3.37-.83-5.52 1.3-5.92 3.3z"/><g id="_Grupo_" data-name="&amp;lt;Grupo&amp;gt;"><path id="_Trazado_4" data-name="&amp;lt;Trazado&amp;gt;" class="cls-7" d="M33.41 35.86a2.74 2.74 0 0 1 3.36.19 3.29 3.29 0 0 1 .49-.7 2.89 2.89 0 0 1 2.74-.84"/></g><g id="_Grupo_2" data-name="&amp;lt;Grupo&amp;gt;"><path id="_Trazado_5" data-name="&amp;lt;Trazado&amp;gt;" class="cls-7" d="M40.95 32.33a2.74 2.74 0 0 1 3.17 1.15 3.28 3.28 0 0 1 .67-.53 2.89 2.89 0 0 1 2.86 0"/></g><path class="cls-1" d="M0 85.85c6.88 0 20.3-3.8 29.79-3.26s25.79 4.16 35.38 3.26 18.75-4.93 28.74-4.1 16.36 5.47 24.67 4.24 27.69-5.94 38.09-2.86 31.94 2.66 36.83.79c0 0-14.14 18.32-77.47 12.88-19.52-.72-36.58 1.92-49.61 3.8C32.54 105.5 0 85.85 0 85.85z"/><path class="cls-8" d="M0 85.85c6.88 0 20.3-3.8 29.79-3.26s25.79 4.16 35.38 3.26 18.75-4.93 28.74-4.1 16.36 5.47 24.67 4.24 31.1-6.71 52.28-5.2c9.61.68 10 1.67 22.64 3.13 0 0-20.61 6.13-111.69 6.13-61.36 0-81.81-4.2-81.81-4.2z"/><path class="cls-9" d="M17.86 88c6.88 0 20.93-3.87 30.41-3.33s25.79 4.16 35.38 3.26 18.75-4.93 28.74-4.1 16.36 5.47 24.67 4.24 28.42-5.11 39.24-4.35c9.84.69 12.31 2.13 17.2.26 0 0-2.12 10.32-93.2 10.32-61.36-.05-82.44-6.3-82.44-6.3z"/><path class="cls-8" d="M126.83 103.39a1.13 1.13 0 0 1 1 .06 2.84 2.84 0 0 1 .79.75 9.85 9.85 0 0 1 4.4-1.65 2.52 2.52 0 0 1 2.09 1 3.37 3.37 0 0 1 .53 1 3.41 3.41 0 0 1-.53 1 2.52 2.52 0 0 1-2.1 1 9.64 9.64 0 0 1-4.28-1.6 3.07 3.07 0 0 1-.88.89 1.12 1.12 0 0 1-1 .07 1.51 1.51 0 0 1-.43-.27l1.79-1-1.8-1a1.53 1.53 0 0 1 .42-.25zM86.55 100.62a.82.82 0 0 1 .23-.15.6.6 0 0 1 .56 0 1.51 1.51 0 0 1 .42.4 5.28 5.28 0 0 1 2.36-.88 1.35 1.35 0 0 1 1.12.55 1.83 1.83 0 0 1 .28.54 1.82 1.82 0 0 1-.28.54 1.35 1.35 0 0 1-1.12.55 5.16 5.16 0 0 1-2.3-.86 1.65 1.65 0 0 1-.47.48.6.6 0 0 1-.56 0 .81.81 0 0 1-.23-.15l1-.55z"/><path class="cls-1" d="M102.86 107.11a.66.66 0 0 1 .61 0 1.67 1.67 0 0 1 .47.44 5.76 5.76 0 0 1 2.58-1 1.47 1.47 0 0 1 1.23.61 2 2 0 0 1 .31.59 2 2 0 0 1-.31.59 1.48 1.48 0 0 1-1.23.6 5.65 5.65 0 0 1-2.51-.94 1.8 1.8 0 0 1-.52.52.66.66 0 0 1-.61 0 .89.89 0 0 1-.25-.16l1-.6-1.06-.59a.88.88 0 0 1 .29-.06z"/><path class="cls-8" d="M106.47 93.88a.6.6 0 0 1-.56 0 .8.8 0 0 1-.23-.14l1-.55-1-.54a.79.79 0 0 1 .23-.15.6.6 0 0 1 .56 0 1.52 1.52 0 0 1 .42.4 5.29 5.29 0 0 1 2.36-.88 1.35 1.35 0 0 1 1.12.55 1.8 1.8 0 0 1 .28.54 1.8 1.8 0 0 1-.28.54 1.36 1.36 0 0 1-1.12.55 5.15 5.15 0 0 1-2.3-.86 1.65 1.65 0 0 1-.48.54z"/><path class="cls-2" d="M130.59 92.56a.85.85 0 1 0 .85.85.85.85 0 0 0-.85-.85zm.36.54a.16.16 0 1 1 .16-.16.16.16 0 0 1-.11.17zm.22.31a.09.09 0 1 1 .09-.09.09.09 0 0 1-.09.1zM110.51 102.84a.6.6 0 1 0 .6.6.6.6 0 0 0-.6-.6zm.26.39a.11.11 0 1 1 .11-.11.11.11 0 0 1-.12.1zm.16.22a.06.06 0 1 1 .06-.06.06.06 0 0 1-.07.05z"/><path class="cls-8" d="M94.88 96.62a.82.82 0 1 0 .82.82.82.82 0 0 0-.82-.82zm.35.53a.16.16 0 1 1 .16-.16.16.16 0 0 1-.16.16zm.21.3a.09.09 0 1 1 .09-.09.09.09 0 0 1-.08.09z"/><path class="cls-2" d="M128.3 97a.49.49 0 1 0 .49.49.49.49 0 0 0-.49-.49zm.21.31a.09.09 0 1 1 .09-.09.09.09 0 0 1-.09.05zm.13.18a.05.05 0 1 1 .05-.05.05.05 0 0 1-.06.01zM131 100a.39.39 0 1 0 .39.38.38.38 0 0 0-.39-.38zm.16.25a.07.07 0 1 1 .07-.07.07.07 0 0 1-.03.08zm.1.14v-.08.08l.04.01zM144.6 68.6h2.24v17.9l-2.24.31V68.6z"/></g></g></svg>