<svg xmlns="http://www.w3.org/2000/svg" viewBox="0 0 34.49 23.67"><defs><style>.cls-1{fill:#b8e636}.cls-2{fill:#92d03f}.cls-3{fill:#7bbe39}.cls-4{fill:#7bc9fc}.cls-5{fill:#60a1f7}.cls-6{fill:#4d82f5}</style></defs><title>Recurso 12</title><g id="Capa_2" data-name="Capa 2"><g id="Capa_1-2" data-name="Capa 1"><g id="_Grupo_" data-name="&amp;lt;Grupo&amp;gt;"><g id="_Grupo_2" data-name="&amp;lt;Grupo&amp;gt;"><path class="cls-1" d="M31.38 15.57a8.1 8.1 0 0 1-8.1 8.1h3.11a8.1 8.1 0 0 0 8.1-8.1v-1.29h-3.11z" id="_Grupo_3" data-name="&amp;lt;Grupo&amp;gt;"/><path class="cls-1" d="M18.58 14.28h-2.82a8.1 8.1 0 0 0-8.1 8.1v1.29h2.83v-1.3a8.1 8.1 0 0 1 8.09-8.09z" id="_Grupo_4" data-name="&amp;lt;Grupo&amp;gt;"/><path class="cls-2" d="M31.38 15.57v-1.29h-2.83v1.29a8.1 8.1 0 0 1-8.1 8.1h2.83a8.1 8.1 0 0 0 8.1-8.1z" id="_Grupo_5" data-name="&amp;lt;Grupo&amp;gt;"/><path class="cls-2" d="M21.69 14.28h-3.11a8.1 8.1 0 0 0-8.1 8.1v1.29h3.12v-1.3a8.1 8.1 0 0 1 8.09-8.09z" id="_Grupo_6" data-name="&amp;lt;Grupo&amp;gt;"/><path class="cls-3" d="M28.55 15.57v-1.29h-6.86a8.1 8.1 0 0 0-8.1 8.1v1.29h6.86a8.1 8.1 0 0 0 8.1-8.1z" id="_Grupo_7" data-name="&amp;lt;Grupo&amp;gt;"/><path class="cls-4" d="M23.43 0h-3.11a11.06 11.06 0 0 1 11.06 11.06v1.77h3.11v-1.77A11.06 11.06 0 0 0 23.43 0z" id="_Grupo_8" data-name="&amp;lt;Grupo&amp;gt;"/><path class="cls-5" d="M20.32 0h-2.83a11.06 11.06 0 0 1 11.06 11.06v1.77h2.83v-1.77A11.06 11.06 0 0 0 20.32 0z" id="_Grupo_9" data-name="&amp;lt;Grupo&amp;gt;"/><path class="cls-4" d="M2.83 1.77V0H0v1.77a11.06 11.06 0 0 0 11.06 11.06h2.83A11.06 11.06 0 0 1 2.83 1.77z" id="_Grupo_10" data-name="&amp;lt;Grupo&amp;gt;"/><path class="cls-5" d="M5.94 1.77V0H2.83v1.77a11.06 11.06 0 0 0 11.06 11.06H17A11.06 11.06 0 0 1 5.94 1.77z" id="_Grupo_11" data-name="&amp;lt;Grupo&amp;gt;"/><path class="cls-6" d="M17.49 0H5.94v1.77A11.06 11.06 0 0 0 17 12.83h11.55v-1.77A11.06 11.06 0 0 0 17.49 0z" id="_Grupo_12" data-name="&amp;lt;Grupo&amp;gt;"/></g></g></g></g></svg>