<svg xmlns="http://www.w3.org/2000/svg" viewBox="0 0 288.92 41.53"><defs><style>.cls-1{fill:#fff}.cls-2{fill:#a4e800}.cls-3{fill:#6fd227}.cls-4{fill:#4bc022}.cls-5{fill:#3bcbff}.cls-6{fill:#22a4fb}.cls-7{fill:#1884fa}</style></defs><title>logo</title><g id="Capa_2" data-name="Capa 2"><g id="Capa_1-2" data-name="Capa 1"><g id="_Grupo_" data-name="&amp;lt;Grupo&amp;gt;"><g id="_Grupo_2" data-name="&amp;lt;Grupo&amp;gt;"><path id="_Trazado_" data-name="&amp;lt;Trazado&amp;gt;" class="cls-1" d="M69.96 36.84h1.16v4.52h.53v-4.52h1.15v-.53h-2.84v.53z"/><path id="_Trazado_2" data-name="&amp;lt;Trazado&amp;gt;" class="cls-1" d="M79.78 40a1 1 0 0 1-2 0v-3.69h-.53V40a1.52 1.52 0 0 0 3 0v-3.69h-.53z"/><path id="_Trazado_3" data-name="&amp;lt;Trazado&amp;gt;" class="cls-1" d="M86.78 38.46l-.3-.08c-.57-.15-.8-.39-.8-.82a.85.85 0 0 1 .88-.83.79.79 0 0 1 .84.88v.17h.54v-.17a1.31 1.31 0 0 0-1.38-1.41 1.37 1.37 0 0 0-1.42 1.35c0 .47.21 1.08 1.2 1.33l.32.08c.92.23 1 .58 1 1a1 1 0 0 1-1.1 1 1.06 1.06 0 0 1-1.09-1.15v-.17h-.54v.17a1.58 1.58 0 0 0 1.63 1.67 1.53 1.53 0 0 0 1.63-1.53c0-.95-.54-1.25-1.41-1.49z"/><path id="_Trazado_compuesto_" data-name="&amp;lt;Trazado compuesto&amp;gt;" class="cls-1" d="M100.07 39.06a1.38 1.38 0 1 0 0-2.75h-1.15v5h.53v-2l1.59 2h.69l-1.81-2.29zm0-.52h-.63v-1.7h.63a.86.86 0 1 1 0 1.71z"/><path id="_Trazado_4" data-name="&amp;lt;Trazado&amp;gt;" class="cls-1" d="M106.24 41.36h2.24v-.53h-1.72V38.9h1.72v-.53h-1.72v-1.53h1.72v-.53h-2.24v5.05z"/><path id="_Trazado_5" data-name="&amp;lt;Trazado&amp;gt;" class="cls-1" d="M114.65 38.46l-.3-.08c-.57-.15-.8-.39-.8-.82a.85.85 0 0 1 .88-.83.79.79 0 0 1 .84.88v.17h.54v-.17a1.31 1.31 0 0 0-1.38-1.41 1.37 1.37 0 0 0-1.43 1.36c0 .47.21 1.07 1.2 1.33l.32.08c.92.23 1 .58 1 1a1 1 0 0 1-1.1 1 1.06 1.06 0 0 1-1.09-1.15v-.17h-.54v.17a1.58 1.58 0 0 0 1.63 1.67 1.53 1.53 0 0 0 1.63-1.53c.02-.96-.52-1.26-1.4-1.5z"/><path id="_Trazado_6" data-name="&amp;lt;Trazado&amp;gt;" class="cls-1" d="M120.74 36.31h.53v5.04h-.53z"/><path id="_Trazado_compuesto_2" data-name="&amp;lt;Trazado compuesto&amp;gt;" class="cls-1" d="M126.67 36.31h-.36v5h.35a2.52 2.52 0 1 0 0-5zm.17 4.51v-4a2 2 0 0 1 0 4z"/><path id="_Trazado_7" data-name="&amp;lt;Trazado&amp;gt;" class="cls-1" d="M136.49 40a1 1 0 0 1-2 0v-3.69H134V40a1.52 1.52 0 0 0 3 0v-3.69h-.53z"/><path id="_Trazado_compuesto_3" data-name="&amp;lt;Trazado compuesto&amp;gt;" class="cls-1" d="M144.32 36.21a2.62 2.62 0 1 0 2.62 2.62 2.54 2.54 0 0 0-2.62-2.62zm0 4.72a2.1 2.1 0 1 1 2.08-2.1 2 2 0 0 1-2.08 2.1z"/><path id="_Trazado_8" data-name="&amp;lt;Trazado&amp;gt;" class="cls-1" d="M153.13 38.46l-.3-.08c-.57-.15-.8-.39-.8-.82a.85.85 0 0 1 .88-.83.79.79 0 0 1 .84.88v.17h.54v-.17a1.3 1.3 0 0 0-1.38-1.41 1.37 1.37 0 0 0-1.42 1.35c0 .47.21 1.07 1.2 1.33l.31.12c.92.23 1 .58 1 1a1 1 0 0 1-1.1 1 1.06 1.06 0 0 1-1.09-1.15v-.17h-.54v.17a1.58 1.58 0 0 0 1.63 1.67 1.53 1.53 0 0 0 1.63-1.53c.02-.99-.53-1.29-1.4-1.53z"/><path id="_Trazado_9" data-name="&amp;lt;Trazado&amp;gt;" class="cls-1" d="M165.28 41.36h2.24v-.53h-1.71V38.9h1.71v-.53h-1.71v-1.53h1.71v-.53h-2.24v5.05z"/><path id="_Trazado_10" data-name="&amp;lt;Trazado&amp;gt;" class="cls-1" d="M175.29 40.29l-2.54-3.98h-.22l-.04-.06v.06h-.19v5.05h.53V37.4l2.53 3.96h.21l.05.08v-.08h.19v-5.05h-.52v3.98z"/><path id="_Trazado_11" data-name="&amp;lt;Trazado&amp;gt;" class="cls-1" d="M188.98 38.52l-1.62-2.21h-.45v5.05h.53v-4.03l1.54 2.06 1.53-2.06v4.03h.53v-5.05h-.45l-1.61 2.21z"/><path id="_Trazado_compuesto_4" data-name="&amp;lt;Trazado compuesto&amp;gt;" class="cls-1" d="M197.57 36.31v-.06.06h-.2l-1.81 5h.57l.69-2h1.53l.7 2h.57l-1.81-5zm-.6 2.56l.58-1.62.58 1.62z"/><path id="_Trazado_12" data-name="&amp;lt;Trazado&amp;gt;" class="cls-1" d="M207.03 40.29l-2.53-3.98h-.22l-.04-.06v.06h-.19v5.05h.52V37.4l2.54 3.96h.21l.05.08v-.08h.19v-5.05h-.53v3.98z"/><path id="_Trazado_compuesto_5" data-name="&amp;lt;Trazado compuesto&amp;gt;" class="cls-1" d="M214.91 36.21a2.62 2.62 0 1 0 2.62 2.62 2.54 2.54 0 0 0-2.62-2.62zm0 4.72a2.1 2.1 0 1 1 2.08-2.1 2 2 0 0 1-2.08 2.1z"/><path id="_Trazado_13" data-name="&amp;lt;Trazado&amp;gt;" class="cls-1" d="M223.71 38.46l-.3-.08c-.57-.15-.8-.39-.8-.82a.85.85 0 0 1 .88-.83.79.79 0 0 1 .84.88v.17h.54v-.17a1.31 1.31 0 0 0-1.38-1.41 1.37 1.37 0 0 0-1.42 1.35c0 .47.21 1.08 1.2 1.33l.32.08c.92.23 1 .58 1 1a1 1 0 0 1-1.1 1 1.06 1.06 0 0 1-1.09-1.15v-.17h-.54v.17a1.58 1.58 0 0 0 1.63 1.67 1.53 1.53 0 0 0 1.63-1.53c.01-.95-.53-1.25-1.41-1.49z"/><path id="_Trazado_14" data-name="&amp;lt;Trazado&amp;gt;" class="cls-1" d="M235.86 41.36h2.24v-.53h-1.71V38.9h1.71v-.53h-1.71v-1.53h1.71v-.53h-2.24v5.05z"/><path id="_Trazado_15" data-name="&amp;lt;Trazado&amp;gt;" class="cls-1" d="M244.82 36.31l-.92 1.93-.92-1.93h-.57l1.2 2.53-1.2 2.52h.57l.92-1.92.92 1.92h.58l-1.22-2.52 1.22-2.53h-.58z"/><path id="_Trazado_compuesto_6" data-name="&amp;lt;Trazado compuesto&amp;gt;" class="cls-1" d="M251.3 36.31H250v5h.53v-2.25h.81a1.38 1.38 0 1 0 0-2.75zm0 2.23h-.81v-1.7h.81a.81.81 0 0 1 .91.85.82.82 0 0 1-.91.86z"/><path id="_Trazado_16" data-name="&amp;lt;Trazado&amp;gt;" class="cls-1" d="M257.33 41.36h2.24v-.53h-1.72V38.9h1.72v-.53h-1.72v-1.53h1.72v-.53h-2.24v5.05z"/><path id="_Trazado_compuesto_7" data-name="&amp;lt;Trazado compuesto&amp;gt;" class="cls-1" d="M265.49 39.06a1.38 1.38 0 1 0 0-2.75h-1.15v5h.53v-2l1.59 2h.69l-1.81-2.29zm0-.52h-.63v-1.7h.63a.81.81 0 0 1 .91.85.82.82 0 0 1-.91.86z"/><path id="_Trazado_17" data-name="&amp;lt;Trazado&amp;gt;" class="cls-1" d="M271.09 36.84h1.17v4.52h.52v-4.52h1.15v-.53h-2.84v.53z"/><path id="_Trazado_compuesto_8" data-name="&amp;lt;Trazado compuesto&amp;gt;" class="cls-1" d="M279.63 36.31v-.06.06h-.2l-1.81 5h.57l.69-2h1.53l.7 2h.57l-1.81-5zm-.6 2.56l.58-1.62.58 1.62z"/><path id="_Trazado_18" data-name="&amp;lt;Trazado&amp;gt;" class="cls-1" d="M287.51 38.46l-.3-.08c-.57-.15-.8-.39-.8-.82a.85.85 0 0 1 .88-.83.79.79 0 0 1 .84.88v.17h.54v-.17a1.31 1.31 0 0 0-1.38-1.41 1.37 1.37 0 0 0-1.42 1.35c0 .47.21 1.08 1.2 1.33l.32.08c.92.23 1 .58 1 1a1 1 0 0 1-1.1 1 1.06 1.06 0 0 1-1.09-1.15v-.17h-.54v.17a1.58 1.58 0 0 0 1.63 1.67 1.53 1.53 0 0 0 1.63-1.53c0-.95-.54-1.25-1.41-1.49z"/></g><path id="_Trazado_compuesto_9" data-name="&amp;lt;Trazado compuesto&amp;gt;" class="cls-1" d="M83.8 14.31a6 6 0 0 0 2.88-5.36c0-6-5.74-6.66-8.21-6.66h-8.29v26.08h8.28c5.86 0 9.22-2.74 9.22-7.52 0-3.12-1.39-5.42-3.88-6.54zm-5.33 11.64h-5.76V4.71h5.76c3.78 0 5.69 1.43 5.69 4.24s-1.8 4.27-5.07 4.27h-.16v2.42h.16c4 0 6.11 1.8 6.11 5.21 0 4.21-3.66 5.1-6.73 5.1z"/><path id="_Trazado_19" data-name="&amp;lt;Trazado&amp;gt;" class="cls-1" d="M94.85 2.29h2.52v26.08h-2.52z"/><path id="_Trazado_compuesto_10" data-name="&amp;lt;Trazado compuesto&amp;gt;" class="cls-1" d="M114.34 1.94c-5.8 0-9.7 3.63-9.7 9v9c0 5.16 4 8.77 9.7 8.77s9.66-3.6 9.66-8.76V11c0-5.42-3.88-9.06-9.66-9.06zm0 24.32c-4.31 0-7.21-2.54-7.21-6.31V11c0-4 2.83-6.62 7.21-6.62S121.51 7 121.51 11v9c0 3.72-2.88 6.26-7.17 6.26z"/><path id="_Trazado_compuesto_11" data-name="&amp;lt;Trazado compuesto&amp;gt;" class="cls-1" d="M140.38 2.29h-9.11v26.08h9.11c5.64 0 9.15-3.52 9.15-9.18v-7.61c0-5.73-3.53-9.29-9.15-9.29zm-6.59 2.42h6.56c4.23 0 6.66 2.5 6.66 6.87v7.61c0 4.34-2.36 6.73-6.66 6.73h-6.56z"/><path id="_Trazado_20" data-name="&amp;lt;Trazado&amp;gt;" class="cls-1" d="M159.32 2.29h-2.52v26.08h2.52z"/><path id="_Trazado_21" data-name="&amp;lt;Trazado&amp;gt;" class="cls-1" d="M185.91 2.29l-8.48 22.29-8.46-22.29h-2.67l9.94 26.08h2.38l9.94-26.08h-2.65z"/><path id="_Trazado_22" data-name="&amp;lt;Trazado&amp;gt;" class="cls-1" d="M211.34 25.95h-13.28V16.3h8.72v-2.42h-8.72V4.71h12.76V2.29h-15.29v26.08h15.81v-2.42z"/><path id="_Trazado_23" data-name="&amp;lt;Trazado&amp;gt;" class="cls-1" d="M236.78 28.37l-8.29-10.67c4.41-.64 7-3.41 7-7.61 0-4.81-3.41-7.8-8.91-7.8h-8.48v26.08h2.52V4.71h6c4.14 0 6.42 1.91 6.42 5.38s-2.28 5.34-6.42 5.34h-1.07v2.42l8.09 10.51z"/><path id="_Trazado_24" data-name="&amp;lt;Trazado&amp;gt;" class="cls-1" d="M252 13.86c-4.85-1.15-6.75-2.61-6.75-5.19 0-3.18 3.17-4.31 6.13-4.31a11.18 11.18 0 0 1 7.16 2.45l1.38-2a13 13 0 0 0-8.44-2.88c-5.43 0-8.8 2.55-8.8 6.66 0 5.09 5 6.82 8.72 7.68 5.93 1.36 7 2.83 7 5.22 0 4.29-4.63 4.76-6.62 4.76a10.7 10.7 0 0 1-7.39-2.89h-.06l-1.54 1.94a12.77 12.77 0 0 0 8.94 3.41c5.64 0 9.15-2.76 9.15-7.21s-3.28-6.32-8.88-7.64z"/><path id="_Trazado_25" data-name="&amp;lt;Trazado&amp;gt;" class="cls-1" d="M287.79 28.37l-9.51-25.45a.94.94 0 0 0-.88-.63h-1a.92.92 0 0 0-.84.61l-9.53 25.47h2.64l2.43-6.49 1.36-3.68 4.45-12 4.45 12 1.36 3.68 2.39 6.49z"/><g id="_Grupo_3" data-name="&amp;lt;Grupo&amp;gt;"><path id="_Trazado_26" data-name="&amp;lt;Trazado&amp;gt;" class="cls-2" d="M55.07 27.32a14.21 14.21 0 0 1-14.21 14.21h5.46a14.21 14.21 0 0 0 14.21-14.21v-2.27h-5.46z"/><path id="_Trazado_27" data-name="&amp;lt;Trazado&amp;gt;" class="cls-2" d="M32.61 25.05h-5a14.21 14.21 0 0 0-14.17 14.21v2.27h5v-2.27a14.21 14.21 0 0 1 14.17-14.21z"/><path id="_Trazado_28" data-name="&amp;lt;Trazado&amp;gt;" class="cls-3" d="M55.07 27.32v-2.27h-5v2.27A14.21 14.21 0 0 1 35.9 41.53h5a14.21 14.21 0 0 0 14.17-14.21z"/><path id="_Trazado_29" data-name="&amp;lt;Trazado&amp;gt;" class="cls-3" d="M38.07 25.05h-5.46A14.21 14.21 0 0 0 18.4 39.26v2.27h5.46v-2.27a14.21 14.21 0 0 1 14.21-14.21z"/><path id="_Trazado_30" data-name="&amp;lt;Trazado&amp;gt;" class="cls-4" d="M50.11 27.32v-2.27h-12a14.21 14.21 0 0 0-14.25 14.21v2.27h12a14.21 14.21 0 0 0 14.25-14.21z"/><path id="_Trazado_31" data-name="&amp;lt;Trazado&amp;gt;" class="cls-5" d="M41.11 0h-5.45a19.42 19.42 0 0 1 19.41 19.42v3.1h5.46v-3.1A19.42 19.42 0 0 0 41.11 0z"/><path id="_Trazado_32" data-name="&amp;lt;Trazado&amp;gt;" class="cls-6" d="M35.66 0h-5a19.42 19.42 0 0 1 19.45 19.42v3.1h5v-3.1A19.42 19.42 0 0 0 35.66 0z"/><path id="_Trazado_33" data-name="&amp;lt;Trazado&amp;gt;" class="cls-5" d="M5 3.1V0H0v3.1a19.42 19.42 0 0 0 19.42 19.42h5A19.42 19.42 0 0 1 5 3.1z"/><path id="_Trazado_34" data-name="&amp;lt;Trazado&amp;gt;" class="cls-6" d="M10.42 3.1V0H5v3.1a19.42 19.42 0 0 0 19.38 19.42h5.46A19.42 19.42 0 0 1 10.42 3.1z"/><path id="_Trazado_35" data-name="&amp;lt;Trazado&amp;gt;" class="cls-7" d="M30.69 0H10.42v3.1a19.42 19.42 0 0 0 19.41 19.42h20.28v-3.1A19.42 19.42 0 0 0 30.69 0z"/></g></g></g></g></svg>