<svg xmlns="http://www.w3.org/2000/svg" viewBox="0 0 195 105.3"><defs><style>.cls-1{fill:#7abc39}.cls-10,.cls-2{fill:#b6e436}.cls-3,.cls-4,.cls-8{fill:none;stroke-miterlimit:10}.cls-3{stroke:#b6e436}.cls-4{stroke:#7abc39}.cls-5{fill:#d8ec80}.cls-6{fill:#79ba39}.cls-7{fill:#8cd145}.cls-8{stroke:#79ba39;stroke-linecap:round}.cls-9{fill:#5ca126}.cls-10{opacity:.5}</style></defs><title>Recurso 1</title><g id="Capa_2" data-name="Capa 2"><g id="Capa_1-2" data-name="Capa 1"><circle class="cls-1" cx="6.36" cy="50.49" r="3.39"/><circle class="cls-2" cx="12.95" cy="47.53" r="4.52"/><path class="cls-3" d="M12.95 49.09v7.18"/><path class="cls-4" d="M6.36 52.05v4.22"/><path class="cls-2" d="M144.44 31.07h-.34l-.83 14.77h1.93l-.76-14.77z"/><rect class="cls-2" x="138.28" y="33.74" width="6.36" height=".51" rx=".25" ry=".25" transform="rotate(-37.32 141.44 33.992)"/><rect class="cls-2" x="147.37" y="29.93" width=".51" height="6.36" rx=".2" ry=".2" transform="rotate(-67.85 147.628 33.111)"/><path class="cls-2" d="M144 31.74l-.85-5.9a.2.2 0 0 1 .17-.22h.12a.2.2 0 0 1 .22.17l.85 5.9a.2.2 0 0 1-.17.22h-.12a.2.2 0 0 1-.22-.17z"/><circle class="cls-1" cx="144.31" cy="31.9" r=".64" transform="rotate(-7.3 144.349 31.874)"/><path class="cls-2" d="M160.99 29.81h.34l.83 17.8h-1.93l.76-17.8z"/><rect class="cls-2" x="163.71" y="29.55" width=".51" height="6.36" rx=".2" ry=".2" transform="rotate(-52.68 163.988 32.729)"/><rect class="cls-2" x="154.62" y="31.6" width="6.36" height=".51" rx=".2" ry=".2" transform="rotate(-22.15 157.81 31.845)"/><path class="cls-2" d="M161.42 30.48l.85-5.9a.2.2 0 0 0-.17-.22h-.12a.2.2 0 0 0-.22.17l-.85 5.9a.2.2 0 0 0 .17.22h.12a.2.2 0 0 0 .22-.17z"/><circle class="cls-1" cx="161.12" cy="30.64" r=".64" transform="rotate(-82.69 161.115 30.644)"/><path class="cls-2" d="M153.34 34.27H153l-.83 14.77h1.93l-.76-14.77z"/><rect class="cls-2" x="149.95" y="30.67" width="6.36" height=".51" rx=".2" ry=".2" transform="rotate(-89.69 153.129 30.93)"/><path class="cls-2" d="M152.88 35.07l-5.15 3a.2.2 0 0 1-.27-.07l-.06-.1a.2.2 0 0 1 .07-.27l5.15-3a.2.2 0 0 1 .27.07l.06.1a.2.2 0 0 1-.07.27z"/><rect class="cls-2" x="155.69" y="32.82" width=".51" height="6.36" rx=".2" ry=".2" transform="rotate(-60.61 155.948 36)"/><circle class="cls-1" cx="153.16" cy="34.46" r=".64" transform="rotate(-59.67 153.167 34.457)"/><path class="cls-2" d="M136.27 46.42s13.73-3.32 26.12.76a47.32 47.32 0 0 1 16 9.09h-42zM64.91 11.42L30.98 56.27h66.93l-33-44.85z"/><path class="cls-1" d="M64.91 11.42v44.85h33l-33-44.85z"/><path class="cls-5" d="M64.91 11.42l-5.4 7.13H70l-5.09-7.13z"/><path class="cls-2" d="M64.91 11.42v7.13h5.24l-5.24-7.13z"/><path id="_Trazado_" data-name="&amp;lt;Trazado&amp;gt;" class="cls-5" d="M151.92 18.54h20.47a1.69 1.69 0 0 0-2.18-1.4 4.89 4.89 0 0 0-4.74-3.53 5.27 5.27 0 0 0-3.37 1.22 3.59 3.59 0 0 0-2.22-.66 3.47 3.47 0 0 0-3.07 1.62 3.8 3.8 0 0 0-4.89 2.75z"/><path id="_Trazado_2" data-name="&amp;lt;Trazado&amp;gt;" class="cls-5" d="M43 32h18.86a1.56 1.56 0 0 0-2-1.3 4.51 4.51 0 0 0-4.38-3.26 4.87 4.87 0 0 0-3.11 1.13 3.31 3.31 0 0 0-2-.61 3.2 3.2 0 0 0-2.83 1.5A3.51 3.51 0 0 0 43 32z"/><path class="cls-5" d="M101.54 49.47v-1.35l-3.06 1.35v-1.4l-3 1.4v-6.8h-2.34v13.6h11.33v-8.13zm-3.73 1.36h-1.88v-.61h1.88zm3.06 0H99v-.61h1.88zm3.06 0H102v-.61h1.88z"/><path class="cls-6" d="M101.54 49.47v-1.35l-3.06 1.35v6.8h6v-8.13zm-.68 1.36H99v-.61h1.88zm3.06 0H102v-.61h1.88z"/><circle class="cls-2" cx="42.91" cy="8.09" r="8.09"/><circle class="cls-7" cx="42.91" cy="8.09" r="7"/><circle class="cls-1" cx="42.91" cy="8.09" r="5.57"/><path id="_Trazado_3" data-name="&amp;lt;Trazado&amp;gt;" class="cls-5" d="M25.9 9.6h15.47a1.28 1.28 0 0 0-1.64-1.06 3.7 3.7 0 0 0-3.58-2.67 4 4 0 0 0-2.55.92 2.71 2.71 0 0 0-1.68-.5 2.62 2.62 0 0 0-2.32 1.23 2.87 2.87 0 0 0-3.7 2.08z"/><g id="_Grupo_" data-name="&amp;lt;Grupo&amp;gt;"><path id="_Trazado_4" data-name="&amp;lt;Trazado&amp;gt;" class="cls-8" d="M15.21 31.39a3.35 3.35 0 0 1 4.11.24 4 4 0 0 1 .6-.85 3.53 3.53 0 0 1 3.34-1"/></g><g id="_Grupo_2" data-name="&amp;lt;Grupo&amp;gt;"><path id="_Trazado_5" data-name="&amp;lt;Trazado&amp;gt;" class="cls-8" d="M24.42 27.08a3.34 3.34 0 0 1 3.87 1.4 4 4 0 0 1 .82-.65 3.53 3.53 0 0 1 3.5 0"/></g><path id="_Trazado_6" data-name="&amp;lt;Trazado&amp;gt;" class="cls-2" d="M94.27 41.3a1.45 1.45 0 0 0 .29-.39 1.07 1.07 0 0 0 0-1 4.72 4.72 0 0 0-1.69-1.53 4.72 4.72 0 0 0 .13 2.29 1.07 1.07 0 0 0 .78.61 1.46 1.46 0 0 0 .49.02z"/><path id="_Trazado_7" data-name="&amp;lt;Trazado&amp;gt;" class="cls-1" d="M94.27 41.3a1.45 1.45 0 0 0 .29-.39 1.07 1.07 0 0 0 0-1 4.72 4.72 0 0 0-1.69-1.53z"/><path id="_Trazado_8" data-name="&amp;lt;Trazado&amp;gt;" class="cls-2" d="M90.7 37.11a1.07 1.07 0 0 0 .36-.05.8.8 0 0 0 .53-.52 3.53 3.53 0 0 0-.08-1.71 3.52 3.52 0 0 0-1.14 1.27.8.8 0 0 0 .09.74 1.07 1.07 0 0 0 .24.27z"/><path id="_Trazado_9" data-name="&amp;lt;Trazado&amp;gt;" class="cls-1" d="M90.7 37.11a1.07 1.07 0 0 0 .36-.05.8.8 0 0 0 .53-.52 3.53 3.53 0 0 0-.08-1.71z"/><path id="_Trazado_10" data-name="&amp;lt;Trazado&amp;gt;" class="cls-2" d="M88.86 34.47a1.1 1.1 0 0 0 .14-.34.8.8 0 0 0-.18-.72 3.53 3.53 0 0 0-1.52-.79 3.52 3.52 0 0 0 .53 1.62.8.8 0 0 0 .68.3 1.08 1.08 0 0 0 .35-.07z"/><path id="_Trazado_11" data-name="&amp;lt;Trazado&amp;gt;" class="cls-1" d="M88.86 34.47a1.1 1.1 0 0 0 .14-.34.8.8 0 0 0-.18-.72 3.53 3.53 0 0 0-1.52-.79z"/><path class="cls-2" d="M21.63 52.82h1.35v1.08h-1.35zM23.52 52.82h1.35v1.08h-1.35zM23.52 51.44h1.35v.91h-1.35zM21.63 51.44h1.35v.91h-1.35z"/><path class="cls-2" d="M32.91 48.65l-6.68-5.51L22.91 46v-1h-1.63v2.38l-1.4 1.22v7.62h7.83v-5.11h2.91v5.16H33v-7.62zm-7.63 5.63h-4.06v-3.2h4.06z"/><path class="cls-1" d="M26.42 56.27h1.29v-5.16h2.91v5.16H33v-7.62h-.05l-6.68-5.51"/><path class="cls-1" d="M183.42 50.79a2.75 2.75 0 0 0-.67.09l-.85-2.48a.24.24 0 0 0-.23-.16h-.25a.22.22 0 0 0-.18-.1h-.79a.22.22 0 0 0-.22.22v.23a.22.22 0 0 0 .22.22h.79a.22.22 0 0 0 .18-.1h.08l.38 1.1h-3.45l-.2-.58a.34.34 0 1 0 0-.67h-1.19a.33.33 0 0 0-.33.28v.07a.52.52 0 0 0 .56.45.62.62 0 0 0 .37-.12h.06l.3.76-.93 1.22a2.74 2.74 0 1 0 1.24 2.6h1a.3.3 0 0 0 .18.06.3.3 0 0 0 .3-.3l2.34-3.08.18.52a2.74 2.74 0 1 0 1.12-.24zm-5.23-.24l1 2.8h-.83a2.73 2.73 0 0 0-.87-1.83zm-2.6 2.45h.13l-.23.3a.23.23 0 0 0-.13.21.23.23 0 0 0 0 .16.24.24 0 0 0 .21.13h.43a.58.58 0 0 1-.05.08.54.54 0 1 1-.38-.92zm.69.36a.74.74 0 0 0-.08-.19l1-1.26a2.25 2.25 0 0 1 .68 1.45zm-.69 2.44a2.26 2.26 0 0 1 0-4.53 2.24 2.24 0 0 1 1.19.35l-.95 1.25a.7.7 0 0 0-.24 0 .71.71 0 0 0-.66.44.7.7 0 0 0-.06.28.71.71 0 0 0 1.36.3h1.59a2.26 2.26 0 0 1-2.23 1.91zm4-2.7l-1-2.8h3.09zm3.86 2.7a2.26 2.26 0 0 1-1-4.31L183 53a.71.71 0 1 0 .45-.16l-.51-1.49a2.26 2.26 0 1 1 .51 4.46zm-.21-2.13a.24.24 0 0 0 .23.16h.08a.24.24 0 0 0 .15-.3.21.21 0 0 0 0-.07l-.14-.41a.53.53 0 0 1 .47.53.54.54 0 1 1-.92-.37z" id="_Grupo_3" data-name="&amp;lt;Grupo&amp;gt;"/><path class="cls-1" d="M183.42 50.79a2.73 2.73 0 0 0-.67.09l-.85-2.48a.24.24 0 0 0-.23-.16h-.25a.22.22 0 0 0-.18-.1h-.79a.22.22 0 0 0-.22.22v.23a.22.22 0 0 0 .22.22h.79a.22.22 0 0 0 .18-.1h.08l.38 1.1h-2.38v.48h2.18l-2.13 2.8v.78a.3.3 0 0 0 .2-.28l2.34-3.08.18.52a2.74 2.74 0 1 0 1.12-.24zm0 5a2.26 2.26 0 0 1-1-4.31L183 53a.71.71 0 1 0 .45-.16l-.51-1.49a2.26 2.26 0 1 1 .51 4.46zm.24-2.28a.27.27 0 0 0 0-.07l-.14-.41a.53.53 0 0 1 .47.53.54.54 0 1 1-.92-.37l.17.51a.24.24 0 0 0 .23.16h.08a.24.24 0 0 0 .11-.34z"/><path class="cls-2" d="M124.68 18.83l-24.23 37.44h49.88l-25.65-37.44z"/><path class="cls-1" d="M124.68 18.83l.12 37.44h25.53l-25.65-37.44z"/><path class="cls-5" d="M124.66 18.83l-4.31 6.69h8.92l-4.61-6.69z"/><path class="cls-2" d="M124.69 18.83l-.01 6.69h4.59l-4.58-6.69z"/><path id="_Trazado_12" data-name="&amp;lt;Trazado&amp;gt;" class="cls-5" d="M107.51 31.87H123a1.28 1.28 0 0 0-1.64-1.06 3.7 3.7 0 0 0-3.58-2.67 4 4 0 0 0-2.55.92 2.71 2.71 0 0 0-1.68-.5 2.62 2.62 0 0 0-2.32 1.23 2.87 2.87 0 0 0-3.72 2.08z"/><path id="_Trazado_13" data-name="&amp;lt;Trazado&amp;gt;" class="cls-9" d="M0 56.27a121.27 121.27 0 0 0 97.5 49 121.27 121.27 0 0 0 97.5-49z"/><path class="cls-10" d="M170.84 65.46c-6.57 0-8.08-3.72-17.71-3.72-9.11 0-8.81 3.79-20 3.72-9.72-.06-12.76-3.61-20.26-3.61-8.72 0-12.37 3.61-18.23 3.61-13.17 0-15-3.72-22.71-3.72-9.85 0-10.72 3.69-19 3.74-6.43 0-8.38-3.74-17-3.74-8.38 0-10.61 3.86-19 3.86-4.33 0-12.6-3.86-12.6-3.86 7.5 9.31 18.63 18 18.63 18 4.08-1.13 7.14-3.09 13-3.09 8.62 0 10.57 3.78 17 3.74 8.24 0 9.11-3.74 19-3.74 7.74 0 9.54 3.72 22.71 3.72 5.86 0 9.51-3.61 18.23-3.61 7.5 0 10.55 3.55 20.26 3.61 11.2.07 10.91-3.72 20-3.72 9.63 0 11.14 3.72 17.71 3.72h.41a125.63 125.63 0 0 0 19-18.06 67.53 67.53 0 0 1-19.44 3.15z"/><path class="cls-2" d="M153.13 76.63c-9.11 0-8.81 3.79-20 3.72-9.72-.06-12.76-3.61-20.26-3.61-8.72 0-12.37 3.61-18.23 3.61-13.17 0-15-3.72-22.71-3.72-9.85 0-10.72 3.69-19 3.74-6.43 0-8.38-3.74-17-3.74-5.87 0-8.73 1.89-12.81 3 .09.07-.29 0-.2.07 21.62 17.2 46 25.57 74.88 25.57a118.83 118.83 0 0 0 73.43-25h-.41c-6.55.08-8.05-3.64-17.69-3.64z"/></g></g></svg>