<svg xmlns="http://www.w3.org/2000/svg" viewBox="0 0 191 55.58"><defs><style>.cls-1{fill:#7abc39}.cls-2{opacity:.5}.cls-3{fill:#5ca126}.cls-4{fill:#8cd145}.cls-5{opacity:.3}.cls-6{fill:#b6e436}.cls-7{fill:#7ac7fa}.cls-8{fill:#5e9df3}.cls-9{fill:#b8e636}.cls-10{fill:#92d03f}.cls-11{fill:#7bbe39}.cls-12{fill:#7bc9fc}.cls-13{fill:#60a1f7}.cls-14{fill:#4d82f5}.cls-15{opacity:.6}</style></defs><title>Recurso 8</title><g id="Capa_2" data-name="Capa 2"><g id="Capa_1-2" data-name="Capa 1"><path class="cls-1" d="M136.68 43.6L191 44.84a8.08 8.08 0 0 1-2.73 5.54c-2.74 2.17-5.82.29-13.88 3.51-9 3.59-14.16.4-17.75 0s-5.84.68-9.29 1.09-4.86-2.69-8-4.12c-4.04-1.86-3.25-5.75-2.67-7.26z"/><path class="cls-2 cls-3" d="M172.95 41.25c-18.45-2.64-16.17-5.6-36.27 2.35 0 0-1.29 4 1.51 5.27 3.13 1.38 5 4.9 8.44 4.49s6.74-2.28 10.33-1.89 8.58 3.94 17.57.34c6.54-2.61 11.43-1.5 14.5-2.15a8.41 8.41 0 0 0 2-4.81 184 184 0 0 0-18.08-3.6z"/><path class="cls-4" d="M141.28 49.64a7.47 7.47 0 0 0 3.55 1.11 18.17 18.17 0 0 1 4.85-.66c2.32.17 5.53 1.33 7.87 1s4.59-1.18 7-.92 6 2.07 12.08-.37c5.49-2.19 9.65-.38 11.7-1.58a6.15 6.15 0 0 0 2.67-3.38s-31.27-10.36-54.32-1.24c0 0-1.51 2.97 4.6 6.04z"/><path class="cls-3" d="M136.68 43.6s-3.33 7.2 31.76 6.07c13.64-.44 22.75-4.58 22.56-4.83-2.37-3.14-9.9-13.71-27.62-13.71-12.75 0-20.38 4.12-26.7 12.47z"/><path class="cls-5 cls-6" d="M137.85 46.14c10-12.59 21-15.65 29.47-14.82 0 0 3.75.34 2.74.36C153.19 32 142.12 48 142.12 48a9.34 9.34 0 0 1-4.27-1.86zM155.07 49.67s10.78-16 24.5-14.86l2.43 1.38s-11.87-1.05-21.06 13.6c.01 0-3.94 0-5.87-.12z"/><path class="cls-5 cls-6" d="M176.4 33.38l-2.48-.79c-11.78-.9-24.45 10.08-28 16.23 0 0 1.68.25 2.26.31l2.9.3c13.84-17.79 25.32-16.05 25.32-16.05zM184.59 38s-9.66-.72-18.8 11.76l5.41-.26s8.75-10.32 15.14-10c-.01.03-1.08-.95-1.75-1.5zM188.42 41.64s-5.86.72-10.41 7.08c0 0 3.67-.68 5.12-1.06a13.73 13.73 0 0 1 6.3-4.85 4.88 4.88 0 0 0-1.01-1.17z"/><path class="cls-6" d="M153 36.06a.9.9 0 0 0 .26-.15.66.66 0 0 0 .24-.56 2.92 2.92 0 0 0-.61-1.28 2.92 2.92 0 0 0-.46 1.34.66.66 0 0 0 .3.53.91.91 0 0 0 .27.12z" id="_Grupo_" data-name="&amp;lt;Grupo&amp;gt;"/><path class="cls-4" d="M153 36.06a.9.9 0 0 0 .26-.15.66.66 0 0 0 .24-.56 2.92 2.92 0 0 0-.61-1.28z" id="_Grupo_2" data-name="&amp;lt;Grupo&amp;gt;"/><path class="cls-6" d="M150.9 37.58a1 1 0 0 0 .27-.16.7.7 0 0 0 .25-.6 3.09 3.09 0 0 0-.64-1.35 3.08 3.08 0 0 0-.49 1.41.7.7 0 0 0 .32.56 1 1 0 0 0 .29.14z" id="_Grupo_3" data-name="&amp;lt;Grupo&amp;gt;"/><path class="cls-4" d="M150.9 37.58a1 1 0 0 0 .27-.16.7.7 0 0 0 .25-.6 3.09 3.09 0 0 0-.64-1.35z" id="_Grupo_4" data-name="&amp;lt;Grupo&amp;gt;"/><path class="cls-6" d="M148.57 39.29a1 1 0 0 0 .28-.17.73.73 0 0 0 .26-.62 3.21 3.21 0 0 0-.67-1.4 3.21 3.21 0 0 0-.51 1.47.73.73 0 0 0 .33.59 1 1 0 0 0 .31.13z" id="_Grupo_5" data-name="&amp;lt;Grupo&amp;gt;"/><path class="cls-4" d="M148.57 39.29a1 1 0 0 0 .28-.17.73.73 0 0 0 .26-.62 3.21 3.21 0 0 0-.67-1.4z" id="_Grupo_6" data-name="&amp;lt;Grupo&amp;gt;"/><path class="cls-6" d="M146 41.29a1 1 0 0 0 .29-.17.74.74 0 0 0 .27-.63 3.26 3.26 0 0 0-.68-1.43 3.26 3.26 0 0 0-.51 1.49.74.74 0 0 0 .34.6 1 1 0 0 0 .29.14z" id="_Grupo_7" data-name="&amp;lt;Grupo&amp;gt;"/><path class="cls-4" d="M146 41.29a1 1 0 0 0 .29-.17.74.74 0 0 0 .27-.63 3.26 3.26 0 0 0-.68-1.43z" id="_Grupo_8" data-name="&amp;lt;Grupo&amp;gt;"/><path class="cls-6" d="M143.48 43.71a1 1 0 0 0 .29-.17.75.75 0 0 0 .27-.63 3.28 3.28 0 0 0-.68-1.43 3.27 3.27 0 0 0-.52 1.5.75.75 0 0 0 .34.6 1 1 0 0 0 .3.13z" id="_Grupo_9" data-name="&amp;lt;Grupo&amp;gt;"/><path class="cls-4" d="M143.48 43.71a1 1 0 0 0 .29-.17.75.75 0 0 0 .27-.63 3.28 3.28 0 0 0-.68-1.43z" id="_Grupo_10" data-name="&amp;lt;Grupo&amp;gt;"/><path class="cls-6" d="M141.06 46.25a1 1 0 0 0 .29-.18.76.76 0 0 0 .27-.65 3.35 3.35 0 0 0-.7-1.46 3.34 3.34 0 0 0-.53 1.53.76.76 0 0 0 .34.61 1 1 0 0 0 .33.15z" id="_Grupo_11" data-name="&amp;lt;Grupo&amp;gt;"/><path class="cls-4" d="M141.06 46.25a1 1 0 0 0 .29-.18.76.76 0 0 0 .27-.65 3.35 3.35 0 0 0-.7-1.46z" id="_Grupo_12" data-name="&amp;lt;Grupo&amp;gt;"/><path class="cls-6" d="M155.37 34.85a.9.9 0 0 0 .26-.15.66.66 0 0 0 .24-.56 2.92 2.92 0 0 0-.61-1.28 2.92 2.92 0 0 0-.46 1.34.66.66 0 0 0 .3.53.9.9 0 0 0 .27.12z" id="_Grupo_13" data-name="&amp;lt;Grupo&amp;gt;"/><path class="cls-4" d="M155.37 34.85a.9.9 0 0 0 .26-.15.66.66 0 0 0 .24-.56 2.92 2.92 0 0 0-.61-1.28z" id="_Grupo_14" data-name="&amp;lt;Grupo&amp;gt;"/><path class="cls-6" d="M157.6 33.87a.91.91 0 0 0 .26-.15.66.66 0 0 0 .24-.56 2.92 2.92 0 0 0-.61-1.28 2.92 2.92 0 0 0-.46 1.34.66.66 0 0 0 .3.53.91.91 0 0 0 .27.12z" id="_Grupo_15" data-name="&amp;lt;Grupo&amp;gt;"/><path class="cls-4" d="M157.6 33.87a.91.91 0 0 0 .26-.15.66.66 0 0 0 .24-.56 2.92 2.92 0 0 0-.61-1.28z" id="_Grupo_16" data-name="&amp;lt;Grupo&amp;gt;"/><path class="cls-6" d="M160 32.93a.82.82 0 0 0 .24-.14.61.61 0 0 0 .22-.52 2.69 2.69 0 0 0-.56-1.18 2.68 2.68 0 0 0-.42 1.23.61.61 0 0 0 .28.49.83.83 0 0 0 .24.12z" id="_Grupo_17" data-name="&amp;lt;Grupo&amp;gt;"/><path class="cls-4" d="M160 32.93a.82.82 0 0 0 .24-.14.61.61 0 0 0 .22-.52 2.69 2.69 0 0 0-.56-1.18z" id="_Grupo_18" data-name="&amp;lt;Grupo&amp;gt;"/><path class="cls-6" d="M162.59 32.23a.73.73 0 0 0 .21-.12.53.53 0 0 0 .19-.45 2.35 2.35 0 0 0-.49-1 2.35 2.35 0 0 0-.37 1.08.53.53 0 0 0 .24.43.73.73 0 0 0 .22.06z" id="_Grupo_19" data-name="&amp;lt;Grupo&amp;gt;"/><path class="cls-4" d="M162.59 32.23a.73.73 0 0 0 .21-.12.53.53 0 0 0 .19-.45 2.35 2.35 0 0 0-.49-1z" id="_Grupo_20" data-name="&amp;lt;Grupo&amp;gt;"/><path class="cls-6" d="M164.88 31.78a.74.74 0 0 0 .21-.12.54.54 0 0 0 .19-.45 2.36 2.36 0 0 0-.49-1 2.35 2.35 0 0 0-.37 1.08.54.54 0 0 0 .24.43.74.74 0 0 0 .22.06z" id="_Grupo_21" data-name="&amp;lt;Grupo&amp;gt;"/><path class="cls-4" d="M164.88 31.78a.74.74 0 0 0 .21-.12.54.54 0 0 0 .19-.45 2.36 2.36 0 0 0-.49-1z" id="_Grupo_22" data-name="&amp;lt;Grupo&amp;gt;"/><path class="cls-6" d="M167.46 31.56a.72.72 0 0 0 .2-.12.53.53 0 0 0 .19-.45 2.35 2.35 0 0 0-.49-1A2.34 2.34 0 0 0 167 31a.53.53 0 0 0 .24.43.73.73 0 0 0 .22.13z" id="_Grupo_23" data-name="&amp;lt;Grupo&amp;gt;"/><path class="cls-4" d="M167.46 31.56a.72.72 0 0 0 .2-.12.53.53 0 0 0 .19-.45 2.35 2.35 0 0 0-.49-1z" id="_Grupo_24" data-name="&amp;lt;Grupo&amp;gt;"/><path class="cls-6" d="M146.64 36a.9.9 0 0 0 .26-.15.66.66 0 0 0 .24-.56 2.93 2.93 0 0 0-.61-1.28 2.92 2.92 0 0 0-.46 1.34.66.66 0 0 0 .3.53.91.91 0 0 0 .27.12z" id="_Grupo_25" data-name="&amp;lt;Grupo&amp;gt;"/><path class="cls-4" d="M146.64 36a.9.9 0 0 0 .26-.15.66.66 0 0 0 .24-.56 2.93 2.93 0 0 0-.61-1.28z" id="_Grupo_26" data-name="&amp;lt;Grupo&amp;gt;"/><path class="cls-6" d="M144.4 37.84a1 1 0 0 0 .27-.16.7.7 0 0 0 .25-.6 3.09 3.09 0 0 0-.64-1.35 3.08 3.08 0 0 0-.49 1.41.7.7 0 0 0 .32.56 1 1 0 0 0 .29.14z" id="_Grupo_27" data-name="&amp;lt;Grupo&amp;gt;"/><path class="cls-4" d="M144.4 37.84a1 1 0 0 0 .27-.16.7.7 0 0 0 .25-.6 3.09 3.09 0 0 0-.64-1.35z" id="_Grupo_28" data-name="&amp;lt;Grupo&amp;gt;"/><path class="cls-6" d="M142.17 39.49a1 1 0 0 0 .28-.17.73.73 0 0 0 .26-.62 3.22 3.22 0 0 0-.67-1.4 3.21 3.21 0 0 0-.51 1.47.73.73 0 0 0 .33.59 1 1 0 0 0 .31.13z" id="_Grupo_29" data-name="&amp;lt;Grupo&amp;gt;"/><path class="cls-4" d="M142.17 39.49a1 1 0 0 0 .28-.17.73.73 0 0 0 .26-.62 3.22 3.22 0 0 0-.67-1.4z" id="_Grupo_30" data-name="&amp;lt;Grupo&amp;gt;"/><path class="cls-6" d="M140 41.42a1 1 0 0 0 .29-.17.74.74 0 0 0 .27-.63 3.26 3.26 0 0 0-.68-1.43 3.26 3.26 0 0 0-.51 1.49.74.74 0 0 0 .34.6 1 1 0 0 0 .29.14z" id="_Grupo_31" data-name="&amp;lt;Grupo&amp;gt;"/><path class="cls-4" d="M140 41.42a1 1 0 0 0 .29-.17.74.74 0 0 0 .27-.63 3.26 3.26 0 0 0-.68-1.43z" id="_Grupo_32" data-name="&amp;lt;Grupo&amp;gt;"/><path class="cls-6" d="M138 43.71a1 1 0 0 0 .29-.17.75.75 0 0 0 .27-.63 3.28 3.28 0 0 0-.68-1.43 3.27 3.27 0 0 0-.52 1.5.74.74 0 0 0 .34.6 1 1 0 0 0 .3.13z" id="_Grupo_33" data-name="&amp;lt;Grupo&amp;gt;"/><path class="cls-4" d="M138 43.71a1 1 0 0 0 .29-.17.75.75 0 0 0 .27-.63 3.28 3.28 0 0 0-.68-1.43z" id="_Grupo_34" data-name="&amp;lt;Grupo&amp;gt;"/><path class="cls-6" d="M148.84 35.15a.91.91 0 0 0 .26-.15.66.66 0 0 0 .24-.56 2.93 2.93 0 0 0-.61-1.28 2.92 2.92 0 0 0-.46 1.34.66.66 0 0 0 .3.53.91.91 0 0 0 .27.12z" id="_Grupo_35" data-name="&amp;lt;Grupo&amp;gt;"/><path class="cls-4" d="M148.84 35.15a.91.91 0 0 0 .26-.15.66.66 0 0 0 .24-.56 2.93 2.93 0 0 0-.61-1.28z" id="_Grupo_36" data-name="&amp;lt;Grupo&amp;gt;"/><path class="cls-6" d="M151.07 34a.92.92 0 0 0 .26-.15.66.66 0 0 0 .24-.56A2.92 2.92 0 0 0 151 32a2.93 2.93 0 0 0-.46 1.34.66.66 0 0 0 .3.53.91.91 0 0 0 .23.13z" id="_Grupo_37" data-name="&amp;lt;Grupo&amp;gt;"/><path class="cls-4" d="M151.07 34a.92.92 0 0 0 .26-.15.66.66 0 0 0 .24-.56A2.92 2.92 0 0 0 151 32z" id="_Grupo_38" data-name="&amp;lt;Grupo&amp;gt;"/><path class="cls-6" d="M153.5 33a.83.83 0 0 0 .24-.14.61.61 0 0 0 .22-.52 2.69 2.69 0 0 0-.56-1.18 2.69 2.69 0 0 0-.42 1.23.61.61 0 0 0 .28.49.83.83 0 0 0 .24.12z" id="_Grupo_39" data-name="&amp;lt;Grupo&amp;gt;"/><path class="cls-4" d="M153.5 33a.83.83 0 0 0 .24-.14.61.61 0 0 0 .22-.52 2.69 2.69 0 0 0-.56-1.18z" id="_Grupo_40" data-name="&amp;lt;Grupo&amp;gt;"/><path class="cls-6" d="M156 32.13a.74.74 0 0 0 .21-.11.53.53 0 0 0 .22-.44 2.36 2.36 0 0 0-.42-1.06 2.35 2.35 0 0 0-.45 1 .53.53 0 0 0 .21.45.73.73 0 0 0 .23.16z" id="_Grupo_41" data-name="&amp;lt;Grupo&amp;gt;"/><path class="cls-4" d="M156 32.13a.74.74 0 0 0 .21-.11.53.53 0 0 0 .22-.44 2.36 2.36 0 0 0-.42-1.06z" id="_Grupo_42" data-name="&amp;lt;Grupo&amp;gt;"/><path class="cls-6" d="M158.61 31.68a.74.74 0 0 0 .21-.12.54.54 0 0 0 .19-.45 2.36 2.36 0 0 0-.49-1 2.35 2.35 0 0 0-.37 1.08.54.54 0 0 0 .24.43.74.74 0 0 0 .22.06z" id="_Grupo_43" data-name="&amp;lt;Grupo&amp;gt;"/><path class="cls-4" d="M158.61 31.68a.74.74 0 0 0 .21-.12.54.54 0 0 0 .19-.45 2.36 2.36 0 0 0-.49-1z" id="_Grupo_44" data-name="&amp;lt;Grupo&amp;gt;"/><path class="cls-6" d="M160.9 31.33a.75.75 0 0 0 .21-.12.54.54 0 0 0 .19-.45 2.36 2.36 0 0 0-.49-1 2.35 2.35 0 0 0-.37 1.08.54.54 0 0 0 .24.43.75.75 0 0 0 .22.06z" id="_Grupo_45" data-name="&amp;lt;Grupo&amp;gt;"/><path class="cls-4" d="M160.9 31.33a.75.75 0 0 0 .21-.12.54.54 0 0 0 .19-.45 2.36 2.36 0 0 0-.49-1z" id="_Grupo_46" data-name="&amp;lt;Grupo&amp;gt;"/><path class="cls-6" d="M156.65 37a.9.9 0 0 0 .26-.15.66.66 0 0 0 .24-.56 2.93 2.93 0 0 0-.61-1.28 2.92 2.92 0 0 0-.46 1.34.66.66 0 0 0 .3.53.9.9 0 0 0 .27.12z" id="_Grupo_47" data-name="&amp;lt;Grupo&amp;gt;"/><path class="cls-4" d="M156.65 37a.9.9 0 0 0 .26-.15.66.66 0 0 0 .24-.56 2.93 2.93 0 0 0-.61-1.28z" id="_Grupo_48" data-name="&amp;lt;Grupo&amp;gt;"/><path class="cls-6" d="M159.13 35.64a.92.92 0 0 0 .26-.15.66.66 0 0 0 .24-.56 2.92 2.92 0 0 0-.61-1.28 2.92 2.92 0 0 0-.46 1.34.66.66 0 0 0 .3.53.92.92 0 0 0 .27.12z" id="_Grupo_49" data-name="&amp;lt;Grupo&amp;gt;"/><path class="cls-4" d="M159.13 35.64a.92.92 0 0 0 .26-.15.66.66 0 0 0 .24-.56 2.92 2.92 0 0 0-.61-1.28z" id="_Grupo_50" data-name="&amp;lt;Grupo&amp;gt;"/><path class="cls-6" d="M161.37 34.65a.91.91 0 0 0 .26-.15.66.66 0 0 0 .24-.56 2.92 2.92 0 0 0-.61-1.28 2.92 2.92 0 0 0-.46 1.34.66.66 0 0 0 .3.53.91.91 0 0 0 .27.12z" id="_Grupo_51" data-name="&amp;lt;Grupo&amp;gt;"/><path class="cls-4" d="M161.37 34.65a.91.91 0 0 0 .26-.15.66.66 0 0 0 .24-.56 2.92 2.92 0 0 0-.61-1.28z" id="_Grupo_52" data-name="&amp;lt;Grupo&amp;gt;"/><path class="cls-6" d="M163.79 33.72a.84.84 0 0 0 .24-.14.61.61 0 0 0 .22-.52 2.69 2.69 0 0 0-.56-1.18 2.69 2.69 0 0 0-.42 1.23.61.61 0 0 0 .28.49.84.84 0 0 0 .24.12z" id="_Grupo_53" data-name="&amp;lt;Grupo&amp;gt;"/><path class="cls-4" d="M163.79 33.72a.84.84 0 0 0 .24-.14.61.61 0 0 0 .22-.52 2.69 2.69 0 0 0-.56-1.18z" id="_Grupo_54" data-name="&amp;lt;Grupo&amp;gt;"/><path class="cls-6" d="M166.35 33a.73.73 0 0 0 .21-.12.53.53 0 0 0 .19-.45 2.35 2.35 0 0 0-.49-1 2.35 2.35 0 0 0-.37 1.08.53.53 0 0 0 .24.43.73.73 0 0 0 .22.06z" id="_Grupo_55" data-name="&amp;lt;Grupo&amp;gt;"/><path class="cls-4" d="M166.35 33a.73.73 0 0 0 .21-.12.53.53 0 0 0 .19-.45 2.35 2.35 0 0 0-.49-1z" id="_Grupo_56" data-name="&amp;lt;Grupo&amp;gt;"/><path class="cls-6" d="M168.9 32.53a.73.73 0 0 0 .21-.12.54.54 0 0 0 .19-.45 2.36 2.36 0 0 0-.49-1 2.35 2.35 0 0 0-.37 1.08.54.54 0 0 0 .24.43.73.73 0 0 0 .22.06z" id="_Grupo_57" data-name="&amp;lt;Grupo&amp;gt;"/><path class="cls-4" d="M168.9 32.53a.73.73 0 0 0 .21-.12.54.54 0 0 0 .19-.45 2.36 2.36 0 0 0-.49-1z" id="_Grupo_58" data-name="&amp;lt;Grupo&amp;gt;"/><path class="cls-6" d="M171.23 32.34a.73.73 0 0 0 .2-.12.53.53 0 0 0 .19-.45 2.34 2.34 0 0 0-.49-1 2.34 2.34 0 0 0-.37 1.07.53.53 0 0 0 .24.43.73.73 0 0 0 .23.07z" id="_Grupo_59" data-name="&amp;lt;Grupo&amp;gt;"/><path class="cls-4" d="M171.23 32.34a.73.73 0 0 0 .2-.12.53.53 0 0 0 .19-.45 2.34 2.34 0 0 0-.49-1z" id="_Grupo_60" data-name="&amp;lt;Grupo&amp;gt;"/><path class="cls-6" d="M154.48 38.55a.9.9 0 0 0 .26-.15.66.66 0 0 0 .24-.56 2.93 2.93 0 0 0-.61-1.28 2.92 2.92 0 0 0-.46 1.34.66.66 0 0 0 .3.53.92.92 0 0 0 .27.12z" id="_Grupo_61" data-name="&amp;lt;Grupo&amp;gt;"/><path class="cls-4" d="M154.48 38.55a.9.9 0 0 0 .26-.15.66.66 0 0 0 .24-.56 2.93 2.93 0 0 0-.61-1.28z" id="_Grupo_62" data-name="&amp;lt;Grupo&amp;gt;"/><path class="cls-6" d="M152 40.54a1 1 0 0 0 .27-.16.7.7 0 0 0 .25-.6 3.09 3.09 0 0 0-.64-1.35 3.08 3.08 0 0 0-.49 1.41.7.7 0 0 0 .32.56 1 1 0 0 0 .29.14z" id="_Grupo_63" data-name="&amp;lt;Grupo&amp;gt;"/><path class="cls-4" d="M152 40.54a1 1 0 0 0 .27-.16.7.7 0 0 0 .25-.6 3.09 3.09 0 0 0-.64-1.35z" id="_Grupo_64" data-name="&amp;lt;Grupo&amp;gt;"/><path class="cls-6" d="M149.66 42.65a1 1 0 0 0 .28-.17.73.73 0 0 0 .26-.62 3.21 3.21 0 0 0-.67-1.4 3.21 3.21 0 0 0-.51 1.47.73.73 0 0 0 .33.59 1 1 0 0 0 .31.13z" id="_Grupo_65" data-name="&amp;lt;Grupo&amp;gt;"/><path class="cls-4" d="M149.66 42.65a1 1 0 0 0 .28-.17.73.73 0 0 0 .26-.62 3.21 3.21 0 0 0-.67-1.4z" id="_Grupo_66" data-name="&amp;lt;Grupo&amp;gt;"/><path class="cls-6" d="M147.39 45.14a1 1 0 0 0 .29-.17.74.74 0 0 0 .27-.63 3.27 3.27 0 0 0-.68-1.43 3.26 3.26 0 0 0-.51 1.49.74.74 0 0 0 .34.6 1 1 0 0 0 .29.14z" id="_Grupo_67" data-name="&amp;lt;Grupo&amp;gt;"/><path class="cls-4" d="M147.39 45.14a1 1 0 0 0 .29-.17.74.74 0 0 0 .27-.63 3.27 3.27 0 0 0-.68-1.43z" id="_Grupo_68" data-name="&amp;lt;Grupo&amp;gt;"/><path class="cls-6" d="M145.33 47.78a1 1 0 0 0 .29-.17.75.75 0 0 0 .27-.63 3.28 3.28 0 0 0-.68-1.43 3.27 3.27 0 0 0-.52 1.5.75.75 0 0 0 .34.6 1 1 0 0 0 .3.13z" id="_Grupo_69" data-name="&amp;lt;Grupo&amp;gt;"/><path class="cls-4" d="M145.33 47.78a1 1 0 0 0 .29-.17.75.75 0 0 0 .27-.63 3.28 3.28 0 0 0-.68-1.43z" id="_Grupo_70" data-name="&amp;lt;Grupo&amp;gt;"/><path class="cls-6" d="M160.37 38a.9.9 0 0 0 .26-.15.66.66 0 0 0 .24-.56 2.93 2.93 0 0 0-.61-1.28 2.92 2.92 0 0 0-.46 1.34.66.66 0 0 0 .3.53.91.91 0 0 0 .27.12z" id="_Grupo_71" data-name="&amp;lt;Grupo&amp;gt;"/><path class="cls-4" d="M160.37 38a.9.9 0 0 0 .26-.15.66.66 0 0 0 .24-.56 2.93 2.93 0 0 0-.61-1.28z" id="_Grupo_72" data-name="&amp;lt;Grupo&amp;gt;"/><path class="cls-6" d="M158.51 39.54a.89.89 0 0 0 .26-.15.66.66 0 0 0 .24-.56 2.92 2.92 0 0 0-.61-1.28 2.92 2.92 0 0 0-.46 1.34.66.66 0 0 0 .3.53.9.9 0 0 0 .27.12z" id="_Grupo_73" data-name="&amp;lt;Grupo&amp;gt;"/><path class="cls-4" d="M158.51 39.54a.89.89 0 0 0 .26-.15.66.66 0 0 0 .24-.56 2.92 2.92 0 0 0-.61-1.28z" id="_Grupo_74" data-name="&amp;lt;Grupo&amp;gt;"/><path class="cls-6" d="M162.74 36.62a.9.9 0 0 0 .26-.15.66.66 0 0 0 .24-.56 2.93 2.93 0 0 0-.61-1.28 2.92 2.92 0 0 0-.46 1.34.66.66 0 0 0 .3.53.91.91 0 0 0 .27.12z" id="_Grupo_75" data-name="&amp;lt;Grupo&amp;gt;"/><path class="cls-4" d="M162.74 36.62a.9.9 0 0 0 .26-.15.66.66 0 0 0 .24-.56 2.93 2.93 0 0 0-.61-1.28z" id="_Grupo_76" data-name="&amp;lt;Grupo&amp;gt;"/><path class="cls-6" d="M165 35.63a.9.9 0 0 0 .26-.15.66.66 0 0 0 .24-.56 2.93 2.93 0 0 0-.61-1.28 2.92 2.92 0 0 0-.49 1.36.66.66 0 0 0 .3.53.91.91 0 0 0 .3.1z" id="_Grupo_77" data-name="&amp;lt;Grupo&amp;gt;"/><path class="cls-4" d="M165 35.63a.9.9 0 0 0 .26-.15.66.66 0 0 0 .24-.56 2.93 2.93 0 0 0-.61-1.28z" id="_Grupo_78" data-name="&amp;lt;Grupo&amp;gt;"/><path class="cls-6" d="M167.4 34.7a.83.83 0 0 0 .24-.14.61.61 0 0 0 .22-.52 2.69 2.69 0 0 0-.56-1.18 2.69 2.69 0 0 0-.42 1.23.61.61 0 0 0 .28.49.83.83 0 0 0 .24.12z" id="_Grupo_79" data-name="&amp;lt;Grupo&amp;gt;"/><path class="cls-4" d="M167.4 34.7a.83.83 0 0 0 .24-.14.61.61 0 0 0 .22-.52 2.69 2.69 0 0 0-.56-1.18z" id="_Grupo_80" data-name="&amp;lt;Grupo&amp;gt;"/><path class="cls-6" d="M170 34a.73.73 0 0 0 .21-.12.53.53 0 0 0 .19-.45 2.35 2.35 0 0 0-.49-1 2.35 2.35 0 0 0-.37 1.08.53.53 0 0 0 .24.43.74.74 0 0 0 .22.06z" id="_Grupo_81" data-name="&amp;lt;Grupo&amp;gt;"/><path class="cls-4" d="M170 34a.73.73 0 0 0 .21-.12.53.53 0 0 0 .19-.45 2.35 2.35 0 0 0-.49-1z" id="_Grupo_82" data-name="&amp;lt;Grupo&amp;gt;"/><path class="cls-6" d="M172.51 33.51a.74.74 0 0 0 .21-.12.54.54 0 0 0 .19-.45 2.35 2.35 0 0 0-.49-1 2.35 2.35 0 0 0-.37 1.08.54.54 0 0 0 .24.43.73.73 0 0 0 .22.06z" id="_Grupo_83" data-name="&amp;lt;Grupo&amp;gt;"/><path class="cls-4" d="M172.51 33.51a.74.74 0 0 0 .21-.12.54.54 0 0 0 .19-.45 2.35 2.35 0 0 0-.49-1z" id="_Grupo_84" data-name="&amp;lt;Grupo&amp;gt;"/><path class="cls-6" d="M174.83 33.32a.72.72 0 0 0 .2-.12.53.53 0 0 0 .19-.45 2.35 2.35 0 0 0-.49-1 2.34 2.34 0 0 0-.37 1.07.53.53 0 0 0 .24.43.72.72 0 0 0 .23.07z" id="_Grupo_85" data-name="&amp;lt;Grupo&amp;gt;"/><path class="cls-4" d="M174.83 33.32a.72.72 0 0 0 .2-.12.53.53 0 0 0 .19-.45 2.35 2.35 0 0 0-.49-1z" id="_Grupo_86" data-name="&amp;lt;Grupo&amp;gt;"/><path class="cls-6" d="M156.41 41.67a1 1 0 0 0 .28-.17.73.73 0 0 0 .26-.62 3.22 3.22 0 0 0-.67-1.4 3.21 3.21 0 0 0-.51 1.47.73.73 0 0 0 .33.59 1 1 0 0 0 .31.13z" id="_Grupo_87" data-name="&amp;lt;Grupo&amp;gt;"/><path class="cls-4" d="M156.41 41.67a1 1 0 0 0 .28-.17.73.73 0 0 0 .26-.62 3.22 3.22 0 0 0-.67-1.4z" id="_Grupo_88" data-name="&amp;lt;Grupo&amp;gt;"/><path class="cls-6" d="M154 43.69a1 1 0 0 0 .29-.18.76.76 0 0 0 .27-.65 3.34 3.34 0 0 0-.69-1.46 3.34 3.34 0 0 0-.53 1.53.76.76 0 0 0 .34.61 1.05 1.05 0 0 0 .32.15z" id="_Grupo_89" data-name="&amp;lt;Grupo&amp;gt;"/><path class="cls-4" d="M154 43.69a1 1 0 0 0 .29-.18.76.76 0 0 0 .27-.65 3.34 3.34 0 0 0-.69-1.46z" id="_Grupo_90" data-name="&amp;lt;Grupo&amp;gt;"/><path class="cls-6" d="M152 46.06a1.05 1.05 0 0 0 .3-.18.77.77 0 0 0 .28-.66 3.39 3.39 0 0 0-.7-1.48 3.39 3.39 0 0 0-.53 1.55.77.77 0 0 0 .35.62 1.07 1.07 0 0 0 .3.15z" id="_Grupo_91" data-name="&amp;lt;Grupo&amp;gt;"/><path class="cls-4" d="M152 46.06a1.05 1.05 0 0 0 .3-.18.77.77 0 0 0 .28-.66 3.39 3.39 0 0 0-.7-1.48z" id="_Grupo_92" data-name="&amp;lt;Grupo&amp;gt;"/><path class="cls-6" d="M149.75 48.57a1 1 0 0 0 .3-.18.78.78 0 0 0 .28-.66 3.42 3.42 0 0 0-.71-1.49 3.41 3.41 0 0 0-.54 1.56.78.78 0 0 0 .35.62 1.06 1.06 0 0 0 .32.15z" id="_Grupo_93" data-name="&amp;lt;Grupo&amp;gt;"/><path class="cls-4" d="M149.75 48.57a1 1 0 0 0 .3-.18.78.78 0 0 0 .28-.66 3.42 3.42 0 0 0-.71-1.49z" id="_Grupo_94" data-name="&amp;lt;Grupo&amp;gt;"/><path class="cls-6" d="M162 40.57a.92.92 0 0 0 .26-.15.66.66 0 0 0 .24-.56 2.93 2.93 0 0 0-.61-1.28 2.92 2.92 0 0 0-.46 1.34.66.66 0 0 0 .3.53.91.91 0 0 0 .27.12z" id="_Grupo_95" data-name="&amp;lt;Grupo&amp;gt;"/><path class="cls-4" d="M162 40.57a.92.92 0 0 0 .26-.15.66.66 0 0 0 .24-.56 2.93 2.93 0 0 0-.61-1.28z" id="_Grupo_96" data-name="&amp;lt;Grupo&amp;gt;"/><path class="cls-6" d="M164.26 39a.9.9 0 0 0 .26-.15.66.66 0 0 0 .24-.56 2.93 2.93 0 0 0-.61-1.28 2.92 2.92 0 0 0-.46 1.34.66.66 0 0 0 .3.53.91.91 0 0 0 .27.12z" id="_Grupo_97" data-name="&amp;lt;Grupo&amp;gt;"/><path class="cls-4" d="M164.26 39a.9.9 0 0 0 .26-.15.66.66 0 0 0 .24-.56 2.93 2.93 0 0 0-.61-1.28z" id="_Grupo_98" data-name="&amp;lt;Grupo&amp;gt;"/><path class="cls-6" d="M166.61 37.59a.9.9 0 0 0 .26-.15.66.66 0 0 0 .24-.56 2.92 2.92 0 0 0-.61-1.28 2.92 2.92 0 0 0-.46 1.34.66.66 0 0 0 .3.53.9.9 0 0 0 .27.12z" id="_Grupo_99" data-name="&amp;lt;Grupo&amp;gt;"/><path class="cls-4" d="M166.61 37.59a.9.9 0 0 0 .26-.15.66.66 0 0 0 .24-.56 2.92 2.92 0 0 0-.61-1.28z" id="_Grupo_100" data-name="&amp;lt;Grupo&amp;gt;"/><path class="cls-6" d="M168.92 36.31a.84.84 0 0 0 .24-.14.61.61 0 0 0 .22-.52 2.69 2.69 0 0 0-.56-1.18 2.69 2.69 0 0 0-.42 1.23.61.61 0 0 0 .28.49.82.82 0 0 0 .24.12z" id="_Grupo_101" data-name="&amp;lt;Grupo&amp;gt;"/><path class="cls-4" d="M168.92 36.31a.84.84 0 0 0 .24-.14.61.61 0 0 0 .22-.52 2.69 2.69 0 0 0-.56-1.18z" id="_Grupo_102" data-name="&amp;lt;Grupo&amp;gt;"/><path class="cls-6" d="M171.6 35.38a.73.73 0 0 0 .21-.12.53.53 0 0 0 .19-.45 2.34 2.34 0 0 0-.49-1 2.35 2.35 0 0 0-.37 1.08.53.53 0 0 0 .24.43.72.72 0 0 0 .22.06z" id="_Grupo_103" data-name="&amp;lt;Grupo&amp;gt;"/><path class="cls-4" d="M171.6 35.38a.73.73 0 0 0 .21-.12.53.53 0 0 0 .19-.45 2.34 2.34 0 0 0-.49-1z" id="_Grupo_104" data-name="&amp;lt;Grupo&amp;gt;"/><path class="cls-6" d="M173.92 34.9a.73.73 0 0 0 .21-.12.53.53 0 0 0 .19-.45 2.35 2.35 0 0 0-.49-1 2.35 2.35 0 0 0-.37 1.08.54.54 0 0 0 .24.43.73.73 0 0 0 .22.06z" id="_Grupo_105" data-name="&amp;lt;Grupo&amp;gt;"/><path class="cls-4" d="M173.92 34.9a.73.73 0 0 0 .21-.12.53.53 0 0 0 .19-.45 2.35 2.35 0 0 0-.49-1z" id="_Grupo_106" data-name="&amp;lt;Grupo&amp;gt;"/><path class="cls-6" d="M176.81 34.26a.71.71 0 0 0 .2-.12.53.53 0 0 0 .19-.45 2.34 2.34 0 0 0-.49-1 2.33 2.33 0 0 0-.37 1.07.53.53 0 0 0 .24.43.71.71 0 0 0 .23.07z" id="_Grupo_107" data-name="&amp;lt;Grupo&amp;gt;"/><path class="cls-4" d="M176.81 34.26a.71.71 0 0 0 .2-.12.53.53 0 0 0 .19-.45 2.34 2.34 0 0 0-.49-1z" id="_Grupo_108" data-name="&amp;lt;Grupo&amp;gt;"/><path class="cls-6" d="M160 42.65a1 1 0 0 0 .27-.16.7.7 0 0 0 .25-.6 3.09 3.09 0 0 0-.64-1.35 3.08 3.08 0 0 0-.49 1.41.7.7 0 0 0 .32.56 1 1 0 0 0 .29.14z" id="_Grupo_109" data-name="&amp;lt;Grupo&amp;gt;"/><path class="cls-4" d="M160 42.65a1 1 0 0 0 .27-.16.7.7 0 0 0 .25-.6 3.09 3.09 0 0 0-.64-1.35z" id="_Grupo_110" data-name="&amp;lt;Grupo&amp;gt;"/><path class="cls-6" d="M158 44.55a1 1 0 0 0 .28-.17.73.73 0 0 0 .26-.62 3.21 3.21 0 0 0-.67-1.4 3.21 3.21 0 0 0-.51 1.47.73.73 0 0 0 .33.59 1 1 0 0 0 .31.13z" id="_Grupo_111" data-name="&amp;lt;Grupo&amp;gt;"/><path class="cls-4" d="M158 44.55a1 1 0 0 0 .28-.17.73.73 0 0 0 .26-.62 3.21 3.21 0 0 0-.67-1.4z" id="_Grupo_112" data-name="&amp;lt;Grupo&amp;gt;"/><path class="cls-6" d="M156 46.63a1 1 0 0 0 .29-.17.74.74 0 0 0 .27-.63 3.26 3.26 0 0 0-.68-1.43 3.26 3.26 0 0 0-.51 1.49.74.74 0 0 0 .34.6 1 1 0 0 0 .29.14z" id="_Grupo_113" data-name="&amp;lt;Grupo&amp;gt;"/><path class="cls-4" d="M156 46.63a1 1 0 0 0 .29-.17.74.74 0 0 0 .27-.63 3.26 3.26 0 0 0-.68-1.43z" id="_Grupo_114" data-name="&amp;lt;Grupo&amp;gt;"/><path class="cls-6" d="M153.9 49.08a1 1 0 0 0 .29-.17.75.75 0 0 0 .27-.63 3.28 3.28 0 0 0-.68-1.43 3.28 3.28 0 0 0-.52 1.5.74.74 0 0 0 .34.6 1 1 0 0 0 .3.13z" id="_Grupo_115" data-name="&amp;lt;Grupo&amp;gt;"/><path class="cls-4" d="M153.9 49.08a1 1 0 0 0 .29-.17.75.75 0 0 0 .27-.63 3.28 3.28 0 0 0-.68-1.43z" id="_Grupo_116" data-name="&amp;lt;Grupo&amp;gt;"/><path class="cls-6" d="M166.18 41.77a.9.9 0 0 0 .26-.15.66.66 0 0 0 .24-.56 2.92 2.92 0 0 0-.61-1.28 2.93 2.93 0 0 0-.46 1.34.66.66 0 0 0 .3.53.91.91 0 0 0 .27.12z" id="_Grupo_117" data-name="&amp;lt;Grupo&amp;gt;"/><path class="cls-4" d="M166.18 41.77a.9.9 0 0 0 .26-.15.66.66 0 0 0 .24-.56 2.92 2.92 0 0 0-.61-1.28z" id="_Grupo_118" data-name="&amp;lt;Grupo&amp;gt;"/><path class="cls-6" d="M164.09 43.6a.91.91 0 0 0 .26-.15.66.66 0 0 0 .24-.56 2.92 2.92 0 0 0-.59-1.29 2.92 2.92 0 0 0-.46 1.34.66.66 0 0 0 .3.53.9.9 0 0 0 .25.13z" id="_Grupo_119" data-name="&amp;lt;Grupo&amp;gt;"/><path class="cls-4" d="M164.09 43.6a.91.91 0 0 0 .26-.15.66.66 0 0 0 .24-.56 2.92 2.92 0 0 0-.59-1.29z" id="_Grupo_120" data-name="&amp;lt;Grupo&amp;gt;"/><path class="cls-6" d="M168.32 40a.9.9 0 0 0 .26-.15.66.66 0 0 0 .24-.56 2.92 2.92 0 0 0-.61-1.28 2.92 2.92 0 0 0-.46 1.34.66.66 0 0 0 .3.53.91.91 0 0 0 .27.12z" id="_Grupo_121" data-name="&amp;lt;Grupo&amp;gt;"/><path class="cls-4" d="M168.32 40a.9.9 0 0 0 .26-.15.66.66 0 0 0 .24-.56 2.92 2.92 0 0 0-.61-1.28z" id="_Grupo_122" data-name="&amp;lt;Grupo&amp;gt;"/><path class="cls-6" d="M170.56 38.67a.9.9 0 0 0 .26-.15.66.66 0 0 0 .24-.56 2.92 2.92 0 0 0-.61-1.28A2.92 2.92 0 0 0 170 38a.67.67 0 0 0 .3.53.9.9 0 0 0 .26.14z" id="_Grupo_123" data-name="&amp;lt;Grupo&amp;gt;"/><path class="cls-4" d="M170.56 38.67a.9.9 0 0 0 .26-.15.66.66 0 0 0 .24-.56 2.92 2.92 0 0 0-.61-1.28z" id="_Grupo_124" data-name="&amp;lt;Grupo&amp;gt;"/><path class="cls-6" d="M173 37.4a.84.84 0 0 0 .24-.14.61.61 0 0 0 .22-.52 2.7 2.7 0 0 0-.56-1.18 2.69 2.69 0 0 0-.42 1.23.61.61 0 0 0 .28.49.83.83 0 0 0 .24.12z" id="_Grupo_125" data-name="&amp;lt;Grupo&amp;gt;"/><path class="cls-4" d="M173 37.4a.84.84 0 0 0 .24-.14.61.61 0 0 0 .22-.52 2.7 2.7 0 0 0-.56-1.18z" id="_Grupo_126" data-name="&amp;lt;Grupo&amp;gt;"/><path class="cls-6" d="M175.44 36.58a.72.72 0 0 0 .21-.12.53.53 0 0 0 .19-.45 2.35 2.35 0 0 0-.49-1 2.35 2.35 0 0 0-.35.99.53.53 0 0 0 .24.43.72.72 0 0 0 .2.15z" id="_Grupo_127" data-name="&amp;lt;Grupo&amp;gt;"/><path class="cls-4" d="M175.44 36.58a.72.72 0 0 0 .21-.12.53.53 0 0 0 .19-.45 2.35 2.35 0 0 0-.49-1z" id="_Grupo_128" data-name="&amp;lt;Grupo&amp;gt;"/><path class="cls-6" d="M177.76 36a.73.73 0 0 0 .21-.12.54.54 0 0 0 .19-.45 2.36 2.36 0 0 0-.49-1 2.35 2.35 0 0 0-.37 1.08.54.54 0 0 0 .24.43.72.72 0 0 0 .22.06z" id="_Grupo_129" data-name="&amp;lt;Grupo&amp;gt;"/><path class="cls-4" d="M177.76 36a.73.73 0 0 0 .21-.12.54.54 0 0 0 .19-.45 2.36 2.36 0 0 0-.49-1z" id="_Grupo_130" data-name="&amp;lt;Grupo&amp;gt;"/><path class="cls-6" d="M180 35.69a.72.72 0 0 0 .2-.12.53.53 0 0 0 .19-.45 2.34 2.34 0 0 0-.49-1 2.34 2.34 0 0 0-.37 1.07.53.53 0 0 0 .24.43.72.72 0 0 0 .23.07z" id="_Grupo_131" data-name="&amp;lt;Grupo&amp;gt;"/><path class="cls-4" d="M180 35.69a.72.72 0 0 0 .2-.12.53.53 0 0 0 .19-.45 2.34 2.34 0 0 0-.49-1z" id="_Grupo_132" data-name="&amp;lt;Grupo&amp;gt;"/><path class="cls-6" d="M162 45.53a1 1 0 0 0 .27-.16.7.7 0 0 0 .25-.6 3.09 3.09 0 0 0-.64-1.35 3.08 3.08 0 0 0-.49 1.41.7.7 0 0 0 .32.56 1 1 0 0 0 .29.14z" id="_Grupo_133" data-name="&amp;lt;Grupo&amp;gt;"/><path class="cls-4" d="M162 45.53a1 1 0 0 0 .27-.16.7.7 0 0 0 .25-.6 3.09 3.09 0 0 0-.64-1.35z" id="_Grupo_134" data-name="&amp;lt;Grupo&amp;gt;"/><path class="cls-6" d="M160 47.51a1 1 0 0 0 .28-.17.73.73 0 0 0 .26-.62 3.21 3.21 0 0 0-.67-1.4 3.2 3.2 0 0 0-.51 1.47.73.73 0 0 0 .33.59 1 1 0 0 0 .31.13z" id="_Grupo_135" data-name="&amp;lt;Grupo&amp;gt;"/><path class="cls-4" d="M160 47.51a1 1 0 0 0 .28-.17.73.73 0 0 0 .26-.62 3.21 3.21 0 0 0-.67-1.4z" id="_Grupo_136" data-name="&amp;lt;Grupo&amp;gt;"/><path class="cls-6" d="M158.12 49.64a1 1 0 0 0 .29-.17.74.74 0 0 0 .27-.63 3.26 3.26 0 0 0-.68-1.43 3.26 3.26 0 0 0-.51 1.49.74.74 0 0 0 .34.6 1 1 0 0 0 .29.14z" id="_Grupo_137" data-name="&amp;lt;Grupo&amp;gt;"/><path class="cls-4" d="M158.12 49.64a1 1 0 0 0 .29-.17.74.74 0 0 0 .27-.63 3.26 3.26 0 0 0-.68-1.43z" id="_Grupo_138" data-name="&amp;lt;Grupo&amp;gt;"/><path class="cls-6" d="M169.23 43.69a.91.91 0 0 0 .26-.15.66.66 0 0 0 .24-.56 2.92 2.92 0 0 0-.61-1.28 2.92 2.92 0 0 0-.46 1.34.66.66 0 0 0 .3.53.91.91 0 0 0 .27.12z" id="_Grupo_139" data-name="&amp;lt;Grupo&amp;gt;"/><path class="cls-4" d="M169.23 43.69a.91.91 0 0 0 .26-.15.66.66 0 0 0 .24-.56 2.92 2.92 0 0 0-.61-1.28z" id="_Grupo_140" data-name="&amp;lt;Grupo&amp;gt;"/><path class="cls-6" d="M167.14 45.52a.91.91 0 0 0 .26-.15.66.66 0 0 0 .24-.56 2.92 2.92 0 0 0-.61-1.28 2.92 2.92 0 0 0-.46 1.34.67.67 0 0 0 .3.53.91.91 0 0 0 .27.12z" id="_Grupo_141" data-name="&amp;lt;Grupo&amp;gt;"/><path class="cls-4" d="M167.14 45.52a.91.91 0 0 0 .26-.15.66.66 0 0 0 .24-.56 2.92 2.92 0 0 0-.61-1.28z" id="_Grupo_142" data-name="&amp;lt;Grupo&amp;gt;"/><path class="cls-6" d="M171.37 41.92a.91.91 0 0 0 .26-.15.66.66 0 0 0 .24-.56 2.93 2.93 0 0 0-.61-1.28 2.92 2.92 0 0 0-.46 1.34.66.66 0 0 0 .3.53.91.91 0 0 0 .27.12z" id="_Grupo_143" data-name="&amp;lt;Grupo&amp;gt;"/><path class="cls-4" d="M171.37 41.92a.91.91 0 0 0 .26-.15.66.66 0 0 0 .24-.56 2.93 2.93 0 0 0-.61-1.28z" id="_Grupo_144" data-name="&amp;lt;Grupo&amp;gt;"/><path class="cls-6" d="M173.72 40.48a.91.91 0 0 0 .26-.15.67.67 0 0 0 .24-.56 2.92 2.92 0 0 0-.61-1.28 2.92 2.92 0 0 0-.46 1.34.66.66 0 0 0 .3.53.91.91 0 0 0 .27.12z" id="_Grupo_145" data-name="&amp;lt;Grupo&amp;gt;"/><path class="cls-4" d="M173.72 40.48a.91.91 0 0 0 .26-.15.67.67 0 0 0 .24-.56 2.92 2.92 0 0 0-.61-1.28z" id="_Grupo_146" data-name="&amp;lt;Grupo&amp;gt;"/><path class="cls-6" d="M176.14 39.21a.82.82 0 0 0 .24-.14.61.61 0 0 0 .22-.52 2.7 2.7 0 0 0-.56-1.18 2.69 2.69 0 0 0-.42 1.23.61.61 0 0 0 .28.49.83.83 0 0 0 .24.12z" id="_Grupo_147" data-name="&amp;lt;Grupo&amp;gt;"/><path class="cls-4" d="M176.14 39.21a.82.82 0 0 0 .24-.14.61.61 0 0 0 .22-.52 2.7 2.7 0 0 0-.56-1.18z" id="_Grupo_148" data-name="&amp;lt;Grupo&amp;gt;"/><path class="cls-6" d="M178.6 38.28a.73.73 0 0 0 .21-.12.53.53 0 0 0 .19-.45 2.35 2.35 0 0 0-.49-1 2.35 2.35 0 0 0-.37 1.08.53.53 0 0 0 .24.43.73.73 0 0 0 .22.06z" id="_Grupo_149" data-name="&amp;lt;Grupo&amp;gt;"/><path class="cls-4" d="M178.6 38.28a.73.73 0 0 0 .21-.12.53.53 0 0 0 .19-.45 2.35 2.35 0 0 0-.49-1z" id="_Grupo_150" data-name="&amp;lt;Grupo&amp;gt;"/><path class="cls-6" d="M180.81 37.68a.73.73 0 0 0 .21-.12.54.54 0 0 0 .19-.45 2.36 2.36 0 0 0-.49-1 2.35 2.35 0 0 0-.37 1.08.54.54 0 0 0 .24.43.73.73 0 0 0 .22.06z" id="_Grupo_151" data-name="&amp;lt;Grupo&amp;gt;"/><path class="cls-4" d="M180.81 37.68a.73.73 0 0 0 .21-.12.54.54 0 0 0 .19-.45 2.36 2.36 0 0 0-.49-1z" id="_Grupo_152" data-name="&amp;lt;Grupo&amp;gt;"/><path class="cls-6" d="M182.9 37.5a.73.73 0 0 0 .2-.12.53.53 0 0 0 .19-.45 2.34 2.34 0 0 0-.49-1 2.34 2.34 0 0 0-.37 1.07.53.53 0 0 0 .24.43.73.73 0 0 0 .23.07z" id="_Grupo_153" data-name="&amp;lt;Grupo&amp;gt;"/><path class="cls-4" d="M182.9 37.5a.73.73 0 0 0 .2-.12.53.53 0 0 0 .19-.45 2.34 2.34 0 0 0-.49-1z" id="_Grupo_154" data-name="&amp;lt;Grupo&amp;gt;"/><path class="cls-6" d="M165.47 47.63a1 1 0 0 0 .27-.16.7.7 0 0 0 .25-.6 3.09 3.09 0 0 0-.64-1.35 3.08 3.08 0 0 0-.49 1.41.7.7 0 0 0 .32.56 1 1 0 0 0 .29.14z" id="_Grupo_155" data-name="&amp;lt;Grupo&amp;gt;"/><path class="cls-4" d="M165.47 47.63a1 1 0 0 0 .27-.16.7.7 0 0 0 .25-.6 3.09 3.09 0 0 0-.64-1.35z" id="_Grupo_156" data-name="&amp;lt;Grupo&amp;gt;"/><path class="cls-6" d="M163.8 49.68a1 1 0 0 0 .28-.17.73.73 0 0 0 .26-.62 3.21 3.21 0 0 0-.67-1.4 3.21 3.21 0 0 0-.51 1.47.73.73 0 0 0 .33.59 1 1 0 0 0 .31.13z" id="_Grupo_157" data-name="&amp;lt;Grupo&amp;gt;"/><path class="cls-4" d="M163.8 49.68a1 1 0 0 0 .28-.17.73.73 0 0 0 .26-.62 3.21 3.21 0 0 0-.67-1.4z" id="_Grupo_158" data-name="&amp;lt;Grupo&amp;gt;"/><path class="cls-6" d="M171.5 46.71a.91.91 0 0 0 .26-.15.67.67 0 0 0 .24-.56 2.92 2.92 0 0 0-.61-1.28 2.92 2.92 0 0 0-.46 1.34.66.66 0 0 0 .3.53.91.91 0 0 0 .27.12z" id="_Grupo_159" data-name="&amp;lt;Grupo&amp;gt;"/><path class="cls-4" d="M171.5 46.71a.91.91 0 0 0 .26-.15.67.67 0 0 0 .24-.56 2.92 2.92 0 0 0-.61-1.28z" id="_Grupo_160" data-name="&amp;lt;Grupo&amp;gt;"/><path class="cls-6" d="M169.41 48.65a.91.91 0 0 0 .26-.15.66.66 0 0 0 .24-.56 2.93 2.93 0 0 0-.61-1.28 2.92 2.92 0 0 0-.46 1.34.66.66 0 0 0 .3.53.9.9 0 0 0 .27.12z" id="_Grupo_161" data-name="&amp;lt;Grupo&amp;gt;"/><path class="cls-4" d="M169.41 48.65a.91.91 0 0 0 .26-.15.66.66 0 0 0 .24-.56 2.93 2.93 0 0 0-.61-1.28z" id="_Grupo_162" data-name="&amp;lt;Grupo&amp;gt;"/><path class="cls-6" d="M173.64 44.6a.91.91 0 0 0 .26-.15.67.67 0 0 0 .24-.56 2.93 2.93 0 0 0-.61-1.28 2.92 2.92 0 0 0-.46 1.34.66.66 0 0 0 .3.53.9.9 0 0 0 .27.12z" id="_Grupo_163" data-name="&amp;lt;Grupo&amp;gt;"/><path class="cls-4" d="M173.64 44.6a.91.91 0 0 0 .26-.15.67.67 0 0 0 .24-.56 2.93 2.93 0 0 0-.61-1.28z" id="_Grupo_164" data-name="&amp;lt;Grupo&amp;gt;"/><path class="cls-6" d="M176 43.05a.9.9 0 0 0 .26-.15.66.66 0 0 0 .24-.56 2.92 2.92 0 0 0-.61-1.28 2.92 2.92 0 0 0-.46 1.34.67.67 0 0 0 .3.53.91.91 0 0 0 .27.12z" id="_Grupo_165" data-name="&amp;lt;Grupo&amp;gt;"/><path class="cls-4" d="M176 43.05a.9.9 0 0 0 .26-.15.66.66 0 0 0 .24-.56 2.92 2.92 0 0 0-.61-1.28z" id="_Grupo_166" data-name="&amp;lt;Grupo&amp;gt;"/><path class="cls-6" d="M178.41 41.56a.83.83 0 0 0 .24-.14.61.61 0 0 0 .22-.52 2.69 2.69 0 0 0-.56-1.18 2.69 2.69 0 0 0-.42 1.23.61.61 0 0 0 .28.49.84.84 0 0 0 .24.12z" id="_Grupo_167" data-name="&amp;lt;Grupo&amp;gt;"/><path class="cls-4" d="M178.41 41.56a.83.83 0 0 0 .24-.14.61.61 0 0 0 .22-.52 2.69 2.69 0 0 0-.56-1.18z" id="_Grupo_168" data-name="&amp;lt;Grupo&amp;gt;"/><path class="cls-6" d="M180.64 40.4a.72.72 0 0 0 .21-.12.53.53 0 0 0 .19-.45 2.35 2.35 0 0 0-.49-1 2.35 2.35 0 0 0-.37 1.08.53.53 0 0 0 .24.43.73.73 0 0 0 .22.06z" id="_Grupo_169" data-name="&amp;lt;Grupo&amp;gt;"/><path class="cls-4" d="M180.64 40.4a.72.72 0 0 0 .21-.12.53.53 0 0 0 .19-.45 2.35 2.35 0 0 0-.49-1z" id="_Grupo_170" data-name="&amp;lt;Grupo&amp;gt;"/><path class="cls-6" d="M182.74 39.58a.73.73 0 0 0 .21-.12.54.54 0 0 0 .19-.45 2.36 2.36 0 0 0-.49-1 2.35 2.35 0 0 0-.37 1.08.54.54 0 0 0 .24.43.74.74 0 0 0 .22.06z" id="_Grupo_171" data-name="&amp;lt;Grupo&amp;gt;"/><path class="cls-4" d="M182.74 39.58a.73.73 0 0 0 .21-.12.54.54 0 0 0 .19-.45 2.36 2.36 0 0 0-.49-1z" id="_Grupo_172" data-name="&amp;lt;Grupo&amp;gt;"/><path class="cls-6" d="M184.72 38.94a.72.72 0 0 0 .2-.12.53.53 0 0 0 .19-.45 2.34 2.34 0 0 0-.49-1 2.34 2.34 0 0 0-.37 1.07.53.53 0 0 0 .24.43.72.72 0 0 0 .23.07z" id="_Grupo_173" data-name="&amp;lt;Grupo&amp;gt;"/><path class="cls-4" d="M184.72 38.94a.72.72 0 0 0 .2-.12.53.53 0 0 0 .19-.45 2.34 2.34 0 0 0-.49-1z" id="_Grupo_174" data-name="&amp;lt;Grupo&amp;gt;"/><path class="cls-6" d="M175.38 48.77a.91.91 0 0 0 .26-.15.66.66 0 0 0 .24-.56 2.93 2.93 0 0 0-.61-1.28 2.92 2.92 0 0 0-.46 1.34.66.66 0 0 0 .3.53.9.9 0 0 0 .27.12z" id="_Grupo_175" data-name="&amp;lt;Grupo&amp;gt;"/><path class="cls-4" d="M175.38 48.77a.91.91 0 0 0 .26-.15.66.66 0 0 0 .24-.56 2.93 2.93 0 0 0-.61-1.28z" id="_Grupo_176" data-name="&amp;lt;Grupo&amp;gt;"/><path class="cls-6" d="M177.56 46.71a.91.91 0 0 0 .26-.15.66.66 0 0 0 .24-.56 2.92 2.92 0 0 0-.61-1.28 2.92 2.92 0 0 0-.46 1.34.66.66 0 0 0 .3.53.91.91 0 0 0 .27.12z" id="_Grupo_177" data-name="&amp;lt;Grupo&amp;gt;"/><path class="cls-4" d="M177.56 46.71a.91.91 0 0 0 .26-.15.66.66 0 0 0 .24-.56 2.92 2.92 0 0 0-.61-1.28z" id="_Grupo_178" data-name="&amp;lt;Grupo&amp;gt;"/><path class="cls-6" d="M179.79 44.64a.9.9 0 0 0 .26-.15.66.66 0 0 0 .24-.56 2.93 2.93 0 0 0-.61-1.28 2.92 2.92 0 0 0-.46 1.34.66.66 0 0 0 .3.53.91.91 0 0 0 .27.12z" id="_Grupo_179" data-name="&amp;lt;Grupo&amp;gt;"/><path class="cls-4" d="M179.79 44.64a.9.9 0 0 0 .26-.15.66.66 0 0 0 .24-.56 2.93 2.93 0 0 0-.61-1.28z" id="_Grupo_180" data-name="&amp;lt;Grupo&amp;gt;"/><path class="cls-6" d="M182.15 42.87a.84.84 0 0 0 .24-.14.61.61 0 0 0 .22-.52A2.69 2.69 0 0 0 182 41a2.69 2.69 0 0 0-.42 1.23.61.61 0 0 0 .28.49.84.84 0 0 0 .29.15z" id="_Grupo_181" data-name="&amp;lt;Grupo&amp;gt;"/><path class="cls-4" d="M182.15 42.87a.84.84 0 0 0 .24-.14.61.61 0 0 0 .22-.52A2.69 2.69 0 0 0 182 41z" id="_Grupo_182" data-name="&amp;lt;Grupo&amp;gt;"/><path class="cls-6" d="M184.3 41.72a.73.73 0 0 0 .21-.12.54.54 0 0 0 .19-.45 2.35 2.35 0 0 0-.49-1 2.35 2.35 0 0 0-.37 1.08.53.53 0 0 0 .24.43.73.73 0 0 0 .22.06z" id="_Grupo_183" data-name="&amp;lt;Grupo&amp;gt;"/><path class="cls-4" d="M184.3 41.72a.73.73 0 0 0 .21-.12.54.54 0 0 0 .19-.45 2.35 2.35 0 0 0-.49-1z" id="_Grupo_184" data-name="&amp;lt;Grupo&amp;gt;"/><path class="cls-6" d="M186.74 41a.72.72 0 0 0 .21-.12.53.53 0 0 0 .19-.45 2.36 2.36 0 0 0-.49-1 2.35 2.35 0 0 0-.37 1.08.54.54 0 0 0 .24.43.73.73 0 0 0 .22.06z" id="_Grupo_185" data-name="&amp;lt;Grupo&amp;gt;"/><path class="cls-4" d="M186.74 41a.72.72 0 0 0 .21-.12.53.53 0 0 0 .19-.45 2.36 2.36 0 0 0-.49-1z" id="_Grupo_186" data-name="&amp;lt;Grupo&amp;gt;"/><path class="cls-6" d="M181.47 47.71a.9.9 0 0 0 .26-.15.66.66 0 0 0 .27-.56 2.92 2.92 0 0 0-.61-1.28 2.92 2.92 0 0 0-.46 1.34.67.67 0 0 0 .3.53.91.91 0 0 0 .24.12z" id="_Grupo_187" data-name="&amp;lt;Grupo&amp;gt;"/><path class="cls-4" d="M181.47 47.71a.9.9 0 0 0 .26-.15.66.66 0 0 0 .27-.56 2.92 2.92 0 0 0-.61-1.28z" id="_Grupo_188" data-name="&amp;lt;Grupo&amp;gt;"/><path class="cls-6" d="M183.48 45.64a.92.92 0 0 0 .26-.15.66.66 0 0 0 .24-.56 2.92 2.92 0 0 0-.61-1.28 2.92 2.92 0 0 0-.46 1.34.66.66 0 0 0 .3.53.91.91 0 0 0 .27.12z" id="_Grupo_189" data-name="&amp;lt;Grupo&amp;gt;"/><path class="cls-4" d="M183.48 45.64a.92.92 0 0 0 .26-.15.66.66 0 0 0 .24-.56 2.92 2.92 0 0 0-.61-1.28z" id="_Grupo_190" data-name="&amp;lt;Grupo&amp;gt;"/><path class="cls-6" d="M185.73 43.84a.83.83 0 0 0 .24-.14.61.61 0 0 0 .22-.52 2.7 2.7 0 0 0-.56-1.18 2.69 2.69 0 0 0-.42 1.23.61.61 0 0 0 .28.49.83.83 0 0 0 .24.12z" id="_Grupo_191" data-name="&amp;lt;Grupo&amp;gt;"/><path class="cls-4" d="M185.73 43.84a.83.83 0 0 0 .24-.14.61.61 0 0 0 .22-.52 2.7 2.7 0 0 0-.56-1.18z" id="_Grupo_192" data-name="&amp;lt;Grupo&amp;gt;"/><path class="cls-6" d="M187.9 42.92a.73.73 0 0 0 .21-.12.53.53 0 0 0 .19-.45 2.35 2.35 0 0 0-.49-1 2.35 2.35 0 0 0-.37 1.08.53.53 0 0 0 .24.43.74.74 0 0 0 .22.06z" id="_Grupo_193" data-name="&amp;lt;Grupo&amp;gt;"/><path class="cls-4" d="M187.9 42.92a.73.73 0 0 0 .21-.12.53.53 0 0 0 .19-.45 2.35 2.35 0 0 0-.49-1z" id="_Grupo_194" data-name="&amp;lt;Grupo&amp;gt;"/><path class="cls-6" d="M186.06 46.71a.91.91 0 0 0 .26-.15.66.66 0 0 0 .24-.56 2.92 2.92 0 0 0-.61-1.28 2.92 2.92 0 0 0-.46 1.34.66.66 0 0 0 .3.53.9.9 0 0 0 .27.12z" id="_Grupo_195" data-name="&amp;lt;Grupo&amp;gt;"/><path class="cls-4" d="M186.06 46.71a.91.91 0 0 0 .26-.15.66.66 0 0 0 .24-.56 2.92 2.92 0 0 0-.61-1.28z" id="_Grupo_196" data-name="&amp;lt;Grupo&amp;gt;"/><path class="cls-6" d="M188 45.52a.83.83 0 0 0 .24-.14.61.61 0 0 0 .22-.52 2.7 2.7 0 0 0-.56-1.18 2.69 2.69 0 0 0-.42 1.23.61.61 0 0 0 .28.49.84.84 0 0 0 .24.12z" id="_Grupo_197" data-name="&amp;lt;Grupo&amp;gt;"/><path class="cls-4" d="M188 45.52a.83.83 0 0 0 .24-.14.61.61 0 0 0 .22-.52 2.7 2.7 0 0 0-.56-1.18z" id="_Grupo_198" data-name="&amp;lt;Grupo&amp;gt;"/><path class="cls-6" d="M189.9 44.26a.72.72 0 0 0 .21-.12.53.53 0 0 0 .19-.45 2.35 2.35 0 0 0-.49-1 2.35 2.35 0 0 0-.37 1.08.53.53 0 0 0 .24.43.73.73 0 0 0 .22.06z" id="_Grupo_199" data-name="&amp;lt;Grupo&amp;gt;"/><path class="cls-4" d="M189.9 44.26a.72.72 0 0 0 .21-.12.53.53 0 0 0 .19-.45 2.35 2.35 0 0 0-.49-1z" id="_Grupo_200" data-name="&amp;lt;Grupo&amp;gt;"/><circle class="cls-6" cx="147.15" cy="19.05" r="3.73"/><circle class="cls-4" cx="147.15" cy="19.05" r="3.22"/><circle class="cls-1" cx="147.15" cy="19.05" r="2.56"/><path class="cls-6" d="M135.83 20h10.47a.86.86 0 0 0-1.11-.72 2.5 2.5 0 0 0-2.43-1.81 2.7 2.7 0 0 0-1.73.62 1.84 1.84 0 0 0-1.14-.34 1.78 1.78 0 0 0-1.57.83 1.94 1.94 0 0 0-2.49 1.42z" id="_Grupo_201" data-name="&amp;lt;Grupo&amp;gt;"/><g id="_Grupo_202" data-name="&amp;lt;Grupo&amp;gt;"><path class="cls-1" d="M139.78 27.55l-.11-.09a1 1 0 0 0-1.26-.08.11.11 0 0 1-.14-.18 1.23 1.23 0 0 1 1.43 0 1.42 1.42 0 0 1 .16-.2 1.31 1.31 0 0 1 1.24-.39.11.11 0 1 1 0 .22 1.09 1.09 0 0 0-1 .32 1.23 1.23 0 0 0-.19.27z" id="_Grupo_203" data-name="&amp;lt;Grupo&amp;gt;"/></g><g id="_Grupo_204" data-name="&amp;lt;Grupo&amp;gt;"><path class="cls-1" d="M142.78 26.49l-.08-.11a1 1 0 0 0-1.18-.44.11.11 0 1 1-.08-.21 1.23 1.23 0 0 1 1.37.41L143 26a1.31 1.31 0 0 1 1.29 0 .11.11 0 1 1-.1.2 1.09 1.09 0 0 0-1.08 0 1.24 1.24 0 0 0-.26.2z" id="_Grupo_205" data-name="&amp;lt;Grupo&amp;gt;"/></g><g id="_Grupo_206" data-name="&amp;lt;Grupo&amp;gt;"><path class="cls-1" d="M185.61 30.18l-.09-.1a1.22 1.22 0 0 0-.25-.21 1.09 1.09 0 0 0-1.08 0 .11.11 0 0 1-.09-.2 1.31 1.31 0 0 1 1.29.05l.2.15a1.23 1.23 0 0 1 1.38-.38.11.11 0 0 1-.09.21 1 1 0 0 0-1.19.4z" id="_Grupo_207" data-name="&amp;lt;Grupo&amp;gt;"/></g><path class="cls-6" d="M181.1 26.72h7.56a.62.62 0 0 0-.8-.52 1.81 1.81 0 0 0-1.75-1.31 2 2 0 0 0-1.25.45 1.32 1.32 0 0 0-.82-.24 1.28 1.28 0 0 0-1.13.6 1.4 1.4 0 0 0-1.81 1.02z" id="_Grupo_208" data-name="&amp;lt;Grupo&amp;gt;"/><path class="cls-6" d="M191 44.84l-.13.13c.13-.07.13-.11.13-.13z"/><path class="cls-4" d="M171.52 2.19l-2.26 5.72-1.81-.71a1.86 1.86 0 0 0 1.12 2.46L178.74 14 182 5.86z"/><path class="cls-4" d="M181.96 5.86l-10.44-3.67-2.95 7.47 4.06 1.74-7.33 1.54.25 1.5 10.86-1.42 2.33 1 3.22-8.16z"/><path class="cls-4" d="M172.6 2.46a3.86 3.86 0 0 0-.27 1.27l1.36.48a2.54 2.54 0 1 1 4.31 1.5l1.36.48a3.88 3.88 0 1 0-6.74-3.73z"/><path class="cls-1" d="M165.42 13.67l.13.77 10.86-1.42-2.12-.91-8.87 1.56z"/><path class="cls-4" d="M170.08 9.61c.18.07.29.23.24.36l-1.11 2.8c0 .12-.24.16-.42.09s-.29-.23-.24-.36l1.11-2.8c0-.12.24-.16.42-.09z"/><path class="cls-1" transform="rotate(-68.49 180.246 9.896)" d="M175.37 9.39h9.75v1.01h-9.75z"/><path class="cls-4" d="M170.27 6.29L169.35 8l-1.9-.75a1.86 1.86 0 0 0 1.12 2.46c1.37.54 2.07-1 2.07-1z"/><path class="cls-1" d="M170.06 5.86l-.8 2.05-1.81-.71a1.86 1.86 0 0 0 1.12 2.46L178.74 14l1.6-4.08z"/><path class="cls-4" d="M163.09 11.7l2.56 1.44.14 1.13-1.7 2.52-1-5.09z"/><path class="cls-1" d="M163.55 14.02l.54 2.77 1.7-2.52-.08-.65-2.16.4z"/><path class="cls-7" d="M157.88 20.73a.55.55 0 0 0 .31-.1.78.78 0 0 0 .32-.65 3.45 3.45 0 0 0-.63-1.54 3.44 3.44 0 0 0-.63 1.54.78.78 0 0 0 .32.65.55.55 0 0 0 .31.1z" id="_Grupo_209" data-name="&amp;lt;Grupo&amp;gt;"/><path class="cls-7" d="M163 22.13a.55.55 0 0 0 .31-.1.78.78 0 0 0 .32-.65 3.45 3.45 0 0 0-.63-1.54 3.44 3.44 0 0 0-.63 1.54.78.78 0 0 0 .32.65.55.55 0 0 0 .31.1z" id="_Grupo_210" data-name="&amp;lt;Grupo&amp;gt;"/><path class="cls-8" d="M163.36 26.75a.55.55 0 0 0 .31-.1.78.78 0 0 0 .33-.65 3.44 3.44 0 0 0-.63-1.54 3.44 3.44 0 0 0-.63 1.54.78.78 0 0 0 .32.65.55.55 0 0 0 .3.1z" id="_Grupo_211" data-name="&amp;lt;Grupo&amp;gt;"/><path class="cls-8" d="M161.37 19a.79.79 0 0 0 .45-.14 1.13 1.13 0 0 0 .46-.94 5 5 0 0 0-.91-2.23 5 5 0 0 0-.91 2.23 1.13 1.13 0 0 0 .46.94.79.79 0 0 0 .45.14z" id="_Grupo_212" data-name="&amp;lt;Grupo&amp;gt;"/><path class="cls-7" d="M160.22 24.1a.73.73 0 0 0 .41-.13 1 1 0 0 0 .42-.86 4.59 4.59 0 0 0-.84-2.06 4.58 4.58 0 0 0-.84 2.05 1 1 0 0 0 .42.86.73.73 0 0 0 .43.14z" id="_Grupo_213" data-name="&amp;lt;Grupo&amp;gt;"/><g id="_Grupo_214" data-name="&amp;lt;Grupo&amp;gt;"><g id="_Grupo_215" data-name="&amp;lt;Grupo&amp;gt;"><path class="cls-9" d="M99.91 34.18a8.1 8.1 0 0 1-8.1 8.1h3.11a8.1 8.1 0 0 0 8.1-8.1v-1.29h-3.11z" id="_Grupo_216" data-name="&amp;lt;Grupo&amp;gt;"/><path class="cls-9" d="M87.12 32.89h-2.83a8.1 8.1 0 0 0-8.1 8.1v1.29H79V41a8.1 8.1 0 0 1 8.12-8.11z" id="_Grupo_217" data-name="&amp;lt;Grupo&amp;gt;"/><path class="cls-10" d="M99.91 34.18v-1.29h-2.82v1.29a8.1 8.1 0 0 1-8.1 8.1h2.83a8.1 8.1 0 0 0 8.09-8.1z" id="_Grupo_218" data-name="&amp;lt;Grupo&amp;gt;"/><path class="cls-10" d="M90.22 32.89h-3.1A8.1 8.1 0 0 0 79 41v1.29h3.11V41a8.1 8.1 0 0 1 8.11-8.11z" id="_Grupo_219" data-name="&amp;lt;Grupo&amp;gt;"/><path class="cls-11" d="M97.09 34.18v-1.29h-6.87a8.1 8.1 0 0 0-8.1 8.1v1.29H89a8.1 8.1 0 0 0 8.09-8.1z" id="_Grupo_220" data-name="&amp;lt;Grupo&amp;gt;"/><path class="cls-12" d="M92 18.61h-3.15a11.06 11.06 0 0 1 11.06 11.06v1.77H103v-1.77a11.06 11.06 0 0 0-11-11.06z" id="_Grupo_221" data-name="&amp;lt;Grupo&amp;gt;"/><path class="cls-13" d="M88.85 18.61H86a11.06 11.06 0 0 1 11.09 11.06v1.77h2.83v-1.77a11.06 11.06 0 0 0-11.07-11.06z" id="_Grupo_222" data-name="&amp;lt;Grupo&amp;gt;"/><path class="cls-12" d="M71.36 20.38v-1.77h-2.83v1.77A11.06 11.06 0 0 0 79.6 31.44h2.83a11.06 11.06 0 0 1-11.07-11.06z" id="_Grupo_223" data-name="&amp;lt;Grupo&amp;gt;"/><path class="cls-13" d="M74.47 20.38v-1.77h-3.11v1.77a11.06 11.06 0 0 0 11.06 11.06h3.11a11.06 11.06 0 0 1-11.06-11.06z" id="_Grupo_224" data-name="&amp;lt;Grupo&amp;gt;"/><path class="cls-14" d="M86 18.61H74.47v1.77a11.06 11.06 0 0 0 11.06 11.06h11.56v-1.77A11.06 11.06 0 0 0 86 18.61z" id="_Grupo_225" data-name="&amp;lt;Grupo&amp;gt;"/></g></g><path class="cls-3" d="M1.8 20.69h14.32v23.43H1.8z"/><path class="cls-5 cls-6" d="M8.96 20.69h7.16v23.43H8.96z"/><path class="cls-10" d="M17.75 44.12a.54.54 0 0 0-.53-.53H.53a.54.54 0 0 0-.53.53.54.54 0 0 0 .53.54h16.68a.54.54 0 0 0 .53-.54z"/><path class="cls-6" d="M9 44.66h8.26a.54.54 0 0 0 .53-.54.54.54 0 0 0-.53-.53H9"/><path class="cls-10" d="M17.75 20.69a.53.53 0 0 0-.53-.53H.53a.54.54 0 0 0-.53.53.53.53 0 0 0 .53.53h16.68a.53.53 0 0 0 .53-.53z"/><path class="cls-6" d="M9 21.23h8.26a.53.53 0 0 0 .53-.53.53.53 0 0 0-.53-.53H9"/><g class="cls-15"><path class="cls-6" d="M6.35 34a2 2 0 0 0-.3.51 1.43 1.43 0 0 0-.09.35 1 1 0 0 0 .09.61 1.21 1.21 0 0 0 1 .53h1.08v-2zM12.11 33.77a2 2 0 0 0 .59 0 1.46 1.46 0 0 0 .35-.1 1 1 0 0 0 .48-.38 1.21 1.21 0 0 0-.06-1.16l-.47-.98-1.76 1zM9.07 28.88a2 2 0 0 0-.29-.51 1.46 1.46 0 0 0-.26-.26 1 1 0 0 0-.52-.22 1.21 1.21 0 0 0-1 .63l-.56.93 1.79 1z"/><path class="cls-6" d="M6 34.26l1.08-1.88.08-.14 1 .56L7 30.51l-2.57.16 1 .56-.08.14-.52.91a1.3 1.3 0 0 0 0 1.27l1 1.74A1.27 1.27 0 0 1 6 34.26zM12.55 33.92h-2.33V32.8L8.8 34.95l1.42 2.14V36h1.21a1.3 1.3 0 0 0 1.11-.62l1-1.74a1.27 1.27 0 0 1-.99.28zM9 28.42l1.16 2-1 .56 2.57.16 1.15-2.3-1 .56-.08-.14-.52-.91a1.3 1.3 0 0 0-1.09-.65h-2.1a1.28 1.28 0 0 1 .91.72z"/></g><path class="cls-3" d="M28.42 20.69h14.32v23.43H28.42z"/><path class="cls-5 cls-6" d="M35.58 20.69h7.16v23.43h-7.16z"/><path class="cls-10" d="M44.37 44.12a.53.53 0 0 0-.53-.53H27.16a.53.53 0 0 0-.53.53.54.54 0 0 0 .53.54h16.67a.54.54 0 0 0 .53-.54z"/><path class="cls-6" d="M35.58 44.66h8.26a.54.54 0 0 0 .53-.54.53.53 0 0 0-.53-.53h-8.26"/><path class="cls-10" d="M44.37 20.69a.53.53 0 0 0-.53-.53H27.16a.53.53 0 0 0-.53.53.53.53 0 0 0 .53.53h16.67a.53.53 0 0 0 .53-.53z"/><path class="cls-6" d="M35.58 21.23h8.26a.53.53 0 0 0 .53-.53.53.53 0 0 0-.53-.53h-8.26"/><g class="cls-15"><path class="cls-6" d="M33 34a2 2 0 0 0-.3.51 1.42 1.42 0 0 0-.09.35 1 1 0 0 0 .09.61 1.21 1.21 0 0 0 1 .53h1.08v-2zM38.73 33.77a2 2 0 0 0 .59 0 1.46 1.46 0 0 0 .35-.1 1 1 0 0 0 .48-.38 1.21 1.21 0 0 0-.06-1.16l-.52-.95-1.76 1zM35.69 28.88a1.94 1.94 0 0 0-.29-.51 1.46 1.46 0 0 0-.26-.26 1 1 0 0 0-.57-.22 1.21 1.21 0 0 0-1 .63l-.56.93 1.79 1z"/><path class="cls-6" d="M32.62 34.26l1.08-1.88.08-.14 1 .56-1.15-2.3-2.63.16 1 .56-.08.14-.52.91a1.3 1.3 0 0 0 0 1.27l1 1.74a1.27 1.27 0 0 1 .22-1.02zM39.17 33.92h-2.33V32.8l-1.42 2.14 1.42 2.14V36H38a1.3 1.3 0 0 0 1.11-.62l1-1.74a1.27 1.27 0 0 1-.94.28zM35.61 28.42l1.16 2-1 .56 2.57.16 1.15-2.3-1 .56-.08-.14-.52-.91a1.3 1.3 0 0 0-1.09-.65h-2.09a1.28 1.28 0 0 1 .9.72z"/></g><path class="cls-3" d="M13.86 17.99h16.99v27.78H13.86z"/><path class="cls-5 cls-6" d="M22.35 17.99h8.49v27.78h-8.49z"/><path class="cls-10" d="M32.78 45.77a.63.63 0 0 0-.63-.63H12.36a.63.63 0 0 0-.63.63.63.63 0 0 0 .63.63h19.78a.63.63 0 0 0 .63-.63z"/><path class="cls-6" d="M22.35 46.4h9.79a.63.63 0 0 0 .63-.63.63.63 0 0 0-.63-.63h-9.79"/><path class="cls-10" d="M32.78 18a.63.63 0 0 0-.63-.63H12.36a.63.63 0 0 0-.63.63.63.63 0 0 0 .63.63h19.78a.63.63 0 0 0 .63-.63z"/><path class="cls-6" d="M22.35 18.62h9.79a.63.63 0 0 0 .63-.63.63.63 0 0 0-.63-.63h-9.79"/><g class="cls-15"><path class="cls-6" d="M19.26 33.71a2.31 2.31 0 0 0-.35.6 1.69 1.69 0 0 0-.11.42 1.24 1.24 0 0 0 .11.72 1.44 1.44 0 0 0 1.23.63h1.28v-2.43zM26.08 33.5a2.33 2.33 0 0 0 .7 0 1.74 1.74 0 0 0 .42-.11 1.24 1.24 0 0 0 .57-.46 1.44 1.44 0 0 0-.07-1.38l-.62-1.12-2.08 1.2zM22.49 27.7a2.31 2.31 0 0 0-.34-.61 1.74 1.74 0 0 0-.31-.31 1.24 1.24 0 0 0-.68-.26 1.44 1.44 0 0 0-1.16.75l-.66 1.1 2.12 1.19z"/><path class="cls-6" d="M18.85 34.08l1.28-2.23.1-.17 1.15.67L20 29.62l-3 .19 1.15.67-.1.17-.62 1.08a1.54 1.54 0 0 0 0 1.51v.05l1.19 2.07a1.51 1.51 0 0 1 .23-1.28zM26.6 33.68h-2.76v-1.33l-1.68 2.54 1.68 2.54V36.1h1.43a1.54 1.54 0 0 0 1.31-.74v-.05l1.19-2.07a1.51 1.51 0 0 1-1.17.44zM22.38 27.15l1.38 2.39-1.15.66 3 .19L27 27.67l-1.15.66-.1-.17-.62-1.08a1.54 1.54 0 0 0-1.3-.77h-2.51a1.51 1.51 0 0 1 1.06.84z"/></g><path class="cls-12" d="M58 34.18a.41.41 0 0 1-.41.41.41.41 0 0 1-.41-.41v-7a.41.41 0 0 1 .41-.41.41.41 0 0 1 .41.41z"/><path class="cls-12" d="M54 31.07a.41.41 0 0 1-.41-.41.41.41 0 0 1 .41-.41h7a.41.41 0 0 1 .41.41.41.41 0 0 1-.41.41zM114 32a.41.41 0 0 1-.41-.41.41.41 0 0 1 .41-.41h7a.41.41 0 0 1 .41.41.41.41 0 0 1-.41.41zM114 29.77a.41.41 0 0 1-.41-.41.41.41 0 0 1 .41-.36h7a.41.41 0 0 1 .41.41.41.41 0 0 1-.41.41z"/></g></g></svg>