<svg xmlns="http://www.w3.org/2000/svg" viewBox="0 0 68.61 190"><defs><style>.cls-1{fill:#7abc39}.cls-2{opacity:.5}.cls-3{fill:#5ca126}.cls-4{fill:#8cd145}.cls-5{opacity:.3}.cls-6{fill:#b6e436}.cls-7{fill:#7ac7fa}.cls-8{fill:#5e9df3}.cls-9{fill:#b8e636}.cls-10{fill:#92d03f}.cls-11{fill:#7bbe39}.cls-12{fill:#7bc9fc}.cls-13{fill:#60a1f7}.cls-14{fill:#4d82f5}.cls-15{opacity:.6}</style></defs><title>Recurso 9</title><g id="Capa_2" data-name="Capa 2"><g id="Capa_1-2" data-name="Capa 1"><path class="cls-1" d="M1 175.1l67.56 1.55a10.05 10.05 0 0 1-3.4 6.89c-3.4 2.7-7.24.36-17.26 4.37-11.18 4.47-17.61.5-22.08 0s-7.27.84-11.56 1.36-6-3.35-9.91-5.12C-.66 181.85.33 177 1 175.1z"/><path class="cls-2 cls-3" d="M46.16 172.18C23.21 168.89 26 165.21 1 175.1c0 0-1.61 5 1.88 6.55 3.89 1.71 6.21 6.1 10.5 5.58s8.38-2.83 12.85-2.35 10.67 4.89 21.85.43c8.13-3.25 14.21-1.87 18-2.68a10.46 10.46 0 0 0 2.44-6 228.86 228.86 0 0 0-22.36-4.45z"/><path class="cls-4" d="M6.77 182.62c2 1 3.49 1.48 4.41 1.37a22.59 22.59 0 0 1 6-.83c2.89.21 6.87 1.66 9.79 1.3s5.71-1.47 8.75-1.15 7.42 2.58 15-.46c6.82-2.73 12-.48 14.55-2a7.64 7.64 0 0 0 3.27-4.24S29.71 163.75 1 175.1c0 0-1.82 3.7 5.77 7.52z"/><path class="cls-3" d="M1 175.1s-4.14 9 39.5 7.55c17-.54 28.29-5.7 28.06-6-2.94-3.9-12.31-17-34.35-17C18.4 159.6 9 164.71 1 175.1z"/><path class="cls-5 cls-6" d="M2.51 178.26C15 162.6 28.66 158.79 39.16 159.83c0 0 4.67.42 3.4.45-21 .42-34.74 20.31-34.74 20.31a11.62 11.62 0 0 1-5.31-2.33zM23.92 182.65s13.41-19.91 30.47-18.49c0 0 2 1.15 3 1.73 0 0-14.76-1.31-26.19 16.92.03-.01-4.85-.01-7.28-.16z"/><path class="cls-5 cls-6" d="M50.45 162.4l-3.09-1C32.71 160.3 17 173.95 12.5 181.59c0 0 2.09.31 2.81.39.88.11 3.6.37 3.6.37 17.27-22.12 31.54-19.95 31.54-19.95zM60.63 168.17s-12-.89-23.38 14.63l6.73-.32S54.85 169.64 62.81 170c0 0-1.34-1.18-2.18-1.83zM65.4 172.67s-7.29.9-13 8.8c0 0 4.57-.84 6.37-1.32a17.07 17.07 0 0 1 7.84-6 6.06 6.06 0 0 0-1.21-1.48z"/><path class="cls-6" d="M21.35 165.73a1.12 1.12 0 0 0 .32-.19.82.82 0 0 0 .3-.7 3.63 3.63 0 0 0-.75-1.59 3.63 3.63 0 0 0-.57 1.66.83.83 0 0 0 .37.66 1.16 1.16 0 0 0 .33.16z" id="_Grupo_" data-name="&amp;lt;Grupo&amp;gt;"/><path class="cls-4" d="M21.35 165.73a1.12 1.12 0 0 0 .32-.19.82.82 0 0 0 .3-.7 3.63 3.63 0 0 0-.75-1.59z" id="_Grupo_2" data-name="&amp;lt;Grupo&amp;gt;"/><path class="cls-6" d="M18.73 167.61a1.18 1.18 0 0 0 .34-.2.87.87 0 0 0 .31-.74 3.84 3.84 0 0 0-.8-1.68 3.83 3.83 0 0 0-.6 1.76.87.87 0 0 0 .39.7 1.2 1.2 0 0 0 .36.16z" id="_Grupo_3" data-name="&amp;lt;Grupo&amp;gt;"/><path class="cls-4" d="M18.73 167.61a1.18 1.18 0 0 0 .34-.2.87.87 0 0 0 .31-.74 3.84 3.84 0 0 0-.8-1.68z" id="_Grupo_4" data-name="&amp;lt;Grupo&amp;gt;"/><path class="cls-6" d="M15.84 169.75a1.24 1.24 0 0 0 .35-.21.91.91 0 0 0 .33-.77 4 4 0 0 0-.83-1.75 4 4 0 0 0-.63 1.83.91.91 0 0 0 .41.73 1.24 1.24 0 0 0 .37.17z" id="_Grupo_5" data-name="&amp;lt;Grupo&amp;gt;"/><path class="cls-4" d="M15.84 169.75a1.24 1.24 0 0 0 .35-.21.91.91 0 0 0 .33-.77 4 4 0 0 0-.83-1.75z" id="_Grupo_6" data-name="&amp;lt;Grupo&amp;gt;"/><path class="cls-6" d="M12.66 172.23A1.24 1.24 0 0 0 13 172a.92.92 0 0 0 .33-.78 4.07 4.07 0 0 0-.84-1.77 4 4 0 0 0-.64 1.86.92.92 0 0 0 .42.74 1.25 1.25 0 0 0 .39.18z" id="_Grupo_7" data-name="&amp;lt;Grupo&amp;gt;"/><path class="cls-4" d="M12.66 172.23A1.24 1.24 0 0 0 13 172a.92.92 0 0 0 .33-.78 4.07 4.07 0 0 0-.84-1.77z" id="_Grupo_8" data-name="&amp;lt;Grupo&amp;gt;"/><path class="cls-6" d="M9.51 175.24a1.26 1.26 0 0 0 .36-.22.93.93 0 0 0 .33-.79 4.09 4.09 0 0 0-.85-1.78 4.07 4.07 0 0 0-.64 1.87.93.93 0 0 0 .42.75 1.28 1.28 0 0 0 .38.17z" id="_Grupo_9" data-name="&amp;lt;Grupo&amp;gt;"/><path class="cls-4" d="M9.51 175.24a1.26 1.26 0 0 0 .36-.22.93.93 0 0 0 .33-.79 4.09 4.09 0 0 0-.85-1.78z" id="_Grupo_10" data-name="&amp;lt;Grupo&amp;gt;"/><path class="cls-6" d="M6.5 178.4a1.3 1.3 0 0 0 .36-.22 1 1 0 0 0 .34-.8 4.16 4.16 0 0 0-.86-1.82 4.16 4.16 0 0 0-.66 1.9 1 1 0 0 0 .43.76 1.31 1.31 0 0 0 .39.18z" id="_Grupo_11" data-name="&amp;lt;Grupo&amp;gt;"/><path class="cls-4" d="M6.5 178.4a1.3 1.3 0 0 0 .36-.22 1 1 0 0 0 .34-.8 4.16 4.16 0 0 0-.86-1.82z" id="_Grupo_12" data-name="&amp;lt;Grupo&amp;gt;"/><path class="cls-6" d="M24.3 164.23a1.11 1.11 0 0 0 .32-.19.83.83 0 0 0 .3-.7 3.65 3.65 0 0 0-.76-1.59 3.63 3.63 0 0 0-.57 1.66.83.83 0 0 0 .37.66 1.12 1.12 0 0 0 .34.16z" id="_Grupo_13" data-name="&amp;lt;Grupo&amp;gt;"/><path class="cls-4" d="M24.3 164.23a1.11 1.11 0 0 0 .32-.19.83.83 0 0 0 .3-.7 3.65 3.65 0 0 0-.76-1.59z" id="_Grupo_14" data-name="&amp;lt;Grupo&amp;gt;"/><path class="cls-6" d="M27.08 163a1.14 1.14 0 0 0 .32-.19.83.83 0 0 0 .3-.7 3.63 3.63 0 0 0-.76-1.59 3.63 3.63 0 0 0-.57 1.66.83.83 0 0 0 .37.66 1.13 1.13 0 0 0 .34.16z" id="_Grupo_15" data-name="&amp;lt;Grupo&amp;gt;"/><path class="cls-4" d="M27.08 163a1.14 1.14 0 0 0 .32-.19.83.83 0 0 0 .3-.7 3.63 3.63 0 0 0-.76-1.59z" id="_Grupo_16" data-name="&amp;lt;Grupo&amp;gt;"/><path class="cls-6" d="M30.09 161.84a1 1 0 0 0 .29-.18.76.76 0 0 0 .27-.65 3.35 3.35 0 0 0-.69-1.46 3.34 3.34 0 0 0-.53 1.53.76.76 0 0 0 .34.61 1 1 0 0 0 .32.15z" id="_Grupo_17" data-name="&amp;lt;Grupo&amp;gt;"/><path class="cls-4" d="M30.09 161.84a1 1 0 0 0 .29-.18.76.76 0 0 0 .27-.65 3.35 3.35 0 0 0-.69-1.46z" id="_Grupo_18" data-name="&amp;lt;Grupo&amp;gt;"/><path class="cls-6" d="M33.28 161a.91.91 0 0 0 .26-.15.66.66 0 0 0 .24-.57 2.93 2.93 0 0 0-.61-1.28 2.93 2.93 0 0 0-.46 1.34.66.66 0 0 0 .3.53.91.91 0 0 0 .27.13z" id="_Grupo_19" data-name="&amp;lt;Grupo&amp;gt;"/><path class="cls-4" d="M33.28 161a.91.91 0 0 0 .26-.15.66.66 0 0 0 .24-.57 2.93 2.93 0 0 0-.61-1.28z" id="_Grupo_20" data-name="&amp;lt;Grupo&amp;gt;"/><path class="cls-6" d="M36.12 160.4a.92.92 0 0 0 .26-.15.67.67 0 0 0 .24-.57 2.94 2.94 0 0 0-.62-1.28 2.92 2.92 0 0 0-.46 1.34.67.67 0 0 0 .3.54.92.92 0 0 0 .28.12z" id="_Grupo_21" data-name="&amp;lt;Grupo&amp;gt;"/><path class="cls-4" d="M36.12 160.4a.92.92 0 0 0 .26-.15.67.67 0 0 0 .24-.57 2.94 2.94 0 0 0-.62-1.28z" id="_Grupo_22" data-name="&amp;lt;Grupo&amp;gt;"/><path class="cls-6" d="M39.34 160.13a.89.89 0 0 0 .25-.15.66.66 0 0 0 .24-.56 2.92 2.92 0 0 0-.6-1.27 2.9 2.9 0 0 0-.46 1.33.66.66 0 0 0 .3.53.91.91 0 0 0 .27.12z" id="_Grupo_23" data-name="&amp;lt;Grupo&amp;gt;"/><path class="cls-4" d="M39.34 160.13a.89.89 0 0 0 .25-.15.66.66 0 0 0 .24-.56 2.92 2.92 0 0 0-.6-1.27z" id="_Grupo_24" data-name="&amp;lt;Grupo&amp;gt;"/><path class="cls-6" d="M13.44 165.65a1.12 1.12 0 0 0 .32-.19.83.83 0 0 0 .3-.7 3.64 3.64 0 0 0-.75-1.59 3.62 3.62 0 0 0-.57 1.66.83.83 0 0 0 .37.66 1.13 1.13 0 0 0 .33.16z" id="_Grupo_25" data-name="&amp;lt;Grupo&amp;gt;"/><path class="cls-4" d="M13.44 165.65a1.12 1.12 0 0 0 .32-.19.83.83 0 0 0 .3-.7 3.64 3.64 0 0 0-.75-1.59z" id="_Grupo_26" data-name="&amp;lt;Grupo&amp;gt;"/><path class="cls-6" d="M10.65 167.94a1.19 1.19 0 0 0 .34-.2.87.87 0 0 0 .31-.74 3.84 3.84 0 0 0-.8-1.68 3.83 3.83 0 0 0-.61 1.76.87.87 0 0 0 .4.7 1.18 1.18 0 0 0 .36.16z" id="_Grupo_27" data-name="&amp;lt;Grupo&amp;gt;"/><path class="cls-4" d="M10.65 167.94a1.19 1.19 0 0 0 .34-.2.87.87 0 0 0 .31-.74 3.84 3.84 0 0 0-.8-1.68z" id="_Grupo_28" data-name="&amp;lt;Grupo&amp;gt;"/><path class="cls-6" d="M7.88 170a1.24 1.24 0 0 0 .35-.21.91.91 0 0 0 .33-.77 4 4 0 0 0-.83-1.75 4 4 0 0 0-.63 1.83.91.91 0 0 0 .41.73 1.23 1.23 0 0 0 .37.17z" id="_Grupo_29" data-name="&amp;lt;Grupo&amp;gt;"/><path class="cls-4" d="M7.88 170a1.24 1.24 0 0 0 .35-.21.91.91 0 0 0 .33-.77 4 4 0 0 0-.83-1.75z" id="_Grupo_30" data-name="&amp;lt;Grupo&amp;gt;"/><path class="cls-6" d="M5.2 172.39a1.25 1.25 0 0 0 .36-.21.92.92 0 0 0 .33-.78 4.05 4.05 0 0 0-.89-1.78 4.05 4.05 0 0 0-.64 1.86.92.92 0 0 0 .42.74 1.24 1.24 0 0 0 .42.17z" id="_Grupo_31" data-name="&amp;lt;Grupo&amp;gt;"/><path class="cls-4" d="M5.2 172.39a1.25 1.25 0 0 0 .36-.21.92.92 0 0 0 .33-.78 4.05 4.05 0 0 0-.89-1.78z" id="_Grupo_32" data-name="&amp;lt;Grupo&amp;gt;"/><path class="cls-6" d="M2.66 175.25A1.26 1.26 0 0 0 3 175a.93.93 0 0 0 .33-.79 4.09 4.09 0 0 0-.85-1.78 4.07 4.07 0 0 0-.64 1.87.93.93 0 0 0 .42.75 1.28 1.28 0 0 0 .4.2z" id="_Grupo_33" data-name="&amp;lt;Grupo&amp;gt;"/><path class="cls-4" d="M2.66 175.25A1.26 1.26 0 0 0 3 175a.93.93 0 0 0 .33-.79 4.09 4.09 0 0 0-.85-1.78z" id="_Grupo_34" data-name="&amp;lt;Grupo&amp;gt;"/><path class="cls-6" d="M16.17 164.6a1.13 1.13 0 0 0 .32-.19.82.82 0 0 0 .3-.7 3.64 3.64 0 0 0-.75-1.59 3.63 3.63 0 0 0-.57 1.66.82.82 0 0 0 .37.66 1.13 1.13 0 0 0 .33.16z" id="_Grupo_35" data-name="&amp;lt;Grupo&amp;gt;"/><path class="cls-4" d="M16.17 164.6a1.13 1.13 0 0 0 .32-.19.82.82 0 0 0 .3-.7 3.64 3.64 0 0 0-.75-1.59z" id="_Grupo_36" data-name="&amp;lt;Grupo&amp;gt;"/><path class="cls-6" d="M19 163.21a1.14 1.14 0 0 0 .32-.19.82.82 0 0 0 .3-.7 3.64 3.64 0 0 0-.76-1.59 3.64 3.64 0 0 0-.57 1.66.83.83 0 0 0 .37.66 1.14 1.14 0 0 0 .34.16z" id="_Grupo_37" data-name="&amp;lt;Grupo&amp;gt;"/><path class="cls-4" d="M19 163.21a1.14 1.14 0 0 0 .32-.19.82.82 0 0 0 .3-.7 3.64 3.64 0 0 0-.76-1.59z" id="_Grupo_38" data-name="&amp;lt;Grupo&amp;gt;"/><path class="cls-6" d="M22 161.89a1 1 0 0 0 .29-.18.76.76 0 0 0 .27-.65 3.35 3.35 0 0 0-.69-1.46 3.34 3.34 0 0 0-.53 1.53.76.76 0 0 0 .34.61 1 1 0 0 0 .32.15z" id="_Grupo_39" data-name="&amp;lt;Grupo&amp;gt;"/><path class="cls-4" d="M22 161.89a1 1 0 0 0 .29-.18.76.76 0 0 0 .27-.65 3.35 3.35 0 0 0-.69-1.46z" id="_Grupo_40" data-name="&amp;lt;Grupo&amp;gt;"/><path class="cls-6" d="M25.09 160.84a.91.91 0 0 0 .27-.14.67.67 0 0 0 .28-.55 2.94 2.94 0 0 0-.52-1.32 2.92 2.92 0 0 0-.55 1.3.67.67 0 0 0 .26.56.91.91 0 0 0 .26.15z" id="_Grupo_41" data-name="&amp;lt;Grupo&amp;gt;"/><path class="cls-4" d="M25.09 160.84a.91.91 0 0 0 .27-.14.67.67 0 0 0 .28-.55 2.94 2.94 0 0 0-.52-1.32z" id="_Grupo_42" data-name="&amp;lt;Grupo&amp;gt;"/><path class="cls-6" d="M28.33 160.28a.93.93 0 0 0 .26-.15.67.67 0 0 0 .24-.57 3 3 0 0 0-.61-1.28 2.93 2.93 0 0 0-.46 1.34.67.67 0 0 0 .3.54.93.93 0 0 0 .27.12z" id="_Grupo_43" data-name="&amp;lt;Grupo&amp;gt;"/><path class="cls-4" d="M28.33 160.28a.93.93 0 0 0 .26-.15.67.67 0 0 0 .24-.57 3 3 0 0 0-.61-1.28z" id="_Grupo_44" data-name="&amp;lt;Grupo&amp;gt;"/><path class="cls-6" d="M31.17 159.84a1 1 0 0 0 .26-.16.67.67 0 0 0 .24-.57 2.93 2.93 0 0 0-.61-1.28 2.92 2.92 0 0 0-.46 1.34.67.67 0 0 0 .3.53 1 1 0 0 0 .27.14z" id="_Grupo_45" data-name="&amp;lt;Grupo&amp;gt;"/><path class="cls-4" d="M31.17 159.84a1 1 0 0 0 .26-.16.67.67 0 0 0 .24-.57 2.93 2.93 0 0 0-.61-1.28z" id="_Grupo_46" data-name="&amp;lt;Grupo&amp;gt;"/><path class="cls-6" d="M25.89 166.84a1.12 1.12 0 0 0 .32-.19.83.83 0 0 0 .3-.7 3.63 3.63 0 0 0-.76-1.59 3.62 3.62 0 0 0-.57 1.66.83.83 0 0 0 .37.66 1.11 1.11 0 0 0 .34.16z" id="_Grupo_47" data-name="&amp;lt;Grupo&amp;gt;"/><path class="cls-4" d="M25.89 166.84a1.12 1.12 0 0 0 .32-.19.83.83 0 0 0 .3-.7 3.63 3.63 0 0 0-.76-1.59z" id="_Grupo_48" data-name="&amp;lt;Grupo&amp;gt;"/><path class="cls-6" d="M29 165.2a1.14 1.14 0 0 0 .32-.19.83.83 0 0 0 .3-.7 3.64 3.64 0 0 0-.75-1.59 3.63 3.63 0 0 0-.57 1.66.83.83 0 0 0 .37.66 1.11 1.11 0 0 0 .33.16z" id="_Grupo_49" data-name="&amp;lt;Grupo&amp;gt;"/><path class="cls-4" d="M29 165.2a1.14 1.14 0 0 0 .32-.19.83.83 0 0 0 .3-.7 3.64 3.64 0 0 0-.75-1.59z" id="_Grupo_50" data-name="&amp;lt;Grupo&amp;gt;"/><path class="cls-6" d="M31.75 164a1.12 1.12 0 0 0 .32-.19.82.82 0 0 0 .3-.7 3.63 3.63 0 0 0-.75-1.59 3.63 3.63 0 0 0-.57 1.66.83.83 0 0 0 .37.66 1.13 1.13 0 0 0 .33.16z" id="_Grupo_51" data-name="&amp;lt;Grupo&amp;gt;"/><path class="cls-4" d="M31.75 164a1.12 1.12 0 0 0 .32-.19.82.82 0 0 0 .3-.7 3.63 3.63 0 0 0-.75-1.59z" id="_Grupo_52" data-name="&amp;lt;Grupo&amp;gt;"/><path class="cls-6" d="M34.77 162.81a1 1 0 0 0 .29-.18.76.76 0 0 0 .27-.65 3.35 3.35 0 0 0-.7-1.46 3.35 3.35 0 0 0-.53 1.53.76.76 0 0 0 .35.61 1.06 1.06 0 0 0 .32.15z" id="_Grupo_53" data-name="&amp;lt;Grupo&amp;gt;"/><path class="cls-4" d="M34.77 162.81a1 1 0 0 0 .29-.18.76.76 0 0 0 .27-.65 3.35 3.35 0 0 0-.7-1.46z" id="_Grupo_54" data-name="&amp;lt;Grupo&amp;gt;"/><path class="cls-6" d="M38 161.93a.9.9 0 0 0 .26-.15.67.67 0 0 0 .24-.57 2.92 2.92 0 0 0-.61-1.28 2.92 2.92 0 0 0-.46 1.34.66.66 0 0 0 .3.54.9.9 0 0 0 .27.12z" id="_Grupo_55" data-name="&amp;lt;Grupo&amp;gt;"/><path class="cls-4" d="M38 161.93a.9.9 0 0 0 .26-.15.67.67 0 0 0 .24-.57 2.92 2.92 0 0 0-.61-1.28z" id="_Grupo_56" data-name="&amp;lt;Grupo&amp;gt;"/><path class="cls-6" d="M41.13 161.33a.91.91 0 0 0 .26-.15.66.66 0 0 0 .24-.57 2.93 2.93 0 0 0-.61-1.28 2.92 2.92 0 0 0-.46 1.34.67.67 0 0 0 .3.54.92.92 0 0 0 .27.12z" id="_Grupo_57" data-name="&amp;lt;Grupo&amp;gt;"/><path class="cls-4" d="M41.13 161.33a.91.91 0 0 0 .26-.15.66.66 0 0 0 .24-.57 2.93 2.93 0 0 0-.61-1.28z" id="_Grupo_58" data-name="&amp;lt;Grupo&amp;gt;"/><path class="cls-6" d="M44 161.1a.89.89 0 0 0 .25-.15.66.66 0 0 0 .24-.56 2.92 2.92 0 0 0-.6-1.27 2.9 2.9 0 0 0-.46 1.33.66.66 0 0 0 .3.53.91.91 0 0 0 .27.12z" id="_Grupo_59" data-name="&amp;lt;Grupo&amp;gt;"/><path class="cls-4" d="M44 161.1a.89.89 0 0 0 .25-.15.66.66 0 0 0 .24-.56 2.92 2.92 0 0 0-.6-1.27z" id="_Grupo_60" data-name="&amp;lt;Grupo&amp;gt;"/><path class="cls-6" d="M23.2 168.82a1.13 1.13 0 0 0 .32-.19.83.83 0 0 0 .3-.7 3.64 3.64 0 0 0-.75-1.59 3.63 3.63 0 0 0-.57 1.66.82.82 0 0 0 .37.66 1.16 1.16 0 0 0 .33.16z" id="_Grupo_61" data-name="&amp;lt;Grupo&amp;gt;"/><path class="cls-4" d="M23.2 168.82a1.13 1.13 0 0 0 .32-.19.83.83 0 0 0 .3-.7 3.64 3.64 0 0 0-.75-1.59z" id="_Grupo_62" data-name="&amp;lt;Grupo&amp;gt;"/><path class="cls-6" d="M20.07 171.3a1.2 1.2 0 0 0 .34-.2.87.87 0 0 0 .31-.74 3.84 3.84 0 0 0-.8-1.68 3.85 3.85 0 0 0-.6 1.76.87.87 0 0 0 .39.7 1.2 1.2 0 0 0 .36.16z" id="_Grupo_63" data-name="&amp;lt;Grupo&amp;gt;"/><path class="cls-4" d="M20.07 171.3a1.2 1.2 0 0 0 .34-.2.87.87 0 0 0 .31-.74 3.84 3.84 0 0 0-.8-1.68z" id="_Grupo_64" data-name="&amp;lt;Grupo&amp;gt;"/><path class="cls-6" d="M17.19 173.93a1.23 1.23 0 0 0 .35-.21.91.91 0 0 0 .33-.77 4 4 0 0 0-.87-1.75 4 4 0 0 0-.63 1.83.91.91 0 0 0 .41.73 1.24 1.24 0 0 0 .41.17z" id="_Grupo_65" data-name="&amp;lt;Grupo&amp;gt;"/><path class="cls-4" d="M17.19 173.93a1.23 1.23 0 0 0 .35-.21.91.91 0 0 0 .33-.77 4 4 0 0 0-.87-1.75z" id="_Grupo_66" data-name="&amp;lt;Grupo&amp;gt;"/><path class="cls-6" d="M14.37 177a1.25 1.25 0 0 0 .36-.21.92.92 0 0 0 .33-.78 4.06 4.06 0 0 0-.84-1.77 4.06 4.06 0 0 0-.64 1.86.92.92 0 0 0 .42.74 1.26 1.26 0 0 0 .37.16z" id="_Grupo_67" data-name="&amp;lt;Grupo&amp;gt;"/><path class="cls-4" d="M14.37 177a1.25 1.25 0 0 0 .36-.21.92.92 0 0 0 .33-.78 4.06 4.06 0 0 0-.84-1.77z" id="_Grupo_68" data-name="&amp;lt;Grupo&amp;gt;"/><path class="cls-6" d="M11.8 180.3a1.25 1.25 0 0 0 .36-.22.93.93 0 0 0 .33-.79 4.09 4.09 0 0 0-.85-1.78 4.08 4.08 0 0 0-.64 1.87.93.93 0 0 0 .42.75 1.28 1.28 0 0 0 .38.17z" id="_Grupo_69" data-name="&amp;lt;Grupo&amp;gt;"/><path class="cls-4" d="M11.8 180.3a1.25 1.25 0 0 0 .36-.22.93.93 0 0 0 .33-.79 4.09 4.09 0 0 0-.85-1.78z" id="_Grupo_70" data-name="&amp;lt;Grupo&amp;gt;"/><path class="cls-6" d="M30.52 168.09a1.15 1.15 0 0 0 .32-.19.83.83 0 0 0 .3-.7 3.65 3.65 0 0 0-.76-1.59 3.63 3.63 0 0 0-.57 1.66.83.83 0 0 0 .37.66 1.14 1.14 0 0 0 .34.16z" id="_Grupo_71" data-name="&amp;lt;Grupo&amp;gt;"/><path class="cls-4" d="M30.52 168.09a1.15 1.15 0 0 0 .32-.19.83.83 0 0 0 .3-.7 3.65 3.65 0 0 0-.76-1.59z" id="_Grupo_72" data-name="&amp;lt;Grupo&amp;gt;"/><path class="cls-6" d="M28.2 170.06a1.12 1.12 0 0 0 .32-.19.83.83 0 0 0 .3-.7 3.64 3.64 0 0 0-.76-1.59 3.63 3.63 0 0 0-.57 1.66.83.83 0 0 0 .37.66 1.14 1.14 0 0 0 .34.16z" id="_Grupo_73" data-name="&amp;lt;Grupo&amp;gt;"/><path class="cls-4" d="M28.2 170.06a1.12 1.12 0 0 0 .32-.19.83.83 0 0 0 .3-.7 3.64 3.64 0 0 0-.76-1.59z" id="_Grupo_74" data-name="&amp;lt;Grupo&amp;gt;"/><path class="cls-6" d="M33.46 166.42a1.12 1.12 0 0 0 .32-.19.83.83 0 0 0 .3-.7 3.64 3.64 0 0 0-.75-1.59 3.63 3.63 0 0 0-.57 1.66.83.83 0 0 0 .37.66 1.12 1.12 0 0 0 .33.16z" id="_Grupo_75" data-name="&amp;lt;Grupo&amp;gt;"/><path class="cls-4" d="M33.46 166.42a1.12 1.12 0 0 0 .32-.19.83.83 0 0 0 .3-.7 3.64 3.64 0 0 0-.75-1.59z" id="_Grupo_76" data-name="&amp;lt;Grupo&amp;gt;"/><path class="cls-6" d="M36.24 165.19a1.14 1.14 0 0 0 .32-.19.83.83 0 0 0 .3-.7 3.64 3.64 0 0 0-.75-1.59 3.63 3.63 0 0 0-.57 1.66.83.83 0 0 0 .37.66 1.13 1.13 0 0 0 .33.16z" id="_Grupo_77" data-name="&amp;lt;Grupo&amp;gt;"/><path class="cls-4" d="M36.24 165.19a1.14 1.14 0 0 0 .32-.19.83.83 0 0 0 .3-.7 3.64 3.64 0 0 0-.75-1.59z" id="_Grupo_78" data-name="&amp;lt;Grupo&amp;gt;"/><path class="cls-6" d="M39.26 164a1.06 1.06 0 0 0 .29-.18.76.76 0 0 0 .27-.65 3.34 3.34 0 0 0-.7-1.46 3.36 3.36 0 0 0-.53 1.53.76.76 0 0 0 .35.61 1 1 0 0 0 .32.15z" id="_Grupo_79" data-name="&amp;lt;Grupo&amp;gt;"/><path class="cls-4" d="M39.26 164a1.06 1.06 0 0 0 .29-.18.76.76 0 0 0 .27-.65 3.34 3.34 0 0 0-.7-1.46z" id="_Grupo_80" data-name="&amp;lt;Grupo&amp;gt;"/><path class="cls-6" d="M42.45 163.15a.91.91 0 0 0 .26-.15.66.66 0 0 0 .24-.57 2.92 2.92 0 0 0-.61-1.28 2.93 2.93 0 0 0-.46 1.34.66.66 0 0 0 .3.54.94.94 0 0 0 .27.12z" id="_Grupo_81" data-name="&amp;lt;Grupo&amp;gt;"/><path class="cls-4" d="M42.45 163.15a.91.91 0 0 0 .26-.15.66.66 0 0 0 .24-.57 2.92 2.92 0 0 0-.61-1.28z" id="_Grupo_82" data-name="&amp;lt;Grupo&amp;gt;"/><path class="cls-6" d="M45.62 162.55a.92.92 0 0 0 .26-.15.67.67 0 0 0 .24-.57 2.94 2.94 0 0 0-.61-1.28 2.92 2.92 0 0 0-.46 1.34.67.67 0 0 0 .3.54.93.93 0 0 0 .27.12z" id="_Grupo_83" data-name="&amp;lt;Grupo&amp;gt;"/><path class="cls-4" d="M45.62 162.55a.92.92 0 0 0 .26-.15.67.67 0 0 0 .24-.57 2.94 2.94 0 0 0-.61-1.28z" id="_Grupo_84" data-name="&amp;lt;Grupo&amp;gt;"/><path class="cls-6" d="M48.51 162.32a.89.89 0 0 0 .25-.15.66.66 0 0 0 .24-.56 2.92 2.92 0 0 0-.6-1.27 2.91 2.91 0 0 0-.46 1.33.66.66 0 0 0 .3.53.88.88 0 0 0 .27.12z" id="_Grupo_85" data-name="&amp;lt;Grupo&amp;gt;"/><path class="cls-4" d="M48.51 162.32a.89.89 0 0 0 .25-.15.66.66 0 0 0 .24-.56 2.92 2.92 0 0 0-.6-1.27z" id="_Grupo_86" data-name="&amp;lt;Grupo&amp;gt;"/><path class="cls-6" d="M25.59 172.7a1.24 1.24 0 0 0 .35-.21.91.91 0 0 0 .33-.77 4 4 0 0 0-.83-1.75 4 4 0 0 0-.63 1.83.91.91 0 0 0 .41.73 1.25 1.25 0 0 0 .37.17z" id="_Grupo_87" data-name="&amp;lt;Grupo&amp;gt;"/><path class="cls-4" d="M25.59 172.7a1.24 1.24 0 0 0 .35-.21.91.91 0 0 0 .33-.77 4 4 0 0 0-.83-1.75z" id="_Grupo_88" data-name="&amp;lt;Grupo&amp;gt;"/><path class="cls-6" d="M22.63 175.21A1.29 1.29 0 0 0 23 175a.94.94 0 0 0 .34-.8 4.15 4.15 0 0 0-.86-1.82 4.15 4.15 0 0 0-.65 1.9.94.94 0 0 0 .43.76 1.31 1.31 0 0 0 .37.17z" id="_Grupo_89" data-name="&amp;lt;Grupo&amp;gt;"/><path class="cls-4" d="M22.63 175.21A1.29 1.29 0 0 0 23 175a.94.94 0 0 0 .34-.8 4.15 4.15 0 0 0-.86-1.82z" id="_Grupo_90" data-name="&amp;lt;Grupo&amp;gt;"/><path class="cls-6" d="M20.07 178.17a1.32 1.32 0 0 0 .37-.22 1 1 0 0 0 .34-.82 4.22 4.22 0 0 0-.88-1.85 4.21 4.21 0 0 0-.67 1.93 1 1 0 0 0 .43.77 1.33 1.33 0 0 0 .41.19z" id="_Grupo_91" data-name="&amp;lt;Grupo&amp;gt;"/><path class="cls-4" d="M20.07 178.17a1.32 1.32 0 0 0 .37-.22 1 1 0 0 0 .34-.82 4.22 4.22 0 0 0-.88-1.85z" id="_Grupo_92" data-name="&amp;lt;Grupo&amp;gt;"/><path class="cls-6" d="M17.3 181.28a1.3 1.3 0 0 0 .37-.22 1 1 0 0 0 .35-.82 4.25 4.25 0 0 0-.88-1.86 4.24 4.24 0 0 0-.67 1.94 1 1 0 0 0 .44.78 1.31 1.31 0 0 0 .39.18z" id="_Grupo_93" data-name="&amp;lt;Grupo&amp;gt;"/><path class="cls-4" d="M17.3 181.28a1.3 1.3 0 0 0 .37-.22 1 1 0 0 0 .35-.82 4.25 4.25 0 0 0-.88-1.86z" id="_Grupo_94" data-name="&amp;lt;Grupo&amp;gt;"/><path class="cls-6" d="M32.55 171.34a1.14 1.14 0 0 0 .32-.19.82.82 0 0 0 .3-.7 3.64 3.64 0 0 0-.75-1.59 3.63 3.63 0 0 0-.57 1.66.82.82 0 0 0 .37.66 1.14 1.14 0 0 0 .33.16z" id="_Grupo_95" data-name="&amp;lt;Grupo&amp;gt;"/><path class="cls-4" d="M32.55 171.34a1.14 1.14 0 0 0 .32-.19.82.82 0 0 0 .3-.7 3.64 3.64 0 0 0-.75-1.59z" id="_Grupo_96" data-name="&amp;lt;Grupo&amp;gt;"/><path class="cls-6" d="M35.35 169.41a1.12 1.12 0 0 0 .32-.19.83.83 0 0 0 .3-.7 3.64 3.64 0 0 0-.75-1.59 3.64 3.64 0 0 0-.57 1.66.83.83 0 0 0 .37.67 1.13 1.13 0 0 0 .33.15z" id="_Grupo_97" data-name="&amp;lt;Grupo&amp;gt;"/><path class="cls-4" d="M35.35 169.41a1.12 1.12 0 0 0 .32-.19.83.83 0 0 0 .3-.7 3.64 3.64 0 0 0-.75-1.59z" id="_Grupo_98" data-name="&amp;lt;Grupo&amp;gt;"/><path class="cls-6" d="M38.27 167.63a1.13 1.13 0 0 0 .32-.19.83.83 0 0 0 .3-.7 3.63 3.63 0 0 0-.76-1.59 3.62 3.62 0 0 0-.57 1.66.82.82 0 0 0 .37.66 1.12 1.12 0 0 0 .34.16z" id="_Grupo_99" data-name="&amp;lt;Grupo&amp;gt;"/><path class="cls-4" d="M38.27 167.63a1.13 1.13 0 0 0 .32-.19.83.83 0 0 0 .3-.7 3.63 3.63 0 0 0-.76-1.59z" id="_Grupo_100" data-name="&amp;lt;Grupo&amp;gt;"/><path class="cls-6" d="M41.15 166a1 1 0 0 0 .29-.18.76.76 0 0 0 .27-.65 3.36 3.36 0 0 0-.7-1.46 3.35 3.35 0 0 0-.53 1.53.76.76 0 0 0 .35.61 1 1 0 0 0 .32.15z" id="_Grupo_101" data-name="&amp;lt;Grupo&amp;gt;"/><path class="cls-4" d="M41.15 166a1 1 0 0 0 .29-.18.76.76 0 0 0 .27-.65 3.36 3.36 0 0 0-.7-1.46z" id="_Grupo_102" data-name="&amp;lt;Grupo&amp;gt;"/><path class="cls-6" d="M44.48 164.88a.9.9 0 0 0 .26-.15.66.66 0 0 0 .24-.57 2.92 2.92 0 0 0-.61-1.28 2.92 2.92 0 0 0-.46 1.34.66.66 0 0 0 .3.54.87.87 0 0 0 .27.12z" id="_Grupo_103" data-name="&amp;lt;Grupo&amp;gt;"/><path class="cls-4" d="M44.48 164.88a.9.9 0 0 0 .26-.15.66.66 0 0 0 .24-.57 2.92 2.92 0 0 0-.61-1.28z" id="_Grupo_104" data-name="&amp;lt;Grupo&amp;gt;"/><path class="cls-6" d="M47.37 164.28a.9.9 0 0 0 .26-.15.67.67 0 0 0 .24-.57 2.92 2.92 0 0 0-.61-1.28 2.93 2.93 0 0 0-.46 1.34.67.67 0 0 0 .3.54.9.9 0 0 0 .27.12z" id="_Grupo_105" data-name="&amp;lt;Grupo&amp;gt;"/><path class="cls-4" d="M47.37 164.28a.9.9 0 0 0 .26-.15.67.67 0 0 0 .24-.57 2.92 2.92 0 0 0-.61-1.28z" id="_Grupo_106" data-name="&amp;lt;Grupo&amp;gt;"/><path class="cls-6" d="M51 163.49a.86.86 0 0 0 .26-.15.66.66 0 0 0 .24-.56 2.9 2.9 0 0 0-.6-1.27 2.9 2.9 0 0 0-.46 1.33.66.66 0 0 0 .3.53.87.87 0 0 0 .26.12z" id="_Grupo_107" data-name="&amp;lt;Grupo&amp;gt;"/><path class="cls-4" d="M51 163.49a.86.86 0 0 0 .26-.15.66.66 0 0 0 .24-.56 2.9 2.9 0 0 0-.6-1.27z" id="_Grupo_108" data-name="&amp;lt;Grupo&amp;gt;"/><path class="cls-6" d="M30 173.92a1.18 1.18 0 0 0 .34-.2.87.87 0 0 0 .31-.74 3.84 3.84 0 0 0-.8-1.68 3.83 3.83 0 0 0-.61 1.76.87.87 0 0 0 .4.7 1.2 1.2 0 0 0 .36.16z" id="_Grupo_109" data-name="&amp;lt;Grupo&amp;gt;"/><path class="cls-4" d="M30 173.92a1.18 1.18 0 0 0 .34-.2.87.87 0 0 0 .31-.74 3.84 3.84 0 0 0-.8-1.68z" id="_Grupo_110" data-name="&amp;lt;Grupo&amp;gt;"/><path class="cls-6" d="M27.54 176.29a1.24 1.24 0 0 0 .35-.21.91.91 0 0 0 .33-.77 4 4 0 0 0-.83-1.75 4 4 0 0 0-.63 1.83.91.91 0 0 0 .41.73 1.24 1.24 0 0 0 .37.17z" id="_Grupo_111" data-name="&amp;lt;Grupo&amp;gt;"/><path class="cls-4" d="M27.54 176.29a1.24 1.24 0 0 0 .35-.21.91.91 0 0 0 .33-.77 4 4 0 0 0-.83-1.75z" id="_Grupo_112" data-name="&amp;lt;Grupo&amp;gt;"/><path class="cls-6" d="M25.09 178.87a1.25 1.25 0 0 0 .36-.21.92.92 0 0 0 .33-.78 4.06 4.06 0 0 0-.84-1.77 4.06 4.06 0 0 0-.64 1.89.92.92 0 0 0 .42.74 1.25 1.25 0 0 0 .37.13z" id="_Grupo_113" data-name="&amp;lt;Grupo&amp;gt;"/><path class="cls-4" d="M25.09 178.87a1.25 1.25 0 0 0 .36-.21.92.92 0 0 0 .33-.78 4.06 4.06 0 0 0-.84-1.77z" id="_Grupo_114" data-name="&amp;lt;Grupo&amp;gt;"/><path class="cls-6" d="M22.47 181.92a1.22 1.22 0 0 0 .36-.21.93.93 0 0 0 .33-.79 4.08 4.08 0 0 0-.85-1.78 4.08 4.08 0 0 0-.64 1.87.93.93 0 0 0 .42.75 1.24 1.24 0 0 0 .38.16z" id="_Grupo_115" data-name="&amp;lt;Grupo&amp;gt;"/><path class="cls-4" d="M22.47 181.92a1.22 1.22 0 0 0 .36-.21.93.93 0 0 0 .33-.79 4.08 4.08 0 0 0-.85-1.78z" id="_Grupo_116" data-name="&amp;lt;Grupo&amp;gt;"/><path class="cls-6" d="M37.74 172.82a1.13 1.13 0 0 0 .32-.19.83.83 0 0 0 .3-.7 3.64 3.64 0 0 0-.76-1.59A3.65 3.65 0 0 0 37 172a.83.83 0 0 0 .37.66 1.14 1.14 0 0 0 .37.16z" id="_Grupo_117" data-name="&amp;lt;Grupo&amp;gt;"/><path class="cls-4" d="M37.74 172.82a1.13 1.13 0 0 0 .32-.19.83.83 0 0 0 .3-.7 3.64 3.64 0 0 0-.76-1.59z" id="_Grupo_118" data-name="&amp;lt;Grupo&amp;gt;"/><path class="cls-6" d="M35.14 175.1a1.14 1.14 0 0 0 .32-.19.82.82 0 0 0 .3-.7 3.63 3.63 0 0 0-.75-1.59 3.64 3.64 0 0 0-.57 1.66.83.83 0 0 0 .37.66 1.12 1.12 0 0 0 .33.16z" id="_Grupo_119" data-name="&amp;lt;Grupo&amp;gt;"/><path class="cls-4" d="M35.14 175.1a1.14 1.14 0 0 0 .32-.19.82.82 0 0 0 .3-.7 3.63 3.63 0 0 0-.75-1.59z" id="_Grupo_120" data-name="&amp;lt;Grupo&amp;gt;"/><path class="cls-6" d="M40.41 170.62a1.12 1.12 0 0 0 .32-.19.83.83 0 0 0 .3-.7 3.64 3.64 0 0 0-.75-1.59 3.62 3.62 0 0 0-.57 1.66.82.82 0 0 0 .37.66 1.13 1.13 0 0 0 .33.16z" id="_Grupo_121" data-name="&amp;lt;Grupo&amp;gt;"/><path class="cls-4" d="M40.41 170.62a1.12 1.12 0 0 0 .32-.19.83.83 0 0 0 .3-.7 3.64 3.64 0 0 0-.75-1.59z" id="_Grupo_122" data-name="&amp;lt;Grupo&amp;gt;"/><path class="cls-6" d="M43.19 169a1.12 1.12 0 0 0 .32-.19.83.83 0 0 0 .3-.7 3.65 3.65 0 0 0-.75-1.59 3.63 3.63 0 0 0-.57 1.66.83.83 0 0 0 .37.67 1.13 1.13 0 0 0 .33.15z" id="_Grupo_123" data-name="&amp;lt;Grupo&amp;gt;"/><path class="cls-4" d="M43.19 169a1.12 1.12 0 0 0 .32-.19.83.83 0 0 0 .3-.7 3.65 3.65 0 0 0-.75-1.59z" id="_Grupo_124" data-name="&amp;lt;Grupo&amp;gt;"/><path class="cls-6" d="M46.2 167.39a1 1 0 0 0 .29-.18.76.76 0 0 0 .27-.65 3.37 3.37 0 0 0-.69-1.46 3.34 3.34 0 0 0-.53 1.53.76.76 0 0 0 .34.61 1 1 0 0 0 .32.15z" id="_Grupo_125" data-name="&amp;lt;Grupo&amp;gt;"/><path class="cls-4" d="M46.2 167.39a1 1 0 0 0 .29-.18.76.76 0 0 0 .27-.65 3.37 3.37 0 0 0-.69-1.46z" id="_Grupo_126" data-name="&amp;lt;Grupo&amp;gt;"/><path class="cls-6" d="M49.25 166.37a.87.87 0 0 0 .26-.15.66.66 0 0 0 .24-.56 2.93 2.93 0 0 0-.61-1.28 2.93 2.93 0 0 0-.46 1.34.66.66 0 0 0 .3.54.89.89 0 0 0 .27.11z" id="_Grupo_127" data-name="&amp;lt;Grupo&amp;gt;"/><path class="cls-4" d="M49.25 166.37a.87.87 0 0 0 .26-.15.66.66 0 0 0 .24-.56 2.93 2.93 0 0 0-.61-1.28z" id="_Grupo_128" data-name="&amp;lt;Grupo&amp;gt;"/><path class="cls-6" d="M52.14 165.63a.91.91 0 0 0 .26-.15.67.67 0 0 0 .24-.57 2.93 2.93 0 0 0-.61-1.28 2.93 2.93 0 0 0-.46 1.34.67.67 0 0 0 .3.54.88.88 0 0 0 .27.12z" id="_Grupo_129" data-name="&amp;lt;Grupo&amp;gt;"/><path class="cls-4" d="M52.14 165.63a.91.91 0 0 0 .26-.15.67.67 0 0 0 .24-.57 2.93 2.93 0 0 0-.61-1.28z" id="_Grupo_130" data-name="&amp;lt;Grupo&amp;gt;"/><path class="cls-6" d="M54.89 165.26a.91.91 0 0 0 .25-.15.66.66 0 0 0 .24-.56 2.9 2.9 0 0 0-.6-1.27 2.9 2.9 0 0 0-.46 1.33.66.66 0 0 0 .3.53.88.88 0 0 0 .27.12z" id="_Grupo_131" data-name="&amp;lt;Grupo&amp;gt;"/><path class="cls-4" d="M54.89 165.26a.91.91 0 0 0 .25-.15.66.66 0 0 0 .24-.56 2.9 2.9 0 0 0-.6-1.27z" id="_Grupo_132" data-name="&amp;lt;Grupo&amp;gt;"/><path class="cls-6" d="M32.48 177.51a1.18 1.18 0 0 0 .34-.2.87.87 0 0 0 .31-.74 3.84 3.84 0 0 0-.8-1.68 3.83 3.83 0 0 0-.6 1.76.87.87 0 0 0 .39.7 1.2 1.2 0 0 0 .36.16z" id="_Grupo_133" data-name="&amp;lt;Grupo&amp;gt;"/><path class="cls-4" d="M32.48 177.51a1.18 1.18 0 0 0 .34-.2.87.87 0 0 0 .31-.74 3.84 3.84 0 0 0-.8-1.68z" id="_Grupo_134" data-name="&amp;lt;Grupo&amp;gt;"/><path class="cls-6" d="M30.08 180a1.24 1.24 0 0 0 .35-.21.91.91 0 0 0 .33-.77 4 4 0 0 0-.83-1.75 4 4 0 0 0-.63 1.83.91.91 0 0 0 .41.73 1.24 1.24 0 0 0 .37.17z" id="_Grupo_135" data-name="&amp;lt;Grupo&amp;gt;"/><path class="cls-4" d="M30.08 180a1.24 1.24 0 0 0 .35-.21.91.91 0 0 0 .33-.77 4 4 0 0 0-.83-1.75z" id="_Grupo_136" data-name="&amp;lt;Grupo&amp;gt;"/><path class="cls-6" d="M27.72 182.62a1.26 1.26 0 0 0 .36-.21.92.92 0 0 0 .33-.78 4.06 4.06 0 0 0-.84-1.77 4.06 4.06 0 0 0-.64 1.86.92.92 0 0 0 .42.74 1.26 1.26 0 0 0 .37.16z" id="_Grupo_137" data-name="&amp;lt;Grupo&amp;gt;"/><path class="cls-4" d="M27.72 182.62a1.26 1.26 0 0 0 .36-.21.92.92 0 0 0 .33-.78 4.06 4.06 0 0 0-.84-1.77z" id="_Grupo_138" data-name="&amp;lt;Grupo&amp;gt;"/><path class="cls-6" d="M41.53 175.22a1.13 1.13 0 0 0 .32-.19.83.83 0 0 0 .3-.7 3.64 3.64 0 0 0-.76-1.59 3.64 3.64 0 0 0-.57 1.66.82.82 0 0 0 .37.66 1.13 1.13 0 0 0 .34.16z" id="_Grupo_139" data-name="&amp;lt;Grupo&amp;gt;"/><path class="cls-4" d="M41.53 175.22a1.13 1.13 0 0 0 .32-.19.83.83 0 0 0 .3-.7 3.64 3.64 0 0 0-.76-1.59z" id="_Grupo_140" data-name="&amp;lt;Grupo&amp;gt;"/><path class="cls-6" d="M38.93 177.5a1.13 1.13 0 0 0 .32-.19.82.82 0 0 0 .3-.7 3.63 3.63 0 0 0-.76-1.59 3.64 3.64 0 0 0-.57 1.66.83.83 0 0 0 .37.67 1.13 1.13 0 0 0 .34.15z" id="_Grupo_141" data-name="&amp;lt;Grupo&amp;gt;"/><path class="cls-4" d="M38.93 177.5a1.13 1.13 0 0 0 .32-.19.82.82 0 0 0 .3-.7 3.63 3.63 0 0 0-.76-1.59z" id="_Grupo_142" data-name="&amp;lt;Grupo&amp;gt;"/><path class="cls-6" d="M44.2 173a1.13 1.13 0 0 0 .32-.19.82.82 0 0 0 .3-.7 3.64 3.64 0 0 0-.75-1.59 3.63 3.63 0 0 0-.57 1.66.82.82 0 0 0 .37.66 1.15 1.15 0 0 0 .33.16z" id="_Grupo_143" data-name="&amp;lt;Grupo&amp;gt;"/><path class="cls-4" d="M44.2 173a1.13 1.13 0 0 0 .32-.19.82.82 0 0 0 .3-.7 3.64 3.64 0 0 0-.75-1.59z" id="_Grupo_144" data-name="&amp;lt;Grupo&amp;gt;"/><path class="cls-6" d="M47.12 171.23a1.13 1.13 0 0 0 .32-.19.83.83 0 0 0 .3-.7 3.63 3.63 0 0 0-.76-1.59 3.63 3.63 0 0 0-.57 1.66.82.82 0 0 0 .37.66 1.14 1.14 0 0 0 .34.16z" id="_Grupo_145" data-name="&amp;lt;Grupo&amp;gt;"/><path class="cls-4" d="M47.12 171.23a1.13 1.13 0 0 0 .32-.19.83.83 0 0 0 .3-.7 3.63 3.63 0 0 0-.76-1.59z" id="_Grupo_146" data-name="&amp;lt;Grupo&amp;gt;"/><path class="cls-6" d="M50.13 169.65a1 1 0 0 0 .29-.18.76.76 0 0 0 .27-.65 3.36 3.36 0 0 0-.69-1.46 3.34 3.34 0 0 0-.53 1.53.76.76 0 0 0 .34.61 1 1 0 0 0 .32.15z" id="_Grupo_147" data-name="&amp;lt;Grupo&amp;gt;"/><path class="cls-4" d="M50.13 169.65a1 1 0 0 0 .29-.18.76.76 0 0 0 .27-.65 3.36 3.36 0 0 0-.69-1.46z" id="_Grupo_148" data-name="&amp;lt;Grupo&amp;gt;"/><path class="cls-6" d="M53.18 168.48a.9.9 0 0 0 .26-.15.66.66 0 0 0 .24-.56 2.92 2.92 0 0 0-.61-1.28 2.92 2.92 0 0 0-.46 1.34.66.66 0 0 0 .3.54.91.91 0 0 0 .27.11z" id="_Grupo_149" data-name="&amp;lt;Grupo&amp;gt;"/><path class="cls-4" d="M53.18 168.48a.9.9 0 0 0 .26-.15.66.66 0 0 0 .24-.56 2.92 2.92 0 0 0-.61-1.28z" id="_Grupo_150" data-name="&amp;lt;Grupo&amp;gt;"/><path class="cls-6" d="M55.93 167.75a.91.91 0 0 0 .26-.15.67.67 0 0 0 .24-.57 2.94 2.94 0 0 0-.61-1.28 2.93 2.93 0 0 0-.46 1.34.67.67 0 0 0 .3.54.92.92 0 0 0 .27.12z" id="_Grupo_151" data-name="&amp;lt;Grupo&amp;gt;"/><path class="cls-4" d="M55.93 167.75a.91.91 0 0 0 .26-.15.67.67 0 0 0 .24-.57 2.94 2.94 0 0 0-.61-1.28z" id="_Grupo_152" data-name="&amp;lt;Grupo&amp;gt;"/><path class="cls-6" d="M58.54 167.52a.91.91 0 0 0 .25-.15.66.66 0 0 0 .24-.56 2.91 2.91 0 0 0-.6-1.27 2.91 2.91 0 0 0-.46 1.33.66.66 0 0 0 .3.53.92.92 0 0 0 .27.12z" id="_Grupo_153" data-name="&amp;lt;Grupo&amp;gt;"/><path class="cls-4" d="M58.54 167.52a.91.91 0 0 0 .25-.15.66.66 0 0 0 .24-.56 2.91 2.91 0 0 0-.6-1.27z" id="_Grupo_154" data-name="&amp;lt;Grupo&amp;gt;"/><path class="cls-6" d="M36.86 180.11a1.2 1.2 0 0 0 .34-.2.87.87 0 0 0 .31-.74 3.84 3.84 0 0 0-.8-1.68 3.83 3.83 0 0 0-.61 1.76.87.87 0 0 0 .4.7 1.2 1.2 0 0 0 .36.16z" id="_Grupo_155" data-name="&amp;lt;Grupo&amp;gt;"/><path class="cls-4" d="M36.86 180.11a1.2 1.2 0 0 0 .34-.2.87.87 0 0 0 .31-.74 3.84 3.84 0 0 0-.8-1.68z" id="_Grupo_156" data-name="&amp;lt;Grupo&amp;gt;"/><path class="cls-6" d="M34.78 182.67a1.23 1.23 0 0 0 .35-.21.91.91 0 0 0 .33-.77 4 4 0 0 0-.83-1.75 4 4 0 0 0-.63 1.83.91.91 0 0 0 .41.73 1.24 1.24 0 0 0 .37.17z" id="_Grupo_157" data-name="&amp;lt;Grupo&amp;gt;"/><path class="cls-4" d="M34.78 182.67a1.23 1.23 0 0 0 .35-.21.91.91 0 0 0 .33-.77 4 4 0 0 0-.83-1.75z" id="_Grupo_158" data-name="&amp;lt;Grupo&amp;gt;"/><path class="cls-6" d="M44.36 179a1.14 1.14 0 0 0 .32-.19.83.83 0 0 0 .3-.7 3.63 3.63 0 0 0-.75-1.59 3.63 3.63 0 0 0-.57 1.66.83.83 0 0 0 .37.66 1.15 1.15 0 0 0 .33.16z" id="_Grupo_159" data-name="&amp;lt;Grupo&amp;gt;"/><path class="cls-4" d="M44.36 179a1.14 1.14 0 0 0 .32-.19.83.83 0 0 0 .3-.7 3.63 3.63 0 0 0-.75-1.59z" id="_Grupo_160" data-name="&amp;lt;Grupo&amp;gt;"/><path class="cls-6" d="M41.76 181.39a1.12 1.12 0 0 0 .32-.19.83.83 0 0 0 .3-.7 3.65 3.65 0 0 0-.76-1.59 3.62 3.62 0 0 0-.57 1.66.83.83 0 0 0 .37.66 1.14 1.14 0 0 0 .34.16z" id="_Grupo_161" data-name="&amp;lt;Grupo&amp;gt;"/><path class="cls-4" d="M41.76 181.39a1.12 1.12 0 0 0 .32-.19.83.83 0 0 0 .3-.7 3.65 3.65 0 0 0-.76-1.59z" id="_Grupo_162" data-name="&amp;lt;Grupo&amp;gt;"/><path class="cls-6" d="M47 176.35a1.13 1.13 0 0 0 .32-.19.83.83 0 0 0 .3-.7 3.64 3.64 0 0 0-.75-1.59 3.63 3.63 0 0 0-.57 1.66.82.82 0 0 0 .38.67 1.13 1.13 0 0 0 .32.15z" id="_Grupo_163" data-name="&amp;lt;Grupo&amp;gt;"/><path class="cls-4" d="M47 176.35a1.13 1.13 0 0 0 .32-.19.83.83 0 0 0 .3-.7 3.64 3.64 0 0 0-.75-1.59z" id="_Grupo_164" data-name="&amp;lt;Grupo&amp;gt;"/><path class="cls-6" d="M49.94 174.42a1.12 1.12 0 0 0 .32-.19.83.83 0 0 0 .3-.7 3.63 3.63 0 0 0-.75-1.59 3.63 3.63 0 0 0-.57 1.66.83.83 0 0 0 .37.66 1.11 1.11 0 0 0 .33.16z" id="_Grupo_165" data-name="&amp;lt;Grupo&amp;gt;"/><path class="cls-4" d="M49.94 174.42a1.12 1.12 0 0 0 .32-.19.83.83 0 0 0 .3-.7 3.63 3.63 0 0 0-.75-1.59z" id="_Grupo_166" data-name="&amp;lt;Grupo&amp;gt;"/><path class="cls-6" d="M53 172.56a1 1 0 0 0 .29-.18.76.76 0 0 0 .27-.65 3.34 3.34 0 0 0-.69-1.46 3.34 3.34 0 0 0-.53 1.53.76.76 0 0 0 .34.61 1 1 0 0 0 .32.15z" id="_Grupo_167" data-name="&amp;lt;Grupo&amp;gt;"/><path class="cls-4" d="M53 172.56a1 1 0 0 0 .29-.18.76.76 0 0 0 .27-.65 3.34 3.34 0 0 0-.69-1.46z" id="_Grupo_168" data-name="&amp;lt;Grupo&amp;gt;"/><path class="cls-6" d="M55.73 171.12A.89.89 0 0 0 56 171a.67.67 0 0 0 .24-.57 2.93 2.93 0 0 0-.61-1.28 2.94 2.94 0 0 0-.46 1.34.66.66 0 0 0 .3.53.9.9 0 0 0 .26.1z" id="_Grupo_169" data-name="&amp;lt;Grupo&amp;gt;"/><path class="cls-4" d="M55.73 171.12A.89.89 0 0 0 56 171a.67.67 0 0 0 .24-.57 2.93 2.93 0 0 0-.61-1.28z" id="_Grupo_170" data-name="&amp;lt;Grupo&amp;gt;"/><path class="cls-6" d="M58.34 170.1a.93.93 0 0 0 .26-.15.67.67 0 0 0 .24-.57 2.94 2.94 0 0 0-.61-1.28 2.93 2.93 0 0 0-.46 1.34.67.67 0 0 0 .3.54.92.92 0 0 0 .27.12z" id="_Grupo_171" data-name="&amp;lt;Grupo&amp;gt;"/><path class="cls-4" d="M58.34 170.1a.93.93 0 0 0 .26-.15.67.67 0 0 0 .24-.57 2.94 2.94 0 0 0-.61-1.28z" id="_Grupo_172" data-name="&amp;lt;Grupo&amp;gt;"/><path class="cls-6" d="M60.8 169.31a.91.91 0 0 0 .25-.15.66.66 0 0 0 .24-.56 2.9 2.9 0 0 0-.6-1.27 2.91 2.91 0 0 0-.46 1.33.66.66 0 0 0 .3.53.88.88 0 0 0 .27.12z" id="_Grupo_173" data-name="&amp;lt;Grupo&amp;gt;"/><path class="cls-4" d="M60.8 169.31a.91.91 0 0 0 .25-.15.66.66 0 0 0 .24-.56 2.9 2.9 0 0 0-.6-1.27z" id="_Grupo_174" data-name="&amp;lt;Grupo&amp;gt;"/><path class="cls-6" d="M49.19 181.54a1.13 1.13 0 0 0 .32-.19.83.83 0 0 0 .3-.7 3.64 3.64 0 0 0-.75-1.59 3.63 3.63 0 0 0-.57 1.66.83.83 0 0 0 .37.66 1.14 1.14 0 0 0 .33.16z" id="_Grupo_175" data-name="&amp;lt;Grupo&amp;gt;"/><path class="cls-4" d="M49.19 181.54a1.13 1.13 0 0 0 .32-.19.83.83 0 0 0 .3-.7 3.64 3.64 0 0 0-.75-1.59z" id="_Grupo_176" data-name="&amp;lt;Grupo&amp;gt;"/><path class="cls-6" d="M51.89 179a1.12 1.12 0 0 0 .32-.19.82.82 0 0 0 .3-.7 3.64 3.64 0 0 0-.75-1.59 3.63 3.63 0 0 0-.57 1.66.83.83 0 0 0 .37.66 1.14 1.14 0 0 0 .33.16z" id="_Grupo_177" data-name="&amp;lt;Grupo&amp;gt;"/><path class="cls-4" d="M51.89 179a1.12 1.12 0 0 0 .32-.19.82.82 0 0 0 .3-.7 3.64 3.64 0 0 0-.75-1.59z" id="_Grupo_178" data-name="&amp;lt;Grupo&amp;gt;"/><path class="cls-6" d="M54.67 176.4a1.12 1.12 0 0 0 .32-.19.83.83 0 0 0 .3-.7 3.65 3.65 0 0 0-.76-1.59 3.63 3.63 0 0 0-.57 1.66.83.83 0 0 0 .37.66 1.12 1.12 0 0 0 .34.16z" id="_Grupo_179" data-name="&amp;lt;Grupo&amp;gt;"/><path class="cls-4" d="M54.67 176.4a1.12 1.12 0 0 0 .32-.19.83.83 0 0 0 .3-.7 3.65 3.65 0 0 0-.76-1.59z" id="_Grupo_180" data-name="&amp;lt;Grupo&amp;gt;"/><path class="cls-6" d="M57.6 174.2a1 1 0 0 0 .29-.18.76.76 0 0 0 .27-.65 3.35 3.35 0 0 0-.7-1.46 3.35 3.35 0 0 0-.53 1.53.76.76 0 0 0 .34.61 1 1 0 0 0 .33.15z" id="_Grupo_181" data-name="&amp;lt;Grupo&amp;gt;"/><path class="cls-4" d="M57.6 174.2a1 1 0 0 0 .29-.18.76.76 0 0 0 .27-.65 3.35 3.35 0 0 0-.7-1.46z" id="_Grupo_182" data-name="&amp;lt;Grupo&amp;gt;"/><path class="cls-6" d="M60.27 172.76a.9.9 0 0 0 .26-.16.66.66 0 0 0 .24-.56 2.93 2.93 0 0 0-.61-1.28 2.92 2.92 0 0 0-.46 1.34.66.66 0 0 0 .3.54.92.92 0 0 0 .27.12z" id="_Grupo_183" data-name="&amp;lt;Grupo&amp;gt;"/><path class="cls-4" d="M60.27 172.76a.9.9 0 0 0 .26-.16.66.66 0 0 0 .24-.56 2.93 2.93 0 0 0-.61-1.28z" id="_Grupo_184" data-name="&amp;lt;Grupo&amp;gt;"/><path class="cls-6" d="M63.31 171.88a.91.91 0 0 0 .26-.15.67.67 0 0 0 .24-.57 2.94 2.94 0 0 0-.61-1.28 2.93 2.93 0 0 0-.46 1.34.67.67 0 0 0 .3.54.91.91 0 0 0 .27.12z" id="_Grupo_185" data-name="&amp;lt;Grupo&amp;gt;"/><path class="cls-4" d="M63.31 171.88a.91.91 0 0 0 .26-.15.67.67 0 0 0 .24-.57 2.94 2.94 0 0 0-.61-1.28z" id="_Grupo_186" data-name="&amp;lt;Grupo&amp;gt;"/><path class="cls-6" d="M56.76 180.22a1.13 1.13 0 0 0 .32-.19.83.83 0 0 0 .3-.7 3.63 3.63 0 0 0-.75-1.59 3.64 3.64 0 0 0-.57 1.66.82.82 0 0 0 .37.67 1.13 1.13 0 0 0 .33.15z" id="_Grupo_187" data-name="&amp;lt;Grupo&amp;gt;"/><path class="cls-4" d="M56.76 180.22a1.13 1.13 0 0 0 .32-.19.83.83 0 0 0 .3-.7 3.63 3.63 0 0 0-.75-1.59z" id="_Grupo_188" data-name="&amp;lt;Grupo&amp;gt;"/><path class="cls-6" d="M59.26 177.64a1.15 1.15 0 0 0 .32-.19.82.82 0 0 0 .3-.7 3.63 3.63 0 0 0-.76-1.59 3.64 3.64 0 0 0-.57 1.66.83.83 0 0 0 .37.66 1.14 1.14 0 0 0 .34.16z" id="_Grupo_189" data-name="&amp;lt;Grupo&amp;gt;"/><path class="cls-4" d="M59.26 177.64a1.15 1.15 0 0 0 .32-.19.82.82 0 0 0 .3-.7 3.63 3.63 0 0 0-.76-1.59z" id="_Grupo_190" data-name="&amp;lt;Grupo&amp;gt;"/><path class="cls-6" d="M62.05 175.4a1 1 0 0 0 .29-.18.76.76 0 0 0 .27-.65 3.36 3.36 0 0 0-.7-1.46 3.35 3.35 0 0 0-.53 1.53.76.76 0 0 0 .35.61 1 1 0 0 0 .32.15z" id="_Grupo_191" data-name="&amp;lt;Grupo&amp;gt;"/><path class="cls-4" d="M62.05 175.4a1 1 0 0 0 .29-.18.76.76 0 0 0 .27-.65 3.36 3.36 0 0 0-.7-1.46z" id="_Grupo_192" data-name="&amp;lt;Grupo&amp;gt;"/><path class="cls-6" d="M64.76 174.26a.92.92 0 0 0 .26-.15.66.66 0 0 0 .24-.57 2.93 2.93 0 0 0-.61-1.28 2.92 2.92 0 0 0-.46 1.34.66.66 0 0 0 .3.54.94.94 0 0 0 .27.12z" id="_Grupo_193" data-name="&amp;lt;Grupo&amp;gt;"/><path class="cls-4" d="M64.76 174.26a.92.92 0 0 0 .26-.15.66.66 0 0 0 .24-.57 2.93 2.93 0 0 0-.61-1.28z" id="_Grupo_194" data-name="&amp;lt;Grupo&amp;gt;"/><path class="cls-6" d="M62.46 179a1.14 1.14 0 0 0 .32-.19.83.83 0 0 0 .3-.7 3.63 3.63 0 0 0-.76-1.59 3.63 3.63 0 0 0-.57 1.66.83.83 0 0 0 .37.66 1.14 1.14 0 0 0 .34.16z" id="_Grupo_195" data-name="&amp;lt;Grupo&amp;gt;"/><path class="cls-4" d="M62.46 179a1.14 1.14 0 0 0 .32-.19.83.83 0 0 0 .3-.7 3.63 3.63 0 0 0-.76-1.59z" id="_Grupo_196" data-name="&amp;lt;Grupo&amp;gt;"/><path class="cls-6" d="M64.83 177.49a1.06 1.06 0 0 0 .29-.18.76.76 0 0 0 .27-.65 3.36 3.36 0 0 0-.69-1.46 3.34 3.34 0 0 0-.53 1.53.76.76 0 0 0 .34.61 1 1 0 0 0 .32.15z" id="_Grupo_197" data-name="&amp;lt;Grupo&amp;gt;"/><path class="cls-4" d="M64.83 177.49a1.06 1.06 0 0 0 .29-.18.76.76 0 0 0 .27-.65 3.36 3.36 0 0 0-.69-1.46z" id="_Grupo_198" data-name="&amp;lt;Grupo&amp;gt;"/><path class="cls-6" d="M67.24 175.92a.89.89 0 0 0 .26-.15.66.66 0 0 0 .24-.57 2.93 2.93 0 0 0-.61-1.28 2.93 2.93 0 0 0-.46 1.34.66.66 0 0 0 .3.54.9.9 0 0 0 .27.12z" id="_Grupo_199" data-name="&amp;lt;Grupo&amp;gt;"/><path class="cls-4" d="M67.24 175.92a.89.89 0 0 0 .26-.15.66.66 0 0 0 .24-.57 2.93 2.93 0 0 0-.61-1.28z" id="_Grupo_200" data-name="&amp;lt;Grupo&amp;gt;"/><circle class="cls-6" cx="14.07" cy="144.57" r="4.63"/><circle class="cls-4" cx="14.07" cy="144.57" r="4.01"/><circle class="cls-1" cx="14.07" cy="144.57" r="3.19"/><path class="cls-6" d="M0 145.71h13a1.08 1.08 0 0 0-1.39-.89 3.11 3.11 0 0 0-3-2.25 3.35 3.35 0 0 0-2.15.78 2.29 2.29 0 0 0-1.41-.42 2.21 2.21 0 0 0-2 1A2.42 2.42 0 0 0 0 145.71z" id="_Grupo_201" data-name="&amp;lt;Grupo&amp;gt;"/><g id="_Grupo_202" data-name="&amp;lt;Grupo&amp;gt;"><path class="cls-1" d="M4.91 155.15l-.13-.15a1.27 1.27 0 0 0-1.56-.1.14.14 0 0 1-.17-.22 1.53 1.53 0 0 1 1.78 0 1.76 1.76 0 0 1 .19-.25 1.63 1.63 0 0 1 1.53-.43.14.14 0 0 1 .12.16.14.14 0 0 1-.16.12 1.35 1.35 0 0 0-1.29.39A1.53 1.53 0 0 0 5 155z" id="_Grupo_203" data-name="&amp;lt;Grupo&amp;gt;"/></g><g id="_Grupo_204" data-name="&amp;lt;Grupo&amp;gt;"><path class="cls-1" d="M8.63 153.82l-.1-.14a1.27 1.27 0 0 0-1.47-.54.14.14 0 0 1-.1-.26 1.53 1.53 0 0 1 1.7.52 1.78 1.78 0 0 1 .26-.18 1.63 1.63 0 0 1 1.61 0 .14.14 0 1 1-.12.25 1.36 1.36 0 0 0-1.34 0 1.53 1.53 0 0 0-.32.25z" id="_Grupo_205" data-name="&amp;lt;Grupo&amp;gt;"/></g><g id="_Grupo_206" data-name="&amp;lt;Grupo&amp;gt;"><path class="cls-1" d="M61.9 158.41l-.12-.12a1.54 1.54 0 0 0-.31-.26 1.36 1.36 0 0 0-1.34 0 .14.14 0 0 1-.12-.25 1.63 1.63 0 0 1 1.61.06 1.81 1.81 0 0 1 .25.19 1.53 1.53 0 0 1 1.71-.47.14.14 0 1 1-.11.26 1.27 1.27 0 0 0-1.48.5z" id="_Grupo_207" data-name="&amp;lt;Grupo&amp;gt;"/></g><path class="cls-6" d="M56.29 154.11h9.41a.78.78 0 0 0-1-.65 2.25 2.25 0 0 0-2.18-1.62 2.42 2.42 0 0 0-1.55.56 1.65 1.65 0 0 0-1-.3 1.6 1.6 0 0 0-1.41.75 1.75 1.75 0 0 0-2.27 1.26z" id="_Grupo_208" data-name="&amp;lt;Grupo&amp;gt;"/><path class="cls-6" d="M68.61 176.65l-.16.16c.12-.09.18-.14.16-.16z"/><path class="cls-4" d="M44.38 123.6l-2.81 7.12-2.25-.88a2.31 2.31 0 0 0 1.39 3.06l12.64 5.41 4-10.15z"/><path class="cls-4" d="M57.36 128.16l-12.98-4.56-3.66 9.3 5.05 2.16-9.12 1.91.31 1.87 13.5-1.77 2.9 1.24 4-10.15z"/><path class="cls-4" d="M45.73 123.94a4.8 4.8 0 0 0-.33 1.57l1.69.6a3.16 3.16 0 1 1 5.32 1.89l1.69.59a4.83 4.83 0 1 0-8.38-4.63z"/><path class="cls-1" d="M36.8 137.88l.16.96 13.5-1.77-2.64-1.13-11.02 1.94z"/><path class="cls-4" d="M42.6 132.84c.23.09.36.29.3.44l-1.38 3.48c-.06.15-.3.2-.52.11-.23-.09-.36-.29-.3-.44l1.38-3.48c.06-.15.3-.2.52-.11z"/><path class="cls-1" transform="rotate(-68.49 55.234 133.188)" d="M49.17 132.56H61.3v1.25H49.17z"/><path class="cls-4" d="M42.83 128.71l-1.14 2.06-2.36-.93a2.31 2.31 0 0 0 1.39 3.06c1.71.67 2.58-1.3 2.58-1.3z"/><path class="cls-1" d="M42.57 128.17l-1 2.55-2.25-.88a2.31 2.31 0 0 0 1.39 3.06l12.64 5.41 2-5.08z"/><path class="cls-4" d="M33.91 135.44l3.18 1.78.17 1.41-2.12 3.13-1.23-6.32z"/><path class="cls-1" d="M34.47 138.31l.67 3.45 2.12-3.13-.1-.81-2.69.49z"/><path class="cls-7" d="M27.41 146.66a.68.68 0 0 0 .39-.12 1 1 0 0 0 .4-.81 4.28 4.28 0 0 0-.78-1.92 4.28 4.28 0 0 0-.78 1.92 1 1 0 0 0 .4.81.68.68 0 0 0 .37.12z" id="_Grupo_209" data-name="&amp;lt;Grupo&amp;gt;"/><path class="cls-7" d="M33.74 148.4a.68.68 0 0 0 .39-.12 1 1 0 0 0 .4-.81 4.28 4.28 0 0 0-.78-1.92 4.28 4.28 0 0 0-.78 1.92 1 1 0 0 0 .4.81.68.68 0 0 0 .37.12z" id="_Grupo_210" data-name="&amp;lt;Grupo&amp;gt;"/><path class="cls-8" d="M34.24 154.15a.68.68 0 0 0 .39-.12 1 1 0 0 0 .4-.81 4.28 4.28 0 0 0-.78-1.92 4.28 4.28 0 0 0-.78 1.92 1 1 0 0 0 .4.81.68.68 0 0 0 .37.12z" id="_Grupo_211" data-name="&amp;lt;Grupo&amp;gt;"/><path class="cls-8" d="M31.77 144.57a1 1 0 0 0 .56-.17 1.4 1.4 0 0 0 .57-1.17 6.2 6.2 0 0 0-1.13-2.77 6.18 6.18 0 0 0-1.13 2.77 1.41 1.41 0 0 0 .57 1.17 1 1 0 0 0 .56.17z" id="_Grupo_212" data-name="&amp;lt;Grupo&amp;gt;"/><path class="cls-7" d="M30.33 150.85a.91.91 0 0 0 .52-.16 1.29 1.29 0 0 0 .53-1.07 5.7 5.7 0 0 0-1-2.56 5.7 5.7 0 0 0-1 2.56 1.3 1.3 0 0 0 .53 1.07.91.91 0 0 0 .42.16z" id="_Grupo_213" data-name="&amp;lt;Grupo&amp;gt;"/><g id="_Grupo_214" data-name="&amp;lt;Grupo&amp;gt;"><g id="_Grupo_215" data-name="&amp;lt;Grupo&amp;gt;"><path class="cls-9" d="M49.59 83.38a8.76 8.76 0 0 1-8.76 8.76h3.37a8.76 8.76 0 0 0 8.8-8.76V82h-3.41z" id="_Grupo_216" data-name="&amp;lt;Grupo&amp;gt;"/><path class="cls-9" d="M35.75 82h-3.06a8.76 8.76 0 0 0-8.76 8.76v1.4H27v-1.4A8.76 8.76 0 0 1 35.75 82z" id="_Grupo_217" data-name="&amp;lt;Grupo&amp;gt;"/><path class="cls-10" d="M49.59 83.38V82h-3.06v1.4a8.76 8.76 0 0 1-8.76 8.76h3.06a8.76 8.76 0 0 0 8.76-8.78z" id="_Grupo_218" data-name="&amp;lt;Grupo&amp;gt;"/><path class="cls-10" d="M39.11 82h-3.36A8.76 8.76 0 0 0 27 90.73v1.4h3.36v-1.4A8.76 8.76 0 0 1 39.11 82z" id="_Grupo_219" data-name="&amp;lt;Grupo&amp;gt;"/><path class="cls-11" d="M46.53 83.38V82h-7.42a8.76 8.76 0 0 0-8.76 8.76v1.4h7.42a8.76 8.76 0 0 0 8.76-8.78z" id="_Grupo_220" data-name="&amp;lt;Grupo&amp;gt;"/><path class="cls-12" d="M41 66.54h-3.37a12 12 0 0 1 12 12v1.91H53V78.5a12 12 0 0 0-12-11.96z" id="_Grupo_221" data-name="&amp;lt;Grupo&amp;gt;"/><path class="cls-13" d="M37.63 66.54h-3.06a12 12 0 0 1 12 12v1.91h3.06V78.5a12 12 0 0 0-12-11.96z" id="_Grupo_222" data-name="&amp;lt;Grupo&amp;gt;"/><path class="cls-12" d="M18.71 68.45v-1.91h-3.05v1.91a12 12 0 0 0 12 12h3.06a12 12 0 0 1-12.01-12z" id="_Grupo_223" data-name="&amp;lt;Grupo&amp;gt;"/><path class="cls-13" d="M22.08 68.45v-1.91h-3.37v1.91a12 12 0 0 0 12 12H34a12 12 0 0 1-11.92-12z" id="_Grupo_224" data-name="&amp;lt;Grupo&amp;gt;"/><path class="cls-14" d="M34.57 66.54H22.08v1.91a12 12 0 0 0 12 12h12.45V78.5a12 12 0 0 0-11.96-11.96z" id="_Grupo_225" data-name="&amp;lt;Grupo&amp;gt;"/></g></g><path class="cls-3" d="M11.1 3.8h16.3v26.66H11.1z"/><path class="cls-5 cls-6" d="M19.25 3.8h8.15v26.66h-8.15z"/><path class="cls-10" d="M29.26 30.47a.61.61 0 0 0-.61-.61h-19a.61.61 0 0 0-.61.61.61.61 0 0 0 .61.61h19a.61.61 0 0 0 .61-.61z"/><path class="cls-6" d="M19.25 31.07h9.4a.61.61 0 0 0 .61-.61.61.61 0 0 0-.61-.61h-9.4"/><path class="cls-10" d="M29.26 3.8a.61.61 0 0 0-.61-.61h-19a.61.61 0 0 0-.61.61.61.61 0 0 0 .61.61h19a.61.61 0 0 0 .61-.61z"/><path class="cls-6" d="M19.25 4.41h9.4a.61.61 0 0 0 .61-.61.61.61 0 0 0-.61-.61h-9.4"/><g class="cls-15"><path class="cls-6" d="M16.28 18.9a2.23 2.23 0 0 0-.34.58 1.64 1.64 0 0 0-.11.4 1.19 1.19 0 0 0 .11.69 1.38 1.38 0 0 0 1.18.61h1.23v-2.33zM22.83 18.69a2.24 2.24 0 0 0 .67 0 1.67 1.67 0 0 0 .4-.11 1.19 1.19 0 0 0 .54-.44 1.38 1.38 0 0 0-.06-1.32l-.6-1.08-2 1.19zM19.38 13.12a2.21 2.21 0 0 0-.33-.58 1.65 1.65 0 0 0-.29-.29 1.19 1.19 0 0 0-.66-.25 1.38 1.38 0 0 0-1.11.72l-.64 1.06 2 1.14z"/><path class="cls-6" d="M15.89 19.24l1.23-2.14.09-.16 1.11.64L17 15l-2.92.18 1.11.64-.09.16-.6 1a1.48 1.48 0 0 0 0 1.45v.05l1.15 2a1.45 1.45 0 0 1 .24-1.24zM23.33 18.86h-2.65v-1.28L19.07 20l1.61 2.44v-1.25h1.38a1.48 1.48 0 0 0 1.26-.71v-.05l1.14-2a1.45 1.45 0 0 1-1.13.43zM19.28 12.6l1.33 2.3-1.11.64 2.92.18 1.31-2.62-1.11.64-.09-.16-.6-1a1.48 1.48 0 0 0-1.25-.73h-2.42a1.45 1.45 0 0 1 1.02.75z"/></g><path class="cls-3" d="M41.4 3.8h16.3v26.66H41.4z"/><path class="cls-5 cls-6" d="M49.55 3.8h8.15v26.66h-8.15z"/><path class="cls-10" d="M59.55 30.47a.61.61 0 0 0-.61-.61H40a.61.61 0 0 0-.61.61.61.61 0 0 0 .61.61h19a.61.61 0 0 0 .61-.61z"/><path class="cls-6" d="M49.55 31.07h9.4a.61.61 0 0 0 .61-.61.61.61 0 0 0-.61-.61h-9.4"/><path class="cls-10" d="M59.55 3.8a.61.61 0 0 0-.61-.61H40a.61.61 0 0 0-.61.61.61.61 0 0 0 .61.61h19a.61.61 0 0 0 .61-.61z"/><path class="cls-6" d="M49.55 4.41h9.4a.61.61 0 0 0 .61-.61.61.61 0 0 0-.61-.61h-9.4"/><g class="cls-15"><path class="cls-6" d="M46.58 18.9a2.23 2.23 0 0 0-.34.58 1.62 1.62 0 0 0-.11.4 1.19 1.19 0 0 0 .11.69 1.38 1.38 0 0 0 1.18.61h1.23v-2.33zM53.13 18.69a2.25 2.25 0 0 0 .67 0 1.67 1.67 0 0 0 .4-.11 1.19 1.19 0 0 0 .54-.44 1.38 1.38 0 0 0-.06-1.32l-.6-1.08-2 1.19zM49.68 13.12a2.21 2.21 0 0 0-.33-.58 1.68 1.68 0 0 0-.29-.29 1.19 1.19 0 0 0-.66-.25 1.38 1.38 0 0 0-1.11.72l-.64 1.06 2 1.14z"/><path class="cls-6" d="M46.19 19.24l1.23-2.14.09-.16 1.11.64L47.31 15l-2.92.18 1.11.64-.09.16-.6 1a1.48 1.48 0 0 0 0 1.45v.05l1.15 2a1.45 1.45 0 0 1 .23-1.24zM53.63 18.86H51v-1.28L49.37 20 51 22.46v-1.27h1.38a1.48 1.48 0 0 0 1.26-.71v-.05l1.14-2a1.45 1.45 0 0 1-1.15.43zM49.58 12.6l1.32 2.3-1.11.64 2.92.18L54 13.09l-1.11.64-.09-.16-.6-1a1.48 1.48 0 0 0-1.2-.76h-2.44a1.45 1.45 0 0 1 1.02.79z"/></g><path class="cls-3" d="M24.83.72h19.33v31.62H24.83z"/><path class="cls-5 cls-6" d="M34.5.72h9.67v31.62H34.5z"/><path class="cls-10" d="M46.36 32.34a.72.72 0 0 0-.72-.72H23.13a.72.72 0 0 0-.72.72.72.72 0 0 0 .72.72h22.51a.72.72 0 0 0 .72-.72z"/><path class="cls-6" d="M34.5 33.06h11.14a.72.72 0 0 0 .72-.72.72.72 0 0 0-.72-.72H34.5"/><path class="cls-10" d="M46.36.72a.72.72 0 0 0-.72-.72H23.13a.72.72 0 0 0-.72.72.72.72 0 0 0 .72.72h22.51a.72.72 0 0 0 .72-.72z"/><path class="cls-6" d="M34.5 1.44h11.14a.72.72 0 0 0 .72-.72.72.72 0 0 0-.72-.72H34.5"/><g class="cls-15"><path class="cls-6" d="M31 18.62a2.62 2.62 0 0 0-.4.69 1.92 1.92 0 0 0-.13.48 1.41 1.41 0 0 0 .13.82 1.64 1.64 0 0 0 1.4.72h1.46v-2.76zM38.74 18.38a2.65 2.65 0 0 0 .8 0 2 2 0 0 0 .48-.13 1.41 1.41 0 0 0 .64-.52 1.64 1.64 0 0 0-.08-1.57l-.71-1.28-2.37 1.41zM34.65 11.77a2.62 2.62 0 0 0-.39-.69 2 2 0 0 0-.35-.35 1.41 1.41 0 0 0-.77-.3h-.06a1.64 1.64 0 0 0-1.32.85L31 12.53l2.41 1.35z"/><path class="cls-6" d="M30.51 19L32 16.5l.11-.19 1.31.76L31.84 14l-3.46.21 1.31.76-.11.19-.71 1.22a1.75 1.75 0 0 0 0 1.71v.06l1.36 2.35a1.72 1.72 0 0 1 .28-1.5zM39.34 18.58h-3.15v-1.52L34.28 20l1.91 2.89v-1.55h1.63a1.76 1.76 0 0 0 1.49-.84v-.06L40.75 18a1.72 1.72 0 0 1-1.41.58zM34.53 11.16l1.57 2.72-1.31.76 3.46.21 1.55-3.1-1.31.76-.11-.19-.71-1.22a1.76 1.76 0 0 0-1.48-.87h-2.87a1.72 1.72 0 0 1 1.21.93z"/></g><path class="cls-12" d="M34.89 54.16a.58.58 0 0 1-.58.58.58.58 0 0 1-.58-.58v-10a.58.58 0 0 1 .58-.58.58.58 0 0 1 .58.58z"/><path class="cls-12" d="M29.29 49.73a.58.58 0 0 1-.58-.58.58.58 0 0 1 .58-.58h10a.58.58 0 0 1 .58.58.58.58 0 0 1-.58.58zM29.29 109.56a.58.58 0 0 1-.58-.58.58.58 0 0 1 .58-.58h10a.58.58 0 0 1 .58.58.58.58 0 0 1-.58.58zM29.29 106.45a.58.58 0 0 1-.58-.58.58.58 0 0 1 .58-.58h10a.58.58 0 0 1 .58.58.58.58 0 0 1-.58.58z"/></g></g></svg>