<svg xmlns="http://www.w3.org/2000/svg" viewBox="0 0 144.94 139"><defs><style>.cls-1{fill:#7ac7fa}.cls-2{fill:#7abc39}.cls-3{fill:#b6e436}.cls-4,.cls-5{fill:#5ca126}.cls-5{opacity:.4}</style></defs><title>Recurso 3</title><g id="Capa_2" data-name="Capa 2"><g id="Capa_1-2" data-name="Capa 1"><path class="cls-1" d="M15.53 96.92v36.69a3 3 0 0 0 3 3 3 3 0 0 0 3-3V96.92z"/><path id="_Trazado_" data-name="&amp;lt;Trazado&amp;gt;" class="cls-2" d="M118.76 8.95a2.14 2.14 0 0 0 1.24-.38A3.06 3.06 0 0 0 121.22 6c0-2.19-1.84-5.11-2.46-6-.62.93-2.46 3.84-2.46 6a3.06 3.06 0 0 0 1.24 2.54 2.15 2.15 0 0 0 1.22.41z"/><path id="_Trazado_2" data-name="&amp;lt;Trazado&amp;gt;" class="cls-3" d="M125.35 17.46a2.15 2.15 0 0 0 1.22-.38 3.06 3.06 0 0 0 1.24-2.54c0-2.19-1.84-5.11-2.46-6-.62.93-2.46 3.84-2.46 6a3.06 3.06 0 0 0 1.24 2.54 2.15 2.15 0 0 0 1.22.38z"/><path id="_Trazado_3" data-name="&amp;lt;Trazado&amp;gt;" class="cls-3" d="M135.37 25.11a2.14 2.14 0 0 0 1.22-.38 3.06 3.06 0 0 0 1.24-2.54c0-2.19-1.84-5.11-2.46-6-.62.93-2.46 3.84-2.46 6a3.06 3.06 0 0 0 1.24 2.54 2.15 2.15 0 0 0 1.22.38z"/><path id="_Trazado_4" data-name="&amp;lt;Trazado&amp;gt;" class="cls-2" d="M132.91 8.95a2.15 2.15 0 0 0 1.22-.38A3.05 3.05 0 0 0 135.37 6c0-2.19-1.84-5.11-2.46-6-.62.93-2.46 3.84-2.46 6a3.06 3.06 0 0 0 1.24 2.54 2.15 2.15 0 0 0 1.22.41z"/><path id="_Trazado_5" data-name="&amp;lt;Trazado&amp;gt;" class="cls-3" d="M126.79 34.06a2.15 2.15 0 0 0 1.22-.38 3.06 3.06 0 0 0 1.24-2.54c0-2.19-1.84-5.11-2.46-6-.62.93-2.46 3.84-2.46 6a3.06 3.06 0 0 0 1.24 2.54 2.15 2.15 0 0 0 1.22.38z"/><path id="_Trazado_6" data-name="&amp;lt;Trazado&amp;gt;" class="cls-2" d="M117.08 27.36a2.18 2.18 0 0 0 1.24-.39 3.11 3.11 0 0 0 1.27-2.58c0-2.23-1.87-5.19-2.5-6.13-.63.94-2.51 3.91-2.51 6.13a3.11 3.11 0 0 0 1.26 2.61 2.19 2.19 0 0 0 1.24.36z"/><path class="cls-4" d="M144.94 30.39h-35.22l15 11.74v13.2a2.29 2.29 0 0 0 0 .23c0 3.13-.08 4.47-4.86 4.47H108a2.23 2.23 0 1 0 0 4.46h12.92c3.07.1 8.28.32 8.28-5.35V42.82z"/><rect class="cls-2" x="122.31" y="44.82" width="9.48" height="2.63" rx=".68" ry=".68"/><rect class="cls-2" x="122.31" y="52.91" width="9.48" height="2.63" rx=".68" ry=".68"/><path class="cls-2" d="M10.02 79.66h5.51v3.01h-5.51zM31.13 58A1.84 1.84 0 0 1 33 56.17 1.84 1.84 0 0 1 34.8 58v12.82a1.84 1.84 0 0 1-1.8 1.84 1.84 1.84 0 0 1-1.84-1.84z"/><path class="cls-4" d="M20.93 67.44h30v4.3l-28.8-.5a1.28 1.28 0 0 0-1.38 1.16v25.36h-4.3V71.22c-.02-2.09 2-3.78 4.48-3.78z"/><rect class="cls-2" x="26.66" y="66.05" width="13.07" height="7.14" rx=".92" ry=".92"/><path class="cls-4" d="M13.19 81.46v-.41a.59.59 0 0 0-.58-.6l-.39-1a.59.59 0 0 0 0-.83l-.28-.3a.59.59 0 0 0-.83 0l-1-.43a.59.59 0 0 0-.58-.6h-.36a.59.59 0 0 0-.6.58l-1 .39a.59.59 0 0 0-.83 0l-.3.28a.59.59 0 0 0 0 .83l-.43 1a.59.59 0 0 0-.6.58v.41a.59.59 0 0 0 .58.6l.39 1a.59.59 0 0 0 0 .83l.28.3a.59.59 0 0 0 .83 0l1 .43a.59.59 0 0 0 .58.6h.33a.59.59 0 0 0 .6-.58l1-.39a.59.59 0 0 0 .83 0l.3-.28a.59.59 0 0 0 0-.83l.43-1a.59.59 0 0 0 .63-.58z"/><path class="cls-3" d="M12.27 81.23A.24.24 0 0 0 12 81l-.59-1.53a.24.24 0 0 0-.34-.35l-1.5-.66a.24.24 0 1 0-.49 0L7.57 79a.24.24 0 0 0-.35.34l-.66 1.5a.24.24 0 1 0 0 .49l.59 1.53a.24.24 0 1 0 .34.35L9 83.9a.24.24 0 0 0 .49 0l1.51-.58a.24.24 0 0 0 .17.08.24.24 0 0 0 .18-.41l.66-1.5a.24.24 0 0 0 .26-.26z"/><path class="cls-4" d="M11.28 81.21a.16.16 0 0 0-.16-.17l-.4-1a.16.16 0 0 0-.23-.24l-1-.44a.16.16 0 0 0-.33 0l-1 .4a.16.16 0 1 0-.24.23l-.44 1a.16.16 0 1 0 0 .33l.4 1a.16.16 0 1 0 .23.24l1 .44a.16.16 0 0 0 .33 0l1-.4a.16.16 0 1 0 .24-.23l.44-1a.16.16 0 0 0 .16-.16z"/><path class="cls-2" d="M10.17 81.19a.07.07 0 0 0-.07-.07l-.18-.45a.07.07 0 0 0-.1-.1l-.45-.2a.07.07 0 0 0-.07-.07.07.07 0 0 0-.07.07l-.45.18a.07.07 0 0 0-.1.1l-.2.45a.07.07 0 0 0 0 .15l.18.45a.07.07 0 0 0 0 .1h.1l.45.2a.07.07 0 1 0 .14 0l.45-.18h.1a.07.07 0 0 0 0-.1l.2-.44a.07.07 0 0 0 .07-.09z"/><path class="cls-3" transform="rotate(-1.39 32.737 53.988)" d="M31.86 50.76h1.92v6.31h-1.92z"/><path class="cls-3" transform="rotate(-61.84 36.154 58.62)" d="M35.2 55.47h1.92v6.31H35.2z"/><path class="cls-3" transform="rotate(-26 29.757 58.447)" d="M26.61 57.49h6.31v1.92h-6.31z"/><path class="cls-4" d="M32.73 50A7.08 7.08 0 1 0 40 56.86 7.08 7.08 0 0 0 32.73 50zM33 62.87a5.84 5.84 0 1 1 5.69-6 5.84 5.84 0 0 1-5.69 6z"/><circle class="cls-4" cx="32.9" cy="57.03" r="2.22" transform="rotate(-1.39 33.109 57.29)"/><circle class="cls-2" cx="32.9" cy="57.03" r="1.34" transform="rotate(-1.39 32.702 56.874)"/><rect class="cls-2" x="14.11" y="77.6" width="9.15" height="7.14" rx=".5" ry=".5"/><path class="cls-4" transform="rotate(-60.01 98.4 39.758)" d="M94.87 38.84h7.06v1.84h-7.06z"/><circle class="cls-3" cx="100.54" cy="36.05" r="2" transform="rotate(-5.31 100.444 35.994)"/><path class="cls-2" d="M96.62 42a5.37 5.37 0 0 0-5.37 5.37H102A5.37 5.37 0 0 0 96.62 42z"/><rect class="cls-3" x="14.62" y="95.8" width="7.71" height="2.72" rx=".92" ry=".92"/><path class="cls-4" d="M61.19 103.69h-8.85c-.65 0 1.14-2.36 1.8-2.36h5.1c.65 0 2.6 2.36 1.95 2.36zM105.4 103.69h-8.86c-.65 0 1.14-2.36 1.8-2.36h5.1c.66 0 2.56 2.36 1.96 2.36z"/><path class="cls-2" d="M54.13 92.99h5.23v8.34h-5.23zM98.35 92.99h5.23v8.34h-5.23z"/><rect class="cls-3" x="45.91" y="47.16" width="68.03" height="46.87" rx="3.7" ry="3.7"/><path class="cls-3" d="M60.81 46.49a.6.6 0 0 1-.6.59H55a.6.6 0 0 1-.59-.59l.59-3.22a.55.55 0 0 1 .48-.59h4.19a.55.55 0 0 1 .48.59z"/><path class="cls-2" d="M61.62 46.46a.7.7 0 0 1-.7.7h-6.65a.7.7 0 0 1-.7-.7.7.7 0 0 1 .7-.7h6.65a.7.7 0 0 1 .7.7z"/><path class="cls-4" d="M70.58 46.49a.6.6 0 0 1-.6.59h-5.23a.59.59 0 0 1-.59-.59l.64-3.22a.55.55 0 0 1 .48-.59h4.19a.55.55 0 0 1 .48.59z"/><path class="cls-2" d="M71.39 46.46a.7.7 0 0 1-.7.7H64a.7.7 0 0 1-.7-.7.7.7 0 0 1 .7-.7h6.65a.7.7 0 0 1 .7.7z"/><path class="cls-5" d="M52.2 52.91v35.05h55.32L52.2 52.91z"/><path class="cls-4" d="M75.38 58.64l-.81 1.6L76 61.46a9.53 9.53 0 0 0-.29 1.08l-1.83.31-.12 1.79 1.79.6a9.44 9.44 0 0 0 .13.94l-1.61 1 .56 1.7 1.92-.12a9.55 9.55 0 0 0 .59 1L76 71.36l1.19 1.34 1.73-.88c.21.17.42.34.64.49l-.44 1.88 1.6.81L82 73.55q.45.15.91.26l.31 1.9 1.79.14.63-1.85a9.83 9.83 0 0 0 1-.12l1 1.62 1.7-.56-.11-1.9q.42-.2.82-.45l1.52 1.11L93 72.59l-.8-1.68a9.49 9.49 0 0 0 .71-.88l1.79.42.81-1.6-1.36-1.21a9.65 9.65 0 0 0 .32-1.11l1.77-.3.12-1.79-1.69-.57a9.76 9.76 0 0 0-.12-1L96 61.9l-.56-1.7-1.75.11a9.65 9.65 0 0 0-.65-1.14l1-1.43-1.19-1.34-1.54.79a9.67 9.67 0 0 0-.78-.6l.39-1.68-1.6-.81-1.15 1.3a9.61 9.61 0 0 0-1.08-.31l-.27-1.7-1.82-.15-.57 1.65a9.68 9.68 0 0 0-1.13.11l-.92-1.48-1.7.56.11 1.77a9.56 9.56 0 0 0-.9.51l-1.43-1-1.38 1.14.78 1.63a9.52 9.52 0 0 0-.71.93zm13.24-1.21A7.88 7.88 0 1 1 78 60.9a7.87 7.87 0 0 1 10.62-3.47z"/><path class="cls-4" d="M84.02 61.86l-1.31.97-4.1-3.94 2.93-2.18 2.48 5.15zM87.55 63.19l-1.07-1.22 3.57-4.42 2.42 2.74-4.92 2.9zM82.82 65.35l1 1.28-3.84 4.2-2.25-2.88 5.09-2.6zM86.12 66.74l1.14-1.16 4.67 3.25-2.56 2.61-3.25-4.7z"/><path class="cls-4" d="M83.35 67.72a3.59 3.59 0 1 0-1.5-4.85 3.59 3.59 0 0 0 1.5 4.85zm2.33-4.47a1.45 1.45 0 1 1-1.95.64 1.45 1.45 0 0 1 1.95-.64zM107.31 76.17a6.39 6.39 0 0 0 .62-1.67l1-.14.07-1.16-.94-.35a6.43 6.43 0 0 0-1-3.2l.61-.83-.75-.89-.94.45a6.43 6.43 0 0 0-2.78-1.48l-.14-1-1.15-.12-.37 1a6.44 6.44 0 0 0-3.13.89l-.79-.67-.91.72.4.91a6.41 6.41 0 0 0-1.67 3l-.94.13-.11 1.16.88.32a6.43 6.43 0 0 0 1 3.32l-.54.73.75.89.82-.39a6.43 6.43 0 0 0 2.91 1.55l.12.9 1.15.12.33-.86a6.43 6.43 0 0 0 3.23-1l.74.57.91-.72-.39-.87a6.42 6.42 0 0 0 1.01-1.31zm-8.06 1.43a5.09 5.09 0 1 1 6.9-2.06 5.09 5.09 0 0 1-6.9 2.06z"/><path class="cls-4" d="M102.74 71.67l-1-.41.82-3.67 2.24.91-2.06 3.17zM100.03 73.13l.3 1.04-3.4 1.61-.66-2.32 3.76-.33zM102 74.74l.89-.6 2.6 2.71-2 1.36-1.49-3.47z"/><path class="cls-4" d="M99.77 74.72a2.37 2.37 0 1 0 .29-3.34 2.37 2.37 0 0 0-.29 3.34zm2.54-2.15a1 1 0 1 1-1.35-.09 1 1 0 0 1 1.34.08zM90.2 84a4.9 4.9 0 0 0 .48-1.28l.75-.11.09-.88-.72-.27a4.92 4.92 0 0 0-.8-2.4l.46-.63-.57-.68-.72.34A4.92 4.92 0 0 0 87.06 77l-.1-.78-.88-.09-.28.74a4.92 4.92 0 0 0-2.4.68l-.61-.55-.69.55.31.69a4.9 4.9 0 0 0-1.28 2.31l-.72.1-.09.88.67.25a4.92 4.92 0 0 0 .77 2.54l-.41.56.57.68.63-.3a4.93 4.93 0 0 0 2.23 1.18l.09.69.88.09.25-.65a4.93 4.93 0 0 0 2.47-.73l.57.44.69-.55-.3-.67A4.91 4.91 0 0 0 90.2 84zM84 85.14a3.89 3.89 0 1 1 5.28-1.57A3.89 3.89 0 0 1 84 85.14z"/><path class="cls-4" d="M84.43 82.94a1.81 1.81 0 1 0 .22-2.56 1.81 1.81 0 0 0-.22 2.56zm1.94-1.65a.73.73 0 1 1-1-.07.73.73 0 0 1 1 .07z"/><circle class="cls-4" cx="52.2" cy="52.91" r="1.37"/><circle class="cls-4" cx="52.2" cy="87.96" r="1.37"/><circle class="cls-4" cx="108.89" cy="87.96" r="1.37"/><circle class="cls-4" cx="108.89" cy="52.91" r="1.37"/><path class="cls-4" d="M65.21 84.08a.39.39 0 0 0 .39-.39.39.39 0 0 0-.39-.39h-8.8a.39.39 0 0 0-.39.39.39.39 0 0 0 .39.39z"/><path class="cls-3" d="M65.34 84h-8.8a.39.39 0 0 1-.33-.6.39.39 0 0 0 .21.73h8.8a.39.39 0 0 0 .33-.19.39.39 0 0 1-.21.06z"/><path class="cls-4" d="M65.21 82.17a.39.39 0 0 0 .39-.39.39.39 0 0 0-.39-.39h-8.8a.39.39 0 0 0-.39.39.39.39 0 0 0 .39.39z"/><path class="cls-3" d="M65.34 82h-8.8a.39.39 0 0 1-.39-.39.39.39 0 0 1 .06-.21.39.39 0 0 0 .21.72h8.8a.39.39 0 0 0 .33-.19.39.39 0 0 1-.21.07z"/><path class="cls-4" d="M65.21 80.26a.39.39 0 0 0 .39-.39.39.39 0 0 0-.39-.39h-8.8a.39.39 0 0 0-.39.39.39.39 0 0 0 .39.39z"/><path class="cls-3" d="M65.34 80.13h-8.8a.39.39 0 0 1-.33-.6.39.39 0 0 0 .21.72h8.8a.39.39 0 0 0 .33-.19.39.39 0 0 1-.21.07z"/><path class="cls-4" d="M65.21 78.34a.39.39 0 0 0 .39-.34.39.39 0 0 0-.39-.39h-8.8A.39.39 0 0 0 56 78a.39.39 0 0 0 .39.39z"/><path class="cls-3" d="M65.34 78.22h-8.8a.39.39 0 0 1-.39-.39.39.39 0 0 1 .06-.21.39.39 0 0 0 .21.72h8.8a.39.39 0 0 0 .33-.19.39.39 0 0 1-.21.07z"/><path class="cls-4" d="M65.21 76.43a.39.39 0 0 0 .39-.43.39.39 0 0 0-.39-.39h-8.8A.39.39 0 0 0 56 76a.39.39 0 0 0 .39.39z"/><path class="cls-3" d="M65.34 76.31h-8.8a.39.39 0 0 1-.33-.6.39.39 0 0 0 .21.72h8.8a.39.39 0 0 0 .33-.19.39.39 0 0 1-.21.07z"/><path class="cls-4" d="M65.21 74.52a.39.39 0 0 0 .39-.39.39.39 0 0 0-.39-.39h-8.8a.39.39 0 0 0-.39.39.39.39 0 0 0 .39.39z"/><path class="cls-3" d="M65.34 74.39h-8.8a.39.39 0 0 1-.33-.6.39.39 0 0 0 .21.72h8.8a.39.39 0 0 0 .33-.19.39.39 0 0 1-.21.07z"/><path class="cls-4" d="M65.21 72.61a.39.39 0 0 0 .39-.39.39.39 0 0 0-.39-.39h-8.8a.39.39 0 0 0-.39.39.39.39 0 0 0 .39.39z"/><path class="cls-3" d="M65.34 72.48h-8.8a.39.39 0 0 1-.33-.6.39.39 0 0 0 .21.73h8.8a.39.39 0 0 0 .33-.19.39.39 0 0 1-.21.06z"/><path class="cls-4" d="M65.21 70.7a.39.39 0 0 0 .39-.39.39.39 0 0 0-.39-.39h-8.8a.39.39 0 0 0-.39.39.39.39 0 0 0 .39.39z"/><path class="cls-3" d="M65.34 70.57h-8.8a.39.39 0 0 1-.33-.6.39.39 0 0 0 .21.72h8.8a.39.39 0 0 0 .33-.19.38.38 0 0 1-.21.07z"/><path class="cls-4" d="M65.21 68.78a.39.39 0 0 0 .39-.39.39.39 0 0 0-.39-.39h-8.8a.39.39 0 0 0-.39.39.39.39 0 0 0 .39.39z"/><path class="cls-3" d="M65.34 68.66h-8.8a.39.39 0 0 1-.33-.6.39.39 0 0 0 .21.73h8.8a.39.39 0 0 0 .33-.19.39.39 0 0 1-.21.06z"/><path class="cls-4" d="M65.21 66.87a.39.39 0 0 0 .39-.39.39.39 0 0 0-.39-.39h-8.8a.39.39 0 0 0-.39.39.39.39 0 0 0 .39.39z"/><path class="cls-3" d="M65.34 66.75h-8.8a.39.39 0 0 1-.33-.6.39.39 0 0 0 .21.72h8.8a.39.39 0 0 0 .33-.19.39.39 0 0 1-.21.07z"/><path class="cls-4" d="M65.21 65a.39.39 0 0 0 .39-.39.39.39 0 0 0-.39-.39h-8.8a.39.39 0 0 0-.39.39.39.39 0 0 0 .39.39z"/><path class="cls-3" d="M65.34 64.83h-8.8a.39.39 0 0 1-.33-.6.39.39 0 0 0 .21.73h8.8a.39.39 0 0 0 .33-.19.39.39 0 0 1-.21.06z"/><ellipse class="cls-1" cx="18.48" cy="136.56" rx="18.48" ry="2.44"/></g></g></svg>