<svg xmlns="http://www.w3.org/2000/svg" viewBox="0 0 182 120.52"><defs><style>.cls-1{fill:#7abc39;}.cls-2{opacity:0.5;}.cls-3{fill:#5ca126;}.cls-4{opacity:0.3;}.cls-5{fill:#b6e436;}.cls-6{fill:#8cd145;}.cls-7{opacity:0.1;}</style></defs><title>Recurso 7</title><g id="Capa_2" data-name="Capa 2"><g id="Capa_1-2" data-name="Capa 1"><path class="cls-1" d="M15.14,113.31c8.48-1.21,11.38.76,16.9,3.46a21,21,0,0,0,11.62,2.38c5.1-1.18,11.07-2.46,15.54-2.13,7.45.55,17.71,4.27,25.24,3.36s14.71-5,22.55-4.12,19.12,7.81,38.74,0c17.58-7,24.32-2.93,30.29-7.66,5.69-4.5,6-12.09,6-12.09s-108.12-29-182,.2C0,96.67,3.14,115,15.14,113.31Z"/><g class="cls-2"><path class="cls-3" d="M142.6,88.63c-40.27-5.76-98.74-9.32-142.6,8,0,0,3.85,13,15.86,11.32,8.48-1.21,11.38.76,16.9,3.46a21,21,0,0,0,11.63,2.38c5.1-1.18,11.07-2.46,15.54-2.13,7.45.55,17.71,4.27,25.24,3.36s14.71-5,22.55-4.12,18.72,8.59,38.34.75C160.32,106,171,108.4,177.71,107A18.35,18.35,0,0,0,182,96.48S166.22,92.24,142.6,88.63Z"/></g><g class="cls-2"><path class="cls-3" d="M22.38,111.45A21,21,0,0,0,34,113.82c5.1-1.18,11.07-2.46,15.54-2.13,7.44.55,17.71,4.27,25.24,3.36s14.71-5,22.55-4.12,19.12,7.81,38.74,0c17.58-7,30.92-1.23,37.5-5.08A19.25,19.25,0,0,0,182,96.48s-108.12-29-182,.2a32.26,32.26,0,0,0,4.55,11.41c.3,0,.61-.05.93-.1C14,106.78,16.86,108.75,22.38,111.45Z"/></g><path class="cls-1" d="M23.28,95s-9.15,3.75,67.43,1.3c29.76-1,68.18.69,67.77.15-5.17-6.85-29.09-33.22-67.77-33.22C62.89,63.19,39.1,73.5,23.28,95Z"/><g class="cls-4"><g class="cls-4"><path class="cls-5" d="M87.47,63.19l.52,0q1.35,0,2.72,0,3.24,0,6.34.24a18.15,18.15,0,0,0-3.18-.22"/></g><path class="cls-5" d="M70.22,65.23q-1.54.32-3,.69c12,1.4,20.2,6.37,21.6,7.54a32.16,32.16,0,0,1,3.82-1.91A41.88,41.88,0,0,0,70.22,65.23Z"/><path class="cls-5" d="M61,67.7c3.32,0,9.37,3,11,3.8,2.91.31,5.7.74,8.38,1.28a36.23,36.23,0,0,0-16.93-5.84Q62.18,67.3,61,67.7Z"/><path class="cls-5" d="M55.31,69.8a11.1,11.1,0,0,1,4,1.25q1.48,0,3,0c.9,0,1.78,0,2.66,0a19.58,19.58,0,0,0-7.46-2.1Q56.39,69.35,55.31,69.8Z"/><path class="cls-5" d="M76.11,64.19c3.15,0,10.84.75,20.36,5.92q2.4-.79,5-1.41c-1.34-.56-11.2-4.56-20.58-5.06Q78.46,63.86,76.11,64.19Z"/><path class="cls-5" d="M97,63.43q-3.1-.23-6.34-.24-1.37,0-2.72,0c2.13.16,10.34,1,17.2,4.7q2.57-.46,5.32-.77A78.51,78.51,0,0,0,97,63.43Z"/></g><path class="cls-3" d="M65.35,94.18s-9.18,15.29,67.4,12.84c29.76-1,49.65-10,49.24-10.54-5.17-6.85-21.61-29.91-60.28-29.91C93.89,66.56,79.26,76,65.35,94.18Z"/><g class="cls-4"><path class="cls-5" d="M92.12,76s19.77-10.86,38.2-9c0,0,3.78.38,6,.78,0,0-19.26-.62-36.54,11.34Z"/></g><g class="cls-4"><path class="cls-5" d="M105.84,82.17s19.46-14.26,38.88-12.43l5.42,1.73S133,69.86,112.28,86.14C112.28,86.14,108.29,83.49,105.84,82.17Z"/></g><g class="cls-4"><path class="cls-5" d="M118.36,90.71S140.12,71.58,157,74.57c0,0,3.51,2,5.32,3,0,0-17.06-3.93-37.92,18.88A77.87,77.87,0,0,0,118.36,90.71Z"/></g><g class="cls-4"><path class="cls-5" d="M168,81.61s-17.86-1.47-37.88,20.65a20.64,20.64,0,0,1,3.73,4.76l4.92-.31s19.09-22.52,33.05-21.83C171.82,84.88,169.47,82.74,168,81.61Z"/></g><g class="cls-4"><path class="cls-5" d="M176.36,89.5s-12.79,1.57-22.73,15.45c0,0,8-1.48,11.17-2.31,0,0,5.23-7.78,13.75-10.58A10.67,10.67,0,0,0,176.36,89.5Z"/></g><g id="_Grupo_" data-name="&lt;Grupo&gt;"><path class="cls-5" d="M99.07,77.33a2,2,0,0,0,.56-.34,1.45,1.45,0,0,0,.52-1.23A6.38,6.38,0,0,0,98.82,73a6.37,6.37,0,0,0-1,2.92,1.45,1.45,0,0,0,.66,1.17A2,2,0,0,0,99.07,77.33Z"/></g><g id="_Grupo_2" data-name="&lt;Grupo&gt;"><path class="cls-6" d="M99.07,77.33a2,2,0,0,0,.56-.34,1.45,1.45,0,0,0,.52-1.23A6.38,6.38,0,0,0,98.82,73Z"/></g><g id="_Grupo_3" data-name="&lt;Grupo&gt;"><path class="cls-5" d="M104.23,74.68a2,2,0,0,0,.56-.34,1.45,1.45,0,0,0,.52-1.23A6.38,6.38,0,0,0,104,70.33a6.38,6.38,0,0,0-1,2.92,1.45,1.45,0,0,0,.66,1.17A2,2,0,0,0,104.23,74.68Z"/></g><g id="_Grupo_4" data-name="&lt;Grupo&gt;"><path class="cls-6" d="M104.23,74.68a2,2,0,0,0,.56-.34,1.45,1.45,0,0,0,.52-1.23A6.38,6.38,0,0,0,104,70.33Z"/></g><g id="_Grupo_5" data-name="&lt;Grupo&gt;"><path class="cls-5" d="M109.11,72.54a2,2,0,0,0,.56-.34,1.45,1.45,0,0,0,.52-1.23,6.37,6.37,0,0,0-1.32-2.79,6.38,6.38,0,0,0-1,2.92,1.45,1.45,0,0,0,.66,1.17A2,2,0,0,0,109.11,72.54Z"/></g><g id="_Grupo_6" data-name="&lt;Grupo&gt;"><path class="cls-6" d="M109.11,72.54a2,2,0,0,0,.56-.34,1.45,1.45,0,0,0,.52-1.23,6.37,6.37,0,0,0-1.32-2.79Z"/></g><g id="_Grupo_7" data-name="&lt;Grupo&gt;"><path class="cls-5" d="M114.41,70.5a1.8,1.8,0,0,0,.51-.31,1.33,1.33,0,0,0,.48-1.13,5.88,5.88,0,0,0-1.22-2.57,5.86,5.86,0,0,0-.93,2.69,1.33,1.33,0,0,0,.6,1.07A1.82,1.82,0,0,0,114.41,70.5Z"/></g><g id="_Grupo_8" data-name="&lt;Grupo&gt;"><path class="cls-6" d="M114.41,70.5a1.8,1.8,0,0,0,.51-.31,1.33,1.33,0,0,0,.48-1.13,5.88,5.88,0,0,0-1.22-2.57Z"/></g><g id="_Grupo_9" data-name="&lt;Grupo&gt;"><path class="cls-5" d="M120,68.95a1.59,1.59,0,0,0,.45-.27,1.17,1.17,0,0,0,.42-1,5.13,5.13,0,0,0-1.07-2.24,5.13,5.13,0,0,0-.81,2.35,1.17,1.17,0,0,0,.53.94A1.59,1.59,0,0,0,120,68.95Z"/></g><g id="_Grupo_10" data-name="&lt;Grupo&gt;"><path class="cls-6" d="M120,68.95a1.59,1.59,0,0,0,.45-.27,1.17,1.17,0,0,0,.42-1,5.13,5.13,0,0,0-1.07-2.24Z"/></g><g id="_Grupo_11" data-name="&lt;Grupo&gt;"><path class="cls-5" d="M125.56,67.9a1.61,1.61,0,0,0,.45-.27,1.17,1.17,0,0,0,.42-1,5.14,5.14,0,0,0-1.07-2.24,5.13,5.13,0,0,0-.81,2.35,1.17,1.17,0,0,0,.53.94A1.61,1.61,0,0,0,125.56,67.9Z"/></g><g id="_Grupo_12" data-name="&lt;Grupo&gt;"><path class="cls-6" d="M125.56,67.9a1.61,1.61,0,0,0,.45-.27,1.17,1.17,0,0,0,.42-1,5.14,5.14,0,0,0-1.07-2.24Z"/></g><g id="_Grupo_13" data-name="&lt;Grupo&gt;"><path class="cls-5" d="M130.63,67.5a1.56,1.56,0,0,0,.45-.27,1.16,1.16,0,0,0,.42-1A5.12,5.12,0,0,0,130.44,64a5.1,5.1,0,0,0-.8,2.33,1.16,1.16,0,0,0,.53.93A1.58,1.58,0,0,0,130.63,67.5Z"/></g><g id="_Grupo_14" data-name="&lt;Grupo&gt;"><path class="cls-6" d="M130.63,67.5a1.56,1.56,0,0,0,.45-.27,1.16,1.16,0,0,0,.42-1A5.12,5.12,0,0,0,130.44,64Z"/></g><g id="_Grupo_15" data-name="&lt;Grupo&gt;"><path class="cls-5" d="M107,79.28a2,2,0,0,0,.56-.34,1.45,1.45,0,0,0,.52-1.23,6.39,6.39,0,0,0-1.32-2.79,6.37,6.37,0,0,0-1,2.92,1.45,1.45,0,0,0,.66,1.17A2,2,0,0,0,107,79.28Z"/></g><g id="_Grupo_16" data-name="&lt;Grupo&gt;"><path class="cls-6" d="M107,79.28a2,2,0,0,0,.56-.34,1.45,1.45,0,0,0,.52-1.23,6.39,6.39,0,0,0-1.32-2.79Z"/></g><g id="_Grupo_17" data-name="&lt;Grupo&gt;"><path class="cls-5" d="M112.44,76.39a2,2,0,0,0,.56-.34,1.45,1.45,0,0,0,.52-1.23A6.38,6.38,0,0,0,112.2,72a6.38,6.38,0,0,0-1,2.92,1.45,1.45,0,0,0,.66,1.17A2,2,0,0,0,112.44,76.39Z"/></g><g id="_Grupo_18" data-name="&lt;Grupo&gt;"><path class="cls-6" d="M112.44,76.39a2,2,0,0,0,.56-.34,1.45,1.45,0,0,0,.52-1.23A6.38,6.38,0,0,0,112.2,72Z"/></g><g id="_Grupo_19" data-name="&lt;Grupo&gt;"><path class="cls-5" d="M117.32,74.24a2,2,0,0,0,.56-.34,1.45,1.45,0,0,0,.52-1.23,6.38,6.38,0,0,0-1.32-2.79,6.37,6.37,0,0,0-1,2.92,1.45,1.45,0,0,0,.66,1.17A2,2,0,0,0,117.32,74.24Z"/></g><g id="_Grupo_20" data-name="&lt;Grupo&gt;"><path class="cls-6" d="M117.32,74.24a2,2,0,0,0,.56-.34,1.45,1.45,0,0,0,.52-1.23,6.38,6.38,0,0,0-1.32-2.79Z"/></g><g id="_Grupo_21" data-name="&lt;Grupo&gt;"><path class="cls-5" d="M122.61,72.2a1.81,1.81,0,0,0,.51-.31,1.34,1.34,0,0,0,.48-1.13,5.87,5.87,0,0,0-1.22-2.57,5.87,5.87,0,0,0-.93,2.69,1.33,1.33,0,0,0,.61,1.07A1.81,1.81,0,0,0,122.61,72.2Z"/></g><g id="_Grupo_22" data-name="&lt;Grupo&gt;"><path class="cls-6" d="M122.61,72.2a1.81,1.81,0,0,0,.51-.31,1.34,1.34,0,0,0,.48-1.13,5.87,5.87,0,0,0-1.22-2.57Z"/></g><g id="_Grupo_23" data-name="&lt;Grupo&gt;"><path class="cls-5" d="M128.21,70.65a1.59,1.59,0,0,0,.45-.27,1.17,1.17,0,0,0,.42-1A5.13,5.13,0,0,0,128,67.15a5.13,5.13,0,0,0-.81,2.35,1.16,1.16,0,0,0,.53.94A1.6,1.6,0,0,0,128.21,70.65Z"/></g><g id="_Grupo_24" data-name="&lt;Grupo&gt;"><path class="cls-6" d="M128.21,70.65a1.59,1.59,0,0,0,.45-.27,1.17,1.17,0,0,0,.42-1A5.13,5.13,0,0,0,128,67.15Z"/></g><g id="_Grupo_25" data-name="&lt;Grupo&gt;"><path class="cls-5" d="M133.77,69.61a1.6,1.6,0,0,0,.45-.27,1.17,1.17,0,0,0,.42-1,5.15,5.15,0,0,0-1.07-2.24,5.13,5.13,0,0,0-.81,2.35,1.17,1.17,0,0,0,.53.94A1.6,1.6,0,0,0,133.77,69.61Z"/></g><g id="_Grupo_26" data-name="&lt;Grupo&gt;"><path class="cls-6" d="M133.77,69.61a1.6,1.6,0,0,0,.45-.27,1.17,1.17,0,0,0,.42-1,5.15,5.15,0,0,0-1.07-2.24Z"/></g><g id="_Grupo_27" data-name="&lt;Grupo&gt;"><path class="cls-5" d="M138.84,69.2a1.57,1.57,0,0,0,.45-.27,1.16,1.16,0,0,0,.42-1,5.11,5.11,0,0,0-1.06-2.23,5.1,5.1,0,0,0-.8,2.33,1.16,1.16,0,0,0,.53.93A1.58,1.58,0,0,0,138.84,69.2Z"/></g><g id="_Grupo_28" data-name="&lt;Grupo&gt;"><path class="cls-6" d="M138.84,69.2a1.57,1.57,0,0,0,.45-.27,1.16,1.16,0,0,0,.42-1,5.11,5.11,0,0,0-1.06-2.23Z"/></g><g id="_Grupo_29" data-name="&lt;Grupo&gt;"><path class="cls-5" d="M115.15,81.17a2,2,0,0,0,.56-.34,1.45,1.45,0,0,0,.52-1.23,6.38,6.38,0,0,0-1.32-2.79,6.37,6.37,0,0,0-1,2.92,1.45,1.45,0,0,0,.66,1.17A2,2,0,0,0,115.15,81.17Z"/></g><g id="_Grupo_30" data-name="&lt;Grupo&gt;"><path class="cls-6" d="M115.15,81.17a2,2,0,0,0,.56-.34,1.45,1.45,0,0,0,.52-1.23,6.38,6.38,0,0,0-1.32-2.79Z"/></g><g id="_Grupo_31" data-name="&lt;Grupo&gt;"><path class="cls-5" d="M111.08,84.92a2,2,0,0,0,.56-.34,1.45,1.45,0,0,0,.52-1.23,6.38,6.38,0,0,0-1.32-2.79,6.37,6.37,0,0,0-1,2.92,1.45,1.45,0,0,0,.66,1.17A2,2,0,0,0,111.08,84.92Z"/></g><g id="_Grupo_32" data-name="&lt;Grupo&gt;"><path class="cls-6" d="M111.08,84.92a2,2,0,0,0,.56-.34,1.45,1.45,0,0,0,.52-1.23,6.38,6.38,0,0,0-1.32-2.79Z"/></g><g id="_Grupo_33" data-name="&lt;Grupo&gt;"><path class="cls-5" d="M120.32,78.53a2,2,0,0,0,.56-.34A1.45,1.45,0,0,0,121.4,77a6.38,6.38,0,0,0-1.32-2.79,6.37,6.37,0,0,0-1,2.92,1.45,1.45,0,0,0,.66,1.17A2,2,0,0,0,120.32,78.53Z"/></g><g id="_Grupo_34" data-name="&lt;Grupo&gt;"><path class="cls-6" d="M120.32,78.53a2,2,0,0,0,.56-.34A1.45,1.45,0,0,0,121.4,77a6.38,6.38,0,0,0-1.32-2.79Z"/></g><g id="_Grupo_35" data-name="&lt;Grupo&gt;"><path class="cls-5" d="M125.2,76.38a2,2,0,0,0,.56-.34,1.45,1.45,0,0,0,.52-1.23A6.38,6.38,0,0,0,125,72a6.38,6.38,0,0,0-1,2.92,1.45,1.45,0,0,0,.66,1.17A2,2,0,0,0,125.2,76.38Z"/></g><g id="_Grupo_36" data-name="&lt;Grupo&gt;"><path class="cls-6" d="M125.2,76.38a2,2,0,0,0,.56-.34,1.45,1.45,0,0,0,.52-1.23A6.38,6.38,0,0,0,125,72Z"/></g><g id="_Grupo_37" data-name="&lt;Grupo&gt;"><path class="cls-5" d="M130.49,74.34A1.8,1.8,0,0,0,131,74a1.33,1.33,0,0,0,.48-1.13,5.87,5.87,0,0,0-1.22-2.57,5.87,5.87,0,0,0-.93,2.69,1.33,1.33,0,0,0,.61,1.07A1.82,1.82,0,0,0,130.49,74.34Z"/></g><g id="_Grupo_38" data-name="&lt;Grupo&gt;"><path class="cls-6" d="M130.49,74.34A1.8,1.8,0,0,0,131,74a1.33,1.33,0,0,0,.48-1.13,5.87,5.87,0,0,0-1.22-2.57Z"/></g><g id="_Grupo_39" data-name="&lt;Grupo&gt;"><path class="cls-5" d="M136.09,72.8a1.59,1.59,0,0,0,.45-.27,1.16,1.16,0,0,0,.42-1,5.14,5.14,0,0,0-1.07-2.24,5.13,5.13,0,0,0-.81,2.35,1.17,1.17,0,0,0,.53.94A1.59,1.59,0,0,0,136.09,72.8Z"/></g><g id="_Grupo_40" data-name="&lt;Grupo&gt;"><path class="cls-6" d="M136.09,72.8a1.59,1.59,0,0,0,.45-.27,1.16,1.16,0,0,0,.42-1,5.14,5.14,0,0,0-1.07-2.24Z"/></g><g id="_Grupo_41" data-name="&lt;Grupo&gt;"><path class="cls-5" d="M141.65,71.75a1.62,1.62,0,0,0,.45-.27,1.17,1.17,0,0,0,.42-1,5.14,5.14,0,0,0-1.07-2.24,5.13,5.13,0,0,0-.81,2.35,1.17,1.17,0,0,0,.53.94A1.61,1.61,0,0,0,141.65,71.75Z"/></g><g id="_Grupo_42" data-name="&lt;Grupo&gt;"><path class="cls-6" d="M141.65,71.75a1.62,1.62,0,0,0,.45-.27,1.17,1.17,0,0,0,.42-1,5.14,5.14,0,0,0-1.07-2.24Z"/></g><g id="_Grupo_43" data-name="&lt;Grupo&gt;"><path class="cls-5" d="M146.72,71.34a1.57,1.57,0,0,0,.45-.27,1.16,1.16,0,0,0,.42-1,5.11,5.11,0,0,0-1.06-2.23,5.1,5.1,0,0,0-.8,2.33,1.16,1.16,0,0,0,.53.93A1.58,1.58,0,0,0,146.72,71.34Z"/></g><g id="_Grupo_44" data-name="&lt;Grupo&gt;"><path class="cls-6" d="M146.72,71.34a1.57,1.57,0,0,0,.45-.27,1.16,1.16,0,0,0,.42-1,5.11,5.11,0,0,0-1.06-2.23Z"/></g><g id="_Grupo_45" data-name="&lt;Grupo&gt;"><path class="cls-5" d="M118.72,87.16a2,2,0,0,0,.56-.34,1.45,1.45,0,0,0,.52-1.23,6.39,6.39,0,0,0-1.32-2.79,6.38,6.38,0,0,0-1,2.92,1.45,1.45,0,0,0,.66,1.17A2,2,0,0,0,118.72,87.16Z"/></g><g id="_Grupo_46" data-name="&lt;Grupo&gt;"><path class="cls-6" d="M118.72,87.16a2,2,0,0,0,.56-.34,1.45,1.45,0,0,0,.52-1.23,6.39,6.39,0,0,0-1.32-2.79Z"/></g><g id="_Grupo_47" data-name="&lt;Grupo&gt;"><path class="cls-5" d="M123.64,83.78a2,2,0,0,0,.56-.34,1.45,1.45,0,0,0,.52-1.23,6.38,6.38,0,0,0-1.32-2.79,6.37,6.37,0,0,0-1,2.92,1.45,1.45,0,0,0,.66,1.17A2,2,0,0,0,123.64,83.78Z"/></g><g id="_Grupo_48" data-name="&lt;Grupo&gt;"><path class="cls-6" d="M123.64,83.78a2,2,0,0,0,.56-.34,1.45,1.45,0,0,0,.52-1.23,6.38,6.38,0,0,0-1.32-2.79Z"/></g><g id="_Grupo_49" data-name="&lt;Grupo&gt;"><path class="cls-5" d="M128.76,80.65a2,2,0,0,0,.56-.34,1.45,1.45,0,0,0,.52-1.23,6.38,6.38,0,0,0-1.32-2.79,6.37,6.37,0,0,0-1,2.92,1.45,1.45,0,0,0,.66,1.17A2,2,0,0,0,128.76,80.65Z"/></g><g id="_Grupo_50" data-name="&lt;Grupo&gt;"><path class="cls-6" d="M128.76,80.65a2,2,0,0,0,.56-.34,1.45,1.45,0,0,0,.52-1.23,6.38,6.38,0,0,0-1.32-2.79Z"/></g><g id="_Grupo_51" data-name="&lt;Grupo&gt;"><path class="cls-5" d="M133.81,77.87a1.82,1.82,0,0,0,.51-.31,1.33,1.33,0,0,0,.48-1.13,5.88,5.88,0,0,0-1.22-2.57,5.87,5.87,0,0,0-.93,2.69,1.33,1.33,0,0,0,.61,1.07A1.8,1.8,0,0,0,133.81,77.87Z"/></g><g id="_Grupo_52" data-name="&lt;Grupo&gt;"><path class="cls-6" d="M133.81,77.87a1.82,1.82,0,0,0,.51-.31,1.33,1.33,0,0,0,.48-1.13,5.88,5.88,0,0,0-1.22-2.57Z"/></g><g id="_Grupo_53" data-name="&lt;Grupo&gt;"><path class="cls-5" d="M139.65,75.83a1.58,1.58,0,0,0,.45-.27,1.17,1.17,0,0,0,.42-1,5.13,5.13,0,0,0-1.07-2.24,5.13,5.13,0,0,0-.81,2.35,1.17,1.17,0,0,0,.53.94A1.59,1.59,0,0,0,139.65,75.83Z"/></g><g id="_Grupo_54" data-name="&lt;Grupo&gt;"><path class="cls-6" d="M139.65,75.83a1.58,1.58,0,0,0,.45-.27,1.17,1.17,0,0,0,.42-1,5.13,5.13,0,0,0-1.07-2.24Z"/></g><g id="_Grupo_55" data-name="&lt;Grupo&gt;"><path class="cls-5" d="M144.72,74.78a1.6,1.6,0,0,0,.45-.27,1.17,1.17,0,0,0,.42-1,5.14,5.14,0,0,0-1.07-2.24,5.13,5.13,0,0,0-.81,2.35,1.17,1.17,0,0,0,.53.94A1.6,1.6,0,0,0,144.72,74.78Z"/></g><g id="_Grupo_56" data-name="&lt;Grupo&gt;"><path class="cls-6" d="M144.72,74.78a1.6,1.6,0,0,0,.45-.27,1.17,1.17,0,0,0,.42-1,5.14,5.14,0,0,0-1.07-2.24Z"/></g><g id="_Grupo_57" data-name="&lt;Grupo&gt;"><path class="cls-5" d="M151,73.4a1.57,1.57,0,0,0,.45-.27,1.16,1.16,0,0,0,.42-1,5.11,5.11,0,0,0-1.06-2.23,5.1,5.1,0,0,0-.8,2.33,1.16,1.16,0,0,0,.53.93A1.57,1.57,0,0,0,151,73.4Z"/></g><g id="_Grupo_58" data-name="&lt;Grupo&gt;"><path class="cls-6" d="M151,73.4a1.57,1.57,0,0,0,.45-.27,1.16,1.16,0,0,0,.42-1,5.11,5.11,0,0,0-1.06-2.23Z"/></g><g id="_Grupo_59" data-name="&lt;Grupo&gt;"><path class="cls-5" d="M127.83,89.77a2,2,0,0,0,.56-.34,1.45,1.45,0,0,0,.52-1.23,6.38,6.38,0,0,0-1.32-2.79,6.38,6.38,0,0,0-1,2.92,1.45,1.45,0,0,0,.66,1.17A2,2,0,0,0,127.83,89.77Z"/></g><g id="_Grupo_60" data-name="&lt;Grupo&gt;"><path class="cls-6" d="M127.83,89.77a2,2,0,0,0,.56-.34,1.45,1.45,0,0,0,.52-1.23,6.38,6.38,0,0,0-1.32-2.79Z"/></g><g id="_Grupo_61" data-name="&lt;Grupo&gt;"><path class="cls-5" d="M123.27,93.76a2,2,0,0,0,.56-.34,1.45,1.45,0,0,0,.52-1.23A6.38,6.38,0,0,0,123,89.41a6.37,6.37,0,0,0-1,2.92,1.45,1.45,0,0,0,.66,1.17A2,2,0,0,0,123.27,93.76Z"/></g><g id="_Grupo_62" data-name="&lt;Grupo&gt;"><path class="cls-6" d="M123.27,93.76a2,2,0,0,0,.56-.34,1.45,1.45,0,0,0,.52-1.23A6.38,6.38,0,0,0,123,89.41Z"/></g><g id="_Grupo_63" data-name="&lt;Grupo&gt;"><path class="cls-5" d="M132.51,85.9a2,2,0,0,0,.56-.34,1.45,1.45,0,0,0,.52-1.23,6.38,6.38,0,0,0-1.32-2.79,6.37,6.37,0,0,0-1,2.92,1.45,1.45,0,0,0,.66,1.17A2,2,0,0,0,132.51,85.9Z"/></g><g id="_Grupo_64" data-name="&lt;Grupo&gt;"><path class="cls-6" d="M132.51,85.9a2,2,0,0,0,.56-.34,1.45,1.45,0,0,0,.52-1.23,6.38,6.38,0,0,0-1.32-2.79Z"/></g><g id="_Grupo_65" data-name="&lt;Grupo&gt;"><path class="cls-5" d="M137.39,83a2,2,0,0,0,.56-.34,1.45,1.45,0,0,0,.52-1.23,6.38,6.38,0,0,0-1.32-2.79,6.38,6.38,0,0,0-1,2.92,1.45,1.45,0,0,0,.66,1.17A2,2,0,0,0,137.39,83Z"/></g><g id="_Grupo_66" data-name="&lt;Grupo&gt;"><path class="cls-6" d="M137.39,83a2,2,0,0,0,.56-.34,1.45,1.45,0,0,0,.52-1.23,6.38,6.38,0,0,0-1.32-2.79Z"/></g><g id="_Grupo_67" data-name="&lt;Grupo&gt;"><path class="cls-5" d="M142.68,80.24a1.81,1.81,0,0,0,.51-.31,1.33,1.33,0,0,0,.48-1.13,5.88,5.88,0,0,0-1.22-2.57,5.87,5.87,0,0,0-.93,2.69,1.33,1.33,0,0,0,.6,1.07A1.81,1.81,0,0,0,142.68,80.24Z"/></g><g id="_Grupo_68" data-name="&lt;Grupo&gt;"><path class="cls-6" d="M142.68,80.24a1.81,1.81,0,0,0,.51-.31,1.33,1.33,0,0,0,.48-1.13,5.88,5.88,0,0,0-1.22-2.57Z"/></g><g id="_Grupo_69" data-name="&lt;Grupo&gt;"><path class="cls-5" d="M148,78.44a1.59,1.59,0,0,0,.45-.27,1.16,1.16,0,0,0,.42-1,5.13,5.13,0,0,0-1.07-2.24,5.13,5.13,0,0,0-.81,2.35,1.17,1.17,0,0,0,.53.94A1.6,1.6,0,0,0,148,78.44Z"/></g><g id="_Grupo_70" data-name="&lt;Grupo&gt;"><path class="cls-6" d="M148,78.44a1.59,1.59,0,0,0,.45-.27,1.16,1.16,0,0,0,.42-1,5.13,5.13,0,0,0-1.07-2.24Z"/></g><g id="_Grupo_71" data-name="&lt;Grupo&gt;"><path class="cls-5" d="M153.1,77.15a1.6,1.6,0,0,0,.45-.27,1.17,1.17,0,0,0,.42-1,5.14,5.14,0,0,0-1.07-2.24,5.13,5.13,0,0,0-.81,2.35,1.17,1.17,0,0,0,.53.94A1.59,1.59,0,0,0,153.1,77.15Z"/></g><g id="_Grupo_72" data-name="&lt;Grupo&gt;"><path class="cls-6" d="M153.1,77.15a1.6,1.6,0,0,0,.45-.27,1.17,1.17,0,0,0,.42-1,5.14,5.14,0,0,0-1.07-2.24Z"/></g><g id="_Grupo_73" data-name="&lt;Grupo&gt;"><path class="cls-5" d="M157.92,76.5a1.57,1.57,0,0,0,.45-.27,1.16,1.16,0,0,0,.42-1A5.11,5.11,0,0,0,157.73,73a5.1,5.1,0,0,0-.8,2.33,1.16,1.16,0,0,0,.53.93A1.57,1.57,0,0,0,157.92,76.5Z"/></g><g id="_Grupo_74" data-name="&lt;Grupo&gt;"><path class="cls-6" d="M157.92,76.5a1.57,1.57,0,0,0,.45-.27,1.16,1.16,0,0,0,.42-1A5.11,5.11,0,0,0,157.73,73Z"/></g><g id="_Grupo_75" data-name="&lt;Grupo&gt;"><path class="cls-5" d="M134.48,94a2,2,0,0,0,.56-.34,1.45,1.45,0,0,0,.52-1.23,6.38,6.38,0,0,0-1.32-2.79,6.38,6.38,0,0,0-1,2.92,1.45,1.45,0,0,0,.66,1.17A2,2,0,0,0,134.48,94Z"/></g><g id="_Grupo_76" data-name="&lt;Grupo&gt;"><path class="cls-6" d="M134.48,94a2,2,0,0,0,.56-.34,1.45,1.45,0,0,0,.52-1.23,6.38,6.38,0,0,0-1.32-2.79Z"/></g><g id="_Grupo_77" data-name="&lt;Grupo&gt;"><path class="cls-5" d="M129.92,98a2,2,0,0,0,.56-.34A1.45,1.45,0,0,0,131,96.4a6.38,6.38,0,0,0-1.32-2.79,6.37,6.37,0,0,0-1,2.92,1.45,1.45,0,0,0,.66,1.17A2,2,0,0,0,129.92,98Z"/></g><g id="_Grupo_78" data-name="&lt;Grupo&gt;"><path class="cls-6" d="M129.92,98a2,2,0,0,0,.56-.34A1.45,1.45,0,0,0,131,96.4a6.38,6.38,0,0,0-1.32-2.79Z"/></g><g id="_Grupo_79" data-name="&lt;Grupo&gt;"><path class="cls-5" d="M139.16,90.1a2,2,0,0,0,.56-.34,1.45,1.45,0,0,0,.52-1.23,6.39,6.39,0,0,0-1.32-2.79,6.37,6.37,0,0,0-1,2.92,1.45,1.45,0,0,0,.66,1.17A2,2,0,0,0,139.16,90.1Z"/></g><g id="_Grupo_80" data-name="&lt;Grupo&gt;"><path class="cls-6" d="M139.16,90.1a2,2,0,0,0,.56-.34,1.45,1.45,0,0,0,.52-1.23,6.39,6.39,0,0,0-1.32-2.79Z"/></g><g id="_Grupo_81" data-name="&lt;Grupo&gt;"><path class="cls-5" d="M144.28,87a2,2,0,0,0,.56-.34,1.45,1.45,0,0,0,.52-1.23A6.38,6.38,0,0,0,144,82.62a6.37,6.37,0,0,0-1,2.92,1.45,1.45,0,0,0,.66,1.17A2,2,0,0,0,144.28,87Z"/></g><g id="_Grupo_82" data-name="&lt;Grupo&gt;"><path class="cls-6" d="M144.28,87a2,2,0,0,0,.56-.34,1.45,1.45,0,0,0,.52-1.23A6.38,6.38,0,0,0,144,82.62Z"/></g><g id="_Grupo_83" data-name="&lt;Grupo&gt;"><path class="cls-5" d="M149.57,84.2a1.8,1.8,0,0,0,.51-.31,1.33,1.33,0,0,0,.48-1.13,5.89,5.89,0,0,0-1.22-2.57,5.87,5.87,0,0,0-.93,2.69,1.33,1.33,0,0,0,.6,1.07A1.83,1.83,0,0,0,149.57,84.2Z"/></g><g id="_Grupo_84" data-name="&lt;Grupo&gt;"><path class="cls-6" d="M149.57,84.2a1.8,1.8,0,0,0,.51-.31,1.33,1.33,0,0,0,.48-1.13,5.89,5.89,0,0,0-1.22-2.57Z"/></g><g id="_Grupo_85" data-name="&lt;Grupo&gt;"><path class="cls-5" d="M154.93,82.16a1.6,1.6,0,0,0,.45-.27,1.17,1.17,0,0,0,.42-1,5.13,5.13,0,0,0-1.07-2.24,5.13,5.13,0,0,0-.81,2.35,1.16,1.16,0,0,0,.53.94A1.6,1.6,0,0,0,154.93,82.16Z"/></g><g id="_Grupo_86" data-name="&lt;Grupo&gt;"><path class="cls-6" d="M154.93,82.16a1.6,1.6,0,0,0,.45-.27,1.17,1.17,0,0,0,.42-1,5.13,5.13,0,0,0-1.07-2.24Z"/></g><g id="_Grupo_87" data-name="&lt;Grupo&gt;"><path class="cls-5" d="M159.75,80.86a1.6,1.6,0,0,0,.45-.27,1.17,1.17,0,0,0,.42-1,5.15,5.15,0,0,0-1.07-2.24,5.13,5.13,0,0,0-.81,2.35,1.17,1.17,0,0,0,.53.94A1.6,1.6,0,0,0,159.75,80.86Z"/></g><g id="_Grupo_88" data-name="&lt;Grupo&gt;"><path class="cls-6" d="M159.75,80.86a1.6,1.6,0,0,0,.45-.27,1.17,1.17,0,0,0,.42-1,5.15,5.15,0,0,0-1.07-2.24Z"/></g><g id="_Grupo_89" data-name="&lt;Grupo&gt;"><path class="cls-5" d="M164.33,80.46a1.57,1.57,0,0,0,.45-.27,1.16,1.16,0,0,0,.42-1A5.11,5.11,0,0,0,164.13,77a5.1,5.1,0,0,0-.8,2.33,1.16,1.16,0,0,0,.53.93A1.57,1.57,0,0,0,164.33,80.46Z"/></g><g id="_Grupo_90" data-name="&lt;Grupo&gt;"><path class="cls-6" d="M164.33,80.46a1.57,1.57,0,0,0,.45-.27,1.16,1.16,0,0,0,.42-1A5.11,5.11,0,0,0,164.13,77Z"/></g><g id="_Grupo_91" data-name="&lt;Grupo&gt;"><path class="cls-5" d="M139.44,100.57a2,2,0,0,0,.56-.34,1.45,1.45,0,0,0,.52-1.23,6.38,6.38,0,0,0-1.32-2.79,6.37,6.37,0,0,0-1,2.92,1.45,1.45,0,0,0,.66,1.17A2,2,0,0,0,139.44,100.57Z"/></g><g id="_Grupo_92" data-name="&lt;Grupo&gt;"><path class="cls-6" d="M139.44,100.57a2,2,0,0,0,.56-.34,1.45,1.45,0,0,0,.52-1.23,6.38,6.38,0,0,0-1.32-2.79Z"/></g><g id="_Grupo_93" data-name="&lt;Grupo&gt;"><path class="cls-5" d="M134.88,104.8a2,2,0,0,0,.56-.34,1.45,1.45,0,0,0,.52-1.23,6.39,6.39,0,0,0-1.32-2.79,6.38,6.38,0,0,0-1,2.92,1.45,1.45,0,0,0,.66,1.17A2,2,0,0,0,134.88,104.8Z"/></g><g id="_Grupo_94" data-name="&lt;Grupo&gt;"><path class="cls-6" d="M134.88,104.8a2,2,0,0,0,.56-.34,1.45,1.45,0,0,0,.52-1.23,6.39,6.39,0,0,0-1.32-2.79Z"/></g><g id="_Grupo_95" data-name="&lt;Grupo&gt;"><path class="cls-5" d="M144.11,96a2,2,0,0,0,.56-.34,1.45,1.45,0,0,0,.52-1.23,6.38,6.38,0,0,0-1.32-2.79,6.37,6.37,0,0,0-1,2.92,1.45,1.45,0,0,0,.66,1.17A2,2,0,0,0,144.11,96Z"/></g><g id="_Grupo_96" data-name="&lt;Grupo&gt;"><path class="cls-6" d="M144.11,96a2,2,0,0,0,.56-.34,1.45,1.45,0,0,0,.52-1.23,6.38,6.38,0,0,0-1.32-2.79Z"/></g><g id="_Grupo_97" data-name="&lt;Grupo&gt;"><path class="cls-5" d="M149.24,92.58a2,2,0,0,0,.56-.34,1.45,1.45,0,0,0,.52-1.23A6.38,6.38,0,0,0,149,88.22a6.37,6.37,0,0,0-1,2.92,1.45,1.45,0,0,0,.66,1.17A2,2,0,0,0,149.24,92.58Z"/></g><g id="_Grupo_98" data-name="&lt;Grupo&gt;"><path class="cls-6" d="M149.24,92.58a2,2,0,0,0,.56-.34,1.45,1.45,0,0,0,.52-1.23A6.38,6.38,0,0,0,149,88.22Z"/></g><g id="_Grupo_99" data-name="&lt;Grupo&gt;"><path class="cls-5" d="M154.53,89.31A1.81,1.81,0,0,0,155,89a1.33,1.33,0,0,0,.48-1.14,5.88,5.88,0,0,0-1.22-2.57,5.86,5.86,0,0,0-.93,2.69,1.33,1.33,0,0,0,.6,1.07A1.82,1.82,0,0,0,154.53,89.31Z"/></g><g id="_Grupo_100" data-name="&lt;Grupo&gt;"><path class="cls-6" d="M154.53,89.31A1.81,1.81,0,0,0,155,89a1.33,1.33,0,0,0,.48-1.14,5.88,5.88,0,0,0-1.22-2.57Z"/></g><g id="_Grupo_101" data-name="&lt;Grupo&gt;"><path class="cls-5" d="M159.39,86.78a1.57,1.57,0,0,0,.45-.27,1.17,1.17,0,0,0,.42-1,5.14,5.14,0,0,0-1.07-2.24,5.13,5.13,0,0,0-.81,2.35,1.16,1.16,0,0,0,.53.94A1.59,1.59,0,0,0,159.39,86.78Z"/></g><g id="_Grupo_102" data-name="&lt;Grupo&gt;"><path class="cls-6" d="M159.39,86.78a1.57,1.57,0,0,0,.45-.27,1.17,1.17,0,0,0,.42-1,5.14,5.14,0,0,0-1.07-2.24Z"/></g><g id="_Grupo_103" data-name="&lt;Grupo&gt;"><path class="cls-5" d="M164,85a1.6,1.6,0,0,0,.45-.27,1.17,1.17,0,0,0,.42-1,5.14,5.14,0,0,0-1.07-2.24,5.13,5.13,0,0,0-.81,2.35,1.17,1.17,0,0,0,.53.94A1.61,1.61,0,0,0,164,85Z"/></g><g id="_Grupo_104" data-name="&lt;Grupo&gt;"><path class="cls-6" d="M164,85a1.6,1.6,0,0,0,.45-.27,1.17,1.17,0,0,0,.42-1,5.14,5.14,0,0,0-1.07-2.24Z"/></g><g id="_Grupo_105" data-name="&lt;Grupo&gt;"><path class="cls-5" d="M168.3,83.61a1.56,1.56,0,0,0,.45-.27,1.16,1.16,0,0,0,.42-1,5.11,5.11,0,0,0-1.06-2.23,5.1,5.1,0,0,0-.8,2.33,1.16,1.16,0,0,0,.53.93A1.57,1.57,0,0,0,168.3,83.61Z"/></g><g id="_Grupo_106" data-name="&lt;Grupo&gt;"><path class="cls-6" d="M168.3,83.61a1.56,1.56,0,0,0,.45-.27,1.16,1.16,0,0,0,.42-1,5.11,5.11,0,0,0-1.06-2.23Z"/></g><g id="_Grupo_107" data-name="&lt;Grupo&gt;"><path class="cls-5" d="M147.92,105.07a2,2,0,0,0,.56-.34,1.45,1.45,0,0,0,.52-1.23,6.39,6.39,0,0,0-1.32-2.79,6.37,6.37,0,0,0-1,2.92,1.45,1.45,0,0,0,.66,1.17A2,2,0,0,0,147.92,105.07Z"/></g><g id="_Grupo_108" data-name="&lt;Grupo&gt;"><path class="cls-6" d="M147.92,105.07a2,2,0,0,0,.56-.34,1.45,1.45,0,0,0,.52-1.23,6.39,6.39,0,0,0-1.32-2.79Z"/></g><g id="_Grupo_109" data-name="&lt;Grupo&gt;"><path class="cls-5" d="M152.66,100.57a2,2,0,0,0,.56-.34,1.45,1.45,0,0,0,.52-1.23,6.38,6.38,0,0,0-1.32-2.79,6.38,6.38,0,0,0-1,2.92,1.45,1.45,0,0,0,.66,1.17A2,2,0,0,0,152.66,100.57Z"/></g><g id="_Grupo_110" data-name="&lt;Grupo&gt;"><path class="cls-6" d="M152.66,100.57a2,2,0,0,0,.56-.34,1.45,1.45,0,0,0,.52-1.23,6.38,6.38,0,0,0-1.32-2.79Z"/></g><g id="_Grupo_111" data-name="&lt;Grupo&gt;"><path class="cls-5" d="M157.54,96a2,2,0,0,0,.56-.34,1.45,1.45,0,0,0,.52-1.23,6.38,6.38,0,0,0-1.32-2.79,6.37,6.37,0,0,0-1,2.92,1.45,1.45,0,0,0,.66,1.17A2,2,0,0,0,157.54,96Z"/></g><g id="_Grupo_112" data-name="&lt;Grupo&gt;"><path class="cls-6" d="M157.54,96a2,2,0,0,0,.56-.34,1.45,1.45,0,0,0,.52-1.23,6.38,6.38,0,0,0-1.32-2.79Z"/></g><g id="_Grupo_113" data-name="&lt;Grupo&gt;"><path class="cls-5" d="M162.68,92.19a1.8,1.8,0,0,0,.51-.31,1.33,1.33,0,0,0,.48-1.13,5.88,5.88,0,0,0-1.22-2.57,5.88,5.88,0,0,0-.93,2.69,1.34,1.34,0,0,0,.61,1.07A1.83,1.83,0,0,0,162.68,92.19Z"/></g><g id="_Grupo_114" data-name="&lt;Grupo&gt;"><path class="cls-6" d="M162.68,92.19a1.8,1.8,0,0,0,.51-.31,1.33,1.33,0,0,0,.48-1.13,5.88,5.88,0,0,0-1.22-2.57Z"/></g><g id="_Grupo_115" data-name="&lt;Grupo&gt;"><path class="cls-5" d="M167.37,89.67a1.59,1.59,0,0,0,.45-.27,1.17,1.17,0,0,0,.42-1,5.13,5.13,0,0,0-1.07-2.24,5.14,5.14,0,0,0-.81,2.35,1.17,1.17,0,0,0,.53.94A1.59,1.59,0,0,0,167.37,89.67Z"/></g><g id="_Grupo_116" data-name="&lt;Grupo&gt;"><path class="cls-6" d="M167.37,89.67a1.59,1.59,0,0,0,.45-.27,1.17,1.17,0,0,0,.42-1,5.13,5.13,0,0,0-1.07-2.24Z"/></g><g id="_Grupo_117" data-name="&lt;Grupo&gt;"><path class="cls-5" d="M172.7,88.12a1.59,1.59,0,0,0,.45-.27,1.17,1.17,0,0,0,.42-1,5.15,5.15,0,0,0-1.07-2.24A5.13,5.13,0,0,0,171.7,87a1.17,1.17,0,0,0,.53.94A1.61,1.61,0,0,0,172.7,88.12Z"/></g><g id="_Grupo_118" data-name="&lt;Grupo&gt;"><path class="cls-6" d="M172.7,88.12a1.59,1.59,0,0,0,.45-.27,1.17,1.17,0,0,0,.42-1,5.15,5.15,0,0,0-1.07-2.24Z"/></g><g id="_Grupo_119" data-name="&lt;Grupo&gt;"><path class="cls-5" d="M161.21,102.74a2,2,0,0,0,.56-.34,1.45,1.45,0,0,0,.52-1.23A6.38,6.38,0,0,0,161,98.39a6.38,6.38,0,0,0-1,2.92,1.45,1.45,0,0,0,.66,1.17A2,2,0,0,0,161.21,102.74Z"/></g><g id="_Grupo_120" data-name="&lt;Grupo&gt;"><path class="cls-6" d="M161.21,102.74a2,2,0,0,0,.56-.34,1.45,1.45,0,0,0,.52-1.23A6.38,6.38,0,0,0,161,98.39Z"/></g><g id="_Grupo_121" data-name="&lt;Grupo&gt;"><path class="cls-5" d="M165.6,98.22a2,2,0,0,0,.56-.34,1.45,1.45,0,0,0,.52-1.23,6.38,6.38,0,0,0-1.32-2.79,6.38,6.38,0,0,0-1,2.92,1.45,1.45,0,0,0,.66,1.17A2,2,0,0,0,165.6,98.22Z"/></g><g id="_Grupo_122" data-name="&lt;Grupo&gt;"><path class="cls-6" d="M165.6,98.22a2,2,0,0,0,.56-.34,1.45,1.45,0,0,0,.52-1.23,6.38,6.38,0,0,0-1.32-2.79Z"/></g><g id="_Grupo_123" data-name="&lt;Grupo&gt;"><path class="cls-5" d="M170.49,94.29A1.81,1.81,0,0,0,171,94a1.33,1.33,0,0,0,.48-1.13,5.88,5.88,0,0,0-1.22-2.57,5.87,5.87,0,0,0-.93,2.69,1.33,1.33,0,0,0,.61,1.07A1.81,1.81,0,0,0,170.49,94.29Z"/></g><g id="_Grupo_124" data-name="&lt;Grupo&gt;"><path class="cls-6" d="M170.49,94.29A1.81,1.81,0,0,0,171,94a1.33,1.33,0,0,0,.48-1.13,5.88,5.88,0,0,0-1.22-2.57Z"/></g><g id="_Grupo_125" data-name="&lt;Grupo&gt;"><path class="cls-5" d="M175.24,92.29a1.59,1.59,0,0,0,.45-.27,1.16,1.16,0,0,0,.42-1A5.13,5.13,0,0,0,175,88.78a5.13,5.13,0,0,0-.81,2.35,1.16,1.16,0,0,0,.53.94A1.6,1.6,0,0,0,175.24,92.29Z"/></g><g id="_Grupo_126" data-name="&lt;Grupo&gt;"><path class="cls-6" d="M175.24,92.29a1.59,1.59,0,0,0,.45-.27,1.16,1.16,0,0,0,.42-1A5.13,5.13,0,0,0,175,88.78Z"/></g><g id="_Grupo_127" data-name="&lt;Grupo&gt;"><path class="cls-5" d="M171.21,100.57a2,2,0,0,0,.56-.34,1.45,1.45,0,0,0,.52-1.23A6.38,6.38,0,0,0,171,96.21a6.37,6.37,0,0,0-1,2.92,1.45,1.45,0,0,0,.66,1.17A2,2,0,0,0,171.21,100.57Z"/></g><g id="_Grupo_128" data-name="&lt;Grupo&gt;"><path class="cls-6" d="M171.21,100.57a2,2,0,0,0,.56-.34,1.45,1.45,0,0,0,.52-1.23A6.38,6.38,0,0,0,171,96.21Z"/></g><g id="_Grupo_129" data-name="&lt;Grupo&gt;"><path class="cls-5" d="M175.36,98a1.81,1.81,0,0,0,.51-.31,1.33,1.33,0,0,0,.48-1.13,5.88,5.88,0,0,0-1.22-2.57,5.87,5.87,0,0,0-.93,2.69,1.33,1.33,0,0,0,.6,1.07A1.82,1.82,0,0,0,175.36,98Z"/></g><g id="_Grupo_130" data-name="&lt;Grupo&gt;"><path class="cls-6" d="M175.36,98a1.81,1.81,0,0,0,.51-.31,1.33,1.33,0,0,0,.48-1.13,5.88,5.88,0,0,0-1.22-2.57Z"/></g><g id="_Grupo_131" data-name="&lt;Grupo&gt;"><path class="cls-5" d="M179.59,95.21a1.59,1.59,0,0,0,.45-.27,1.17,1.17,0,0,0,.42-1,5.13,5.13,0,0,0-1.07-2.24,5.13,5.13,0,0,0-.81,2.35,1.16,1.16,0,0,0,.53.94A1.59,1.59,0,0,0,179.59,95.21Z"/></g><g id="_Grupo_132" data-name="&lt;Grupo&gt;"><path class="cls-6" d="M179.59,95.21a1.59,1.59,0,0,0,.45-.27,1.17,1.17,0,0,0,.42-1,5.13,5.13,0,0,0-1.07-2.24Z"/></g><circle class="cls-5" cx="37.77" cy="40.24" r="7.63"/><circle class="cls-6" cx="37.77" cy="40.24" r="6.6"/><circle class="cls-1" cx="37.77" cy="40.24" r="5.25"/><g id="_Grupo_133" data-name="&lt;Grupo&gt;"><path class="cls-5" d="M14.59,42.13H36a1.77,1.77,0,0,0-2.28-1.47,5.13,5.13,0,0,0-5-3.7,5.53,5.53,0,0,0-3.54,1.28,3.76,3.76,0,0,0-2.33-.69,3.64,3.64,0,0,0-3.22,1.7A4,4,0,0,0,14.59,42.13Z"/></g><g id="_Grupo_134" data-name="&lt;Grupo&gt;"><g id="_Grupo_135" data-name="&lt;Grupo&gt;"><path class="cls-1" d="M22,59.77l-.23-.19A2.23,2.23,0,0,0,19,59.41a.25.25,0,1,1-.3-.39,2.69,2.69,0,0,1,3.12,0,3.11,3.11,0,0,1,.34-.44,2.85,2.85,0,0,1,2.7-.84.25.25,0,1,1-.08.49,2.38,2.38,0,0,0-2.26.69,2.7,2.7,0,0,0-.41.58Z"/></g></g><g id="_Grupo_136" data-name="&lt;Grupo&gt;"><g id="_Grupo_137" data-name="&lt;Grupo&gt;"><path class="cls-1" d="M28.52,57.44l-.17-.25a2.23,2.23,0,0,0-2.58-.95.25.25,0,0,1-.17-.46,2.69,2.69,0,0,1,3,.9,3.14,3.14,0,0,1,.45-.32,2.85,2.85,0,0,1,2.83,0,.25.25,0,0,1-.22.44,2.38,2.38,0,0,0-2.36,0,2.69,2.69,0,0,0-.56.44Z"/></g></g><g id="_Grupo_138" data-name="&lt;Grupo&gt;"><g id="_Grupo_139" data-name="&lt;Grupo&gt;"><path class="cls-1" d="M149.83,58.9l-.2-.22a2.7,2.7,0,0,0-.55-.45,2.38,2.38,0,0,0-2.36-.08.25.25,0,1,1-.2-.45,2.85,2.85,0,0,1,2.82.11,3.13,3.13,0,0,1,.44.34,2.69,2.69,0,0,1,3-.82.25.25,0,1,1-.19.46,2.23,2.23,0,0,0-2.6.88Z"/></g></g><g id="_Grupo_140" data-name="&lt;Grupo&gt;"><path class="cls-5" d="M140,51.35h16.51a1.36,1.36,0,0,0-1.75-1.13,4,4,0,0,0-3.83-2.85,4.25,4.25,0,0,0-2.72,1,2.89,2.89,0,0,0-1.79-.53,2.8,2.8,0,0,0-2.48,1.31A3.06,3.06,0,0,0,140,51.35Z"/></g><path class="cls-5" d="M81.16,108c44,.07,21.34.15,52.69-.94.71-.75-11.67-12.81-11.67-12.81S100.61,71,62.28,71C33,71,8.4,85,0,96.67,0,96.67,24.48,107.87,81.16,108Z"/><path class="cls-5" d="M182,96.48l-.28.28C181.93,96.62,182,96.52,182,96.48Z"/><g class="cls-7"><path class="cls-3" d="M76.75,72.13A91.78,91.78,0,0,0,62.28,71l-1.59,0c-7.93,1.57-33.24,8-52.41,28.52,3,.88,6.91,1.89,11.7,2.89C23.2,99.07,46.25,76.07,76.75,72.13Z"/><path class="cls-3" d="M129.17,101.26c-1.13-1.19-2.33-2.4-3.4-3.49-10.07.51-19.59,8.43-21.62,10.23,5.94,0,7.79,0,10.33-.15C122.08,101.59,127.64,101.22,129.17,101.26Z"/><path class="cls-3" d="M118.36,90.71c-17.18-.71-37,14.51-40.43,17.23l3.23,0,11.65,0C107.32,95.77,119.18,94.21,122,94,121.55,93.57,120.33,92.36,118.36,90.71Z"/><path class="cls-3" d="M112,85.92c-2.06-1.38-4.41-2.83-7.06-4.26-24-1.29-48.58,22-51.85,25.26q7.11.54,15.26.82C85.5,88.43,108.37,86.16,112,85.92Z"/><path class="cls-3" d="M97.43,78.06a88.23,88.23,0,0,0-8.74-3.18c-35.07,5.44-54.35,25.5-57.89,29.5,4.21.66,8.89,1.27,14,1.8C68.29,80.89,92.54,78.32,97.43,78.06Z"/></g><g id="_Grupo_141" data-name="&lt;Grupo&gt;"><path class="cls-6" d="M9.13,94.49a3,3,0,0,0,.76-.65,2.21,2.21,0,0,0,.48-2C10,90.31,8.26,88.54,7.67,88c-.3.75-1.13,3.1-.79,4.65a2.21,2.21,0,0,0,1.28,1.6A3,3,0,0,0,9.13,94.49Z"/></g><g id="_Grupo_142" data-name="&lt;Grupo&gt;"><path class="cls-3" d="M9.13,94.49a3,3,0,0,0,.76-.65,2.21,2.21,0,0,0,.48-2C10,90.31,8.26,88.54,7.67,88Z"/></g><g id="_Grupo_143" data-name="&lt;Grupo&gt;"><path class="cls-6" d="M14.77,89.38a3,3,0,0,0,.81-.58,2.21,2.21,0,0,0,.65-1.94c-.21-1.57-1.81-3.49-2.35-4.09-.36.72-1.4,3-1.19,4.56A2.21,2.21,0,0,0,13.83,89,3,3,0,0,0,14.77,89.38Z"/></g><g id="_Grupo_144" data-name="&lt;Grupo&gt;"><path class="cls-3" d="M14.77,89.38a3,3,0,0,0,.81-.58,2.21,2.21,0,0,0,.65-1.94c-.21-1.57-1.81-3.49-2.35-4.09Z"/></g><g id="_Grupo_145" data-name="&lt;Grupo&gt;"><path class="cls-6" d="M21.26,85.09a3,3,0,0,0,.81-.58,2.21,2.21,0,0,0,.66-1.94c-.2-1.57-1.79-3.49-2.33-4.1-.36.72-1.41,3-1.21,4.56a2.22,2.22,0,0,0,1.13,1.71A3.05,3.05,0,0,0,21.26,85.09Z"/></g><g id="_Grupo_146" data-name="&lt;Grupo&gt;"><path class="cls-3" d="M21.26,85.09a3,3,0,0,0,.81-.58,2.21,2.21,0,0,0,.66-1.94c-.2-1.57-1.79-3.49-2.33-4.1Z"/></g><g id="_Grupo_147" data-name="&lt;Grupo&gt;"><path class="cls-6" d="M28,81.35a2.82,2.82,0,0,0,.81-.49,2.1,2.1,0,0,0,.76-1.78c-.08-1.5-1.46-3.43-1.92-4-.39.66-1.54,2.73-1.46,4.23a2.1,2.1,0,0,0,1,1.69A2.86,2.86,0,0,0,28,81.35Z"/></g><g id="_Grupo_148" data-name="&lt;Grupo&gt;"><path class="cls-3" d="M28,81.35a2.82,2.82,0,0,0,.81-.49,2.1,2.1,0,0,0,.76-1.78c-.08-1.5-1.46-3.43-1.92-4Z"/></g><g id="_Grupo_149" data-name="&lt;Grupo&gt;"><path class="cls-6" d="M46.94,73.46a2.4,2.4,0,0,0,.7-.39,1.78,1.78,0,0,0,.69-1.5,7.87,7.87,0,0,0-1.52-3.49,7.86,7.86,0,0,0-1.36,3.55,1.79,1.79,0,0,0,.76,1.46A2.45,2.45,0,0,0,46.94,73.46Z"/></g><g id="_Grupo_150" data-name="&lt;Grupo&gt;"><path class="cls-3" d="M46.94,73.46a2.4,2.4,0,0,0,.7-.39,1.78,1.78,0,0,0,.69-1.5,7.87,7.87,0,0,0-1.52-3.49Z"/></g><g id="_Grupo_151" data-name="&lt;Grupo&gt;"><path class="cls-6" d="M52.64,72.12a2.28,2.28,0,0,0,.66-.37A1.69,1.69,0,0,0,54,70.34,7.44,7.44,0,0,0,52.52,67a7.43,7.43,0,0,0-1.28,3.36A1.69,1.69,0,0,0,52,71.78,2.32,2.32,0,0,0,52.64,72.12Z"/></g><g id="_Grupo_152" data-name="&lt;Grupo&gt;"><path class="cls-3" d="M52.64,72.12a2.28,2.28,0,0,0,.66-.37A1.69,1.69,0,0,0,54,70.34,7.44,7.44,0,0,0,52.52,67Z"/></g><g id="_Grupo_153" data-name="&lt;Grupo&gt;"><path class="cls-6" d="M40.47,75.79a2.47,2.47,0,0,0,.73-.41,1.85,1.85,0,0,0,.72-1.55,8.14,8.14,0,0,0-1.57-3.61,8.13,8.13,0,0,0-1.4,3.68,1.85,1.85,0,0,0,.79,1.51A2.53,2.53,0,0,0,40.47,75.79Z"/></g><g id="_Grupo_154" data-name="&lt;Grupo&gt;"><path class="cls-3" d="M40.47,75.79a2.47,2.47,0,0,0,.73-.41,1.85,1.85,0,0,0,.72-1.55,8.14,8.14,0,0,0-1.57-3.61Z"/></g><g id="_Grupo_155" data-name="&lt;Grupo&gt;"><path class="cls-6" d="M34,78.21a2.49,2.49,0,0,0,.72-.41,1.84,1.84,0,0,0,.72-1.55,8.14,8.14,0,0,0-1.57-3.61,8.13,8.13,0,0,0-1.4,3.68,1.85,1.85,0,0,0,.79,1.51A2.54,2.54,0,0,0,34,78.21Z"/></g><g id="_Grupo_156" data-name="&lt;Grupo&gt;"><path class="cls-3" d="M34,78.21a2.49,2.49,0,0,0,.72-.41,1.84,1.84,0,0,0,.72-1.55,8.14,8.14,0,0,0-1.57-3.61Z"/></g><g id="_Grupo_157" data-name="&lt;Grupo&gt;"><path class="cls-6" d="M51.38,95.95a3,3,0,0,0,.78-.62,2.21,2.21,0,0,0,.54-2c-.3-1.56-2-3.38-2.56-4-.32.74-1.23,3.06-.94,4.62a2.21,2.21,0,0,0,1.23,1.64A3,3,0,0,0,51.38,95.95Z"/></g><g id="_Grupo_158" data-name="&lt;Grupo&gt;"><path class="cls-3" d="M51.38,95.95a3,3,0,0,0,.78-.62,2.21,2.21,0,0,0,.54-2c-.3-1.56-2-3.38-2.56-4Z"/></g><g id="_Grupo_159" data-name="&lt;Grupo&gt;"><path class="cls-6" d="M45.76,100.63a3,3,0,0,0,.78-.62,2.21,2.21,0,0,0,.54-2c-.3-1.56-2-3.38-2.56-4-.32.74-1.23,3.06-.94,4.62a2.21,2.21,0,0,0,1.23,1.64A3,3,0,0,0,45.76,100.63Z"/></g><g id="_Grupo_160" data-name="&lt;Grupo&gt;"><path class="cls-3" d="M45.76,100.63a3,3,0,0,0,.78-.62,2.21,2.21,0,0,0,.54-2c-.3-1.56-2-3.38-2.56-4Z"/></g><g id="_Grupo_161" data-name="&lt;Grupo&gt;"><path class="cls-6" d="M39.63,104.89a3,3,0,0,0,.78-.62,2.21,2.21,0,0,0,.54-2c-.3-1.56-2-3.38-2.56-4-.32.74-1.23,3.06-.94,4.62a2.21,2.21,0,0,0,1.23,1.64A3,3,0,0,0,39.63,104.89Z"/></g><g id="_Grupo_162" data-name="&lt;Grupo&gt;"><path class="cls-3" d="M39.63,104.89a3,3,0,0,0,.78-.62,2.21,2.21,0,0,0,.54-2c-.3-1.56-2-3.38-2.56-4Z"/></g><g id="_Grupo_163" data-name="&lt;Grupo&gt;"><path class="cls-6" d="M57.49,91.11a3,3,0,0,0,.82-.53A2.06,2.06,0,0,0,59,88.77c-.15-1.49-1.65-3.34-2.16-3.93-.38.67-1.48,2.79-1.33,4.28a2.06,2.06,0,0,0,1.06,1.64A3,3,0,0,0,57.49,91.11Z"/></g><g id="_Grupo_164" data-name="&lt;Grupo&gt;"><path class="cls-3" d="M57.49,91.11a3,3,0,0,0,.82-.53A2.06,2.06,0,0,0,59,88.77c-.15-1.49-1.65-3.34-2.16-3.93Z"/></g><g id="_Grupo_165" data-name="&lt;Grupo&gt;"><path class="cls-6" d="M64.41,87a2.87,2.87,0,0,0,.79-.52,2.1,2.1,0,0,0,.68-1.81c-.14-1.5-1.59-3.36-2.08-4-.37.67-1.43,2.78-1.29,4.28a2.1,2.1,0,0,0,1,1.65A2.87,2.87,0,0,0,64.41,87Z"/></g><g id="_Grupo_166" data-name="&lt;Grupo&gt;"><path class="cls-3" d="M64.41,87a2.87,2.87,0,0,0,.79-.52,2.1,2.1,0,0,0,.68-1.81c-.14-1.5-1.59-3.36-2.08-4Z"/></g><g id="_Grupo_167" data-name="&lt;Grupo&gt;"><path class="cls-6" d="M85.86,78.72a2.39,2.39,0,0,0,.7-.39,1.78,1.78,0,0,0,.69-1.5,7.87,7.87,0,0,0-1.52-3.49,7.86,7.86,0,0,0-1.36,3.55,1.79,1.79,0,0,0,.76,1.46A2.44,2.44,0,0,0,85.86,78.72Z"/></g><g id="_Grupo_168" data-name="&lt;Grupo&gt;"><path class="cls-3" d="M85.86,78.72a2.39,2.39,0,0,0,.7-.39,1.78,1.78,0,0,0,.69-1.5,7.87,7.87,0,0,0-1.52-3.49Z"/></g><g id="_Grupo_169" data-name="&lt;Grupo&gt;"><path class="cls-6" d="M92.11,77.21a2.07,2.07,0,0,0,.61-.34,1.54,1.54,0,0,0,.6-1.29,6.8,6.8,0,0,0-1.31-3,6.78,6.78,0,0,0-1.17,3.07,1.55,1.55,0,0,0,.66,1.26A2.12,2.12,0,0,0,92.11,77.21Z"/></g><g id="_Grupo_170" data-name="&lt;Grupo&gt;"><path class="cls-3" d="M92.11,77.21a2.07,2.07,0,0,0,.61-.34,1.54,1.54,0,0,0,.6-1.29,6.8,6.8,0,0,0-1.31-3Z"/></g><g id="_Grupo_171" data-name="&lt;Grupo&gt;"><path class="cls-6" d="M78.67,80.73a2.4,2.4,0,0,0,.7-.39,1.78,1.78,0,0,0,.69-1.5,7.86,7.86,0,0,0-1.52-3.49,7.85,7.85,0,0,0-1.36,3.55A1.79,1.79,0,0,0,78,80.37,2.46,2.46,0,0,0,78.67,80.73Z"/></g><g id="_Grupo_172" data-name="&lt;Grupo&gt;"><path class="cls-3" d="M78.67,80.73a2.4,2.4,0,0,0,.7-.39,1.78,1.78,0,0,0,.69-1.5,7.86,7.86,0,0,0-1.52-3.49Z"/></g><g id="_Grupo_173" data-name="&lt;Grupo&gt;"><path class="cls-6" d="M71.26,83.27a2.39,2.39,0,0,0,.7-.39,1.78,1.78,0,0,0,.69-1.5,7.88,7.88,0,0,0-1.52-3.49,7.86,7.86,0,0,0-1.36,3.55,1.79,1.79,0,0,0,.76,1.46A2.43,2.43,0,0,0,71.26,83.27Z"/></g><g id="_Grupo_174" data-name="&lt;Grupo&gt;"><path class="cls-3" d="M71.26,83.27a2.39,2.39,0,0,0,.7-.39,1.78,1.78,0,0,0,.69-1.5,7.88,7.88,0,0,0-1.52-3.49Z"/></g><g id="_Grupo_175" data-name="&lt;Grupo&gt;"><path class="cls-6" d="M63.54,96.17a2.85,2.85,0,0,0,.75-.59,2.12,2.12,0,0,0,.52-1.89c-.28-1.49-1.91-3.24-2.45-3.79-.31.71-1.18,2.93-.9,4.42a2.12,2.12,0,0,0,1.17,1.57A2.89,2.89,0,0,0,63.54,96.17Z"/></g><g id="_Grupo_176" data-name="&lt;Grupo&gt;"><path class="cls-3" d="M63.54,96.17a2.85,2.85,0,0,0,.75-.59,2.12,2.12,0,0,0,.52-1.89c-.28-1.49-1.91-3.24-2.45-3.79Z"/></g><g id="_Grupo_177" data-name="&lt;Grupo&gt;"><path class="cls-6" d="M57.2,100.79a3,3,0,0,0,.78-.62,2.21,2.21,0,0,0,.54-2c-.29-1.56-2-3.38-2.56-4-.32.74-1.23,3.06-.94,4.62a2.21,2.21,0,0,0,1.23,1.64A3,3,0,0,0,57.2,100.79Z"/></g><g id="_Grupo_178" data-name="&lt;Grupo&gt;"><path class="cls-3" d="M57.2,100.79a3,3,0,0,0,.78-.62,2.21,2.21,0,0,0,.54-2c-.29-1.56-2-3.38-2.56-4Z"/></g><g id="_Grupo_179" data-name="&lt;Grupo&gt;"><path class="cls-6" d="M51.81,105.54a3,3,0,0,0,.78-.62,2.21,2.21,0,0,0,.54-2c-.3-1.56-2-3.38-2.56-4-.32.74-1.23,3.06-.94,4.62a2.21,2.21,0,0,0,1.23,1.64A3,3,0,0,0,51.81,105.54Z"/></g><g id="_Grupo_180" data-name="&lt;Grupo&gt;"><path class="cls-3" d="M51.81,105.54a3,3,0,0,0,.78-.62,2.21,2.21,0,0,0,.54-2c-.3-1.56-2-3.38-2.56-4Z"/></g><g id="_Grupo_181" data-name="&lt;Grupo&gt;"><path class="cls-6" d="M69.63,92.35a2.84,2.84,0,0,0,.78-.52A2.07,2.07,0,0,0,71.08,90c-.15-1.48-1.59-3.31-2.07-3.89-.36.67-1.4,2.76-1.25,4.23a2.07,2.07,0,0,0,1,1.62A2.86,2.86,0,0,0,69.63,92.35Z"/></g><g id="_Grupo_182" data-name="&lt;Grupo&gt;"><path class="cls-3" d="M69.63,92.35a2.84,2.84,0,0,0,.78-.52A2.07,2.07,0,0,0,71.08,90c-.15-1.48-1.59-3.31-2.07-3.89Z"/></g><g id="_Grupo_183" data-name="&lt;Grupo&gt;"><path class="cls-6" d="M91.08,82.19a2.4,2.4,0,0,0,.7-.39,1.79,1.79,0,0,0,.69-1.5,7.87,7.87,0,0,0-1.52-3.49,7.86,7.86,0,0,0-1.36,3.55,1.79,1.79,0,0,0,.76,1.46A2.45,2.45,0,0,0,91.08,82.19Z"/></g><g id="_Grupo_184" data-name="&lt;Grupo&gt;"><path class="cls-3" d="M91.08,82.19a2.4,2.4,0,0,0,.7-.39,1.79,1.79,0,0,0,.69-1.5,7.87,7.87,0,0,0-1.52-3.49Z"/></g><g id="_Grupo_185" data-name="&lt;Grupo&gt;"><path class="cls-6" d="M97.95,80.9a2.21,2.21,0,0,0,.65-.36,1.64,1.64,0,0,0,.64-1.38,7.26,7.26,0,0,0-1.4-3.21,7.24,7.24,0,0,0-1.25,3.27,1.65,1.65,0,0,0,.7,1.35A2.25,2.25,0,0,0,97.95,80.9Z"/></g><g id="_Grupo_186" data-name="&lt;Grupo&gt;"><path class="cls-3" d="M97.95,80.9a2.21,2.21,0,0,0,.65-.36,1.64,1.64,0,0,0,.64-1.38,7.26,7.26,0,0,0-1.4-3.21Z"/></g><g id="_Grupo_187" data-name="&lt;Grupo&gt;"><path class="cls-6" d="M83.37,84.88a2.4,2.4,0,0,0,.7-.39,1.78,1.78,0,0,0,.69-1.5,7.86,7.86,0,0,0-1.52-3.49,7.87,7.87,0,0,0-1.36,3.55,1.79,1.79,0,0,0,.76,1.46A2.45,2.45,0,0,0,83.37,84.88Z"/></g><g id="_Grupo_188" data-name="&lt;Grupo&gt;"><path class="cls-3" d="M83.37,84.88a2.4,2.4,0,0,0,.7-.39,1.78,1.78,0,0,0,.69-1.5,7.86,7.86,0,0,0-1.52-3.49Z"/></g><g id="_Grupo_189" data-name="&lt;Grupo&gt;"><path class="cls-6" d="M76,88a2.38,2.38,0,0,0,.7-.39,1.78,1.78,0,0,0,.69-1.5,7.88,7.88,0,0,0-1.52-3.49,7.86,7.86,0,0,0-1.36,3.55,1.79,1.79,0,0,0,.76,1.46A2.44,2.44,0,0,0,76,88Z"/></g><g id="_Grupo_190" data-name="&lt;Grupo&gt;"><path class="cls-3" d="M76,88a2.38,2.38,0,0,0,.7-.39,1.78,1.78,0,0,0,.69-1.5,7.88,7.88,0,0,0-1.52-3.49Z"/></g><g id="_Grupo_191" data-name="&lt;Grupo&gt;"><path class="cls-6" d="M76.14,97.36a2.65,2.65,0,0,0,.69-.55,2,2,0,0,0,.48-1.75A8.65,8.65,0,0,0,75,91.55a8.63,8.63,0,0,0-.83,4.1,2,2,0,0,0,1.09,1.45A2.68,2.68,0,0,0,76.14,97.36Z"/></g><g id="_Grupo_192" data-name="&lt;Grupo&gt;"><path class="cls-3" d="M76.14,97.36a2.65,2.65,0,0,0,.69-.55,2,2,0,0,0,.48-1.75A8.65,8.65,0,0,0,75,91.55Z"/></g><g id="_Grupo_193" data-name="&lt;Grupo&gt;"><path class="cls-6" d="M69.85,101.92a3,3,0,0,0,.78-.62,2.21,2.21,0,0,0,.54-2c-.3-1.56-2-3.38-2.56-4-.32.74-1.23,3.06-.94,4.62a2.21,2.21,0,0,0,1.23,1.64A3,3,0,0,0,69.85,101.92Z"/></g><g id="_Grupo_194" data-name="&lt;Grupo&gt;"><path class="cls-3" d="M69.85,101.92a3,3,0,0,0,.78-.62,2.21,2.21,0,0,0,.54-2c-.3-1.56-2-3.38-2.56-4Z"/></g><g id="_Grupo_195" data-name="&lt;Grupo&gt;"><path class="cls-6" d="M64.21,106.42a3,3,0,0,0,.78-.62,2.21,2.21,0,0,0,.54-2c-.3-1.56-2-3.38-2.56-4-.32.74-1.23,3.06-.94,4.62a2.21,2.21,0,0,0,1.23,1.64A3,3,0,0,0,64.21,106.42Z"/></g><g id="_Grupo_196" data-name="&lt;Grupo&gt;"><path class="cls-3" d="M64.21,106.42a3,3,0,0,0,.78-.62,2.21,2.21,0,0,0,.54-2c-.3-1.56-2-3.38-2.56-4Z"/></g><g id="_Grupo_197" data-name="&lt;Grupo&gt;"><path class="cls-6" d="M82.22,93.28a2.78,2.78,0,0,0,.76-.51A2,2,0,0,0,83.64,91a9,9,0,0,0-2-3.82,9,9,0,0,0-1.22,4.15,2,2,0,0,0,1,1.59A2.79,2.79,0,0,0,82.22,93.28Z"/></g><g id="_Grupo_198" data-name="&lt;Grupo&gt;"><path class="cls-3" d="M82.22,93.28a2.78,2.78,0,0,0,.76-.51A2,2,0,0,0,83.64,91a9,9,0,0,0-2-3.82Z"/></g><g id="_Grupo_199" data-name="&lt;Grupo&gt;"><path class="cls-6" d="M89.07,89.33a2.65,2.65,0,0,0,.73-.48,2,2,0,0,0,.63-1.68,8.58,8.58,0,0,0-1.93-3.67,8.56,8.56,0,0,0-1.19,4A2,2,0,0,0,88.26,89,2.66,2.66,0,0,0,89.07,89.33Z"/></g><g id="_Grupo_200" data-name="&lt;Grupo&gt;"><path class="cls-3" d="M89.07,89.33a2.65,2.65,0,0,0,.73-.48,2,2,0,0,0,.63-1.68,8.58,8.58,0,0,0-1.93-3.67Z"/></g><g id="_Grupo_201" data-name="&lt;Grupo&gt;"><path class="cls-6" d="M103.47,84.73a2.48,2.48,0,0,0,.73-.41,1.85,1.85,0,0,0,.72-1.55,8.15,8.15,0,0,0-1.57-3.61,8.13,8.13,0,0,0-1.4,3.68,1.85,1.85,0,0,0,.79,1.51A2.53,2.53,0,0,0,103.47,84.73Z"/></g><g id="_Grupo_202" data-name="&lt;Grupo&gt;"><path class="cls-3" d="M103.47,84.73a2.48,2.48,0,0,0,.73-.41,1.85,1.85,0,0,0,.72-1.55,8.15,8.15,0,0,0-1.57-3.61Z"/></g><g id="_Grupo_203" data-name="&lt;Grupo&gt;"><path class="cls-6" d="M96.64,86.28a2.49,2.49,0,0,0,.73-.41,1.85,1.85,0,0,0,.72-1.55,8.14,8.14,0,0,0-1.57-3.61,8.12,8.12,0,0,0-1.4,3.68,1.85,1.85,0,0,0,.79,1.51A2.53,2.53,0,0,0,96.64,86.28Z"/></g><g id="_Grupo_204" data-name="&lt;Grupo&gt;"><path class="cls-3" d="M96.64,86.28a2.49,2.49,0,0,0,.73-.41,1.85,1.85,0,0,0,.72-1.55,8.14,8.14,0,0,0-1.57-3.61Z"/></g><g id="_Grupo_205" data-name="&lt;Grupo&gt;"><path class="cls-6" d="M88.42,98.92a2.75,2.75,0,0,0,.75-.52,2,2,0,0,0,.62-1.76,8.93,8.93,0,0,0-2.08-3.78A8.91,8.91,0,0,0,86.55,97a2,2,0,0,0,1,1.58A2.78,2.78,0,0,0,88.42,98.92Z"/></g><g id="_Grupo_206" data-name="&lt;Grupo&gt;"><path class="cls-3" d="M88.42,98.92a2.75,2.75,0,0,0,.75-.52,2,2,0,0,0,.62-1.76,8.93,8.93,0,0,0-2.08-3.78Z"/></g><g id="_Grupo_207" data-name="&lt;Grupo&gt;"><path class="cls-6" d="M82.18,102.63a3,3,0,0,0,.82-.56,2.21,2.21,0,0,0,.68-1.93c-.18-1.58-1.75-3.52-2.28-4.13-.37.72-1.45,3-1.26,4.54a2.21,2.21,0,0,0,1.11,1.72A3,3,0,0,0,82.18,102.63Z"/></g><g id="_Grupo_208" data-name="&lt;Grupo&gt;"><path class="cls-3" d="M82.18,102.63a3,3,0,0,0,.82-.56,2.21,2.21,0,0,0,.68-1.93c-.18-1.58-1.75-3.52-2.28-4.13Z"/></g><g id="_Grupo_209" data-name="&lt;Grupo&gt;"><path class="cls-6" d="M76,107a3,3,0,0,0,.82-.57,2.21,2.21,0,0,0,.68-1.93c-.18-1.58-1.75-3.52-2.28-4.13-.37.72-1.45,3-1.26,4.54a2.21,2.21,0,0,0,1.11,1.72A3,3,0,0,0,76,107Z"/></g><g id="_Grupo_210" data-name="&lt;Grupo&gt;"><path class="cls-3" d="M76,107a3,3,0,0,0,.82-.57,2.21,2.21,0,0,0,.68-1.93c-.18-1.58-1.75-3.52-2.28-4.13Z"/></g><g id="_Grupo_211" data-name="&lt;Grupo&gt;"><path class="cls-6" d="M95.73,95.35a2.76,2.76,0,0,0,.8-.45,2,2,0,0,0,.78-1.71,9,9,0,0,0-1.76-4A9,9,0,0,0,94,93.28a2,2,0,0,0,.88,1.66A2.81,2.81,0,0,0,95.73,95.35Z"/></g><g id="_Grupo_212" data-name="&lt;Grupo&gt;"><path class="cls-3" d="M95.73,95.35a2.76,2.76,0,0,0,.8-.45,2,2,0,0,0,.78-1.71,9,9,0,0,0-1.76-4Z"/></g><g id="_Grupo_213" data-name="&lt;Grupo&gt;"><path class="cls-6" d="M110.51,90.07a2.39,2.39,0,0,0,.7-.39,1.78,1.78,0,0,0,.69-1.5,7.88,7.88,0,0,0-1.52-3.49A7.86,7.86,0,0,0,109,88.25a1.79,1.79,0,0,0,.76,1.46A2.45,2.45,0,0,0,110.51,90.07Z"/></g><g id="_Grupo_214" data-name="&lt;Grupo&gt;"><path class="cls-3" d="M110.51,90.07a2.39,2.39,0,0,0,.7-.39,1.78,1.78,0,0,0,.69-1.5,7.88,7.88,0,0,0-1.52-3.49Z"/></g><g id="_Grupo_215" data-name="&lt;Grupo&gt;"><path class="cls-6" d="M103,91.91a2.41,2.41,0,0,0,.7-.39,1.78,1.78,0,0,0,.69-1.5,7.87,7.87,0,0,0-1.52-3.49,7.86,7.86,0,0,0-1.36,3.55,1.79,1.79,0,0,0,.76,1.46A2.45,2.45,0,0,0,103,91.91Z"/></g><g id="_Grupo_216" data-name="&lt;Grupo&gt;"><path class="cls-3" d="M103,91.91a2.41,2.41,0,0,0,.7-.39,1.78,1.78,0,0,0,.69-1.5,7.87,7.87,0,0,0-1.52-3.49Z"/></g><g id="_Grupo_217" data-name="&lt;Grupo&gt;"><path class="cls-6" d="M95,103.45a2.83,2.83,0,0,0,.77-.53,2.08,2.08,0,0,0,.64-1.81c-.17-1.48-1.64-3.3-2.14-3.88-.35.67-1.36,2.79-1.19,4.27a2.08,2.08,0,0,0,1,1.61A2.83,2.83,0,0,0,95,103.45Z"/></g><g id="_Grupo_218" data-name="&lt;Grupo&gt;"><path class="cls-3" d="M95,103.45a2.83,2.83,0,0,0,.77-.53,2.08,2.08,0,0,0,.64-1.81c-.17-1.48-1.64-3.3-2.14-3.88Z"/></g><g id="_Grupo_219" data-name="&lt;Grupo&gt;"><path class="cls-6" d="M88.68,107.41a3,3,0,0,0,.82-.56,2.21,2.21,0,0,0,.68-1.93c-.18-1.58-1.75-3.52-2.28-4.13-.37.72-1.45,3-1.27,4.54a2.21,2.21,0,0,0,1.11,1.72A3,3,0,0,0,88.68,107.41Z"/></g><g id="_Grupo_220" data-name="&lt;Grupo&gt;"><path class="cls-3" d="M88.68,107.41a3,3,0,0,0,.82-.56,2.21,2.21,0,0,0,.68-1.93c-.18-1.58-1.75-3.52-2.28-4.13Z"/></g><g id="_Grupo_221" data-name="&lt;Grupo&gt;"><path class="cls-6" d="M101.45,99.42a2.7,2.7,0,0,0,.78-.44,2,2,0,0,0,.76-1.67,8.72,8.72,0,0,0-1.71-3.86,8.72,8.72,0,0,0-1.48,4,2,2,0,0,0,.86,1.62A2.74,2.74,0,0,0,101.45,99.42Z"/></g><g id="_Grupo_222" data-name="&lt;Grupo&gt;"><path class="cls-3" d="M101.45,99.42a2.7,2.7,0,0,0,.78-.44,2,2,0,0,0,.76-1.67,8.72,8.72,0,0,0-1.71-3.86Z"/></g><g id="_Grupo_223" data-name="&lt;Grupo&gt;"><path class="cls-6" d="M115.29,93.86a2.4,2.4,0,0,0,.7-.39,1.78,1.78,0,0,0,.69-1.5,7.86,7.86,0,0,0-1.52-3.49A7.86,7.86,0,0,0,113.81,92a1.79,1.79,0,0,0,.76,1.46A2.46,2.46,0,0,0,115.29,93.86Z"/></g><g id="_Grupo_224" data-name="&lt;Grupo&gt;"><path class="cls-3" d="M115.29,93.86a2.4,2.4,0,0,0,.7-.39,1.78,1.78,0,0,0,.69-1.5,7.86,7.86,0,0,0-1.52-3.49Z"/></g><g id="_Grupo_225" data-name="&lt;Grupo&gt;"><path class="cls-6" d="M107.76,96.44a2.39,2.39,0,0,0,.7-.39,1.78,1.78,0,0,0,.69-1.5,7.88,7.88,0,0,0-1.52-3.49,7.86,7.86,0,0,0-1.36,3.55,1.79,1.79,0,0,0,.76,1.46A2.45,2.45,0,0,0,107.76,96.44Z"/></g><g id="_Grupo_226" data-name="&lt;Grupo&gt;"><path class="cls-3" d="M107.76,96.44a2.39,2.39,0,0,0,.7-.39,1.78,1.78,0,0,0,.69-1.5,7.88,7.88,0,0,0-1.52-3.49Z"/></g><g id="_Grupo_227" data-name="&lt;Grupo&gt;"><path class="cls-6" d="M100.08,107.48a3,3,0,0,0,.82-.56,2.21,2.21,0,0,0,.68-1.93c-.18-1.58-1.75-3.52-2.28-4.13-.37.72-1.45,3-1.26,4.54a2.21,2.21,0,0,0,1.11,1.72A3,3,0,0,0,100.08,107.48Z"/></g><g id="_Grupo_228" data-name="&lt;Grupo&gt;"><path class="cls-3" d="M100.08,107.48a3,3,0,0,0,.82-.56,2.21,2.21,0,0,0,.68-1.93c-.18-1.58-1.75-3.52-2.28-4.13Z"/></g><g id="_Grupo_229" data-name="&lt;Grupo&gt;"><path class="cls-6" d="M106.22,103.84a2.75,2.75,0,0,0,.79-.45,2,2,0,0,0,.77-1.7A8.91,8.91,0,0,0,106,97.75a8.91,8.91,0,0,0-1.51,4,2,2,0,0,0,.87,1.65A2.77,2.77,0,0,0,106.22,103.84Z"/></g><g id="_Grupo_230" data-name="&lt;Grupo&gt;"><path class="cls-3" d="M106.22,103.84a2.75,2.75,0,0,0,.79-.45,2,2,0,0,0,.77-1.7A8.91,8.91,0,0,0,106,97.75Z"/></g><g id="_Grupo_231" data-name="&lt;Grupo&gt;"><path class="cls-6" d="M120.19,97.43a2.4,2.4,0,0,0,.7-.39,1.78,1.78,0,0,0,.69-1.5A7.87,7.87,0,0,0,120.06,92a7.86,7.86,0,0,0-1.36,3.55,1.79,1.79,0,0,0,.76,1.46A2.45,2.45,0,0,0,120.19,97.43Z"/></g><g id="_Grupo_232" data-name="&lt;Grupo&gt;"><path class="cls-3" d="M120.19,97.43a2.4,2.4,0,0,0,.7-.39,1.78,1.78,0,0,0,.69-1.5A7.87,7.87,0,0,0,120.06,92Z"/></g><g id="_Grupo_233" data-name="&lt;Grupo&gt;"><path class="cls-6" d="M113,100a2.4,2.4,0,0,0,.7-.4,1.78,1.78,0,0,0,.68-1.5,7.87,7.87,0,0,0-1.56-3.47,7.86,7.86,0,0,0-1.31,3.57,1.79,1.79,0,0,0,.78,1.45A2.44,2.44,0,0,0,113,100Z"/></g><g id="_Grupo_234" data-name="&lt;Grupo&gt;"><path class="cls-3" d="M113,100a2.4,2.4,0,0,0,.7-.4,1.78,1.78,0,0,0,.68-1.5,7.87,7.87,0,0,0-1.56-3.47Z"/></g><g id="_Grupo_235" data-name="&lt;Grupo&gt;"><path class="cls-6" d="M111.6,107.8a2.87,2.87,0,0,0,.82-.47,2.1,2.1,0,0,0,.8-1.77c0-1.5-1.37-3.47-1.82-4.09-.41.65-1.61,2.69-1.57,4.19a2.1,2.1,0,0,0,.91,1.72A2.88,2.88,0,0,0,111.6,107.8Z"/></g><g id="_Grupo_236" data-name="&lt;Grupo&gt;"><path class="cls-3" d="M111.6,107.8a2.87,2.87,0,0,0,.82-.47,2.1,2.1,0,0,0,.8-1.77c0-1.5-1.37-3.47-1.82-4.09Z"/></g><g id="_Grupo_237" data-name="&lt;Grupo&gt;"><path class="cls-6" d="M117.72,104a2.61,2.61,0,0,0,.75-.42,1.91,1.91,0,0,0,.74-1.6,8.4,8.4,0,0,0-1.63-3.72,8.38,8.38,0,0,0-1.44,3.79,1.91,1.91,0,0,0,.82,1.56A2.61,2.61,0,0,0,117.72,104Z"/></g><g id="_Grupo_238" data-name="&lt;Grupo&gt;"><path class="cls-3" d="M117.72,104a2.61,2.61,0,0,0,.75-.42,1.91,1.91,0,0,0,.74-1.6,8.4,8.4,0,0,0-1.63-3.72Z"/></g><g id="_Grupo_239" data-name="&lt;Grupo&gt;"><path class="cls-6" d="M124.66,101.33a2.38,2.38,0,0,0,.7-.39,1.78,1.78,0,0,0,.69-1.5A7.87,7.87,0,0,0,124.54,96a7.86,7.86,0,0,0-1.36,3.55,1.79,1.79,0,0,0,.76,1.46A2.42,2.42,0,0,0,124.66,101.33Z"/></g><g id="_Grupo_240" data-name="&lt;Grupo&gt;"><path class="cls-3" d="M124.66,101.33a2.38,2.38,0,0,0,.7-.39,1.78,1.78,0,0,0,.69-1.5A7.87,7.87,0,0,0,124.54,96Z"/></g><g id="_Grupo_241" data-name="&lt;Grupo&gt;"><path class="cls-6" d="M122.53,107.51a2.62,2.62,0,0,0,.75-.42,1.91,1.91,0,0,0,.74-1.6,8.41,8.41,0,0,0-1.63-3.72,8.4,8.4,0,0,0-1.44,3.8,1.91,1.91,0,0,0,.82,1.56A2.63,2.63,0,0,0,122.53,107.51Z"/></g><g id="_Grupo_242" data-name="&lt;Grupo&gt;"><path class="cls-3" d="M122.53,107.51a2.62,2.62,0,0,0,.75-.42,1.91,1.91,0,0,0,.74-1.6,8.41,8.41,0,0,0-1.63-3.72Z"/></g><g id="_Grupo_243" data-name="&lt;Grupo&gt;"><path class="cls-6" d="M129,105.83a2.41,2.41,0,0,0,.7-.39,1.78,1.78,0,0,0,.69-1.5,7.87,7.87,0,0,0-1.52-3.49,7.86,7.86,0,0,0-1.36,3.55,1.79,1.79,0,0,0,.76,1.46A2.46,2.46,0,0,0,129,105.83Z"/></g><g id="_Grupo_244" data-name="&lt;Grupo&gt;"><path class="cls-3" d="M129,105.83a2.41,2.41,0,0,0,.7-.39,1.78,1.78,0,0,0,.69-1.5,7.87,7.87,0,0,0-1.52-3.49Z"/></g><g id="_Grupo_245" data-name="&lt;Grupo&gt;"><path class="cls-6" d="M35.91,96.76a3,3,0,0,0,.76-.65,2.22,2.22,0,0,0,.48-2c-.35-1.55-2.11-3.32-2.69-3.87-.3.75-1.13,3.1-.79,4.65a2.21,2.21,0,0,0,1.28,1.6A3,3,0,0,0,35.91,96.76Z"/></g><g id="_Grupo_246" data-name="&lt;Grupo&gt;"><path class="cls-3" d="M35.91,96.76a3,3,0,0,0,.76-.65,2.22,2.22,0,0,0,.48-2c-.35-1.55-2.11-3.32-2.69-3.87Z"/></g><g id="_Grupo_247" data-name="&lt;Grupo&gt;"><path class="cls-6" d="M28.7,100.94a3,3,0,0,0,.76-.65,2.22,2.22,0,0,0,.48-2c-.35-1.55-2.11-3.32-2.69-3.87-.3.75-1.13,3.1-.79,4.65a2.21,2.21,0,0,0,1.28,1.6A3,3,0,0,0,28.7,100.94Z"/></g><g id="_Grupo_248" data-name="&lt;Grupo&gt;"><path class="cls-3" d="M28.7,100.94a3,3,0,0,0,.76-.65,2.22,2.22,0,0,0,.48-2c-.35-1.55-2.11-3.32-2.69-3.87Z"/></g><g id="_Grupo_249" data-name="&lt;Grupo&gt;"><path class="cls-6" d="M41.79,91.9a3,3,0,0,0,.81-.58,2.21,2.21,0,0,0,.65-1.94c-.21-1.57-1.81-3.49-2.35-4.09-.36.72-1.4,3-1.19,4.56a2.22,2.22,0,0,0,1.14,1.7A3,3,0,0,0,41.79,91.9Z"/></g><g id="_Grupo_250" data-name="&lt;Grupo&gt;"><path class="cls-3" d="M41.79,91.9a3,3,0,0,0,.81-.58,2.21,2.21,0,0,0,.65-1.94c-.21-1.57-1.81-3.49-2.35-4.09Z"/></g><g id="_Grupo_251" data-name="&lt;Grupo&gt;"><path class="cls-6" d="M48.45,87.87a2.88,2.88,0,0,0,.78-.55,2.12,2.12,0,0,0,.63-1.85c-.19-1.5-1.72-3.34-2.23-3.92-.35.69-1.35,2.86-1.16,4.36a2.12,2.12,0,0,0,1.08,1.63A2.9,2.9,0,0,0,48.45,87.87Z"/></g><g id="_Grupo_252" data-name="&lt;Grupo&gt;"><path class="cls-3" d="M48.45,87.87a2.88,2.88,0,0,0,.78-.55,2.12,2.12,0,0,0,.63-1.85c-.19-1.5-1.72-3.34-2.23-3.92Z"/></g><g id="_Grupo_253" data-name="&lt;Grupo&gt;"><path class="cls-6" d="M54.77,84.53a2.83,2.83,0,0,0,.8-.48,2.08,2.08,0,0,0,.75-1.77c-.08-1.49-1.45-3.4-1.9-4C54,78.92,52.89,81,53,82.47a2.08,2.08,0,0,0,.94,1.68A2.85,2.85,0,0,0,54.77,84.53Z"/></g><g id="_Grupo_254" data-name="&lt;Grupo&gt;"><path class="cls-3" d="M54.77,84.53a2.83,2.83,0,0,0,.8-.48,2.08,2.08,0,0,0,.75-1.77c-.08-1.49-1.45-3.4-1.9-4Z"/></g><g id="_Grupo_255" data-name="&lt;Grupo&gt;"><path class="cls-6" d="M74.2,76.82a2.4,2.4,0,0,0,.7-.39,1.78,1.78,0,0,0,.69-1.5,7.87,7.87,0,0,0-1.52-3.49A7.86,7.86,0,0,0,72.72,75a1.79,1.79,0,0,0,.76,1.46A2.45,2.45,0,0,0,74.2,76.82Z"/></g><g id="_Grupo_256" data-name="&lt;Grupo&gt;"><path class="cls-3" d="M74.2,76.82a2.4,2.4,0,0,0,.7-.39,1.78,1.78,0,0,0,.69-1.5,7.87,7.87,0,0,0-1.52-3.49Z"/></g><g id="_Grupo_257" data-name="&lt;Grupo&gt;"><path class="cls-6" d="M80.32,74.76a2.22,2.22,0,0,0,.65-.36A1.65,1.65,0,0,0,81.61,73a7.29,7.29,0,0,0-1.41-3.23,7.27,7.27,0,0,0-1.25,3.29,1.65,1.65,0,0,0,.7,1.35A2.26,2.26,0,0,0,80.32,74.76Z"/></g><g id="_Grupo_258" data-name="&lt;Grupo&gt;"><path class="cls-3" d="M80.32,74.76a2.22,2.22,0,0,0,.65-.36A1.65,1.65,0,0,0,81.61,73a7.29,7.29,0,0,0-1.41-3.23Z"/></g><g id="_Grupo_259" data-name="&lt;Grupo&gt;"><path class="cls-6" d="M67.75,78.55a2.39,2.39,0,0,0,.7-.39,1.78,1.78,0,0,0,.69-1.5,7.87,7.87,0,0,0-1.52-3.49,7.86,7.86,0,0,0-1.36,3.55A1.79,1.79,0,0,0,67,78.19,2.46,2.46,0,0,0,67.75,78.55Z"/></g><g id="_Grupo_260" data-name="&lt;Grupo&gt;"><path class="cls-3" d="M67.75,78.55a2.39,2.39,0,0,0,.7-.39,1.78,1.78,0,0,0,.69-1.5,7.87,7.87,0,0,0-1.52-3.49Z"/></g><g id="_Grupo_261" data-name="&lt;Grupo&gt;"><path class="cls-6" d="M61,81.24a2.39,2.39,0,0,0,.7-.39,1.78,1.78,0,0,0,.69-1.5,7.87,7.87,0,0,0-1.52-3.49,7.86,7.86,0,0,0-1.36,3.55,1.79,1.79,0,0,0,.76,1.46A2.45,2.45,0,0,0,61,81.24Z"/></g><g id="_Grupo_262" data-name="&lt;Grupo&gt;"><path class="cls-3" d="M61,81.24a2.39,2.39,0,0,0,.7-.39,1.78,1.78,0,0,0,.69-1.5,7.87,7.87,0,0,0-1.52-3.49Z"/></g><g id="_Grupo_263" data-name="&lt;Grupo&gt;"><path class="cls-6" d="M25.07,93.75a3,3,0,0,0,.76-.65,2.21,2.21,0,0,0,.48-2c-.35-1.55-2.1-3.32-2.69-3.87-.3.75-1.13,3.1-.79,4.65a2.21,2.21,0,0,0,1.28,1.6A3,3,0,0,0,25.07,93.75Z"/></g><g id="_Grupo_264" data-name="&lt;Grupo&gt;"><path class="cls-3" d="M25.07,93.75a3,3,0,0,0,.76-.65,2.21,2.21,0,0,0,.48-2c-.35-1.55-2.1-3.32-2.69-3.87Z"/></g><g id="_Grupo_265" data-name="&lt;Grupo&gt;"><path class="cls-6" d="M17.87,97.93a3,3,0,0,0,.76-.65,2.21,2.21,0,0,0,.48-2C18.76,93.75,17,92,16.41,91.42c-.29.75-1.13,3.1-.79,4.65a2.21,2.21,0,0,0,1.28,1.6A3,3,0,0,0,17.87,97.93Z"/></g><g id="_Grupo_266" data-name="&lt;Grupo&gt;"><path class="cls-3" d="M17.87,97.93a3,3,0,0,0,.76-.65,2.21,2.21,0,0,0,.48-2C18.76,93.75,17,92,16.41,91.42Z"/></g><g id="_Grupo_267" data-name="&lt;Grupo&gt;"><path class="cls-6" d="M31,88.89a3,3,0,0,0,.81-.58,2.22,2.22,0,0,0,.65-1.94c-.21-1.57-1.81-3.49-2.35-4.09-.36.72-1.4,3-1.19,4.56A2.21,2.21,0,0,0,30,88.55,3,3,0,0,0,31,88.89Z"/></g><g id="_Grupo_268" data-name="&lt;Grupo&gt;"><path class="cls-3" d="M31,88.89a3,3,0,0,0,.81-.58,2.22,2.22,0,0,0,.65-1.94c-.21-1.57-1.81-3.49-2.35-4.09Z"/></g><g id="_Grupo_269" data-name="&lt;Grupo&gt;"><path class="cls-6" d="M37.62,84.86a2.91,2.91,0,0,0,.78-.55A2.12,2.12,0,0,0,39,82.45c-.2-1.51-1.72-3.35-2.23-3.93-.35.69-1.35,2.86-1.16,4.37a2.12,2.12,0,0,0,1.08,1.63A2.89,2.89,0,0,0,37.62,84.86Z"/></g><g id="_Grupo_270" data-name="&lt;Grupo&gt;"><path class="cls-3" d="M37.62,84.86a2.91,2.91,0,0,0,.78-.55A2.12,2.12,0,0,0,39,82.45c-.2-1.51-1.72-3.35-2.23-3.93Z"/></g><g id="_Grupo_271" data-name="&lt;Grupo&gt;"><path class="cls-6" d="M44.14,81.61a2.81,2.81,0,0,0,.8-.48,2.08,2.08,0,0,0,.75-1.77c-.08-1.49-1.45-3.4-1.9-4-.39.65-1.53,2.71-1.45,4.19a2.08,2.08,0,0,0,.94,1.68A2.84,2.84,0,0,0,44.14,81.61Z"/></g><g id="_Grupo_272" data-name="&lt;Grupo&gt;"><path class="cls-3" d="M44.14,81.61a2.81,2.81,0,0,0,.8-.48,2.08,2.08,0,0,0,.75-1.77c-.08-1.49-1.45-3.4-1.9-4Z"/></g><g id="_Grupo_273" data-name="&lt;Grupo&gt;"><path class="cls-6" d="M63.25,73.9a2.41,2.41,0,0,0,.7-.39,1.78,1.78,0,0,0,.69-1.5,7.87,7.87,0,0,0-1.52-3.49,7.86,7.86,0,0,0-1.36,3.55,1.79,1.79,0,0,0,.76,1.46A2.45,2.45,0,0,0,63.25,73.9Z"/></g><g id="_Grupo_274" data-name="&lt;Grupo&gt;"><path class="cls-3" d="M63.25,73.9a2.41,2.41,0,0,0,.7-.39,1.78,1.78,0,0,0,.69-1.5,7.87,7.87,0,0,0-1.52-3.49Z"/></g><g id="_Grupo_275" data-name="&lt;Grupo&gt;"><path class="cls-6" d="M69.54,72.27a2.23,2.23,0,0,0,.65-.36,1.65,1.65,0,0,0,.64-1.38,7.27,7.27,0,0,0-1.41-3.22,7.28,7.28,0,0,0-1.25,3.29,1.65,1.65,0,0,0,.7,1.35A2.26,2.26,0,0,0,69.54,72.27Z"/></g><g id="_Grupo_276" data-name="&lt;Grupo&gt;"><path class="cls-3" d="M69.54,72.27a2.23,2.23,0,0,0,.65-.36,1.65,1.65,0,0,0,.64-1.38,7.27,7.27,0,0,0-1.41-3.22Z"/></g><g id="_Grupo_277" data-name="&lt;Grupo&gt;"><path class="cls-6" d="M56.67,76a2.39,2.39,0,0,0,.7-.39,1.78,1.78,0,0,0,.69-1.5,7.87,7.87,0,0,0-1.52-3.49,7.86,7.86,0,0,0-1.36,3.55,1.79,1.79,0,0,0,.76,1.46A2.45,2.45,0,0,0,56.67,76Z"/></g><g id="_Grupo_278" data-name="&lt;Grupo&gt;"><path class="cls-3" d="M56.67,76a2.39,2.39,0,0,0,.7-.39,1.78,1.78,0,0,0,.69-1.5,7.87,7.87,0,0,0-1.52-3.49Z"/></g><g id="_Grupo_279" data-name="&lt;Grupo&gt;"><path class="cls-6" d="M50.07,78.48a2.39,2.39,0,0,0,.7-.39,1.79,1.79,0,0,0,.69-1.5,7.87,7.87,0,0,0-1.52-3.49,7.86,7.86,0,0,0-1.36,3.55,1.79,1.79,0,0,0,.76,1.46A2.45,2.45,0,0,0,50.07,78.48Z"/></g><g id="_Grupo_280" data-name="&lt;Grupo&gt;"><path class="cls-3" d="M50.07,78.48a2.39,2.39,0,0,0,.7-.39,1.79,1.79,0,0,0,.69-1.5,7.87,7.87,0,0,0-1.52-3.49Z"/></g><path class="cls-6" d="M103,4.78,98.12,17.28l-3.94-1.55a4.06,4.06,0,0,0,2.44,5.37l22.19,9.49,7-17.81Z"/><polygon class="cls-6" points="125.82 12.78 103.04 4.78 96.62 21.09 105.47 24.88 89.47 28.25 90.03 31.52 113.72 28.41 118.81 30.59 125.82 12.78"/><path class="cls-6" d="M105.41,5.37a8.45,8.45,0,0,0-.58,2.76l3,1a5.54,5.54,0,1,1,9.34,3.28l3,1a8.47,8.47,0,1,0-14.7-8.13Z"/><polygon class="cls-1" points="89.74 29.84 90.03 31.52 113.72 28.41 109.09 26.43 89.74 29.84"/><path class="cls-6" d="M99.91,21c.4.16.64.51.53.78L98,27.86c-.11.27-.52.36-.92.2h0c-.4-.16-.64-.51-.53-.78L99,21.18c.11-.27.52-.36.92-.2Z"/><path class="cls-6" d="M97.79,20.15"/><rect class="cls-1" x="111.45" y="20.5" width="21.28" height="2.2" transform="translate(57.24 127.27) rotate(-68.49)"/><path class="cls-6" d="M100.32,13.74l-2,3.62-4.14-1.63a4.06,4.06,0,0,0,2.44,5.37c3,1.18,4.53-2.28,4.53-2.28Z"/><path class="cls-1" d="M99.87,12.79l-1.75,4.48-3.94-1.55a4.06,4.06,0,0,0,2.44,5.37l22.19,9.49,3.49-8.91Z"/><polygon class="cls-6" points="84.66 25.54 90.24 28.67 90.55 31.14 86.84 36.64 84.66 25.54"/><polygon class="cls-1" points="85.65 30.6 86.84 36.64 90.55 31.14 90.38 29.72 85.65 30.6"/><g id="_Grupo_281" data-name="&lt;Grupo&gt;"><path class="cls-5" d="M73.27,45.24A1.2,1.2,0,0,0,74,45a1.7,1.7,0,0,0,.7-1.42,7.52,7.52,0,0,0-1.37-3.37,7.51,7.51,0,0,0-1.38,3.37A1.71,1.71,0,0,0,72.59,45,1.2,1.2,0,0,0,73.27,45.24Z"/></g><g id="_Grupo_282" data-name="&lt;Grupo&gt;"><path class="cls-5" d="M84.37,48.3a1.2,1.2,0,0,0,.68-.21,1.71,1.71,0,0,0,.7-1.42,7.52,7.52,0,0,0-1.37-3.37A7.51,7.51,0,0,0,83,46.67a1.71,1.71,0,0,0,.69,1.42A1.2,1.2,0,0,0,84.37,48.3Z"/></g><g id="_Grupo_283" data-name="&lt;Grupo&gt;"><path class="cls-1" d="M85.25,58.39a1.2,1.2,0,0,0,.68-.21,1.71,1.71,0,0,0,.7-1.42,7.52,7.52,0,0,0-1.37-3.37,7.52,7.52,0,0,0-1.38,3.37,1.71,1.71,0,0,0,.69,1.42A1.2,1.2,0,0,0,85.25,58.39Z"/></g><g id="_Grupo_284" data-name="&lt;Grupo&gt;"><path class="cls-1" d="M80.91,41.57a1.73,1.73,0,0,0,1-.31,2.46,2.46,0,0,0,1-2c0-1.77-1.48-4.12-2-4.87-.5.75-2,3.1-2,4.87a2.47,2.47,0,0,0,1,2A1.73,1.73,0,0,0,80.91,41.57Z"/></g><g id="_Grupo_285" data-name="&lt;Grupo&gt;"><path class="cls-5" d="M78.39,52.6a1.6,1.6,0,0,0,.91-.28,2.27,2.27,0,0,0,.93-1.89c0-1.63-1.37-3.8-1.83-4.49-.46.69-1.83,2.86-1.83,4.48a2.28,2.28,0,0,0,.92,1.89A1.6,1.6,0,0,0,78.39,52.6Z"/></g></g></g></svg>