<svg xmlns="http://www.w3.org/2000/svg" viewBox="0 0 182 120.52"><defs><style>.cls-1{fill:#7abc39}.cls-2{opacity:.5}.cls-3{fill:#5ca126}.cls-4{opacity:.3}.cls-5{fill:#b6e436}.cls-6{fill:#8cd145}.cls-7{opacity:.1}</style></defs><title>Recurso 7</title><g id="Capa_2" data-name="Capa 2"><g id="Capa_1-2" data-name="Capa 1"><path class="cls-1" d="M15.14 113.31c8.48-1.21 11.38.76 16.9 3.46a21 21 0 0 0 11.62 2.38c5.1-1.18 11.07-2.46 15.54-2.13 7.45.55 17.71 4.27 25.24 3.36s14.71-5 22.55-4.12 19.12 7.81 38.74 0c17.58-7 24.32-2.93 30.29-7.66 5.69-4.5 6-12.09 6-12.09s-108.12-29-182 .2C0 96.67 3.14 115 15.14 113.31z"/><path class="cls-2 cls-3" d="M142.6 88.63c-40.27-5.76-98.74-9.32-142.6 8 0 0 3.85 13 15.86 11.32 8.48-1.21 11.38.76 16.9 3.46a21 21 0 0 0 11.63 2.38c5.1-1.18 11.07-2.46 15.54-2.13 7.45.55 17.71 4.27 25.24 3.36s14.71-5 22.55-4.12 18.72 8.59 38.34.75C160.32 106 171 108.4 177.71 107A18.35 18.35 0 0 0 182 96.48s-15.78-4.24-39.4-7.85z"/><path class="cls-2 cls-3" d="M22.38 111.45A21 21 0 0 0 34 113.82c5.1-1.18 11.07-2.46 15.54-2.13 7.44.55 17.71 4.27 25.24 3.36s14.71-5 22.55-4.12 19.12 7.81 38.74 0c17.58-7 30.92-1.23 37.5-5.08a19.25 19.25 0 0 0 8.43-9.37s-108.12-29-182 .2a32.26 32.26 0 0 0 4.55 11.41c.3 0 .61-.05.93-.1 8.52-1.21 11.38.76 16.9 3.46z"/><path class="cls-1" d="M23.28 95s-9.15 3.75 67.43 1.3c29.76-1 68.18.69 67.77.15-5.17-6.85-29.09-33.22-67.77-33.22C62.89 63.19 39.1 73.5 23.28 95z"/><g class="cls-4"><path class="cls-4 cls-5" d="M87.47 63.19h3.24q3.24 0 6.34.24a18.15 18.15 0 0 0-3.18-.22"/><path class="cls-5" d="M70.22 65.23q-1.54.32-3 .69c12 1.4 20.2 6.37 21.6 7.54a32.16 32.16 0 0 1 3.82-1.91 41.88 41.88 0 0 0-22.42-6.32zM61 67.7c3.32 0 9.37 3 11 3.8 2.91.31 5.7.74 8.38 1.28a36.23 36.23 0 0 0-16.93-5.84q-1.27.36-2.45.76zM55.31 69.8a11.1 11.1 0 0 1 4 1.25h5.66a19.58 19.58 0 0 0-7.46-2.1q-1.12.4-2.2.85zM76.11 64.19c3.15 0 10.84.75 20.36 5.92q2.4-.79 5-1.41c-1.34-.56-11.2-4.56-20.58-5.06q-2.43.22-4.78.55zM97 63.43q-3.1-.23-6.34-.24h-2.72c2.13.16 10.34 1 17.2 4.7q2.57-.46 5.32-.77A78.51 78.51 0 0 0 97 63.43z"/></g><path class="cls-3" d="M65.35 94.18s-9.18 15.29 67.4 12.84c29.76-1 49.65-10 49.24-10.54-5.17-6.85-21.61-29.91-60.28-29.91-27.82-.01-42.45 9.43-56.36 27.61z"/><path class="cls-4 cls-5" d="M92.12 76s19.77-10.86 38.2-9c0 0 3.78.38 6 .78 0 0-19.26-.62-36.54 11.34zM105.84 82.17s19.46-14.26 38.88-12.43l5.42 1.73S133 69.86 112.28 86.14c0 0-3.99-2.65-6.44-3.97zM118.36 90.71S140.12 71.58 157 74.57c0 0 3.51 2 5.32 3 0 0-17.06-3.93-37.92 18.88a77.87 77.87 0 0 0-6.04-5.74zM168 81.61s-17.86-1.47-37.88 20.65a20.64 20.64 0 0 1 3.73 4.76l4.92-.31s19.09-22.52 33.05-21.83c0 0-2.35-2.14-3.82-3.27zM176.36 89.5s-12.79 1.57-22.73 15.45c0 0 8-1.48 11.17-2.31 0 0 5.23-7.78 13.75-10.58a10.67 10.67 0 0 0-2.19-2.56z"/><path class="cls-5" d="M99.07 77.33a2 2 0 0 0 .56-.34 1.45 1.45 0 0 0 .52-1.23A6.38 6.38 0 0 0 98.82 73a6.37 6.37 0 0 0-1 2.92 1.45 1.45 0 0 0 .66 1.17 2 2 0 0 0 .59.24z" id="_Grupo_" data-name="&amp;lt;Grupo&amp;gt;"/><path class="cls-6" d="M99.07 77.33a2 2 0 0 0 .56-.34 1.45 1.45 0 0 0 .52-1.23A6.38 6.38 0 0 0 98.82 73z" id="_Grupo_2" data-name="&amp;lt;Grupo&amp;gt;"/><path class="cls-5" d="M104.23 74.68a2 2 0 0 0 .56-.34 1.45 1.45 0 0 0 .52-1.23 6.38 6.38 0 0 0-1.31-2.78 6.38 6.38 0 0 0-1 2.92 1.45 1.45 0 0 0 .66 1.17 2 2 0 0 0 .57.26z" id="_Grupo_3" data-name="&amp;lt;Grupo&amp;gt;"/><path class="cls-6" d="M104.23 74.68a2 2 0 0 0 .56-.34 1.45 1.45 0 0 0 .52-1.23 6.38 6.38 0 0 0-1.31-2.78z" id="_Grupo_4" data-name="&amp;lt;Grupo&amp;gt;"/><path class="cls-5" d="M109.11 72.54a2 2 0 0 0 .56-.34 1.45 1.45 0 0 0 .52-1.23 6.37 6.37 0 0 0-1.32-2.79 6.38 6.38 0 0 0-1 2.92 1.45 1.45 0 0 0 .66 1.17 2 2 0 0 0 .58.27z" id="_Grupo_5" data-name="&amp;lt;Grupo&amp;gt;"/><path class="cls-6" d="M109.11 72.54a2 2 0 0 0 .56-.34 1.45 1.45 0 0 0 .52-1.23 6.37 6.37 0 0 0-1.32-2.79z" id="_Grupo_6" data-name="&amp;lt;Grupo&amp;gt;"/><path class="cls-5" d="M114.41 70.5a1.8 1.8 0 0 0 .51-.31 1.33 1.33 0 0 0 .48-1.13 5.88 5.88 0 0 0-1.22-2.57 5.86 5.86 0 0 0-.93 2.69 1.33 1.33 0 0 0 .6 1.07 1.82 1.82 0 0 0 .56.25z" id="_Grupo_7" data-name="&amp;lt;Grupo&amp;gt;"/><path class="cls-6" d="M114.41 70.5a1.8 1.8 0 0 0 .51-.31 1.33 1.33 0 0 0 .48-1.13 5.88 5.88 0 0 0-1.22-2.57z" id="_Grupo_8" data-name="&amp;lt;Grupo&amp;gt;"/><path class="cls-5" d="M120 68.95a1.59 1.59 0 0 0 .45-.27 1.17 1.17 0 0 0 .42-1 5.13 5.13 0 0 0-1.07-2.24 5.13 5.13 0 0 0-.81 2.35 1.17 1.17 0 0 0 .53.94 1.59 1.59 0 0 0 .48.22z" id="_Grupo_9" data-name="&amp;lt;Grupo&amp;gt;"/><path class="cls-6" d="M120 68.95a1.59 1.59 0 0 0 .45-.27 1.17 1.17 0 0 0 .42-1 5.13 5.13 0 0 0-1.07-2.24z" id="_Grupo_10" data-name="&amp;lt;Grupo&amp;gt;"/><path class="cls-5" d="M125.56 67.9a1.61 1.61 0 0 0 .45-.27 1.17 1.17 0 0 0 .42-1 5.14 5.14 0 0 0-1.07-2.24 5.13 5.13 0 0 0-.81 2.35 1.17 1.17 0 0 0 .53.94 1.61 1.61 0 0 0 .48.22z" id="_Grupo_11" data-name="&amp;lt;Grupo&amp;gt;"/><path class="cls-6" d="M125.56 67.9a1.61 1.61 0 0 0 .45-.27 1.17 1.17 0 0 0 .42-1 5.14 5.14 0 0 0-1.07-2.24z" id="_Grupo_12" data-name="&amp;lt;Grupo&amp;gt;"/><path class="cls-5" d="M130.63 67.5a1.56 1.56 0 0 0 .45-.27 1.16 1.16 0 0 0 .42-1 5.12 5.12 0 0 0-1.06-2.23 5.1 5.1 0 0 0-.8 2.33 1.16 1.16 0 0 0 .53.93 1.58 1.58 0 0 0 .46.24z" id="_Grupo_13" data-name="&amp;lt;Grupo&amp;gt;"/><path class="cls-6" d="M130.63 67.5a1.56 1.56 0 0 0 .45-.27 1.16 1.16 0 0 0 .42-1 5.12 5.12 0 0 0-1.06-2.23z" id="_Grupo_14" data-name="&amp;lt;Grupo&amp;gt;"/><path class="cls-5" d="M107 79.28a2 2 0 0 0 .56-.34 1.45 1.45 0 0 0 .52-1.23 6.39 6.39 0 0 0-1.32-2.79 6.37 6.37 0 0 0-1 2.92 1.45 1.45 0 0 0 .66 1.17 2 2 0 0 0 .58.27z" id="_Grupo_15" data-name="&amp;lt;Grupo&amp;gt;"/><path class="cls-6" d="M107 79.28a2 2 0 0 0 .56-.34 1.45 1.45 0 0 0 .52-1.23 6.39 6.39 0 0 0-1.32-2.79z" id="_Grupo_16" data-name="&amp;lt;Grupo&amp;gt;"/><path class="cls-5" d="M112.44 76.39a2 2 0 0 0 .56-.34 1.45 1.45 0 0 0 .52-1.23A6.38 6.38 0 0 0 112.2 72a6.38 6.38 0 0 0-1 2.92 1.45 1.45 0 0 0 .66 1.17 2 2 0 0 0 .58.3z" id="_Grupo_17" data-name="&amp;lt;Grupo&amp;gt;"/><path class="cls-6" d="M112.44 76.39a2 2 0 0 0 .56-.34 1.45 1.45 0 0 0 .52-1.23A6.38 6.38 0 0 0 112.2 72z" id="_Grupo_18" data-name="&amp;lt;Grupo&amp;gt;"/><path class="cls-5" d="M117.32 74.24a2 2 0 0 0 .56-.34 1.45 1.45 0 0 0 .52-1.23 6.38 6.38 0 0 0-1.32-2.79 6.37 6.37 0 0 0-1 2.92 1.45 1.45 0 0 0 .66 1.17 2 2 0 0 0 .58.27z" id="_Grupo_19" data-name="&amp;lt;Grupo&amp;gt;"/><path class="cls-6" d="M117.32 74.24a2 2 0 0 0 .56-.34 1.45 1.45 0 0 0 .52-1.23 6.38 6.38 0 0 0-1.32-2.79z" id="_Grupo_20" data-name="&amp;lt;Grupo&amp;gt;"/><path class="cls-5" d="M122.61 72.2a1.81 1.81 0 0 0 .51-.31 1.34 1.34 0 0 0 .48-1.13 5.87 5.87 0 0 0-1.22-2.57 5.87 5.87 0 0 0-.93 2.69 1.33 1.33 0 0 0 .61 1.07 1.81 1.81 0 0 0 .55.25z" id="_Grupo_21" data-name="&amp;lt;Grupo&amp;gt;"/><path class="cls-6" d="M122.61 72.2a1.81 1.81 0 0 0 .51-.31 1.34 1.34 0 0 0 .48-1.13 5.87 5.87 0 0 0-1.22-2.57z" id="_Grupo_22" data-name="&amp;lt;Grupo&amp;gt;"/><path class="cls-5" d="M128.21 70.65a1.59 1.59 0 0 0 .45-.27 1.17 1.17 0 0 0 .42-1 5.13 5.13 0 0 0-1.08-2.23 5.13 5.13 0 0 0-.81 2.35 1.16 1.16 0 0 0 .53.94 1.6 1.6 0 0 0 .49.21z" id="_Grupo_23" data-name="&amp;lt;Grupo&amp;gt;"/><path class="cls-6" d="M128.21 70.65a1.59 1.59 0 0 0 .45-.27 1.17 1.17 0 0 0 .42-1 5.13 5.13 0 0 0-1.08-2.23z" id="_Grupo_24" data-name="&amp;lt;Grupo&amp;gt;"/><path class="cls-5" d="M133.77 69.61a1.6 1.6 0 0 0 .45-.27 1.17 1.17 0 0 0 .42-1 5.15 5.15 0 0 0-1.07-2.24 5.13 5.13 0 0 0-.81 2.35 1.17 1.17 0 0 0 .53.94 1.6 1.6 0 0 0 .48.22z" id="_Grupo_25" data-name="&amp;lt;Grupo&amp;gt;"/><path class="cls-6" d="M133.77 69.61a1.6 1.6 0 0 0 .45-.27 1.17 1.17 0 0 0 .42-1 5.15 5.15 0 0 0-1.07-2.24z" id="_Grupo_26" data-name="&amp;lt;Grupo&amp;gt;"/><path class="cls-5" d="M138.84 69.2a1.57 1.57 0 0 0 .45-.27 1.16 1.16 0 0 0 .42-1 5.11 5.11 0 0 0-1.06-2.23 5.1 5.1 0 0 0-.8 2.33 1.16 1.16 0 0 0 .53.93 1.58 1.58 0 0 0 .46.24z" id="_Grupo_27" data-name="&amp;lt;Grupo&amp;gt;"/><path class="cls-6" d="M138.84 69.2a1.57 1.57 0 0 0 .45-.27 1.16 1.16 0 0 0 .42-1 5.11 5.11 0 0 0-1.06-2.23z" id="_Grupo_28" data-name="&amp;lt;Grupo&amp;gt;"/><path class="cls-5" d="M115.15 81.17a2 2 0 0 0 .56-.34 1.45 1.45 0 0 0 .52-1.23 6.38 6.38 0 0 0-1.32-2.79 6.37 6.37 0 0 0-1 2.92 1.45 1.45 0 0 0 .66 1.17 2 2 0 0 0 .58.27z" id="_Grupo_29" data-name="&amp;lt;Grupo&amp;gt;"/><path class="cls-6" d="M115.15 81.17a2 2 0 0 0 .56-.34 1.45 1.45 0 0 0 .52-1.23 6.38 6.38 0 0 0-1.32-2.79z" id="_Grupo_30" data-name="&amp;lt;Grupo&amp;gt;"/><path class="cls-5" d="M111.08 84.92a2 2 0 0 0 .56-.34 1.45 1.45 0 0 0 .52-1.23 6.38 6.38 0 0 0-1.32-2.79 6.37 6.37 0 0 0-1 2.92 1.45 1.45 0 0 0 .66 1.17 2 2 0 0 0 .58.27z" id="_Grupo_31" data-name="&amp;lt;Grupo&amp;gt;"/><path class="cls-6" d="M111.08 84.92a2 2 0 0 0 .56-.34 1.45 1.45 0 0 0 .52-1.23 6.38 6.38 0 0 0-1.32-2.79z" id="_Grupo_32" data-name="&amp;lt;Grupo&amp;gt;"/><path class="cls-5" d="M120.32 78.53a2 2 0 0 0 .56-.34 1.45 1.45 0 0 0 .52-1.19 6.38 6.38 0 0 0-1.32-2.79 6.37 6.37 0 0 0-1 2.92 1.45 1.45 0 0 0 .66 1.17 2 2 0 0 0 .58.23z" id="_Grupo_33" data-name="&amp;lt;Grupo&amp;gt;"/><path class="cls-6" d="M120.32 78.53a2 2 0 0 0 .56-.34 1.45 1.45 0 0 0 .52-1.19 6.38 6.38 0 0 0-1.32-2.79z" id="_Grupo_34" data-name="&amp;lt;Grupo&amp;gt;"/><path class="cls-5" d="M125.2 76.38a2 2 0 0 0 .56-.34 1.45 1.45 0 0 0 .52-1.23A6.38 6.38 0 0 0 125 72a6.38 6.38 0 0 0-1 2.92 1.45 1.45 0 0 0 .66 1.17 2 2 0 0 0 .54.29z" id="_Grupo_35" data-name="&amp;lt;Grupo&amp;gt;"/><path class="cls-6" d="M125.2 76.38a2 2 0 0 0 .56-.34 1.45 1.45 0 0 0 .52-1.23A6.38 6.38 0 0 0 125 72z" id="_Grupo_36" data-name="&amp;lt;Grupo&amp;gt;"/><path class="cls-5" d="M130.49 74.34A1.8 1.8 0 0 0 131 74a1.33 1.33 0 0 0 .48-1.13 5.87 5.87 0 0 0-1.22-2.57 5.87 5.87 0 0 0-.93 2.69 1.33 1.33 0 0 0 .61 1.07 1.82 1.82 0 0 0 .55.28z" id="_Grupo_37" data-name="&amp;lt;Grupo&amp;gt;"/><path class="cls-6" d="M130.49 74.34A1.8 1.8 0 0 0 131 74a1.33 1.33 0 0 0 .48-1.13 5.87 5.87 0 0 0-1.22-2.57z" id="_Grupo_38" data-name="&amp;lt;Grupo&amp;gt;"/><path class="cls-5" d="M136.09 72.8a1.59 1.59 0 0 0 .45-.27 1.16 1.16 0 0 0 .42-1 5.14 5.14 0 0 0-1.07-2.24 5.13 5.13 0 0 0-.81 2.35 1.17 1.17 0 0 0 .53.94 1.59 1.59 0 0 0 .48.22z" id="_Grupo_39" data-name="&amp;lt;Grupo&amp;gt;"/><path class="cls-6" d="M136.09 72.8a1.59 1.59 0 0 0 .45-.27 1.16 1.16 0 0 0 .42-1 5.14 5.14 0 0 0-1.07-2.24z" id="_Grupo_40" data-name="&amp;lt;Grupo&amp;gt;"/><path class="cls-5" d="M141.65 71.75a1.62 1.62 0 0 0 .45-.27 1.17 1.17 0 0 0 .42-1 5.14 5.14 0 0 0-1.07-2.24 5.13 5.13 0 0 0-.81 2.35 1.17 1.17 0 0 0 .53.94 1.61 1.61 0 0 0 .48.22z" id="_Grupo_41" data-name="&amp;lt;Grupo&amp;gt;"/><path class="cls-6" d="M141.65 71.75a1.62 1.62 0 0 0 .45-.27 1.17 1.17 0 0 0 .42-1 5.14 5.14 0 0 0-1.07-2.24z" id="_Grupo_42" data-name="&amp;lt;Grupo&amp;gt;"/><path class="cls-5" d="M146.72 71.34a1.57 1.57 0 0 0 .45-.27 1.16 1.16 0 0 0 .42-1 5.11 5.11 0 0 0-1.06-2.23 5.1 5.1 0 0 0-.8 2.33 1.16 1.16 0 0 0 .53.93 1.58 1.58 0 0 0 .46.24z" id="_Grupo_43" data-name="&amp;lt;Grupo&amp;gt;"/><path class="cls-6" d="M146.72 71.34a1.57 1.57 0 0 0 .45-.27 1.16 1.16 0 0 0 .42-1 5.11 5.11 0 0 0-1.06-2.23z" id="_Grupo_44" data-name="&amp;lt;Grupo&amp;gt;"/><path class="cls-5" d="M118.72 87.16a2 2 0 0 0 .56-.34 1.45 1.45 0 0 0 .52-1.23 6.39 6.39 0 0 0-1.32-2.79 6.38 6.38 0 0 0-1 2.92 1.45 1.45 0 0 0 .66 1.17 2 2 0 0 0 .58.27z" id="_Grupo_45" data-name="&amp;lt;Grupo&amp;gt;"/><path class="cls-6" d="M118.72 87.16a2 2 0 0 0 .56-.34 1.45 1.45 0 0 0 .52-1.23 6.39 6.39 0 0 0-1.32-2.79z" id="_Grupo_46" data-name="&amp;lt;Grupo&amp;gt;"/><path class="cls-5" d="M123.64 83.78a2 2 0 0 0 .56-.34 1.45 1.45 0 0 0 .52-1.23 6.38 6.38 0 0 0-1.32-2.79 6.37 6.37 0 0 0-1 2.92 1.45 1.45 0 0 0 .66 1.17 2 2 0 0 0 .58.27z" id="_Grupo_47" data-name="&amp;lt;Grupo&amp;gt;"/><path class="cls-6" d="M123.64 83.78a2 2 0 0 0 .56-.34 1.45 1.45 0 0 0 .52-1.23 6.38 6.38 0 0 0-1.32-2.79z" id="_Grupo_48" data-name="&amp;lt;Grupo&amp;gt;"/><path class="cls-5" d="M128.76 80.65a2 2 0 0 0 .56-.34 1.45 1.45 0 0 0 .52-1.23 6.38 6.38 0 0 0-1.32-2.79 6.37 6.37 0 0 0-1 2.92 1.45 1.45 0 0 0 .66 1.17 2 2 0 0 0 .58.27z" id="_Grupo_49" data-name="&amp;lt;Grupo&amp;gt;"/><path class="cls-6" d="M128.76 80.65a2 2 0 0 0 .56-.34 1.45 1.45 0 0 0 .52-1.23 6.38 6.38 0 0 0-1.32-2.79z" id="_Grupo_50" data-name="&amp;lt;Grupo&amp;gt;"/><path class="cls-5" d="M133.81 77.87a1.82 1.82 0 0 0 .51-.31 1.33 1.33 0 0 0 .48-1.13 5.88 5.88 0 0 0-1.22-2.57 5.87 5.87 0 0 0-.93 2.69 1.33 1.33 0 0 0 .61 1.07 1.8 1.8 0 0 0 .55.25z" id="_Grupo_51" data-name="&amp;lt;Grupo&amp;gt;"/><path class="cls-6" d="M133.81 77.87a1.82 1.82 0 0 0 .51-.31 1.33 1.33 0 0 0 .48-1.13 5.88 5.88 0 0 0-1.22-2.57z" id="_Grupo_52" data-name="&amp;lt;Grupo&amp;gt;"/><path class="cls-5" d="M139.65 75.83a1.58 1.58 0 0 0 .45-.27 1.17 1.17 0 0 0 .42-1 5.13 5.13 0 0 0-1.07-2.24 5.13 5.13 0 0 0-.81 2.35 1.17 1.17 0 0 0 .53.94 1.59 1.59 0 0 0 .48.22z" id="_Grupo_53" data-name="&amp;lt;Grupo&amp;gt;"/><path class="cls-6" d="M139.65 75.83a1.58 1.58 0 0 0 .45-.27 1.17 1.17 0 0 0 .42-1 5.13 5.13 0 0 0-1.07-2.24z" id="_Grupo_54" data-name="&amp;lt;Grupo&amp;gt;"/><path class="cls-5" d="M144.72 74.78a1.6 1.6 0 0 0 .45-.27 1.17 1.17 0 0 0 .42-1 5.14 5.14 0 0 0-1.07-2.24 5.13 5.13 0 0 0-.81 2.35 1.17 1.17 0 0 0 .53.94 1.6 1.6 0 0 0 .48.22z" id="_Grupo_55" data-name="&amp;lt;Grupo&amp;gt;"/><path class="cls-6" d="M144.72 74.78a1.6 1.6 0 0 0 .45-.27 1.17 1.17 0 0 0 .42-1 5.14 5.14 0 0 0-1.07-2.24z" id="_Grupo_56" data-name="&amp;lt;Grupo&amp;gt;"/><path class="cls-5" d="M151 73.4a1.57 1.57 0 0 0 .45-.27 1.16 1.16 0 0 0 .42-1 5.11 5.11 0 0 0-1.06-2.23 5.1 5.1 0 0 0-.8 2.33 1.16 1.16 0 0 0 .53.93 1.57 1.57 0 0 0 .46.24z" id="_Grupo_57" data-name="&amp;lt;Grupo&amp;gt;"/><path class="cls-6" d="M151 73.4a1.57 1.57 0 0 0 .45-.27 1.16 1.16 0 0 0 .42-1 5.11 5.11 0 0 0-1.06-2.23z" id="_Grupo_58" data-name="&amp;lt;Grupo&amp;gt;"/><path class="cls-5" d="M127.83 89.77a2 2 0 0 0 .56-.34 1.45 1.45 0 0 0 .52-1.23 6.38 6.38 0 0 0-1.32-2.79 6.38 6.38 0 0 0-1 2.92 1.45 1.45 0 0 0 .66 1.17 2 2 0 0 0 .58.27z" id="_Grupo_59" data-name="&amp;lt;Grupo&amp;gt;"/><path class="cls-6" d="M127.83 89.77a2 2 0 0 0 .56-.34 1.45 1.45 0 0 0 .52-1.23 6.38 6.38 0 0 0-1.32-2.79z" id="_Grupo_60" data-name="&amp;lt;Grupo&amp;gt;"/><path class="cls-5" d="M123.27 93.76a2 2 0 0 0 .56-.34 1.45 1.45 0 0 0 .52-1.23 6.38 6.38 0 0 0-1.35-2.78 6.37 6.37 0 0 0-1 2.92 1.45 1.45 0 0 0 .66 1.17 2 2 0 0 0 .61.26z" id="_Grupo_61" data-name="&amp;lt;Grupo&amp;gt;"/><path class="cls-6" d="M123.27 93.76a2 2 0 0 0 .56-.34 1.45 1.45 0 0 0 .52-1.23 6.38 6.38 0 0 0-1.35-2.78z" id="_Grupo_62" data-name="&amp;lt;Grupo&amp;gt;"/><path class="cls-5" d="M132.51 85.9a2 2 0 0 0 .56-.34 1.45 1.45 0 0 0 .52-1.23 6.38 6.38 0 0 0-1.32-2.79 6.37 6.37 0 0 0-1 2.92 1.45 1.45 0 0 0 .66 1.17 2 2 0 0 0 .58.27z" id="_Grupo_63" data-name="&amp;lt;Grupo&amp;gt;"/><path class="cls-6" d="M132.51 85.9a2 2 0 0 0 .56-.34 1.45 1.45 0 0 0 .52-1.23 6.38 6.38 0 0 0-1.32-2.79z" id="_Grupo_64" data-name="&amp;lt;Grupo&amp;gt;"/><path class="cls-5" d="M137.39 83a2 2 0 0 0 .56-.34 1.45 1.45 0 0 0 .52-1.23 6.38 6.38 0 0 0-1.32-2.79 6.38 6.38 0 0 0-1 2.92 1.45 1.45 0 0 0 .66 1.17 2 2 0 0 0 .58.27z" id="_Grupo_65" data-name="&amp;lt;Grupo&amp;gt;"/><path class="cls-6" d="M137.39 83a2 2 0 0 0 .56-.34 1.45 1.45 0 0 0 .52-1.23 6.38 6.38 0 0 0-1.32-2.79z" id="_Grupo_66" data-name="&amp;lt;Grupo&amp;gt;"/><path class="cls-5" d="M142.68 80.24a1.81 1.81 0 0 0 .51-.31 1.33 1.33 0 0 0 .48-1.13 5.88 5.88 0 0 0-1.22-2.57 5.87 5.87 0 0 0-.93 2.69 1.33 1.33 0 0 0 .6 1.07 1.81 1.81 0 0 0 .56.25z" id="_Grupo_67" data-name="&amp;lt;Grupo&amp;gt;"/><path class="cls-6" d="M142.68 80.24a1.81 1.81 0 0 0 .51-.31 1.33 1.33 0 0 0 .48-1.13 5.88 5.88 0 0 0-1.22-2.57z" id="_Grupo_68" data-name="&amp;lt;Grupo&amp;gt;"/><path class="cls-5" d="M148 78.44a1.59 1.59 0 0 0 .45-.27 1.16 1.16 0 0 0 .42-1 5.13 5.13 0 0 0-1.07-2.24 5.13 5.13 0 0 0-.81 2.35 1.17 1.17 0 0 0 .53.94 1.6 1.6 0 0 0 .48.22z" id="_Grupo_69" data-name="&amp;lt;Grupo&amp;gt;"/><path class="cls-6" d="M148 78.44a1.59 1.59 0 0 0 .45-.27 1.16 1.16 0 0 0 .42-1 5.13 5.13 0 0 0-1.07-2.24z" id="_Grupo_70" data-name="&amp;lt;Grupo&amp;gt;"/><path class="cls-5" d="M153.1 77.15a1.6 1.6 0 0 0 .45-.27 1.17 1.17 0 0 0 .42-1 5.14 5.14 0 0 0-1.07-2.24 5.13 5.13 0 0 0-.81 2.35 1.17 1.17 0 0 0 .53.94 1.59 1.59 0 0 0 .48.22z" id="_Grupo_71" data-name="&amp;lt;Grupo&amp;gt;"/><path class="cls-6" d="M153.1 77.15a1.6 1.6 0 0 0 .45-.27 1.17 1.17 0 0 0 .42-1 5.14 5.14 0 0 0-1.07-2.24z" id="_Grupo_72" data-name="&amp;lt;Grupo&amp;gt;"/><path class="cls-5" d="M157.92 76.5a1.57 1.57 0 0 0 .45-.27 1.16 1.16 0 0 0 .42-1 5.11 5.11 0 0 0-1.06-2.23 5.1 5.1 0 0 0-.8 2.33 1.16 1.16 0 0 0 .53.93 1.57 1.57 0 0 0 .46.24z" id="_Grupo_73" data-name="&amp;lt;Grupo&amp;gt;"/><path class="cls-6" d="M157.92 76.5a1.57 1.57 0 0 0 .45-.27 1.16 1.16 0 0 0 .42-1 5.11 5.11 0 0 0-1.06-2.23z" id="_Grupo_74" data-name="&amp;lt;Grupo&amp;gt;"/><path class="cls-5" d="M134.48 94a2 2 0 0 0 .56-.34 1.45 1.45 0 0 0 .52-1.23 6.38 6.38 0 0 0-1.32-2.79 6.38 6.38 0 0 0-1 2.92 1.45 1.45 0 0 0 .66 1.17 2 2 0 0 0 .58.27z" id="_Grupo_75" data-name="&amp;lt;Grupo&amp;gt;"/><path class="cls-6" d="M134.48 94a2 2 0 0 0 .56-.34 1.45 1.45 0 0 0 .52-1.23 6.38 6.38 0 0 0-1.32-2.79z" id="_Grupo_76" data-name="&amp;lt;Grupo&amp;gt;"/><path class="cls-5" d="M129.92 98a2 2 0 0 0 .56-.34 1.45 1.45 0 0 0 .52-1.26 6.38 6.38 0 0 0-1.32-2.79 6.37 6.37 0 0 0-1 2.92 1.45 1.45 0 0 0 .66 1.17 2 2 0 0 0 .58.3z" id="_Grupo_77" data-name="&amp;lt;Grupo&amp;gt;"/><path class="cls-6" d="M129.92 98a2 2 0 0 0 .56-.34 1.45 1.45 0 0 0 .52-1.26 6.38 6.38 0 0 0-1.32-2.79z" id="_Grupo_78" data-name="&amp;lt;Grupo&amp;gt;"/><path class="cls-5" d="M139.16 90.1a2 2 0 0 0 .56-.34 1.45 1.45 0 0 0 .52-1.23 6.39 6.39 0 0 0-1.32-2.79 6.37 6.37 0 0 0-1 2.92 1.45 1.45 0 0 0 .66 1.17 2 2 0 0 0 .58.27z" id="_Grupo_79" data-name="&amp;lt;Grupo&amp;gt;"/><path class="cls-6" d="M139.16 90.1a2 2 0 0 0 .56-.34 1.45 1.45 0 0 0 .52-1.23 6.39 6.39 0 0 0-1.32-2.79z" id="_Grupo_80" data-name="&amp;lt;Grupo&amp;gt;"/><path class="cls-5" d="M144.28 87a2 2 0 0 0 .56-.34 1.45 1.45 0 0 0 .52-1.23 6.38 6.38 0 0 0-1.36-2.81 6.37 6.37 0 0 0-1 2.92 1.45 1.45 0 0 0 .66 1.17 2 2 0 0 0 .62.29z" id="_Grupo_81" data-name="&amp;lt;Grupo&amp;gt;"/><path class="cls-6" d="M144.28 87a2 2 0 0 0 .56-.34 1.45 1.45 0 0 0 .52-1.23 6.38 6.38 0 0 0-1.36-2.81z" id="_Grupo_82" data-name="&amp;lt;Grupo&amp;gt;"/><path class="cls-5" d="M149.57 84.2a1.8 1.8 0 0 0 .51-.31 1.33 1.33 0 0 0 .48-1.13 5.89 5.89 0 0 0-1.22-2.57 5.87 5.87 0 0 0-.93 2.69 1.33 1.33 0 0 0 .6 1.07 1.83 1.83 0 0 0 .56.25z" id="_Grupo_83" data-name="&amp;lt;Grupo&amp;gt;"/><path class="cls-6" d="M149.57 84.2a1.8 1.8 0 0 0 .51-.31 1.33 1.33 0 0 0 .48-1.13 5.89 5.89 0 0 0-1.22-2.57z" id="_Grupo_84" data-name="&amp;lt;Grupo&amp;gt;"/><path class="cls-5" d="M154.93 82.16a1.6 1.6 0 0 0 .45-.27 1.17 1.17 0 0 0 .42-1 5.13 5.13 0 0 0-1.07-2.24 5.13 5.13 0 0 0-.81 2.35 1.16 1.16 0 0 0 .53.94 1.6 1.6 0 0 0 .48.22z" id="_Grupo_85" data-name="&amp;lt;Grupo&amp;gt;"/><path class="cls-6" d="M154.93 82.16a1.6 1.6 0 0 0 .45-.27 1.17 1.17 0 0 0 .42-1 5.13 5.13 0 0 0-1.07-2.24z" id="_Grupo_86" data-name="&amp;lt;Grupo&amp;gt;"/><path class="cls-5" d="M159.75 80.86a1.6 1.6 0 0 0 .45-.27 1.17 1.17 0 0 0 .42-1 5.15 5.15 0 0 0-1.07-2.24 5.13 5.13 0 0 0-.81 2.35 1.17 1.17 0 0 0 .53.94 1.6 1.6 0 0 0 .48.22z" id="_Grupo_87" data-name="&amp;lt;Grupo&amp;gt;"/><path class="cls-6" d="M159.75 80.86a1.6 1.6 0 0 0 .45-.27 1.17 1.17 0 0 0 .42-1 5.15 5.15 0 0 0-1.07-2.24z" id="_Grupo_88" data-name="&amp;lt;Grupo&amp;gt;"/><path class="cls-5" d="M164.33 80.46a1.57 1.57 0 0 0 .45-.27 1.16 1.16 0 0 0 .42-1 5.11 5.11 0 0 0-1.07-2.19 5.1 5.1 0 0 0-.8 2.33 1.16 1.16 0 0 0 .53.93 1.57 1.57 0 0 0 .47.2z" id="_Grupo_89" data-name="&amp;lt;Grupo&amp;gt;"/><path class="cls-6" d="M164.33 80.46a1.57 1.57 0 0 0 .45-.27 1.16 1.16 0 0 0 .42-1 5.11 5.11 0 0 0-1.07-2.19z" id="_Grupo_90" data-name="&amp;lt;Grupo&amp;gt;"/><path class="cls-5" d="M139.44 100.57a2 2 0 0 0 .56-.34 1.45 1.45 0 0 0 .52-1.23 6.38 6.38 0 0 0-1.32-2.79 6.37 6.37 0 0 0-1 2.92 1.45 1.45 0 0 0 .66 1.17 2 2 0 0 0 .58.27z" id="_Grupo_91" data-name="&amp;lt;Grupo&amp;gt;"/><path class="cls-6" d="M139.44 100.57a2 2 0 0 0 .56-.34 1.45 1.45 0 0 0 .52-1.23 6.38 6.38 0 0 0-1.32-2.79z" id="_Grupo_92" data-name="&amp;lt;Grupo&amp;gt;"/><path class="cls-5" d="M134.88 104.8a2 2 0 0 0 .56-.34 1.45 1.45 0 0 0 .52-1.23 6.39 6.39 0 0 0-1.32-2.79 6.38 6.38 0 0 0-1 2.92 1.45 1.45 0 0 0 .66 1.17 2 2 0 0 0 .58.27z" id="_Grupo_93" data-name="&amp;lt;Grupo&amp;gt;"/><path class="cls-6" d="M134.88 104.8a2 2 0 0 0 .56-.34 1.45 1.45 0 0 0 .52-1.23 6.39 6.39 0 0 0-1.32-2.79z" id="_Grupo_94" data-name="&amp;lt;Grupo&amp;gt;"/><path class="cls-5" d="M144.11 96a2 2 0 0 0 .56-.34 1.45 1.45 0 0 0 .52-1.23 6.38 6.38 0 0 0-1.32-2.79 6.37 6.37 0 0 0-1 2.92 1.45 1.45 0 0 0 .66 1.17 2 2 0 0 0 .58.27z" id="_Grupo_95" data-name="&amp;lt;Grupo&amp;gt;"/><path class="cls-6" d="M144.11 96a2 2 0 0 0 .56-.34 1.45 1.45 0 0 0 .52-1.23 6.38 6.38 0 0 0-1.32-2.79z" id="_Grupo_96" data-name="&amp;lt;Grupo&amp;gt;"/><path class="cls-5" d="M149.24 92.58a2 2 0 0 0 .56-.34 1.45 1.45 0 0 0 .52-1.23 6.38 6.38 0 0 0-1.32-2.79 6.37 6.37 0 0 0-1 2.92 1.45 1.45 0 0 0 .66 1.17 2 2 0 0 0 .58.27z" id="_Grupo_97" data-name="&amp;lt;Grupo&amp;gt;"/><path class="cls-6" d="M149.24 92.58a2 2 0 0 0 .56-.34 1.45 1.45 0 0 0 .52-1.23 6.38 6.38 0 0 0-1.32-2.79z" id="_Grupo_98" data-name="&amp;lt;Grupo&amp;gt;"/><path class="cls-5" d="M154.53 89.31A1.81 1.81 0 0 0 155 89a1.33 1.33 0 0 0 .48-1.14 5.88 5.88 0 0 0-1.22-2.57 5.86 5.86 0 0 0-.93 2.69 1.33 1.33 0 0 0 .6 1.07 1.82 1.82 0 0 0 .6.26z" id="_Grupo_99" data-name="&amp;lt;Grupo&amp;gt;"/><path class="cls-6" d="M154.53 89.31A1.81 1.81 0 0 0 155 89a1.33 1.33 0 0 0 .48-1.14 5.88 5.88 0 0 0-1.22-2.57z" id="_Grupo_100" data-name="&amp;lt;Grupo&amp;gt;"/><path class="cls-5" d="M159.39 86.78a1.57 1.57 0 0 0 .45-.27 1.17 1.17 0 0 0 .42-1 5.14 5.14 0 0 0-1.07-2.24 5.13 5.13 0 0 0-.81 2.35 1.16 1.16 0 0 0 .53.94 1.59 1.59 0 0 0 .48.22z" id="_Grupo_101" data-name="&amp;lt;Grupo&amp;gt;"/><path class="cls-6" d="M159.39 86.78a1.57 1.57 0 0 0 .45-.27 1.17 1.17 0 0 0 .42-1 5.14 5.14 0 0 0-1.07-2.24z" id="_Grupo_102" data-name="&amp;lt;Grupo&amp;gt;"/><path class="cls-5" d="M164 85a1.6 1.6 0 0 0 .45-.27 1.17 1.17 0 0 0 .42-1 5.14 5.14 0 0 0-1.07-2.24 5.13 5.13 0 0 0-.81 2.35 1.17 1.17 0 0 0 .53.94 1.61 1.61 0 0 0 .48.22z" id="_Grupo_103" data-name="&amp;lt;Grupo&amp;gt;"/><path class="cls-6" d="M164 85a1.6 1.6 0 0 0 .45-.27 1.17 1.17 0 0 0 .42-1 5.14 5.14 0 0 0-1.07-2.24z" id="_Grupo_104" data-name="&amp;lt;Grupo&amp;gt;"/><path class="cls-5" d="M168.3 83.61a1.56 1.56 0 0 0 .45-.27 1.16 1.16 0 0 0 .42-1 5.11 5.11 0 0 0-1.06-2.23 5.1 5.1 0 0 0-.8 2.33 1.16 1.16 0 0 0 .53.93 1.57 1.57 0 0 0 .46.24z" id="_Grupo_105" data-name="&amp;lt;Grupo&amp;gt;"/><path class="cls-6" d="M168.3 83.61a1.56 1.56 0 0 0 .45-.27 1.16 1.16 0 0 0 .42-1 5.11 5.11 0 0 0-1.06-2.23z" id="_Grupo_106" data-name="&amp;lt;Grupo&amp;gt;"/><path class="cls-5" d="M147.92 105.07a2 2 0 0 0 .56-.34 1.45 1.45 0 0 0 .52-1.23 6.39 6.39 0 0 0-1.32-2.79 6.37 6.37 0 0 0-1 2.92 1.45 1.45 0 0 0 .66 1.17 2 2 0 0 0 .58.27z" id="_Grupo_107" data-name="&amp;lt;Grupo&amp;gt;"/><path class="cls-6" d="M147.92 105.07a2 2 0 0 0 .56-.34 1.45 1.45 0 0 0 .52-1.23 6.39 6.39 0 0 0-1.32-2.79z" id="_Grupo_108" data-name="&amp;lt;Grupo&amp;gt;"/><path class="cls-5" d="M152.66 100.57a2 2 0 0 0 .56-.34 1.45 1.45 0 0 0 .52-1.23 6.38 6.38 0 0 0-1.32-2.79 6.38 6.38 0 0 0-1 2.92 1.45 1.45 0 0 0 .66 1.17 2 2 0 0 0 .58.27z" id="_Grupo_109" data-name="&amp;lt;Grupo&amp;gt;"/><path class="cls-6" d="M152.66 100.57a2 2 0 0 0 .56-.34 1.45 1.45 0 0 0 .52-1.23 6.38 6.38 0 0 0-1.32-2.79z" id="_Grupo_110" data-name="&amp;lt;Grupo&amp;gt;"/><path class="cls-5" d="M157.54 96a2 2 0 0 0 .56-.34 1.45 1.45 0 0 0 .52-1.23 6.38 6.38 0 0 0-1.32-2.79 6.37 6.37 0 0 0-1 2.92 1.45 1.45 0 0 0 .66 1.17 2 2 0 0 0 .58.27z" id="_Grupo_111" data-name="&amp;lt;Grupo&amp;gt;"/><path class="cls-6" d="M157.54 96a2 2 0 0 0 .56-.34 1.45 1.45 0 0 0 .52-1.23 6.38 6.38 0 0 0-1.32-2.79z" id="_Grupo_112" data-name="&amp;lt;Grupo&amp;gt;"/><path class="cls-5" d="M162.68 92.19a1.8 1.8 0 0 0 .51-.31 1.33 1.33 0 0 0 .48-1.13 5.88 5.88 0 0 0-1.22-2.57 5.88 5.88 0 0 0-.93 2.69 1.34 1.34 0 0 0 .61 1.07 1.83 1.83 0 0 0 .55.25z" id="_Grupo_113" data-name="&amp;lt;Grupo&amp;gt;"/><path class="cls-6" d="M162.68 92.19a1.8 1.8 0 0 0 .51-.31 1.33 1.33 0 0 0 .48-1.13 5.88 5.88 0 0 0-1.22-2.57z" id="_Grupo_114" data-name="&amp;lt;Grupo&amp;gt;"/><path class="cls-5" d="M167.37 89.67a1.59 1.59 0 0 0 .45-.27 1.17 1.17 0 0 0 .42-1 5.13 5.13 0 0 0-1.07-2.24 5.14 5.14 0 0 0-.81 2.35 1.17 1.17 0 0 0 .53.94 1.59 1.59 0 0 0 .48.22z" id="_Grupo_115" data-name="&amp;lt;Grupo&amp;gt;"/><path class="cls-6" d="M167.37 89.67a1.59 1.59 0 0 0 .45-.27 1.17 1.17 0 0 0 .42-1 5.13 5.13 0 0 0-1.07-2.24z" id="_Grupo_116" data-name="&amp;lt;Grupo&amp;gt;"/><path class="cls-5" d="M172.7 88.12a1.59 1.59 0 0 0 .45-.27 1.17 1.17 0 0 0 .42-1 5.15 5.15 0 0 0-1.07-2.24 5.13 5.13 0 0 0-.8 2.39 1.17 1.17 0 0 0 .53.94 1.61 1.61 0 0 0 .47.18z" id="_Grupo_117" data-name="&amp;lt;Grupo&amp;gt;"/><path class="cls-6" d="M172.7 88.12a1.59 1.59 0 0 0 .45-.27 1.17 1.17 0 0 0 .42-1 5.15 5.15 0 0 0-1.07-2.24z" id="_Grupo_118" data-name="&amp;lt;Grupo&amp;gt;"/><path class="cls-5" d="M161.21 102.74a2 2 0 0 0 .56-.34 1.45 1.45 0 0 0 .52-1.23 6.38 6.38 0 0 0-1.29-2.78 6.38 6.38 0 0 0-1 2.92 1.45 1.45 0 0 0 .66 1.17 2 2 0 0 0 .55.26z" id="_Grupo_119" data-name="&amp;lt;Grupo&amp;gt;"/><path class="cls-6" d="M161.21 102.74a2 2 0 0 0 .56-.34 1.45 1.45 0 0 0 .52-1.23 6.38 6.38 0 0 0-1.29-2.78z" id="_Grupo_120" data-name="&amp;lt;Grupo&amp;gt;"/><path class="cls-5" d="M165.6 98.22a2 2 0 0 0 .56-.34 1.45 1.45 0 0 0 .52-1.23 6.38 6.38 0 0 0-1.32-2.79 6.38 6.38 0 0 0-1 2.92 1.45 1.45 0 0 0 .66 1.17 2 2 0 0 0 .58.27z" id="_Grupo_121" data-name="&amp;lt;Grupo&amp;gt;"/><path class="cls-6" d="M165.6 98.22a2 2 0 0 0 .56-.34 1.45 1.45 0 0 0 .52-1.23 6.38 6.38 0 0 0-1.32-2.79z" id="_Grupo_122" data-name="&amp;lt;Grupo&amp;gt;"/><path class="cls-5" d="M170.49 94.29A1.81 1.81 0 0 0 171 94a1.33 1.33 0 0 0 .48-1.13 5.88 5.88 0 0 0-1.22-2.57 5.87 5.87 0 0 0-.93 2.69 1.33 1.33 0 0 0 .61 1.07 1.81 1.81 0 0 0 .55.23z" id="_Grupo_123" data-name="&amp;lt;Grupo&amp;gt;"/><path class="cls-6" d="M170.49 94.29A1.81 1.81 0 0 0 171 94a1.33 1.33 0 0 0 .48-1.13 5.88 5.88 0 0 0-1.22-2.57z" id="_Grupo_124" data-name="&amp;lt;Grupo&amp;gt;"/><path class="cls-5" d="M175.24 92.29a1.59 1.59 0 0 0 .45-.27 1.16 1.16 0 0 0 .42-1 5.13 5.13 0 0 0-1.11-2.24 5.13 5.13 0 0 0-.81 2.35 1.16 1.16 0 0 0 .53.94 1.6 1.6 0 0 0 .52.22z" id="_Grupo_125" data-name="&amp;lt;Grupo&amp;gt;"/><path class="cls-6" d="M175.24 92.29a1.59 1.59 0 0 0 .45-.27 1.16 1.16 0 0 0 .42-1 5.13 5.13 0 0 0-1.11-2.24z" id="_Grupo_126" data-name="&amp;lt;Grupo&amp;gt;"/><path class="cls-5" d="M171.21 100.57a2 2 0 0 0 .56-.34 1.45 1.45 0 0 0 .52-1.23 6.38 6.38 0 0 0-1.29-2.79 6.37 6.37 0 0 0-1 2.92 1.45 1.45 0 0 0 .66 1.17 2 2 0 0 0 .55.27z" id="_Grupo_127" data-name="&amp;lt;Grupo&amp;gt;"/><path class="cls-6" d="M171.21 100.57a2 2 0 0 0 .56-.34 1.45 1.45 0 0 0 .52-1.23 6.38 6.38 0 0 0-1.29-2.79z" id="_Grupo_128" data-name="&amp;lt;Grupo&amp;gt;"/><path class="cls-5" d="M175.36 98a1.81 1.81 0 0 0 .51-.31 1.33 1.33 0 0 0 .48-1.13 5.88 5.88 0 0 0-1.22-2.57 5.87 5.87 0 0 0-.93 2.69 1.33 1.33 0 0 0 .6 1.07 1.82 1.82 0 0 0 .56.25z" id="_Grupo_129" data-name="&amp;lt;Grupo&amp;gt;"/><path class="cls-6" d="M175.36 98a1.81 1.81 0 0 0 .51-.31 1.33 1.33 0 0 0 .48-1.13 5.88 5.88 0 0 0-1.22-2.57z" id="_Grupo_130" data-name="&amp;lt;Grupo&amp;gt;"/><path class="cls-5" d="M179.59 95.21a1.59 1.59 0 0 0 .45-.27 1.17 1.17 0 0 0 .42-1 5.13 5.13 0 0 0-1.07-2.24 5.13 5.13 0 0 0-.81 2.35 1.16 1.16 0 0 0 .53.94 1.59 1.59 0 0 0 .48.22z" id="_Grupo_131" data-name="&amp;lt;Grupo&amp;gt;"/><path class="cls-6" d="M179.59 95.21a1.59 1.59 0 0 0 .45-.27 1.17 1.17 0 0 0 .42-1 5.13 5.13 0 0 0-1.07-2.24z" id="_Grupo_132" data-name="&amp;lt;Grupo&amp;gt;"/><circle class="cls-5" cx="37.77" cy="40.24" r="7.63"/><circle class="cls-6" cx="37.77" cy="40.24" r="6.6"/><circle class="cls-1" cx="37.77" cy="40.24" r="5.25"/><path class="cls-5" d="M14.59 42.13H36a1.77 1.77 0 0 0-2.28-1.47 5.13 5.13 0 0 0-5-3.7 5.53 5.53 0 0 0-3.54 1.28 3.76 3.76 0 0 0-2.33-.69 3.64 3.64 0 0 0-3.22 1.7 4 4 0 0 0-5.04 2.88z" id="_Grupo_133" data-name="&amp;lt;Grupo&amp;gt;"/><g id="_Grupo_134" data-name="&amp;lt;Grupo&amp;gt;"><path class="cls-1" d="M22 59.77l-.23-.19a2.23 2.23 0 0 0-2.77-.17.25.25 0 1 1-.3-.39 2.69 2.69 0 0 1 3.12 0 3.11 3.11 0 0 1 .34-.44 2.85 2.85 0 0 1 2.7-.84.25.25 0 1 1-.08.49 2.38 2.38 0 0 0-2.26.69 2.7 2.7 0 0 0-.41.58z" id="_Grupo_135" data-name="&amp;lt;Grupo&amp;gt;"/></g><g id="_Grupo_136" data-name="&amp;lt;Grupo&amp;gt;"><path class="cls-1" d="M28.52 57.44l-.17-.25a2.23 2.23 0 0 0-2.58-.95.25.25 0 0 1-.17-.46 2.69 2.69 0 0 1 3 .9 3.14 3.14 0 0 1 .45-.32 2.85 2.85 0 0 1 2.83 0 .25.25 0 0 1-.22.44 2.38 2.38 0 0 0-2.36 0 2.69 2.69 0 0 0-.56.44z" id="_Grupo_137" data-name="&amp;lt;Grupo&amp;gt;"/></g><g id="_Grupo_138" data-name="&amp;lt;Grupo&amp;gt;"><path class="cls-1" d="M149.83 58.9l-.2-.22a2.7 2.7 0 0 0-.55-.45 2.38 2.38 0 0 0-2.36-.08.25.25 0 1 1-.2-.45 2.85 2.85 0 0 1 2.82.11 3.13 3.13 0 0 1 .44.34 2.69 2.69 0 0 1 3-.82.25.25 0 1 1-.19.46 2.23 2.23 0 0 0-2.6.88z" id="_Grupo_139" data-name="&amp;lt;Grupo&amp;gt;"/></g><path class="cls-5" d="M140 51.35h16.51a1.36 1.36 0 0 0-1.75-1.13 4 4 0 0 0-3.83-2.85 4.25 4.25 0 0 0-2.72 1 2.89 2.89 0 0 0-1.79-.53 2.8 2.8 0 0 0-2.48 1.31 3.06 3.06 0 0 0-3.94 2.2z" id="_Grupo_140" data-name="&amp;lt;Grupo&amp;gt;"/><path class="cls-5" d="M81.16 108c44 .07 21.34.15 52.69-.94.71-.75-11.67-12.81-11.67-12.81S100.61 71 62.28 71C33 71 8.4 85 0 96.67c0 0 24.48 11.2 81.16 11.33zM182 96.48l-.28.28c.21-.14.28-.24.28-.28z"/><g class="cls-7"><path class="cls-3" d="M76.75 72.13A91.78 91.78 0 0 0 62.28 71h-1.59c-7.93 1.57-33.24 8-52.41 28.52 3 .88 6.91 1.89 11.7 2.89 3.22-3.34 26.27-26.34 56.77-30.28zM129.17 101.26c-1.13-1.19-2.33-2.4-3.4-3.49-10.07.51-19.59 8.43-21.62 10.23 5.94 0 7.79 0 10.33-.15 7.6-6.26 13.16-6.63 14.69-6.59zM118.36 90.71c-17.18-.71-37 14.51-40.43 17.23h14.88C107.32 95.77 119.18 94.21 122 94c-.45-.43-1.67-1.64-3.64-3.29zM112 85.92a86.35 86.35 0 0 0-7.06-4.26c-24-1.29-48.58 22-51.85 25.26q7.11.54 15.26.82C85.5 88.43 108.37 86.16 112 85.92z"/><path class="cls-3" d="M97.43 78.06a88.23 88.23 0 0 0-8.74-3.18c-35.07 5.44-54.35 25.5-57.89 29.5 4.21.66 8.89 1.27 14 1.8 23.49-25.29 47.74-27.86 52.63-28.12z"/></g><path class="cls-6" d="M9.13 94.49a3 3 0 0 0 .76-.65 2.21 2.21 0 0 0 .48-2c-.37-1.53-2.11-3.3-2.7-3.84-.3.75-1.13 3.1-.79 4.65a2.21 2.21 0 0 0 1.28 1.6 3 3 0 0 0 .97.24z" id="_Grupo_141" data-name="&amp;lt;Grupo&amp;gt;"/><path class="cls-3" d="M9.13 94.49a3 3 0 0 0 .76-.65 2.21 2.21 0 0 0 .48-2c-.37-1.53-2.11-3.3-2.7-3.84z" id="_Grupo_142" data-name="&amp;lt;Grupo&amp;gt;"/><path class="cls-6" d="M14.77 89.38a3 3 0 0 0 .81-.58 2.21 2.21 0 0 0 .65-1.94c-.21-1.57-1.81-3.49-2.35-4.09-.36.72-1.4 3-1.19 4.56A2.21 2.21 0 0 0 13.83 89a3 3 0 0 0 .94.38z" id="_Grupo_143" data-name="&amp;lt;Grupo&amp;gt;"/><path class="cls-3" d="M14.77 89.38a3 3 0 0 0 .81-.58 2.21 2.21 0 0 0 .65-1.94c-.21-1.57-1.81-3.49-2.35-4.09z" id="_Grupo_144" data-name="&amp;lt;Grupo&amp;gt;"/><path class="cls-6" d="M21.26 85.09a3 3 0 0 0 .81-.58 2.21 2.21 0 0 0 .66-1.94c-.2-1.57-1.79-3.49-2.33-4.1-.36.72-1.41 3-1.21 4.56a2.22 2.22 0 0 0 1.13 1.71 3.05 3.05 0 0 0 .94.35z" id="_Grupo_145" data-name="&amp;lt;Grupo&amp;gt;"/><path class="cls-3" d="M21.26 85.09a3 3 0 0 0 .81-.58 2.21 2.21 0 0 0 .66-1.94c-.2-1.57-1.79-3.49-2.33-4.1z" id="_Grupo_146" data-name="&amp;lt;Grupo&amp;gt;"/><path class="cls-6" d="M28 81.35a2.82 2.82 0 0 0 .81-.49 2.1 2.1 0 0 0 .76-1.78c-.08-1.5-1.46-3.43-1.92-4-.39.66-1.54 2.73-1.46 4.23a2.1 2.1 0 0 0 1 1.69 2.86 2.86 0 0 0 .81.35z" id="_Grupo_147" data-name="&amp;lt;Grupo&amp;gt;"/><path class="cls-3" d="M28 81.35a2.82 2.82 0 0 0 .81-.49 2.1 2.1 0 0 0 .76-1.78c-.08-1.5-1.46-3.43-1.92-4z" id="_Grupo_148" data-name="&amp;lt;Grupo&amp;gt;"/><path class="cls-6" d="M46.94 73.46a2.4 2.4 0 0 0 .7-.39 1.78 1.78 0 0 0 .69-1.5 7.87 7.87 0 0 0-1.52-3.49 7.86 7.86 0 0 0-1.36 3.55 1.79 1.79 0 0 0 .76 1.46 2.45 2.45 0 0 0 .73.37z" id="_Grupo_149" data-name="&amp;lt;Grupo&amp;gt;"/><path class="cls-3" d="M46.94 73.46a2.4 2.4 0 0 0 .7-.39 1.78 1.78 0 0 0 .69-1.5 7.87 7.87 0 0 0-1.52-3.49z" id="_Grupo_150" data-name="&amp;lt;Grupo&amp;gt;"/><path class="cls-6" d="M52.64 72.12a2.28 2.28 0 0 0 .66-.37 1.69 1.69 0 0 0 .7-1.41A7.44 7.44 0 0 0 52.52 67a7.43 7.43 0 0 0-1.28 3.36 1.69 1.69 0 0 0 .76 1.42 2.32 2.32 0 0 0 .64.34z" id="_Grupo_151" data-name="&amp;lt;Grupo&amp;gt;"/><path class="cls-3" d="M52.64 72.12a2.28 2.28 0 0 0 .66-.37 1.69 1.69 0 0 0 .7-1.41A7.44 7.44 0 0 0 52.52 67z" id="_Grupo_152" data-name="&amp;lt;Grupo&amp;gt;"/><path class="cls-6" d="M40.47 75.79a2.47 2.47 0 0 0 .73-.41 1.85 1.85 0 0 0 .72-1.55 8.14 8.14 0 0 0-1.57-3.61 8.13 8.13 0 0 0-1.4 3.68 1.85 1.85 0 0 0 .79 1.51 2.53 2.53 0 0 0 .73.38z" id="_Grupo_153" data-name="&amp;lt;Grupo&amp;gt;"/><path class="cls-3" d="M40.47 75.79a2.47 2.47 0 0 0 .73-.41 1.85 1.85 0 0 0 .72-1.55 8.14 8.14 0 0 0-1.57-3.61z" id="_Grupo_154" data-name="&amp;lt;Grupo&amp;gt;"/><path class="cls-6" d="M34 78.21a2.49 2.49 0 0 0 .72-.41 1.84 1.84 0 0 0 .72-1.55 8.14 8.14 0 0 0-1.57-3.61 8.13 8.13 0 0 0-1.4 3.68 1.85 1.85 0 0 0 .79 1.51 2.54 2.54 0 0 0 .74.38z" id="_Grupo_155" data-name="&amp;lt;Grupo&amp;gt;"/><path class="cls-3" d="M34 78.21a2.49 2.49 0 0 0 .72-.41 1.84 1.84 0 0 0 .72-1.55 8.14 8.14 0 0 0-1.57-3.61z" id="_Grupo_156" data-name="&amp;lt;Grupo&amp;gt;"/><path class="cls-6" d="M51.38 95.95a3 3 0 0 0 .78-.62 2.21 2.21 0 0 0 .54-2c-.3-1.56-2-3.38-2.56-4-.32.74-1.23 3.06-.94 4.62a2.21 2.21 0 0 0 1.23 1.64 3 3 0 0 0 .95.36z" id="_Grupo_157" data-name="&amp;lt;Grupo&amp;gt;"/><path class="cls-3" d="M51.38 95.95a3 3 0 0 0 .78-.62 2.21 2.21 0 0 0 .54-2c-.3-1.56-2-3.38-2.56-4z" id="_Grupo_158" data-name="&amp;lt;Grupo&amp;gt;"/><path class="cls-6" d="M45.76 100.63a3 3 0 0 0 .78-.62 2.21 2.21 0 0 0 .54-2c-.3-1.56-2-3.38-2.56-4-.32.74-1.23 3.06-.94 4.62a2.21 2.21 0 0 0 1.23 1.64 3 3 0 0 0 .95.36z" id="_Grupo_159" data-name="&amp;lt;Grupo&amp;gt;"/><path class="cls-3" d="M45.76 100.63a3 3 0 0 0 .78-.62 2.21 2.21 0 0 0 .54-2c-.3-1.56-2-3.38-2.56-4z" id="_Grupo_160" data-name="&amp;lt;Grupo&amp;gt;"/><path class="cls-6" d="M39.63 104.89a3 3 0 0 0 .78-.62 2.21 2.21 0 0 0 .54-2c-.3-1.56-2-3.38-2.56-4-.32.74-1.23 3.06-.94 4.62a2.21 2.21 0 0 0 1.23 1.64 3 3 0 0 0 .95.36z" id="_Grupo_161" data-name="&amp;lt;Grupo&amp;gt;"/><path class="cls-3" d="M39.63 104.89a3 3 0 0 0 .78-.62 2.21 2.21 0 0 0 .54-2c-.3-1.56-2-3.38-2.56-4z" id="_Grupo_162" data-name="&amp;lt;Grupo&amp;gt;"/><path class="cls-6" d="M57.49 91.11a3 3 0 0 0 .82-.53 2.06 2.06 0 0 0 .69-1.81c-.15-1.49-1.65-3.34-2.16-3.93-.38.67-1.48 2.79-1.33 4.28a2.06 2.06 0 0 0 1.06 1.64 3 3 0 0 0 .92.35z" id="_Grupo_163" data-name="&amp;lt;Grupo&amp;gt;"/><path class="cls-3" d="M57.49 91.11a3 3 0 0 0 .82-.53 2.06 2.06 0 0 0 .69-1.81c-.15-1.49-1.65-3.34-2.16-3.93z" id="_Grupo_164" data-name="&amp;lt;Grupo&amp;gt;"/><path class="cls-6" d="M64.41 87a2.87 2.87 0 0 0 .79-.52 2.1 2.1 0 0 0 .68-1.81c-.14-1.5-1.59-3.36-2.08-4-.37.67-1.43 2.78-1.29 4.28a2.1 2.1 0 0 0 1 1.65 2.87 2.87 0 0 0 .9.4z" id="_Grupo_165" data-name="&amp;lt;Grupo&amp;gt;"/><path class="cls-3" d="M64.41 87a2.87 2.87 0 0 0 .79-.52 2.1 2.1 0 0 0 .68-1.81c-.14-1.5-1.59-3.36-2.08-4z" id="_Grupo_166" data-name="&amp;lt;Grupo&amp;gt;"/><path class="cls-6" d="M85.86 78.72a2.39 2.39 0 0 0 .7-.39 1.78 1.78 0 0 0 .69-1.5 7.87 7.87 0 0 0-1.52-3.49 7.86 7.86 0 0 0-1.36 3.55 1.79 1.79 0 0 0 .76 1.46 2.44 2.44 0 0 0 .73.37z" id="_Grupo_167" data-name="&amp;lt;Grupo&amp;gt;"/><path class="cls-3" d="M85.86 78.72a2.39 2.39 0 0 0 .7-.39 1.78 1.78 0 0 0 .69-1.5 7.87 7.87 0 0 0-1.52-3.49z" id="_Grupo_168" data-name="&amp;lt;Grupo&amp;gt;"/><path class="cls-6" d="M92.11 77.21a2.07 2.07 0 0 0 .61-.34 1.54 1.54 0 0 0 .6-1.29 6.8 6.8 0 0 0-1.31-3 6.78 6.78 0 0 0-1.17 3.07 1.55 1.55 0 0 0 .66 1.26 2.12 2.12 0 0 0 .61.3z" id="_Grupo_169" data-name="&amp;lt;Grupo&amp;gt;"/><path class="cls-3" d="M92.11 77.21a2.07 2.07 0 0 0 .61-.34 1.54 1.54 0 0 0 .6-1.29 6.8 6.8 0 0 0-1.31-3z" id="_Grupo_170" data-name="&amp;lt;Grupo&amp;gt;"/><path class="cls-6" d="M78.67 80.73a2.4 2.4 0 0 0 .7-.39 1.78 1.78 0 0 0 .69-1.5 7.86 7.86 0 0 0-1.52-3.49 7.85 7.85 0 0 0-1.36 3.55 1.79 1.79 0 0 0 .82 1.47 2.46 2.46 0 0 0 .67.36z" id="_Grupo_171" data-name="&amp;lt;Grupo&amp;gt;"/><path class="cls-3" d="M78.67 80.73a2.4 2.4 0 0 0 .7-.39 1.78 1.78 0 0 0 .69-1.5 7.86 7.86 0 0 0-1.52-3.49z" id="_Grupo_172" data-name="&amp;lt;Grupo&amp;gt;"/><path class="cls-6" d="M71.26 83.27a2.39 2.39 0 0 0 .7-.39 1.78 1.78 0 0 0 .69-1.5 7.88 7.88 0 0 0-1.52-3.49 7.86 7.86 0 0 0-1.36 3.55 1.79 1.79 0 0 0 .76 1.46 2.43 2.43 0 0 0 .73.37z" id="_Grupo_173" data-name="&amp;lt;Grupo&amp;gt;"/><path class="cls-3" d="M71.26 83.27a2.39 2.39 0 0 0 .7-.39 1.78 1.78 0 0 0 .69-1.5 7.88 7.88 0 0 0-1.52-3.49z" id="_Grupo_174" data-name="&amp;lt;Grupo&amp;gt;"/><path class="cls-6" d="M63.54 96.17a2.85 2.85 0 0 0 .75-.59 2.12 2.12 0 0 0 .52-1.89c-.28-1.49-1.91-3.24-2.45-3.79-.31.71-1.18 2.93-.9 4.42a2.12 2.12 0 0 0 1.17 1.57 2.89 2.89 0 0 0 .91.28z" id="_Grupo_175" data-name="&amp;lt;Grupo&amp;gt;"/><path class="cls-3" d="M63.54 96.17a2.85 2.85 0 0 0 .75-.59 2.12 2.12 0 0 0 .52-1.89c-.28-1.49-1.91-3.24-2.45-3.79z" id="_Grupo_176" data-name="&amp;lt;Grupo&amp;gt;"/><path class="cls-6" d="M57.2 100.79a3 3 0 0 0 .78-.62 2.21 2.21 0 0 0 .54-2c-.29-1.56-2-3.38-2.56-4-.32.74-1.23 3.06-.94 4.62a2.21 2.21 0 0 0 1.23 1.64 3 3 0 0 0 .95.36z" id="_Grupo_177" data-name="&amp;lt;Grupo&amp;gt;"/><path class="cls-3" d="M57.2 100.79a3 3 0 0 0 .78-.62 2.21 2.21 0 0 0 .54-2c-.29-1.56-2-3.38-2.56-4z" id="_Grupo_178" data-name="&amp;lt;Grupo&amp;gt;"/><path class="cls-6" d="M51.81 105.54a3 3 0 0 0 .78-.62 2.21 2.21 0 0 0 .54-2c-.3-1.56-2-3.38-2.56-4-.32.74-1.23 3.06-.94 4.62a2.21 2.21 0 0 0 1.23 1.64 3 3 0 0 0 .95.36z" id="_Grupo_179" data-name="&amp;lt;Grupo&amp;gt;"/><path class="cls-3" d="M51.81 105.54a3 3 0 0 0 .78-.62 2.21 2.21 0 0 0 .54-2c-.3-1.56-2-3.38-2.56-4z" id="_Grupo_180" data-name="&amp;lt;Grupo&amp;gt;"/><path class="cls-6" d="M69.63 92.35a2.84 2.84 0 0 0 .78-.52 2.07 2.07 0 0 0 .67-1.83c-.15-1.48-1.59-3.31-2.07-3.89-.36.67-1.4 2.76-1.25 4.23a2.07 2.07 0 0 0 1 1.62 2.86 2.86 0 0 0 .87.39z" id="_Grupo_181" data-name="&amp;lt;Grupo&amp;gt;"/><path class="cls-3" d="M69.63 92.35a2.84 2.84 0 0 0 .78-.52 2.07 2.07 0 0 0 .67-1.83c-.15-1.48-1.59-3.31-2.07-3.89z" id="_Grupo_182" data-name="&amp;lt;Grupo&amp;gt;"/><path class="cls-6" d="M91.08 82.19a2.4 2.4 0 0 0 .7-.39 1.79 1.79 0 0 0 .69-1.5 7.87 7.87 0 0 0-1.52-3.49 7.86 7.86 0 0 0-1.36 3.55 1.79 1.79 0 0 0 .76 1.46 2.45 2.45 0 0 0 .73.37z" id="_Grupo_183" data-name="&amp;lt;Grupo&amp;gt;"/><path class="cls-3" d="M91.08 82.19a2.4 2.4 0 0 0 .7-.39 1.79 1.79 0 0 0 .69-1.5 7.87 7.87 0 0 0-1.52-3.49z" id="_Grupo_184" data-name="&amp;lt;Grupo&amp;gt;"/><path class="cls-6" d="M97.95 80.9a2.21 2.21 0 0 0 .65-.36 1.64 1.64 0 0 0 .64-1.38 7.26 7.26 0 0 0-1.4-3.21 7.24 7.24 0 0 0-1.25 3.27 1.65 1.65 0 0 0 .7 1.35 2.25 2.25 0 0 0 .66.33z" id="_Grupo_185" data-name="&amp;lt;Grupo&amp;gt;"/><path class="cls-3" d="M97.95 80.9a2.21 2.21 0 0 0 .65-.36 1.64 1.64 0 0 0 .64-1.38 7.26 7.26 0 0 0-1.4-3.21z" id="_Grupo_186" data-name="&amp;lt;Grupo&amp;gt;"/><path class="cls-6" d="M83.37 84.88a2.4 2.4 0 0 0 .7-.39 1.78 1.78 0 0 0 .69-1.5 7.86 7.86 0 0 0-1.52-3.49 7.87 7.87 0 0 0-1.36 3.55 1.79 1.79 0 0 0 .76 1.46 2.45 2.45 0 0 0 .73.37z" id="_Grupo_187" data-name="&amp;lt;Grupo&amp;gt;"/><path class="cls-3" d="M83.37 84.88a2.4 2.4 0 0 0 .7-.39 1.78 1.78 0 0 0 .69-1.5 7.86 7.86 0 0 0-1.52-3.49z" id="_Grupo_188" data-name="&amp;lt;Grupo&amp;gt;"/><path class="cls-6" d="M76 88a2.38 2.38 0 0 0 .7-.39 1.78 1.78 0 0 0 .69-1.5 7.88 7.88 0 0 0-1.52-3.49 7.86 7.86 0 0 0-1.36 3.55 1.79 1.79 0 0 0 .76 1.46A2.44 2.44 0 0 0 76 88z" id="_Grupo_189" data-name="&amp;lt;Grupo&amp;gt;"/><path class="cls-3" d="M76 88a2.38 2.38 0 0 0 .7-.39 1.78 1.78 0 0 0 .69-1.5 7.88 7.88 0 0 0-1.52-3.49z" id="_Grupo_190" data-name="&amp;lt;Grupo&amp;gt;"/><path class="cls-6" d="M76.14 97.36a2.65 2.65 0 0 0 .69-.55 2 2 0 0 0 .48-1.75A8.65 8.65 0 0 0 75 91.55a8.63 8.63 0 0 0-.83 4.1 2 2 0 0 0 1.09 1.45 2.68 2.68 0 0 0 .88.26z" id="_Grupo_191" data-name="&amp;lt;Grupo&amp;gt;"/><path class="cls-3" d="M76.14 97.36a2.65 2.65 0 0 0 .69-.55 2 2 0 0 0 .48-1.75A8.65 8.65 0 0 0 75 91.55z" id="_Grupo_192" data-name="&amp;lt;Grupo&amp;gt;"/><path class="cls-6" d="M69.85 101.92a3 3 0 0 0 .78-.62 2.21 2.21 0 0 0 .54-2c-.3-1.56-2-3.38-2.56-4-.32.74-1.23 3.06-.94 4.62a2.21 2.21 0 0 0 1.23 1.64 3 3 0 0 0 .95.36z" id="_Grupo_193" data-name="&amp;lt;Grupo&amp;gt;"/><path class="cls-3" d="M69.85 101.92a3 3 0 0 0 .78-.62 2.21 2.21 0 0 0 .54-2c-.3-1.56-2-3.38-2.56-4z" id="_Grupo_194" data-name="&amp;lt;Grupo&amp;gt;"/><path class="cls-6" d="M64.21 106.42a3 3 0 0 0 .78-.62 2.21 2.21 0 0 0 .54-2c-.3-1.56-2-3.38-2.56-4-.32.74-1.23 3.06-.94 4.62a2.21 2.21 0 0 0 1.23 1.64 3 3 0 0 0 .95.36z" id="_Grupo_195" data-name="&amp;lt;Grupo&amp;gt;"/><path class="cls-3" d="M64.21 106.42a3 3 0 0 0 .78-.62 2.21 2.21 0 0 0 .54-2c-.3-1.56-2-3.38-2.56-4z" id="_Grupo_196" data-name="&amp;lt;Grupo&amp;gt;"/><path class="cls-6" d="M82.22 93.28a2.78 2.78 0 0 0 .76-.51 2 2 0 0 0 .66-1.77 9 9 0 0 0-2-3.82 9 9 0 0 0-1.22 4.15 2 2 0 0 0 1 1.59 2.79 2.79 0 0 0 .8.36z" id="_Grupo_197" data-name="&amp;lt;Grupo&amp;gt;"/><path class="cls-3" d="M82.22 93.28a2.78 2.78 0 0 0 .76-.51 2 2 0 0 0 .66-1.77 9 9 0 0 0-2-3.82z" id="_Grupo_198" data-name="&amp;lt;Grupo&amp;gt;"/><path class="cls-6" d="M89.07 89.33a2.65 2.65 0 0 0 .73-.48 2 2 0 0 0 .63-1.68 8.58 8.58 0 0 0-1.93-3.67 8.56 8.56 0 0 0-1.19 4 2 2 0 0 0 .95 1.5 2.66 2.66 0 0 0 .81.33z" id="_Grupo_199" data-name="&amp;lt;Grupo&amp;gt;"/><path class="cls-3" d="M89.07 89.33a2.65 2.65 0 0 0 .73-.48 2 2 0 0 0 .63-1.68 8.58 8.58 0 0 0-1.93-3.67z" id="_Grupo_200" data-name="&amp;lt;Grupo&amp;gt;"/><path class="cls-6" d="M103.47 84.73a2.48 2.48 0 0 0 .73-.41 1.85 1.85 0 0 0 .72-1.55 8.15 8.15 0 0 0-1.57-3.61 8.13 8.13 0 0 0-1.4 3.68 1.85 1.85 0 0 0 .79 1.51 2.53 2.53 0 0 0 .73.38z" id="_Grupo_201" data-name="&amp;lt;Grupo&amp;gt;"/><path class="cls-3" d="M103.47 84.73a2.48 2.48 0 0 0 .73-.41 1.85 1.85 0 0 0 .72-1.55 8.15 8.15 0 0 0-1.57-3.61z" id="_Grupo_202" data-name="&amp;lt;Grupo&amp;gt;"/><path class="cls-6" d="M96.64 86.28a2.49 2.49 0 0 0 .73-.41 1.85 1.85 0 0 0 .72-1.55 8.14 8.14 0 0 0-1.57-3.61 8.12 8.12 0 0 0-1.4 3.68 1.85 1.85 0 0 0 .79 1.51 2.53 2.53 0 0 0 .73.38z" id="_Grupo_203" data-name="&amp;lt;Grupo&amp;gt;"/><path class="cls-3" d="M96.64 86.28a2.49 2.49 0 0 0 .73-.41 1.85 1.85 0 0 0 .72-1.55 8.14 8.14 0 0 0-1.57-3.61z" id="_Grupo_204" data-name="&amp;lt;Grupo&amp;gt;"/><path class="cls-6" d="M88.42 98.92a2.75 2.75 0 0 0 .75-.52 2 2 0 0 0 .62-1.76 8.93 8.93 0 0 0-2.08-3.78A8.91 8.91 0 0 0 86.55 97a2 2 0 0 0 1 1.58 2.78 2.78 0 0 0 .87.34z" id="_Grupo_205" data-name="&amp;lt;Grupo&amp;gt;"/><path class="cls-3" d="M88.42 98.92a2.75 2.75 0 0 0 .75-.52 2 2 0 0 0 .62-1.76 8.93 8.93 0 0 0-2.08-3.78z" id="_Grupo_206" data-name="&amp;lt;Grupo&amp;gt;"/><path class="cls-6" d="M82.18 102.63a3 3 0 0 0 .82-.56 2.21 2.21 0 0 0 .68-1.93c-.18-1.58-1.75-3.52-2.28-4.13-.37.72-1.45 3-1.26 4.54a2.21 2.21 0 0 0 1.11 1.72 3 3 0 0 0 .93.36z" id="_Grupo_207" data-name="&amp;lt;Grupo&amp;gt;"/><path class="cls-3" d="M82.18 102.63a3 3 0 0 0 .82-.56 2.21 2.21 0 0 0 .68-1.93c-.18-1.58-1.75-3.52-2.28-4.13z" id="_Grupo_208" data-name="&amp;lt;Grupo&amp;gt;"/><path class="cls-6" d="M76 107a3 3 0 0 0 .82-.57 2.21 2.21 0 0 0 .68-1.93c-.18-1.58-1.75-3.52-2.28-4.13-.37.72-1.45 3-1.26 4.54a2.21 2.21 0 0 0 1.11 1.72 3 3 0 0 0 .93.37z" id="_Grupo_209" data-name="&amp;lt;Grupo&amp;gt;"/><path class="cls-3" d="M76 107a3 3 0 0 0 .82-.57 2.21 2.21 0 0 0 .68-1.93c-.18-1.58-1.75-3.52-2.28-4.13z" id="_Grupo_210" data-name="&amp;lt;Grupo&amp;gt;"/><path class="cls-6" d="M95.73 95.35a2.76 2.76 0 0 0 .8-.45 2 2 0 0 0 .78-1.71 9 9 0 0 0-1.76-4A9 9 0 0 0 94 93.28a2 2 0 0 0 .88 1.66 2.81 2.81 0 0 0 .85.41z" id="_Grupo_211" data-name="&amp;lt;Grupo&amp;gt;"/><path class="cls-3" d="M95.73 95.35a2.76 2.76 0 0 0 .8-.45 2 2 0 0 0 .78-1.71 9 9 0 0 0-1.76-4z" id="_Grupo_212" data-name="&amp;lt;Grupo&amp;gt;"/><path class="cls-6" d="M110.51 90.07a2.39 2.39 0 0 0 .7-.39 1.78 1.78 0 0 0 .69-1.5 7.88 7.88 0 0 0-1.52-3.49 7.86 7.86 0 0 0-1.38 3.56 1.79 1.79 0 0 0 .76 1.46 2.45 2.45 0 0 0 .75.36z" id="_Grupo_213" data-name="&amp;lt;Grupo&amp;gt;"/><path class="cls-3" d="M110.51 90.07a2.39 2.39 0 0 0 .7-.39 1.78 1.78 0 0 0 .69-1.5 7.88 7.88 0 0 0-1.52-3.49z" id="_Grupo_214" data-name="&amp;lt;Grupo&amp;gt;"/><path class="cls-6" d="M103 91.91a2.41 2.41 0 0 0 .7-.39 1.78 1.78 0 0 0 .69-1.5 7.87 7.87 0 0 0-1.52-3.49 7.86 7.86 0 0 0-1.36 3.55 1.79 1.79 0 0 0 .76 1.46 2.45 2.45 0 0 0 .73.37z" id="_Grupo_215" data-name="&amp;lt;Grupo&amp;gt;"/><path class="cls-3" d="M103 91.91a2.41 2.41 0 0 0 .7-.39 1.78 1.78 0 0 0 .69-1.5 7.87 7.87 0 0 0-1.52-3.49z" id="_Grupo_216" data-name="&amp;lt;Grupo&amp;gt;"/><path class="cls-6" d="M95 103.45a2.83 2.83 0 0 0 .77-.53 2.08 2.08 0 0 0 .64-1.81c-.17-1.48-1.64-3.3-2.14-3.88-.35.67-1.36 2.79-1.19 4.27a2.08 2.08 0 0 0 1 1.61 2.83 2.83 0 0 0 .92.34z" id="_Grupo_217" data-name="&amp;lt;Grupo&amp;gt;"/><path class="cls-3" d="M95 103.45a2.83 2.83 0 0 0 .77-.53 2.08 2.08 0 0 0 .64-1.81c-.17-1.48-1.64-3.3-2.14-3.88z" id="_Grupo_218" data-name="&amp;lt;Grupo&amp;gt;"/><path class="cls-6" d="M88.68 107.41a3 3 0 0 0 .82-.56 2.21 2.21 0 0 0 .68-1.93c-.18-1.58-1.75-3.52-2.28-4.13-.37.72-1.45 3-1.27 4.54a2.21 2.21 0 0 0 1.11 1.72 3 3 0 0 0 .94.36z" id="_Grupo_219" data-name="&amp;lt;Grupo&amp;gt;"/><path class="cls-3" d="M88.68 107.41a3 3 0 0 0 .82-.56 2.21 2.21 0 0 0 .68-1.93c-.18-1.58-1.75-3.52-2.28-4.13z" id="_Grupo_220" data-name="&amp;lt;Grupo&amp;gt;"/><path class="cls-6" d="M101.45 99.42a2.7 2.7 0 0 0 .78-.44 2 2 0 0 0 .76-1.67 8.72 8.72 0 0 0-1.71-3.86 8.72 8.72 0 0 0-1.48 4 2 2 0 0 0 .86 1.62 2.74 2.74 0 0 0 .79.35z" id="_Grupo_221" data-name="&amp;lt;Grupo&amp;gt;"/><path class="cls-3" d="M101.45 99.42a2.7 2.7 0 0 0 .78-.44 2 2 0 0 0 .76-1.67 8.72 8.72 0 0 0-1.71-3.86z" id="_Grupo_222" data-name="&amp;lt;Grupo&amp;gt;"/><path class="cls-6" d="M115.29 93.86a2.4 2.4 0 0 0 .7-.39 1.78 1.78 0 0 0 .69-1.5 7.86 7.86 0 0 0-1.52-3.49 7.86 7.86 0 0 0-1.35 3.52 1.79 1.79 0 0 0 .76 1.46 2.46 2.46 0 0 0 .72.4z" id="_Grupo_223" data-name="&amp;lt;Grupo&amp;gt;"/><path class="cls-3" d="M115.29 93.86a2.4 2.4 0 0 0 .7-.39 1.78 1.78 0 0 0 .69-1.5 7.86 7.86 0 0 0-1.52-3.49z" id="_Grupo_224" data-name="&amp;lt;Grupo&amp;gt;"/><path class="cls-6" d="M107.76 96.44a2.39 2.39 0 0 0 .7-.39 1.78 1.78 0 0 0 .69-1.5 7.88 7.88 0 0 0-1.52-3.49 7.86 7.86 0 0 0-1.36 3.55 1.79 1.79 0 0 0 .76 1.46 2.45 2.45 0 0 0 .73.37z" id="_Grupo_225" data-name="&amp;lt;Grupo&amp;gt;"/><path class="cls-3" d="M107.76 96.44a2.39 2.39 0 0 0 .7-.39 1.78 1.78 0 0 0 .69-1.5 7.88 7.88 0 0 0-1.52-3.49z" id="_Grupo_226" data-name="&amp;lt;Grupo&amp;gt;"/><path class="cls-6" d="M100.08 107.48a3 3 0 0 0 .82-.56 2.21 2.21 0 0 0 .68-1.93c-.18-1.58-1.75-3.52-2.28-4.13-.37.72-1.45 3-1.26 4.54a2.21 2.21 0 0 0 1.11 1.72 3 3 0 0 0 .93.36z" id="_Grupo_227" data-name="&amp;lt;Grupo&amp;gt;"/><path class="cls-3" d="M100.08 107.48a3 3 0 0 0 .82-.56 2.21 2.21 0 0 0 .68-1.93c-.18-1.58-1.75-3.52-2.28-4.13z" id="_Grupo_228" data-name="&amp;lt;Grupo&amp;gt;"/><path class="cls-6" d="M106.22 103.84a2.75 2.75 0 0 0 .79-.45 2 2 0 0 0 .77-1.7 8.91 8.91 0 0 0-1.78-3.94 8.91 8.91 0 0 0-1.51 4 2 2 0 0 0 .87 1.65 2.77 2.77 0 0 0 .86.44z" id="_Grupo_229" data-name="&amp;lt;Grupo&amp;gt;"/><path class="cls-3" d="M106.22 103.84a2.75 2.75 0 0 0 .79-.45 2 2 0 0 0 .77-1.7 8.91 8.91 0 0 0-1.78-3.94z" id="_Grupo_230" data-name="&amp;lt;Grupo&amp;gt;"/><path class="cls-6" d="M120.19 97.43a2.4 2.4 0 0 0 .7-.39 1.78 1.78 0 0 0 .69-1.5 7.87 7.87 0 0 0-1.52-3.54 7.86 7.86 0 0 0-1.36 3.55 1.79 1.79 0 0 0 .76 1.46 2.45 2.45 0 0 0 .73.42z" id="_Grupo_231" data-name="&amp;lt;Grupo&amp;gt;"/><path class="cls-3" d="M120.19 97.43a2.4 2.4 0 0 0 .7-.39 1.78 1.78 0 0 0 .69-1.5 7.87 7.87 0 0 0-1.52-3.54z" id="_Grupo_232" data-name="&amp;lt;Grupo&amp;gt;"/><path class="cls-6" d="M113 100a2.4 2.4 0 0 0 .7-.4 1.78 1.78 0 0 0 .68-1.5 7.87 7.87 0 0 0-1.56-3.47 7.86 7.86 0 0 0-1.31 3.57 1.79 1.79 0 0 0 .78 1.45 2.44 2.44 0 0 0 .71.35z" id="_Grupo_233" data-name="&amp;lt;Grupo&amp;gt;"/><path class="cls-3" d="M113 100a2.4 2.4 0 0 0 .7-.4 1.78 1.78 0 0 0 .68-1.5 7.87 7.87 0 0 0-1.56-3.47z" id="_Grupo_234" data-name="&amp;lt;Grupo&amp;gt;"/><path class="cls-6" d="M111.6 107.8a2.87 2.87 0 0 0 .82-.47 2.1 2.1 0 0 0 .8-1.77c0-1.5-1.37-3.47-1.82-4.09-.41.65-1.61 2.69-1.57 4.19a2.1 2.1 0 0 0 .91 1.72 2.88 2.88 0 0 0 .86.42z" id="_Grupo_235" data-name="&amp;lt;Grupo&amp;gt;"/><path class="cls-3" d="M111.6 107.8a2.87 2.87 0 0 0 .82-.47 2.1 2.1 0 0 0 .8-1.77c0-1.5-1.37-3.47-1.82-4.09z" id="_Grupo_236" data-name="&amp;lt;Grupo&amp;gt;"/><path class="cls-6" d="M117.72 104a2.61 2.61 0 0 0 .75-.42 1.91 1.91 0 0 0 .74-1.6 8.4 8.4 0 0 0-1.63-3.72 8.38 8.38 0 0 0-1.44 3.79 1.91 1.91 0 0 0 .82 1.56 2.61 2.61 0 0 0 .76.39z" id="_Grupo_237" data-name="&amp;lt;Grupo&amp;gt;"/><path class="cls-3" d="M117.72 104a2.61 2.61 0 0 0 .75-.42 1.91 1.91 0 0 0 .74-1.6 8.4 8.4 0 0 0-1.63-3.72z" id="_Grupo_238" data-name="&amp;lt;Grupo&amp;gt;"/><path class="cls-6" d="M124.66 101.33a2.38 2.38 0 0 0 .7-.39 1.78 1.78 0 0 0 .69-1.5 7.87 7.87 0 0 0-1.51-3.44 7.86 7.86 0 0 0-1.36 3.55 1.79 1.79 0 0 0 .76 1.46 2.42 2.42 0 0 0 .72.32z" id="_Grupo_239" data-name="&amp;lt;Grupo&amp;gt;"/><path class="cls-3" d="M124.66 101.33a2.38 2.38 0 0 0 .7-.39 1.78 1.78 0 0 0 .69-1.5 7.87 7.87 0 0 0-1.51-3.44z" id="_Grupo_240" data-name="&amp;lt;Grupo&amp;gt;"/><path class="cls-6" d="M122.53 107.51a2.62 2.62 0 0 0 .75-.42 1.91 1.91 0 0 0 .74-1.6 8.41 8.41 0 0 0-1.63-3.72 8.4 8.4 0 0 0-1.44 3.8 1.91 1.91 0 0 0 .82 1.56 2.63 2.63 0 0 0 .76.38z" id="_Grupo_241" data-name="&amp;lt;Grupo&amp;gt;"/><path class="cls-3" d="M122.53 107.51a2.62 2.62 0 0 0 .75-.42 1.91 1.91 0 0 0 .74-1.6 8.41 8.41 0 0 0-1.63-3.72z" id="_Grupo_242" data-name="&amp;lt;Grupo&amp;gt;"/><path class="cls-6" d="M129 105.83a2.41 2.41 0 0 0 .7-.39 1.78 1.78 0 0 0 .69-1.5 7.87 7.87 0 0 0-1.52-3.49 7.86 7.86 0 0 0-1.36 3.55 1.79 1.79 0 0 0 .76 1.46 2.46 2.46 0 0 0 .73.37z" id="_Grupo_243" data-name="&amp;lt;Grupo&amp;gt;"/><path class="cls-3" d="M129 105.83a2.41 2.41 0 0 0 .7-.39 1.78 1.78 0 0 0 .69-1.5 7.87 7.87 0 0 0-1.52-3.49z" id="_Grupo_244" data-name="&amp;lt;Grupo&amp;gt;"/><path class="cls-6" d="M35.91 96.76a3 3 0 0 0 .76-.65 2.22 2.22 0 0 0 .48-2c-.35-1.55-2.11-3.32-2.69-3.87-.3.75-1.13 3.1-.79 4.65a2.21 2.21 0 0 0 1.28 1.6 3 3 0 0 0 .96.27z" id="_Grupo_245" data-name="&amp;lt;Grupo&amp;gt;"/><path class="cls-3" d="M35.91 96.76a3 3 0 0 0 .76-.65 2.22 2.22 0 0 0 .48-2c-.35-1.55-2.11-3.32-2.69-3.87z" id="_Grupo_246" data-name="&amp;lt;Grupo&amp;gt;"/><path class="cls-6" d="M28.7 100.94a3 3 0 0 0 .76-.65 2.22 2.22 0 0 0 .48-2c-.35-1.55-2.11-3.32-2.69-3.87-.3.75-1.13 3.1-.79 4.65a2.21 2.21 0 0 0 1.28 1.6 3 3 0 0 0 .96.27z" id="_Grupo_247" data-name="&amp;lt;Grupo&amp;gt;"/><path class="cls-3" d="M28.7 100.94a3 3 0 0 0 .76-.65 2.22 2.22 0 0 0 .48-2c-.35-1.55-2.11-3.32-2.69-3.87z" id="_Grupo_248" data-name="&amp;lt;Grupo&amp;gt;"/><path class="cls-6" d="M41.79 91.9a3 3 0 0 0 .81-.58 2.21 2.21 0 0 0 .65-1.94c-.21-1.57-1.81-3.49-2.35-4.09-.36.72-1.4 3-1.19 4.56a2.22 2.22 0 0 0 1.14 1.7 3 3 0 0 0 .94.35z" id="_Grupo_249" data-name="&amp;lt;Grupo&amp;gt;"/><path class="cls-3" d="M41.79 91.9a3 3 0 0 0 .81-.58 2.21 2.21 0 0 0 .65-1.94c-.21-1.57-1.81-3.49-2.35-4.09z" id="_Grupo_250" data-name="&amp;lt;Grupo&amp;gt;"/><path class="cls-6" d="M48.45 87.87a2.88 2.88 0 0 0 .78-.55 2.12 2.12 0 0 0 .63-1.85c-.19-1.5-1.72-3.34-2.23-3.92-.35.69-1.35 2.86-1.16 4.36a2.12 2.12 0 0 0 1.08 1.63 2.9 2.9 0 0 0 .9.33z" id="_Grupo_251" data-name="&amp;lt;Grupo&amp;gt;"/><path class="cls-3" d="M48.45 87.87a2.88 2.88 0 0 0 .78-.55 2.12 2.12 0 0 0 .63-1.85c-.19-1.5-1.72-3.34-2.23-3.92z" id="_Grupo_252" data-name="&amp;lt;Grupo&amp;gt;"/><path class="cls-6" d="M54.77 84.53a2.83 2.83 0 0 0 .8-.48 2.08 2.08 0 0 0 .75-1.77c-.08-1.49-1.45-3.4-1.9-4-.42.64-1.53 2.72-1.42 4.19a2.08 2.08 0 0 0 .94 1.68 2.85 2.85 0 0 0 .83.38z" id="_Grupo_253" data-name="&amp;lt;Grupo&amp;gt;"/><path class="cls-3" d="M54.77 84.53a2.83 2.83 0 0 0 .8-.48 2.08 2.08 0 0 0 .75-1.77c-.08-1.49-1.45-3.4-1.9-4z" id="_Grupo_254" data-name="&amp;lt;Grupo&amp;gt;"/><path class="cls-6" d="M74.2 76.82a2.4 2.4 0 0 0 .7-.39 1.78 1.78 0 0 0 .69-1.5 7.87 7.87 0 0 0-1.52-3.49A7.86 7.86 0 0 0 72.72 75a1.79 1.79 0 0 0 .76 1.46 2.45 2.45 0 0 0 .72.36z" id="_Grupo_255" data-name="&amp;lt;Grupo&amp;gt;"/><path class="cls-3" d="M74.2 76.82a2.4 2.4 0 0 0 .7-.39 1.78 1.78 0 0 0 .69-1.5 7.87 7.87 0 0 0-1.52-3.49z" id="_Grupo_256" data-name="&amp;lt;Grupo&amp;gt;"/><path class="cls-6" d="M80.32 74.76a2.22 2.22 0 0 0 .65-.36 1.65 1.65 0 0 0 .64-1.4 7.29 7.29 0 0 0-1.41-3.23 7.27 7.27 0 0 0-1.25 3.29 1.65 1.65 0 0 0 .7 1.35 2.26 2.26 0 0 0 .67.35z" id="_Grupo_257" data-name="&amp;lt;Grupo&amp;gt;"/><path class="cls-3" d="M80.32 74.76a2.22 2.22 0 0 0 .65-.36 1.65 1.65 0 0 0 .64-1.4 7.29 7.29 0 0 0-1.41-3.23z" id="_Grupo_258" data-name="&amp;lt;Grupo&amp;gt;"/><path class="cls-6" d="M67.75 78.55a2.39 2.39 0 0 0 .7-.39 1.78 1.78 0 0 0 .69-1.5 7.87 7.87 0 0 0-1.52-3.49 7.86 7.86 0 0 0-1.36 3.55 1.79 1.79 0 0 0 .74 1.47 2.46 2.46 0 0 0 .75.36z" id="_Grupo_259" data-name="&amp;lt;Grupo&amp;gt;"/><path class="cls-3" d="M67.75 78.55a2.39 2.39 0 0 0 .7-.39 1.78 1.78 0 0 0 .69-1.5 7.87 7.87 0 0 0-1.52-3.49z" id="_Grupo_260" data-name="&amp;lt;Grupo&amp;gt;"/><path class="cls-6" d="M61 81.24a2.39 2.39 0 0 0 .7-.39 1.78 1.78 0 0 0 .69-1.5 7.87 7.87 0 0 0-1.52-3.49 7.86 7.86 0 0 0-1.36 3.55 1.79 1.79 0 0 0 .76 1.46 2.45 2.45 0 0 0 .73.37z" id="_Grupo_261" data-name="&amp;lt;Grupo&amp;gt;"/><path class="cls-3" d="M61 81.24a2.39 2.39 0 0 0 .7-.39 1.78 1.78 0 0 0 .69-1.5 7.87 7.87 0 0 0-1.52-3.49z" id="_Grupo_262" data-name="&amp;lt;Grupo&amp;gt;"/><path class="cls-6" d="M25.07 93.75a3 3 0 0 0 .76-.65 2.21 2.21 0 0 0 .48-2c-.35-1.55-2.1-3.32-2.69-3.87-.3.75-1.13 3.1-.79 4.65a2.21 2.21 0 0 0 1.28 1.6 3 3 0 0 0 .96.27z" id="_Grupo_263" data-name="&amp;lt;Grupo&amp;gt;"/><path class="cls-3" d="M25.07 93.75a3 3 0 0 0 .76-.65 2.21 2.21 0 0 0 .48-2c-.35-1.55-2.1-3.32-2.69-3.87z" id="_Grupo_264" data-name="&amp;lt;Grupo&amp;gt;"/><path class="cls-6" d="M17.87 97.93a3 3 0 0 0 .76-.65 2.21 2.21 0 0 0 .48-2c-.35-1.53-2.11-3.28-2.7-3.86-.29.75-1.13 3.1-.79 4.65a2.21 2.21 0 0 0 1.28 1.6 3 3 0 0 0 .97.26z" id="_Grupo_265" data-name="&amp;lt;Grupo&amp;gt;"/><path class="cls-3" d="M17.87 97.93a3 3 0 0 0 .76-.65 2.21 2.21 0 0 0 .48-2c-.35-1.53-2.11-3.28-2.7-3.86z" id="_Grupo_266" data-name="&amp;lt;Grupo&amp;gt;"/><path class="cls-6" d="M31 88.89a3 3 0 0 0 .81-.58 2.22 2.22 0 0 0 .65-1.94c-.21-1.57-1.81-3.49-2.35-4.09-.36.72-1.4 3-1.19 4.56A2.21 2.21 0 0 0 30 88.55a3 3 0 0 0 1 .34z" id="_Grupo_267" data-name="&amp;lt;Grupo&amp;gt;"/><path class="cls-3" d="M31 88.89a3 3 0 0 0 .81-.58 2.22 2.22 0 0 0 .65-1.94c-.21-1.57-1.81-3.49-2.35-4.09z" id="_Grupo_268" data-name="&amp;lt;Grupo&amp;gt;"/><path class="cls-6" d="M37.62 84.86a2.91 2.91 0 0 0 .78-.55 2.12 2.12 0 0 0 .6-1.86c-.2-1.51-1.72-3.35-2.23-3.93-.35.69-1.35 2.86-1.16 4.37a2.12 2.12 0 0 0 1.08 1.63 2.89 2.89 0 0 0 .93.34z" id="_Grupo_269" data-name="&amp;lt;Grupo&amp;gt;"/><path class="cls-3" d="M37.62 84.86a2.91 2.91 0 0 0 .78-.55 2.12 2.12 0 0 0 .6-1.86c-.2-1.51-1.72-3.35-2.23-3.93z" id="_Grupo_270" data-name="&amp;lt;Grupo&amp;gt;"/><path class="cls-6" d="M44.14 81.61a2.81 2.81 0 0 0 .8-.48 2.08 2.08 0 0 0 .75-1.77c-.08-1.49-1.45-3.4-1.9-4-.39.65-1.53 2.71-1.45 4.19a2.08 2.08 0 0 0 .94 1.68 2.84 2.84 0 0 0 .86.38z" id="_Grupo_271" data-name="&amp;lt;Grupo&amp;gt;"/><path class="cls-3" d="M44.14 81.61a2.81 2.81 0 0 0 .8-.48 2.08 2.08 0 0 0 .75-1.77c-.08-1.49-1.45-3.4-1.9-4z" id="_Grupo_272" data-name="&amp;lt;Grupo&amp;gt;"/><path class="cls-6" d="M63.25 73.9a2.41 2.41 0 0 0 .7-.39 1.78 1.78 0 0 0 .69-1.5 7.87 7.87 0 0 0-1.52-3.49 7.86 7.86 0 0 0-1.36 3.55 1.79 1.79 0 0 0 .76 1.46 2.45 2.45 0 0 0 .73.37z" id="_Grupo_273" data-name="&amp;lt;Grupo&amp;gt;"/><path class="cls-3" d="M63.25 73.9a2.41 2.41 0 0 0 .7-.39 1.78 1.78 0 0 0 .69-1.5 7.87 7.87 0 0 0-1.52-3.49z" id="_Grupo_274" data-name="&amp;lt;Grupo&amp;gt;"/><path class="cls-6" d="M69.54 72.27a2.23 2.23 0 0 0 .65-.36 1.65 1.65 0 0 0 .64-1.38 7.27 7.27 0 0 0-1.41-3.22 7.28 7.28 0 0 0-1.25 3.29 1.65 1.65 0 0 0 .7 1.35 2.26 2.26 0 0 0 .67.32z" id="_Grupo_275" data-name="&amp;lt;Grupo&amp;gt;"/><path class="cls-3" d="M69.54 72.27a2.23 2.23 0 0 0 .65-.36 1.65 1.65 0 0 0 .64-1.38 7.27 7.27 0 0 0-1.41-3.22z" id="_Grupo_276" data-name="&amp;lt;Grupo&amp;gt;"/><path class="cls-6" d="M56.67 76a2.39 2.39 0 0 0 .7-.39 1.78 1.78 0 0 0 .69-1.5 7.87 7.87 0 0 0-1.52-3.49 7.86 7.86 0 0 0-1.36 3.55 1.79 1.79 0 0 0 .76 1.46 2.45 2.45 0 0 0 .73.37z" id="_Grupo_277" data-name="&amp;lt;Grupo&amp;gt;"/><path class="cls-3" d="M56.67 76a2.39 2.39 0 0 0 .7-.39 1.78 1.78 0 0 0 .69-1.5 7.87 7.87 0 0 0-1.52-3.49z" id="_Grupo_278" data-name="&amp;lt;Grupo&amp;gt;"/><path class="cls-6" d="M50.07 78.48a2.39 2.39 0 0 0 .7-.39 1.79 1.79 0 0 0 .69-1.5 7.87 7.87 0 0 0-1.52-3.49 7.86 7.86 0 0 0-1.36 3.55 1.79 1.79 0 0 0 .76 1.46 2.45 2.45 0 0 0 .73.37z" id="_Grupo_279" data-name="&amp;lt;Grupo&amp;gt;"/><path class="cls-3" d="M50.07 78.48a2.39 2.39 0 0 0 .7-.39 1.79 1.79 0 0 0 .69-1.5 7.87 7.87 0 0 0-1.52-3.49z" id="_Grupo_280" data-name="&amp;lt;Grupo&amp;gt;"/><path class="cls-6" d="M103 4.78l-4.88 12.5-3.94-1.55a4.06 4.06 0 0 0 2.44 5.37l22.19 9.49 7-17.81z"/><path class="cls-6" d="M125.82 12.78l-22.78-8-6.42 16.31 8.85 3.79-16 3.37.56 3.27 23.69-3.11 5.09 2.18 7.01-17.81z"/><path class="cls-6" d="M105.41 5.37a8.45 8.45 0 0 0-.58 2.76l3 1a5.54 5.54 0 1 1 9.34 3.28l3 1a8.47 8.47 0 1 0-14.7-8.13z"/><path class="cls-1" d="M89.74 29.84l.29 1.68 23.69-3.11-4.63-1.98-19.35 3.41z"/><path class="cls-6" d="M99.91 21c.4.16.64.51.53.78L98 27.86c-.11.27-.52.36-.92.2-.4-.16-.64-.51-.53-.78l2.45-6.1c.11-.27.52-.36.92-.2z"/><path class="cls-1" transform="rotate(-68.49 122.098 21.593)" d="M111.45 20.5h21.28v2.2h-21.28z"/><path class="cls-6" d="M100.32 13.74l-2 3.62-4.14-1.63a4.06 4.06 0 0 0 2.44 5.37c3 1.18 4.53-2.28 4.53-2.28z"/><path class="cls-1" d="M99.87 12.79l-1.75 4.48-3.94-1.55a4.06 4.06 0 0 0 2.44 5.37l22.19 9.49 3.49-8.91z"/><path class="cls-6" d="M84.66 25.54l5.58 3.13.31 2.47-3.71 5.5-2.18-11.1z"/><path class="cls-1" d="M85.65 30.6l1.19 6.04 3.71-5.5-.17-1.42-4.73.88z"/><path class="cls-5" d="M73.27 45.24A1.2 1.2 0 0 0 74 45a1.7 1.7 0 0 0 .7-1.42 7.52 7.52 0 0 0-1.37-3.37 7.51 7.51 0 0 0-1.38 3.37 1.71 1.71 0 0 0 .64 1.42 1.2 1.2 0 0 0 .68.24z" id="_Grupo_281" data-name="&amp;lt;Grupo&amp;gt;"/><path class="cls-5" d="M84.37 48.3a1.2 1.2 0 0 0 .68-.21 1.71 1.71 0 0 0 .7-1.42 7.52 7.52 0 0 0-1.37-3.37A7.51 7.51 0 0 0 83 46.67a1.71 1.71 0 0 0 .69 1.42 1.2 1.2 0 0 0 .68.21z" id="_Grupo_282" data-name="&amp;lt;Grupo&amp;gt;"/><path class="cls-1" d="M85.25 58.39a1.2 1.2 0 0 0 .68-.21 1.71 1.71 0 0 0 .7-1.42 7.52 7.52 0 0 0-1.37-3.37 7.52 7.52 0 0 0-1.38 3.37 1.71 1.71 0 0 0 .69 1.42 1.2 1.2 0 0 0 .68.21z" id="_Grupo_283" data-name="&amp;lt;Grupo&amp;gt;"/><path class="cls-1" d="M80.91 41.57a1.73 1.73 0 0 0 1-.31 2.46 2.46 0 0 0 1-2c0-1.77-1.48-4.12-2-4.87-.5.75-2 3.1-2 4.87a2.47 2.47 0 0 0 1 2 1.73 1.73 0 0 0 1 .31z" id="_Grupo_284" data-name="&amp;lt;Grupo&amp;gt;"/><path class="cls-5" d="M78.39 52.6a1.6 1.6 0 0 0 .91-.28 2.27 2.27 0 0 0 .93-1.89c0-1.63-1.37-3.8-1.83-4.49-.46.69-1.83 2.86-1.83 4.48a2.28 2.28 0 0 0 .92 1.89 1.6 1.6 0 0 0 .9.29z" id="_Grupo_285" data-name="&amp;lt;Grupo&amp;gt;"/></g></g></svg>