<svg xmlns="http://www.w3.org/2000/svg" viewBox="0 0 735.68 373.77"><defs><style>.cls-1{fill:#fff;}.cls-2{fill:#7abc39;}.cls-3,.cls-5,.cls-6,.cls-8{fill:#5ca126;}.cls-3{opacity:0.4;}.cls-4,.cls-7{fill:#b6e436;}.cls-6{opacity:0.6;}.cls-7,.cls-8{opacity:0.5;}</style></defs><title>Recurso 14</title><g id="Capa_2" data-name="Capa 2"><g id="Capa_1-2" data-name="Capa 1"><path class="cls-1" d="M662.06,157.48H650.33v76.28a5.87,5.87,0,0,0,11.74,0Z"/><rect class="cls-2" x="646.52" y="152.35" width="19.34" height="5.44" rx="1.42" ry="1.42"/><path class="cls-2" d="M662.06,157.48H650.33v76.28a5.87,5.87,0,0,0,11.74,0Z"/><path class="cls-3" d="M650.45,234.94c0,.15.09.28.13.42a6,6,0,0,0,.21.68c.06.15.16.29.23.43a5.87,5.87,0,0,0,.31.57c.09.13.21.25.31.38a5.85,5.85,0,0,0,.41.49c.12.12.26.21.39.32a5.82,5.82,0,0,0,.48.4c.15.1.31.17.47.25a5.73,5.73,0,0,0,.53.29c.16.07.34.1.51.16a5.82,5.82,0,0,0,.59.18c.17,0,.36,0,.54.05a5.62,5.62,0,0,0,.65.06s0-83.66,0-83.66h-9.71v.51a1.32,1.32,0,0,0,1.32,1.32h2.49v76A5.91,5.91,0,0,0,650.45,234.94Z"/><path class="cls-4" d="M656.19,237.15a3.4,3.4,0,0,1-3.39-3.39V187.93h6.79v45.82A3.4,3.4,0,0,1,656.19,237.15Z"/><path class="cls-2" d="M656.23,237.15V187.93H652.8v45.82A3.4,3.4,0,0,0,656.23,237.15Z"/><rect class="cls-2" x="615.47" y="19.46" width="4.99" height="289.57"/><rect class="cls-2" x="417.18" y="55.55" width="244.88" height="4.99"/><circle class="cls-4" cx="617.96" cy="58.04" r="10.69"/><circle class="cls-5" cx="617.96" cy="58.04" r="3.88"/><path class="cls-2" d="M461.68,115.73,441.39,67.22V47.7h3.35a1.09,1.09,0,0,0,1.09-1.09V42.44a1.09,1.09,0,0,0-1.09-1.09H424.32a1.09,1.09,0,0,0-1.09,1.09V46.6a1.09,1.09,0,0,0,1.09,1.09h3.35V67.22l-20.29,48.51c-1.67,4,1.62,8.25,6.38,8.25H455.3C460.05,124,463.35,119.72,461.68,115.73Z"/><path class="cls-4" d="M422.75,89.25,411,117.81a1.5,1.5,0,0,0,1.37,2.08c8.1.08,36.14.05,44.25,0a1.5,1.5,0,0,0,1.38-2.08L446.29,89.25Z"/><path class="cls-3" d="M423.22,45.9v.7a1.09,1.09,0,0,0,1.09,1.09h3.35V67.22l-20.29,48.51c-1.67,4,1.62,8.25,6.38,8.25h21V45.9Z"/><path class="cls-3" d="M434.77,89.25h-12L411,117.81a1.5,1.5,0,0,0,1.37,2.08c4.09,0,13.26.05,22.38,0Z"/><circle class="cls-3" cx="442.33" cy="96.56" r="3.74"/><circle class="cls-3" cx="439.23" cy="107.59" r="2.71"/><rect class="cls-4" x="416.94" y="55.55" width="35.18" height="4.99"/><rect class="cls-2" x="564.05" y="174.02" width="93.82" height="4.99"/><circle class="cls-4" cx="617.96" cy="176.51" r="10.69"/><circle class="cls-5" cx="617.96" cy="176.51" r="3.88"/><rect class="cls-4" x="640.55" y="174.02" width="35.18" height="4.99"/><path class="cls-2" d="M141.5,152.8h-4.14V59.38a21.19,21.19,0,1,1,42.38,0V98.87a17.07,17.07,0,0,0,17.05,17.05h.89a17.07,17.07,0,0,0,17.05-17.05V59.38a21.21,21.21,0,0,1,21.19-21.19h26A15.63,15.63,0,0,1,277.57,53.8V80.46h-4.14V53.8A11.49,11.49,0,0,0,262,42.33h-26a17.07,17.07,0,0,0-17.05,17.05V98.87a21.21,21.21,0,0,1-21.19,21.19h-.89A21.21,21.21,0,0,1,175.6,98.87V59.38a17.05,17.05,0,0,0-34.11,0Z"/><path class="cls-2" d="M400.86,266.54h-4.25V207.1a26.06,26.06,0,0,0-52.11,0v25.35h-4.25V207.1a30.31,30.31,0,0,1,60.61,0Z"/><path class="cls-4" d="M307.88,146.75a25.92,25.92,0,0,1,26.05,25.72v59.44h4.25V172.47a30.17,30.17,0,0,0-30.3-30H297.41v4.3Z"/><path class="cls-4" d="M343.41,232.45h-2.07V207.1a29.08,29.08,0,0,1,29.21-28.88v2.07a27,27,0,0,0-27.14,26.81Z"/><path class="cls-2" d="M428.24,270.69H424V211.26a11.57,11.57,0,0,0-23.13,0v12.11h-4.25V211.26a15.82,15.82,0,0,1,31.63,0Z"/><path class="cls-2" d="M455.62,270.69h-4.25V211.26a11.57,11.57,0,0,0-23.13,0v12.11H424V211.26a15.82,15.82,0,0,1,31.63,0Z"/><path class="cls-2" d="M499.1,279.83h-4.25V219.09c0-10.48-8.8-19-19.62-19s-19.62,8.52-19.62,19v19.24h-4.25V219.09c0-12.82,10.71-23.25,23.87-23.25s23.87,10.43,23.87,23.25Z"/><path class="cls-1" d="M404.1,239.15H392.37v55.91a5.87,5.87,0,0,0,11.74,0Z"/><rect class="cls-2" x="388.56" y="234.02" width="19.34" height="5.44" rx="1.42" ry="1.42"/><path class="cls-2" d="M404.1,239.15H392.37v55.91a5.87,5.87,0,0,0,11.74,0Z"/><path class="cls-3" d="M392.49,296.24c0,.15.09.28.13.43a6.25,6.25,0,0,0,.21.68c.06.15.16.29.23.43a6.22,6.22,0,0,0,.31.57c.09.13.21.25.31.38a5.86,5.86,0,0,0,.41.49c.12.12.26.21.39.32a5.77,5.77,0,0,0,.48.4c.15.1.31.17.47.25a5.49,5.49,0,0,0,.53.29c.16.07.34.1.51.16a5.74,5.74,0,0,0,.59.18c.17,0,.36,0,.54.05a5.9,5.9,0,0,0,.65.06s0-63.29,0-63.29h-9.71v.51a1.32,1.32,0,0,0,1.32,1.32h2.49v55.6A5.84,5.84,0,0,0,392.49,296.24Z"/><path class="cls-1" d="M431.54,239.15H419.8v55.91a5.87,5.87,0,0,0,11.74,0Z"/><rect class="cls-2" x="416" y="234.02" width="19.34" height="5.44" rx="1.42" ry="1.42"/><path class="cls-2" d="M431.54,239.15H419.8v55.91a5.87,5.87,0,0,0,11.74,0Z"/><path class="cls-3" d="M419.92,296.24c0,.15.09.28.13.43a6.25,6.25,0,0,0,.21.68c.06.15.16.29.23.43a6.19,6.19,0,0,0,.31.57c.09.13.21.25.31.38a6.25,6.25,0,0,0,.41.49c.12.12.26.21.39.32a5.8,5.8,0,0,0,.48.4c.15.1.31.17.47.25a5.52,5.52,0,0,0,.53.29c.16.07.34.1.51.16a5.7,5.7,0,0,0,.6.18c.17,0,.36,0,.54.05a5.9,5.9,0,0,0,.65.06s0-63.29,0-63.29H416v.51a1.32,1.32,0,0,0,1.32,1.32h2.49v55.6A5.91,5.91,0,0,0,419.92,296.24Z"/><path class="cls-1" d="M459,239.15H447.23v55.91a5.87,5.87,0,1,0,11.74,0Z"/><rect class="cls-2" x="443.43" y="234.02" width="19.34" height="5.44" rx="1.42" ry="1.42"/><path class="cls-2" d="M459,239.15H447.23v55.91a5.87,5.87,0,1,0,11.74,0Z"/><path class="cls-3" d="M447.35,296.24c0,.15.09.28.13.43a6,6,0,0,0,.21.68c.06.15.16.29.23.43a5.56,5.56,0,0,0,.31.57c.09.13.21.25.31.38a5.87,5.87,0,0,0,.41.49c.12.12.26.21.39.32a5.34,5.34,0,0,0,.48.4c.15.1.31.17.46.25a5.41,5.41,0,0,0,.54.29c.16.07.34.1.51.16a5.55,5.55,0,0,0,.6.18c.17,0,.36,0,.54.05a5.9,5.9,0,0,0,.65.06s0-63.29,0-63.29h-9.71v.51a1.32,1.32,0,0,0,1.32,1.32h2.49v55.6A5.91,5.91,0,0,0,447.35,296.24Z"/><rect class="cls-2" x="377.06" y="247.42" width="4.99" height="61.62"/><rect class="cls-2" x="469.29" y="247.42" width="4.99" height="61.62"/><rect class="cls-2" x="80.19" y="47.41" width="4.99" height="261.63"/><rect class="cls-2" x="10.72" y="166.35" width="125.17" height="4.99"/><rect class="cls-4" x="58.09" y="306.34" width="49.19" height="4.99"/><rect class="cls-4" x="94.35" y="306.34" width="69.79" height="4.99"/><rect class="cls-4" x="580.21" y="306.34" width="69.79" height="4.99"/><rect class="cls-4" x="377.06" y="247.42" width="97.22" height="4.99"/><rect class="cls-2" x="164.13" y="306.34" width="419.35" height="4.99"/><path class="cls-4" d="M398.24,298.45a3.4,3.4,0,0,1-3.39-3.39V264.27h6.79v30.79A3.4,3.4,0,0,1,398.24,298.45Z"/><path class="cls-4" d="M425.67,298.45a3.4,3.4,0,0,1-3.39-3.39V264.27h6.79v30.79A3.4,3.4,0,0,1,425.67,298.45Z"/><path class="cls-4" d="M453.1,298.45a3.4,3.4,0,0,1-3.39-3.39V264.27h6.79v30.79A3.4,3.4,0,0,1,453.1,298.45Z"/><circle class="cls-2" cx="139.52" cy="216.16" r="23.47"/><rect class="cls-2" x="133.65" y="157.48" width="11.74" height="45.97"/><rect class="cls-2" x="129.85" y="152.35" width="19.34" height="5.44" rx="1.42" ry="1.42"/><path class="cls-3" d="M129.85,155.55v.92a1.32,1.32,0,0,0,1.32,1.32h2.48v35.68a23.45,23.45,0,0,0,5.69,46.16V155.55Z"/><rect class="cls-2" x="152.96" y="191.31" width="18.38" height="9.31" transform="translate(-91.08 172.05) rotate(-45)"/><path class="cls-2" d="M176.15,191.22,166.89,182a1.13,1.13,0,0,0-1.6,0l-1.45,1.45a1.13,1.13,0,0,0,0,1.6l9.25,9.25a1.13,1.13,0,0,0,1.6,0l1.45-1.45A1.13,1.13,0,0,0,176.15,191.22Z"/><path class="cls-3" d="M163.78,185l1.39,1.39-12.82,12.82,3.19,3.19,14.08-14.08L164.3,183l-.52.52A1,1,0,0,0,163.78,185Z"/><path class="cls-4" d="M120.33,211.71a19.71,19.71,0,1,0,38.39,0Z"/><path class="cls-3" d="M139.34,235.87V211.71h-19a19.66,19.66,0,0,0,19,24.15Z"/><circle class="cls-3" cx="150.76" cy="218.41" r="3.74"/><circle class="cls-3" cx="147.21" cy="225.93" r="2.49"/><path class="cls-2" d="M398.27,298.45V264.27h-3.43v30.79A3.4,3.4,0,0,0,398.27,298.45Z"/><path class="cls-2" d="M425.7,298.45V264.27h-3.43v30.79A3.4,3.4,0,0,0,425.7,298.45Z"/><path class="cls-2" d="M453.13,298.45V264.27h-3.43v30.79A3.4,3.4,0,0,0,453.13,298.45Z"/><circle class="cls-4" cx="82.68" cy="168.85" r="10.69"/><circle class="cls-5" cx="82.68" cy="168.85" r="3.88"/><rect class="cls-4" x="121.93" y="166.35" width="35.18" height="4.99"/><rect class="cls-2" x="56.22" y="88.66" width="236.79" height="4.99"/><circle class="cls-4" cx="82.68" cy="91.15" r="10.69"/><circle class="cls-5" cx="82.68" cy="91.15" r="3.88"/><path class="cls-1" d="M23.46,157.48H11.72v76.28a5.87,5.87,0,0,0,11.74,0Z"/><rect class="cls-2" x="7.92" y="152.35" width="19.34" height="5.44" rx="1.42" ry="1.42"/><path class="cls-2" d="M23.46,157.48H11.72v76.28a5.87,5.87,0,0,0,11.74,0Z"/><path class="cls-6" d="M11.84,234.94c0,.15.09.28.13.42a6.21,6.21,0,0,0,.21.68c.06.15.16.29.23.43a6.07,6.07,0,0,0,.31.57c.09.13.21.25.31.38a6.25,6.25,0,0,0,.41.49c.12.12.26.21.39.32a5.82,5.82,0,0,0,.48.4c.15.1.31.17.47.25a5.74,5.74,0,0,0,.53.29c.16.07.34.1.51.16a5.92,5.92,0,0,0,.6.18c.17,0,.36,0,.54.05a5.66,5.66,0,0,0,.65.06s0-83.66,0-83.66H7.92v.51a1.32,1.32,0,0,0,1.32,1.32h2.49v76A5.91,5.91,0,0,0,11.84,234.94Z"/><path class="cls-4" d="M17.59,237.15a3.4,3.4,0,0,1-3.39-3.39V187.93H21v45.82A3.4,3.4,0,0,1,17.59,237.15Z"/><path class="cls-3" d="M17.63,237.15V187.93H14.2v45.82A3.4,3.4,0,0,0,17.63,237.15Z"/><rect class="cls-4" y="166.35" width="35.18" height="4.99"/><rect class="cls-2" x="43.48" y="216.61" width="60.31" height="4.99"/><path class="cls-1" d="M56.22,207.73H44.49V284a5.87,5.87,0,1,0,11.74,0Z"/><rect class="cls-2" x="40.68" y="202.61" width="19.34" height="5.44" rx="1.42" ry="1.42"/><path class="cls-2" d="M56.22,207.73H44.49V284a5.87,5.87,0,1,0,11.74,0Z"/><path class="cls-3" d="M44.61,285.19c0,.15.09.28.13.43a6.06,6.06,0,0,0,.21.68c.06.15.16.29.23.43a6.21,6.21,0,0,0,.31.57c.09.13.21.25.31.38a5.87,5.87,0,0,0,.41.49c.12.12.26.21.39.32a6,6,0,0,0,.48.4c.15.1.31.17.47.25a6,6,0,0,0,.53.29c.16.07.34.1.51.16a5.68,5.68,0,0,0,.6.18c.17,0,.36,0,.54.05a5.66,5.66,0,0,0,.65.06s0-83.66,0-83.66H40.68v.51A1.32,1.32,0,0,0,42,208h2.49v76A5.92,5.92,0,0,0,44.61,285.19Z"/><path class="cls-4" d="M50.36,287.4A3.4,3.4,0,0,1,47,284V238.19h6.79V284A3.4,3.4,0,0,1,50.36,287.4Z"/><path class="cls-3" d="M50.39,287.4V238.19H47V284A3.4,3.4,0,0,0,50.39,287.4Z"/><rect class="cls-1" x="490.89" y="265.93" width="11.74" height="43.2"/><rect class="cls-4" x="32.77" y="216.61" width="35.18" height="4.99"/><path class="cls-2" d="M369.15,298.08l-20.29-48.51V230h3.35a1.1,1.1,0,0,0,1.1-1.09v-4.16a1.1,1.1,0,0,0-1.1-1.09H331.79a1.09,1.09,0,0,0-1.09,1.09V229a1.09,1.09,0,0,0,1.09,1.09h3.35v19.52l-20.29,48.51c-1.67,4,1.62,8.25,6.38,8.25h41.54C367.53,306.33,370.82,302.07,369.15,298.08Z"/><path class="cls-4" d="M330.22,271.6l-11.73,28.56a1.5,1.5,0,0,0,1.37,2.08c8.1.08,36.14.05,44.25,0a1.5,1.5,0,0,0,1.38-2.08L353.76,271.6Z"/><rect class="cls-2" x="134.24" y="273.83" width="10.55" height="16.5"/><path class="cls-2" d="M152,306.44H127a11.17,11.17,0,1,1,0-22.34H152a11.17,11.17,0,1,1,0,22.34Z"/><path class="cls-3" d="M139.42,303.46V291.88H120.61A7.53,7.53,0,0,0,127,303.46Z"/><path class="cls-4" d="M158.43,291.88h-17.5V268.55h-2.76v23.33H120.61A7.53,7.53,0,0,0,127,303.46h25.11a7.53,7.53,0,0,0,6.36-11.58Z"/><circle class="cls-3" cx="155" cy="296.5" r="2.83"/><rect class="cls-4" x="138.17" y="264.28" width="2.76" height="4.86"/><path class="cls-3" d="M330.7,228.25v.7a1.09,1.09,0,0,0,1.09,1.09h3.35v19.52l-20.29,48.51c-1.67,4,1.62,8.25,6.38,8.25h21V228.25Z"/><path class="cls-3" d="M342.24,271.6h-12l-11.73,28.56a1.5,1.5,0,0,0,1.37,2.08c4.09,0,13.26.05,22.38,0Z"/><circle class="cls-3" cx="349.8" cy="278.91" r="3.74"/><circle class="cls-3" cx="346.7" cy="289.95" r="2.71"/><circle class="cls-2" cx="275.69" cy="143.02" r="23.47"/><rect class="cls-2" x="269.82" y="84.34" width="11.74" height="45.97"/><rect class="cls-2" x="266.01" y="79.21" width="19.34" height="5.44" rx="1.42" ry="1.42"/><path class="cls-3" d="M266,82.41v.92a1.32,1.32,0,0,0,1.32,1.32h2.49v35.67a23.45,23.45,0,0,0,5.69,46.16V82.41Z"/><path class="cls-4" d="M256.49,138.57a19.72,19.72,0,1,0,38.38,0Z"/><path class="cls-3" d="M275.51,162.73V138.57h-19a19.65,19.65,0,0,0,19,24.15Z"/><circle class="cls-3" cx="286.93" cy="145.27" r="3.74"/><circle class="cls-4" cx="265.74" cy="66.74" r="3.74"/><circle class="cls-4" cx="438.59" cy="30.68" r="3.74"/><circle class="cls-4" cx="423.99" cy="8.06" r="8.06"/><circle class="cls-4" cx="653.36" cy="136.58" r="2.7"/><circle class="cls-4" cx="663.9" cy="120.27" r="5.81"/><circle class="cls-4" cx="653.12" cy="112.33" r="3.65"/><circle class="cls-4" cx="14.76" cy="137.05" r="2.7"/><circle class="cls-4" cx="178.71" cy="176.51" r="2.7"/><circle class="cls-4" cx="25.29" cy="120.74" r="5.81"/><circle class="cls-4" cx="191.43" cy="168.85" r="5.81"/><circle class="cls-4" cx="14.51" cy="112.8" r="3.65"/><circle class="cls-3" cx="283.38" cy="152.8" r="2.49"/><rect class="cls-4" x="258.16" y="88.66" width="34.85" height="4.99"/><path class="cls-4" d="M399.77,233.25H397.7v-22a14.55,14.55,0,0,1,14.72-14.34V199a12.48,12.48,0,0,0-12.65,12.27Z"/><path class="cls-4" d="M427.15,211.26h-2.07A12.48,12.48,0,0,0,412.42,199v-2.07A14.55,14.55,0,0,1,427.15,211.26Z"/><path class="cls-4" d="M498,279.83h-2.07V219.09c0-11.08-9.29-20.09-20.71-20.09v-2.07c12.56,0,22.78,9.94,22.78,22.17Z"/><rect class="cls-2" x="487.09" y="260.81" width="19.34" height="5.44" rx="1.42" ry="1.42"/><rect class="cls-2" x="490.89" y="265.93" width="11.74" height="45.4"/><rect class="cls-4" x="493.37" y="278.37" width="6.79" height="28.92"/><rect class="cls-3" x="493.37" y="278.37" width="3.43" height="28.92"/><path class="cls-4" d="M276.44,80.46h-1.87V53.8A12.62,12.62,0,0,0,262,41.19h-26a18.21,18.21,0,0,0-18.19,18.19h-1.87a20.08,20.08,0,0,1,20.05-20.05h26A14.49,14.49,0,0,1,276.44,53.8Z"/><path class="cls-2" d="M197.69,120.06h-.89A21.21,21.21,0,0,1,175.6,98.87V59.38h4.14V98.87a17.07,17.07,0,0,0,17.05,17.05h.89a17.07,17.07,0,0,0,17.05-17.05V59.38h4.14V98.87A21.21,21.21,0,0,1,197.69,120.06Z"/><path class="cls-4" d="M140.46,110.35h-2.07v-51a20.16,20.16,0,1,1,40.31,0h-2.07a18.09,18.09,0,1,0-36.17,0Z"/><rect class="cls-2" x="130.82" y="272.23" width="17.39" height="4.89" rx="1.41" ry="1.41"/><path class="cls-3" d="M139.42,284.1v-7h-5.18v7H127a11.17,11.17,0,1,0,0,22.34h12.38V284.1Z"/><path class="cls-2" d="M132.85,259.5c0,4.21,2.59,8,6.67,10.52,4.08-2.55,6.67-6.32,6.67-10.52s-2.59-8-6.67-10.52C135.44,251.52,132.85,255.29,132.85,259.5Z"/><path class="cls-5" d="M135.47,259.5a8.55,8.55,0,0,0,4.05,7,8,8,0,0,0,0-14A8.55,8.55,0,0,0,135.47,259.5Z"/><path class="cls-7" d="M726.33,311.38v-.05H30.93a10.41,10.41,0,1,0,0,20.81h695.4v-.05a10.41,10.41,0,0,0,0-20.71Z"/><path class="cls-4" d="M622.4,353.09V353H163.9a10.41,10.41,0,1,0,0,20.81H622.4v-.13a10.39,10.39,0,0,0,0-20.55Z"/><path class="cls-4" d="M690.12,332.14H54.86a10.41,10.41,0,0,0,0,20.81H690.12a10.41,10.41,0,1,0,0-20.81Z"/><path class="cls-7" d="M677.8,311.33H76.87a10.41,10.41,0,1,0,0,20.81H677.8a10.41,10.41,0,1,0,0-20.81Z"/><path class="cls-7" d="M645.05,353H128.4a10.41,10.41,0,1,0,0,20.81H645.05a10.41,10.41,0,0,0,0-20.81Z"/><path class="cls-8" d="M636.12,332.14H114A10.41,10.41,0,0,0,114,353H636.12a10.41,10.41,0,1,0,0-20.81Z"/></g></g></svg>