<svg xmlns="http://www.w3.org/2000/svg" viewBox="0 0 68.61 190"><defs><style>.cls-1{fill:#7abc39;}.cls-2{opacity:0.5;}.cls-3{fill:#5ca126;}.cls-4{fill:#8cd145;}.cls-5{opacity:0.3;}.cls-6{fill:#b6e436;}.cls-7{fill:#7ac7fa;}.cls-8{fill:#5e9df3;}.cls-9{fill:#b8e636;}.cls-10{fill:#92d03f;}.cls-11{fill:#7bbe39;}.cls-12{fill:#7bc9fc;}.cls-13{fill:#60a1f7;}.cls-14{fill:#4d82f5;}.cls-15{opacity:0.6;}</style></defs><title>Recurso 9</title><g id="Capa_2" data-name="Capa 2"><g id="Capa_1-2" data-name="Capa 1"><path class="cls-1" d="M1,175.1l67.56,1.55a10.05,10.05,0,0,1-3.4,6.89c-3.4,2.7-7.24.36-17.26,4.37-11.18,4.47-17.61.5-22.08,0s-7.27.84-11.56,1.36-6-3.35-9.91-5.12C-.66,181.85.33,177,1,175.1Z"/><g class="cls-2"><path class="cls-3" d="M46.16,172.18C23.21,168.89,26,165.21,1,175.1c0,0-1.61,5,1.88,6.55,3.89,1.71,6.21,6.1,10.5,5.58s8.38-2.83,12.85-2.35,10.67,4.89,21.85.43c8.13-3.25,14.21-1.87,18-2.68a10.46,10.46,0,0,0,2.44-6A228.86,228.86,0,0,0,46.16,172.18Z"/></g><path class="cls-4" d="M6.77,182.62c2,1,3.49,1.48,4.41,1.37a22.59,22.59,0,0,1,6-.83c2.89.21,6.87,1.66,9.79,1.3s5.71-1.47,8.75-1.15,7.42,2.58,15-.46c6.82-2.73,12-.48,14.55-2a7.64,7.64,0,0,0,3.27-4.24S29.71,163.75,1,175.1C1,175.1-.82,178.8,6.77,182.62Z"/><path class="cls-3" d="M1,175.1s-4.14,9,39.5,7.55c17-.54,28.29-5.7,28.06-6-2.94-3.9-12.31-17-34.35-17C18.4,159.6,9,164.71,1,175.1Z"/><g class="cls-5"><path class="cls-6" d="M2.51,178.26C15,162.6,28.66,158.79,39.16,159.83c0,0,4.67.42,3.4.45-21,.42-34.74,20.31-34.74,20.31A11.62,11.62,0,0,1,2.51,178.26Z"/></g><g class="cls-5"><path class="cls-6" d="M23.92,182.65s13.41-19.91,30.47-18.49c0,0,2,1.15,3,1.73,0,0-14.76-1.31-26.19,16.92C31.23,182.8,26.35,182.8,23.92,182.65Z"/></g><g class="cls-5"><path class="cls-6" d="M50.45,162.4l-3.09-1C32.71,160.3,17,173.95,12.5,181.59c0,0,2.09.31,2.81.39.88.11,3.6.37,3.6.37C36.18,160.23,50.45,162.4,50.45,162.4Z"/></g><g class="cls-5"><path class="cls-6" d="M60.63,168.17s-12-.89-23.38,14.63l6.73-.32S54.85,169.64,62.81,170C62.81,170,61.47,168.82,60.63,168.17Z"/></g><g class="cls-5"><path class="cls-6" d="M65.4,172.67s-7.29.9-13,8.8c0,0,4.57-.84,6.37-1.32a17.07,17.07,0,0,1,7.84-6A6.06,6.06,0,0,0,65.4,172.67Z"/></g><g id="_Grupo_" data-name="&lt;Grupo&gt;"><path class="cls-6" d="M21.35,165.73a1.12,1.12,0,0,0,.32-.19.82.82,0,0,0,.3-.7,3.63,3.63,0,0,0-.75-1.59,3.63,3.63,0,0,0-.57,1.66.83.83,0,0,0,.37.66A1.16,1.16,0,0,0,21.35,165.73Z"/></g><g id="_Grupo_2" data-name="&lt;Grupo&gt;"><path class="cls-4" d="M21.35,165.73a1.12,1.12,0,0,0,.32-.19.82.82,0,0,0,.3-.7,3.63,3.63,0,0,0-.75-1.59Z"/></g><g id="_Grupo_3" data-name="&lt;Grupo&gt;"><path class="cls-6" d="M18.73,167.61a1.18,1.18,0,0,0,.34-.2.87.87,0,0,0,.31-.74,3.84,3.84,0,0,0-.8-1.68,3.83,3.83,0,0,0-.6,1.76.87.87,0,0,0,.39.7A1.2,1.2,0,0,0,18.73,167.61Z"/></g><g id="_Grupo_4" data-name="&lt;Grupo&gt;"><path class="cls-4" d="M18.73,167.61a1.18,1.18,0,0,0,.34-.2.87.87,0,0,0,.31-.74,3.84,3.84,0,0,0-.8-1.68Z"/></g><g id="_Grupo_5" data-name="&lt;Grupo&gt;"><path class="cls-6" d="M15.84,169.75a1.24,1.24,0,0,0,.35-.21.91.91,0,0,0,.33-.77,4,4,0,0,0-.83-1.75,4,4,0,0,0-.63,1.83.91.91,0,0,0,.41.73A1.24,1.24,0,0,0,15.84,169.75Z"/></g><g id="_Grupo_6" data-name="&lt;Grupo&gt;"><path class="cls-4" d="M15.84,169.75a1.24,1.24,0,0,0,.35-.21.91.91,0,0,0,.33-.77,4,4,0,0,0-.83-1.75Z"/></g><g id="_Grupo_7" data-name="&lt;Grupo&gt;"><path class="cls-6" d="M12.66,172.23A1.24,1.24,0,0,0,13,172a.92.92,0,0,0,.33-.78,4.07,4.07,0,0,0-.84-1.77,4,4,0,0,0-.64,1.86.92.92,0,0,0,.42.74A1.25,1.25,0,0,0,12.66,172.23Z"/></g><g id="_Grupo_8" data-name="&lt;Grupo&gt;"><path class="cls-4" d="M12.66,172.23A1.24,1.24,0,0,0,13,172a.92.92,0,0,0,.33-.78,4.07,4.07,0,0,0-.84-1.77Z"/></g><g id="_Grupo_9" data-name="&lt;Grupo&gt;"><path class="cls-6" d="M9.51,175.24a1.26,1.26,0,0,0,.36-.22.93.93,0,0,0,.33-.79,4.09,4.09,0,0,0-.85-1.78,4.07,4.07,0,0,0-.64,1.87.93.93,0,0,0,.42.75A1.28,1.28,0,0,0,9.51,175.24Z"/></g><g id="_Grupo_10" data-name="&lt;Grupo&gt;"><path class="cls-4" d="M9.51,175.24a1.26,1.26,0,0,0,.36-.22.93.93,0,0,0,.33-.79,4.09,4.09,0,0,0-.85-1.78Z"/></g><g id="_Grupo_11" data-name="&lt;Grupo&gt;"><path class="cls-6" d="M6.5,178.4a1.3,1.3,0,0,0,.36-.22,1,1,0,0,0,.34-.8,4.16,4.16,0,0,0-.86-1.82,4.16,4.16,0,0,0-.66,1.9,1,1,0,0,0,.43.76A1.31,1.31,0,0,0,6.5,178.4Z"/></g><g id="_Grupo_12" data-name="&lt;Grupo&gt;"><path class="cls-4" d="M6.5,178.4a1.3,1.3,0,0,0,.36-.22,1,1,0,0,0,.34-.8,4.16,4.16,0,0,0-.86-1.82Z"/></g><g id="_Grupo_13" data-name="&lt;Grupo&gt;"><path class="cls-6" d="M24.3,164.23a1.11,1.11,0,0,0,.32-.19.83.83,0,0,0,.3-.7,3.65,3.65,0,0,0-.76-1.59,3.63,3.63,0,0,0-.57,1.66.83.83,0,0,0,.37.66A1.12,1.12,0,0,0,24.3,164.23Z"/></g><g id="_Grupo_14" data-name="&lt;Grupo&gt;"><path class="cls-4" d="M24.3,164.23a1.11,1.11,0,0,0,.32-.19.83.83,0,0,0,.3-.7,3.65,3.65,0,0,0-.76-1.59Z"/></g><g id="_Grupo_15" data-name="&lt;Grupo&gt;"><path class="cls-6" d="M27.08,163a1.14,1.14,0,0,0,.32-.19.83.83,0,0,0,.3-.7,3.63,3.63,0,0,0-.76-1.59,3.63,3.63,0,0,0-.57,1.66.83.83,0,0,0,.37.66A1.13,1.13,0,0,0,27.08,163Z"/></g><g id="_Grupo_16" data-name="&lt;Grupo&gt;"><path class="cls-4" d="M27.08,163a1.14,1.14,0,0,0,.32-.19.83.83,0,0,0,.3-.7,3.63,3.63,0,0,0-.76-1.59Z"/></g><g id="_Grupo_17" data-name="&lt;Grupo&gt;"><path class="cls-6" d="M30.09,161.84a1,1,0,0,0,.29-.18.76.76,0,0,0,.27-.65,3.35,3.35,0,0,0-.69-1.46,3.34,3.34,0,0,0-.53,1.53.76.76,0,0,0,.34.61A1,1,0,0,0,30.09,161.84Z"/></g><g id="_Grupo_18" data-name="&lt;Grupo&gt;"><path class="cls-4" d="M30.09,161.84a1,1,0,0,0,.29-.18.76.76,0,0,0,.27-.65,3.35,3.35,0,0,0-.69-1.46Z"/></g><g id="_Grupo_19" data-name="&lt;Grupo&gt;"><path class="cls-6" d="M33.28,161a.91.91,0,0,0,.26-.15.66.66,0,0,0,.24-.57,2.93,2.93,0,0,0-.61-1.28,2.93,2.93,0,0,0-.46,1.34.66.66,0,0,0,.3.53A.91.91,0,0,0,33.28,161Z"/></g><g id="_Grupo_20" data-name="&lt;Grupo&gt;"><path class="cls-4" d="M33.28,161a.91.91,0,0,0,.26-.15.66.66,0,0,0,.24-.57,2.93,2.93,0,0,0-.61-1.28Z"/></g><g id="_Grupo_21" data-name="&lt;Grupo&gt;"><path class="cls-6" d="M36.12,160.4a.92.92,0,0,0,.26-.15.67.67,0,0,0,.24-.57A2.94,2.94,0,0,0,36,158.4a2.92,2.92,0,0,0-.46,1.34.67.67,0,0,0,.3.54A.92.92,0,0,0,36.12,160.4Z"/></g><g id="_Grupo_22" data-name="&lt;Grupo&gt;"><path class="cls-4" d="M36.12,160.4a.92.92,0,0,0,.26-.15.67.67,0,0,0,.24-.57A2.94,2.94,0,0,0,36,158.4Z"/></g><g id="_Grupo_23" data-name="&lt;Grupo&gt;"><path class="cls-6" d="M39.34,160.13a.89.89,0,0,0,.25-.15.66.66,0,0,0,.24-.56,2.92,2.92,0,0,0-.6-1.27,2.9,2.9,0,0,0-.46,1.33.66.66,0,0,0,.3.53A.91.91,0,0,0,39.34,160.13Z"/></g><g id="_Grupo_24" data-name="&lt;Grupo&gt;"><path class="cls-4" d="M39.34,160.13a.89.89,0,0,0,.25-.15.66.66,0,0,0,.24-.56,2.92,2.92,0,0,0-.6-1.27Z"/></g><g id="_Grupo_25" data-name="&lt;Grupo&gt;"><path class="cls-6" d="M13.44,165.65a1.12,1.12,0,0,0,.32-.19.83.83,0,0,0,.3-.7,3.64,3.64,0,0,0-.75-1.59,3.62,3.62,0,0,0-.57,1.66.83.83,0,0,0,.37.66A1.13,1.13,0,0,0,13.44,165.65Z"/></g><g id="_Grupo_26" data-name="&lt;Grupo&gt;"><path class="cls-4" d="M13.44,165.65a1.12,1.12,0,0,0,.32-.19.83.83,0,0,0,.3-.7,3.64,3.64,0,0,0-.75-1.59Z"/></g><g id="_Grupo_27" data-name="&lt;Grupo&gt;"><path class="cls-6" d="M10.65,167.94a1.19,1.19,0,0,0,.34-.2.87.87,0,0,0,.31-.74,3.84,3.84,0,0,0-.8-1.68,3.83,3.83,0,0,0-.61,1.76.87.87,0,0,0,.4.7A1.18,1.18,0,0,0,10.65,167.94Z"/></g><g id="_Grupo_28" data-name="&lt;Grupo&gt;"><path class="cls-4" d="M10.65,167.94a1.19,1.19,0,0,0,.34-.2.87.87,0,0,0,.31-.74,3.84,3.84,0,0,0-.8-1.68Z"/></g><g id="_Grupo_29" data-name="&lt;Grupo&gt;"><path class="cls-6" d="M7.88,170a1.24,1.24,0,0,0,.35-.21.91.91,0,0,0,.33-.77,4,4,0,0,0-.83-1.75,4,4,0,0,0-.63,1.83.91.91,0,0,0,.41.73A1.23,1.23,0,0,0,7.88,170Z"/></g><g id="_Grupo_30" data-name="&lt;Grupo&gt;"><path class="cls-4" d="M7.88,170a1.24,1.24,0,0,0,.35-.21.91.91,0,0,0,.33-.77,4,4,0,0,0-.83-1.75Z"/></g><g id="_Grupo_31" data-name="&lt;Grupo&gt;"><path class="cls-6" d="M5.2,172.39a1.25,1.25,0,0,0,.36-.21.92.92,0,0,0,.33-.78A4.05,4.05,0,0,0,5,169.62a4.05,4.05,0,0,0-.64,1.86.92.92,0,0,0,.42.74A1.24,1.24,0,0,0,5.2,172.39Z"/></g><g id="_Grupo_32" data-name="&lt;Grupo&gt;"><path class="cls-4" d="M5.2,172.39a1.25,1.25,0,0,0,.36-.21.92.92,0,0,0,.33-.78A4.05,4.05,0,0,0,5,169.62Z"/></g><g id="_Grupo_33" data-name="&lt;Grupo&gt;"><path class="cls-6" d="M2.66,175.25A1.26,1.26,0,0,0,3,175a.93.93,0,0,0,.33-.79,4.09,4.09,0,0,0-.85-1.78,4.07,4.07,0,0,0-.64,1.87.93.93,0,0,0,.42.75A1.28,1.28,0,0,0,2.66,175.25Z"/></g><g id="_Grupo_34" data-name="&lt;Grupo&gt;"><path class="cls-4" d="M2.66,175.25A1.26,1.26,0,0,0,3,175a.93.93,0,0,0,.33-.79,4.09,4.09,0,0,0-.85-1.78Z"/></g><g id="_Grupo_35" data-name="&lt;Grupo&gt;"><path class="cls-6" d="M16.17,164.6a1.13,1.13,0,0,0,.32-.19.82.82,0,0,0,.3-.7,3.64,3.64,0,0,0-.75-1.59,3.63,3.63,0,0,0-.57,1.66.82.82,0,0,0,.37.66A1.13,1.13,0,0,0,16.17,164.6Z"/></g><g id="_Grupo_36" data-name="&lt;Grupo&gt;"><path class="cls-4" d="M16.17,164.6a1.13,1.13,0,0,0,.32-.19.82.82,0,0,0,.3-.7,3.64,3.64,0,0,0-.75-1.59Z"/></g><g id="_Grupo_37" data-name="&lt;Grupo&gt;"><path class="cls-6" d="M19,163.21a1.14,1.14,0,0,0,.32-.19.82.82,0,0,0,.3-.7,3.64,3.64,0,0,0-.76-1.59,3.64,3.64,0,0,0-.57,1.66.83.83,0,0,0,.37.66A1.14,1.14,0,0,0,19,163.21Z"/></g><g id="_Grupo_38" data-name="&lt;Grupo&gt;"><path class="cls-4" d="M19,163.21a1.14,1.14,0,0,0,.32-.19.82.82,0,0,0,.3-.7,3.64,3.64,0,0,0-.76-1.59Z"/></g><g id="_Grupo_39" data-name="&lt;Grupo&gt;"><path class="cls-6" d="M22,161.89a1,1,0,0,0,.29-.18.76.76,0,0,0,.27-.65,3.35,3.35,0,0,0-.69-1.46,3.34,3.34,0,0,0-.53,1.53.76.76,0,0,0,.34.61A1,1,0,0,0,22,161.89Z"/></g><g id="_Grupo_40" data-name="&lt;Grupo&gt;"><path class="cls-4" d="M22,161.89a1,1,0,0,0,.29-.18.76.76,0,0,0,.27-.65,3.35,3.35,0,0,0-.69-1.46Z"/></g><g id="_Grupo_41" data-name="&lt;Grupo&gt;"><path class="cls-6" d="M25.09,160.84a.91.91,0,0,0,.27-.14.67.67,0,0,0,.28-.55,2.94,2.94,0,0,0-.52-1.32,2.92,2.92,0,0,0-.55,1.3.67.67,0,0,0,.26.56A.91.91,0,0,0,25.09,160.84Z"/></g><g id="_Grupo_42" data-name="&lt;Grupo&gt;"><path class="cls-4" d="M25.09,160.84a.91.91,0,0,0,.27-.14.67.67,0,0,0,.28-.55,2.94,2.94,0,0,0-.52-1.32Z"/></g><g id="_Grupo_43" data-name="&lt;Grupo&gt;"><path class="cls-6" d="M28.33,160.28a.93.93,0,0,0,.26-.15.67.67,0,0,0,.24-.57,3,3,0,0,0-.61-1.28,2.93,2.93,0,0,0-.46,1.34.67.67,0,0,0,.3.54A.93.93,0,0,0,28.33,160.28Z"/></g><g id="_Grupo_44" data-name="&lt;Grupo&gt;"><path class="cls-4" d="M28.33,160.28a.93.93,0,0,0,.26-.15.67.67,0,0,0,.24-.57,3,3,0,0,0-.61-1.28Z"/></g><g id="_Grupo_45" data-name="&lt;Grupo&gt;"><path class="cls-6" d="M31.17,159.84a1,1,0,0,0,.26-.16.67.67,0,0,0,.24-.57,2.93,2.93,0,0,0-.61-1.28,2.92,2.92,0,0,0-.46,1.34.67.67,0,0,0,.3.53A1,1,0,0,0,31.17,159.84Z"/></g><g id="_Grupo_46" data-name="&lt;Grupo&gt;"><path class="cls-4" d="M31.17,159.84a1,1,0,0,0,.26-.16.67.67,0,0,0,.24-.57,2.93,2.93,0,0,0-.61-1.28Z"/></g><g id="_Grupo_47" data-name="&lt;Grupo&gt;"><path class="cls-6" d="M25.89,166.84a1.12,1.12,0,0,0,.32-.19.83.83,0,0,0,.3-.7,3.63,3.63,0,0,0-.76-1.59,3.62,3.62,0,0,0-.57,1.66.83.83,0,0,0,.37.66A1.11,1.11,0,0,0,25.89,166.84Z"/></g><g id="_Grupo_48" data-name="&lt;Grupo&gt;"><path class="cls-4" d="M25.89,166.84a1.12,1.12,0,0,0,.32-.19.83.83,0,0,0,.3-.7,3.63,3.63,0,0,0-.76-1.59Z"/></g><g id="_Grupo_49" data-name="&lt;Grupo&gt;"><path class="cls-6" d="M29,165.2a1.14,1.14,0,0,0,.32-.19.83.83,0,0,0,.3-.7,3.64,3.64,0,0,0-.75-1.59,3.63,3.63,0,0,0-.57,1.66.83.83,0,0,0,.37.66A1.11,1.11,0,0,0,29,165.2Z"/></g><g id="_Grupo_50" data-name="&lt;Grupo&gt;"><path class="cls-4" d="M29,165.2a1.14,1.14,0,0,0,.32-.19.83.83,0,0,0,.3-.7,3.64,3.64,0,0,0-.75-1.59Z"/></g><g id="_Grupo_51" data-name="&lt;Grupo&gt;"><path class="cls-6" d="M31.75,164a1.12,1.12,0,0,0,.32-.19.82.82,0,0,0,.3-.7,3.63,3.63,0,0,0-.75-1.59,3.63,3.63,0,0,0-.57,1.66.83.83,0,0,0,.37.66A1.13,1.13,0,0,0,31.75,164Z"/></g><g id="_Grupo_52" data-name="&lt;Grupo&gt;"><path class="cls-4" d="M31.75,164a1.12,1.12,0,0,0,.32-.19.82.82,0,0,0,.3-.7,3.63,3.63,0,0,0-.75-1.59Z"/></g><g id="_Grupo_53" data-name="&lt;Grupo&gt;"><path class="cls-6" d="M34.77,162.81a1,1,0,0,0,.29-.18.76.76,0,0,0,.27-.65,3.35,3.35,0,0,0-.7-1.46,3.35,3.35,0,0,0-.53,1.53.76.76,0,0,0,.35.61A1.06,1.06,0,0,0,34.77,162.81Z"/></g><g id="_Grupo_54" data-name="&lt;Grupo&gt;"><path class="cls-4" d="M34.77,162.81a1,1,0,0,0,.29-.18.76.76,0,0,0,.27-.65,3.35,3.35,0,0,0-.7-1.46Z"/></g><g id="_Grupo_55" data-name="&lt;Grupo&gt;"><path class="cls-6" d="M38,161.93a.9.9,0,0,0,.26-.15.67.67,0,0,0,.24-.57,2.92,2.92,0,0,0-.61-1.28,2.92,2.92,0,0,0-.46,1.34.66.66,0,0,0,.3.54A.9.9,0,0,0,38,161.93Z"/></g><g id="_Grupo_56" data-name="&lt;Grupo&gt;"><path class="cls-4" d="M38,161.93a.9.9,0,0,0,.26-.15.67.67,0,0,0,.24-.57,2.92,2.92,0,0,0-.61-1.28Z"/></g><g id="_Grupo_57" data-name="&lt;Grupo&gt;"><path class="cls-6" d="M41.13,161.33a.91.91,0,0,0,.26-.15.66.66,0,0,0,.24-.57,2.93,2.93,0,0,0-.61-1.28,2.92,2.92,0,0,0-.46,1.34.67.67,0,0,0,.3.54A.92.92,0,0,0,41.13,161.33Z"/></g><g id="_Grupo_58" data-name="&lt;Grupo&gt;"><path class="cls-4" d="M41.13,161.33a.91.91,0,0,0,.26-.15.66.66,0,0,0,.24-.57,2.93,2.93,0,0,0-.61-1.28Z"/></g><g id="_Grupo_59" data-name="&lt;Grupo&gt;"><path class="cls-6" d="M44,161.1a.89.89,0,0,0,.25-.15.66.66,0,0,0,.24-.56,2.92,2.92,0,0,0-.6-1.27,2.9,2.9,0,0,0-.46,1.33.66.66,0,0,0,.3.53A.91.91,0,0,0,44,161.1Z"/></g><g id="_Grupo_60" data-name="&lt;Grupo&gt;"><path class="cls-4" d="M44,161.1a.89.89,0,0,0,.25-.15.66.66,0,0,0,.24-.56,2.92,2.92,0,0,0-.6-1.27Z"/></g><g id="_Grupo_61" data-name="&lt;Grupo&gt;"><path class="cls-6" d="M23.2,168.82a1.13,1.13,0,0,0,.32-.19.83.83,0,0,0,.3-.7,3.64,3.64,0,0,0-.75-1.59,3.63,3.63,0,0,0-.57,1.66.82.82,0,0,0,.37.66A1.16,1.16,0,0,0,23.2,168.82Z"/></g><g id="_Grupo_62" data-name="&lt;Grupo&gt;"><path class="cls-4" d="M23.2,168.82a1.13,1.13,0,0,0,.32-.19.83.83,0,0,0,.3-.7,3.64,3.64,0,0,0-.75-1.59Z"/></g><g id="_Grupo_63" data-name="&lt;Grupo&gt;"><path class="cls-6" d="M20.07,171.3a1.2,1.2,0,0,0,.34-.2.87.87,0,0,0,.31-.74,3.84,3.84,0,0,0-.8-1.68,3.85,3.85,0,0,0-.6,1.76.87.87,0,0,0,.39.7A1.2,1.2,0,0,0,20.07,171.3Z"/></g><g id="_Grupo_64" data-name="&lt;Grupo&gt;"><path class="cls-4" d="M20.07,171.3a1.2,1.2,0,0,0,.34-.2.87.87,0,0,0,.31-.74,3.84,3.84,0,0,0-.8-1.68Z"/></g><g id="_Grupo_65" data-name="&lt;Grupo&gt;"><path class="cls-6" d="M17.19,173.93a1.23,1.23,0,0,0,.35-.21.91.91,0,0,0,.33-.77A4,4,0,0,0,17,171.2a4,4,0,0,0-.63,1.83.91.91,0,0,0,.41.73A1.24,1.24,0,0,0,17.19,173.93Z"/></g><g id="_Grupo_66" data-name="&lt;Grupo&gt;"><path class="cls-4" d="M17.19,173.93a1.23,1.23,0,0,0,.35-.21.91.91,0,0,0,.33-.77A4,4,0,0,0,17,171.2Z"/></g><g id="_Grupo_67" data-name="&lt;Grupo&gt;"><path class="cls-6" d="M14.37,177a1.25,1.25,0,0,0,.36-.21.92.92,0,0,0,.33-.78,4.06,4.06,0,0,0-.84-1.77,4.06,4.06,0,0,0-.64,1.86.92.92,0,0,0,.42.74A1.26,1.26,0,0,0,14.37,177Z"/></g><g id="_Grupo_68" data-name="&lt;Grupo&gt;"><path class="cls-4" d="M14.37,177a1.25,1.25,0,0,0,.36-.21.92.92,0,0,0,.33-.78,4.06,4.06,0,0,0-.84-1.77Z"/></g><g id="_Grupo_69" data-name="&lt;Grupo&gt;"><path class="cls-6" d="M11.8,180.3a1.25,1.25,0,0,0,.36-.22.93.93,0,0,0,.33-.79,4.09,4.09,0,0,0-.85-1.78,4.08,4.08,0,0,0-.64,1.87.93.93,0,0,0,.42.75A1.28,1.28,0,0,0,11.8,180.3Z"/></g><g id="_Grupo_70" data-name="&lt;Grupo&gt;"><path class="cls-4" d="M11.8,180.3a1.25,1.25,0,0,0,.36-.22.93.93,0,0,0,.33-.79,4.09,4.09,0,0,0-.85-1.78Z"/></g><g id="_Grupo_71" data-name="&lt;Grupo&gt;"><path class="cls-6" d="M30.52,168.09a1.15,1.15,0,0,0,.32-.19.83.83,0,0,0,.3-.7,3.65,3.65,0,0,0-.76-1.59,3.63,3.63,0,0,0-.57,1.66.83.83,0,0,0,.37.66A1.14,1.14,0,0,0,30.52,168.09Z"/></g><g id="_Grupo_72" data-name="&lt;Grupo&gt;"><path class="cls-4" d="M30.52,168.09a1.15,1.15,0,0,0,.32-.19.83.83,0,0,0,.3-.7,3.65,3.65,0,0,0-.76-1.59Z"/></g><g id="_Grupo_73" data-name="&lt;Grupo&gt;"><path class="cls-6" d="M28.2,170.06a1.12,1.12,0,0,0,.32-.19.83.83,0,0,0,.3-.7,3.64,3.64,0,0,0-.76-1.59,3.63,3.63,0,0,0-.57,1.66.83.83,0,0,0,.37.66A1.14,1.14,0,0,0,28.2,170.06Z"/></g><g id="_Grupo_74" data-name="&lt;Grupo&gt;"><path class="cls-4" d="M28.2,170.06a1.12,1.12,0,0,0,.32-.19.83.83,0,0,0,.3-.7,3.64,3.64,0,0,0-.76-1.59Z"/></g><g id="_Grupo_75" data-name="&lt;Grupo&gt;"><path class="cls-6" d="M33.46,166.42a1.12,1.12,0,0,0,.32-.19.83.83,0,0,0,.3-.7,3.64,3.64,0,0,0-.75-1.59,3.63,3.63,0,0,0-.57,1.66.83.83,0,0,0,.37.66A1.12,1.12,0,0,0,33.46,166.42Z"/></g><g id="_Grupo_76" data-name="&lt;Grupo&gt;"><path class="cls-4" d="M33.46,166.42a1.12,1.12,0,0,0,.32-.19.83.83,0,0,0,.3-.7,3.64,3.64,0,0,0-.75-1.59Z"/></g><g id="_Grupo_77" data-name="&lt;Grupo&gt;"><path class="cls-6" d="M36.24,165.19a1.14,1.14,0,0,0,.32-.19.83.83,0,0,0,.3-.7,3.64,3.64,0,0,0-.75-1.59,3.63,3.63,0,0,0-.57,1.66.83.83,0,0,0,.37.66A1.13,1.13,0,0,0,36.24,165.19Z"/></g><g id="_Grupo_78" data-name="&lt;Grupo&gt;"><path class="cls-4" d="M36.24,165.19a1.14,1.14,0,0,0,.32-.19.83.83,0,0,0,.3-.7,3.64,3.64,0,0,0-.75-1.59Z"/></g><g id="_Grupo_79" data-name="&lt;Grupo&gt;"><path class="cls-6" d="M39.26,164a1.06,1.06,0,0,0,.29-.18.76.76,0,0,0,.27-.65,3.34,3.34,0,0,0-.7-1.46,3.36,3.36,0,0,0-.53,1.53.76.76,0,0,0,.35.61A1,1,0,0,0,39.26,164Z"/></g><g id="_Grupo_80" data-name="&lt;Grupo&gt;"><path class="cls-4" d="M39.26,164a1.06,1.06,0,0,0,.29-.18.76.76,0,0,0,.27-.65,3.34,3.34,0,0,0-.7-1.46Z"/></g><g id="_Grupo_81" data-name="&lt;Grupo&gt;"><path class="cls-6" d="M42.45,163.15a.91.91,0,0,0,.26-.15.66.66,0,0,0,.24-.57,2.92,2.92,0,0,0-.61-1.28,2.93,2.93,0,0,0-.46,1.34.66.66,0,0,0,.3.54A.94.94,0,0,0,42.45,163.15Z"/></g><g id="_Grupo_82" data-name="&lt;Grupo&gt;"><path class="cls-4" d="M42.45,163.15a.91.91,0,0,0,.26-.15.66.66,0,0,0,.24-.57,2.92,2.92,0,0,0-.61-1.28Z"/></g><g id="_Grupo_83" data-name="&lt;Grupo&gt;"><path class="cls-6" d="M45.62,162.55a.92.92,0,0,0,.26-.15.67.67,0,0,0,.24-.57,2.94,2.94,0,0,0-.61-1.28,2.92,2.92,0,0,0-.46,1.34.67.67,0,0,0,.3.54A.93.93,0,0,0,45.62,162.55Z"/></g><g id="_Grupo_84" data-name="&lt;Grupo&gt;"><path class="cls-4" d="M45.62,162.55a.92.92,0,0,0,.26-.15.67.67,0,0,0,.24-.57,2.94,2.94,0,0,0-.61-1.28Z"/></g><g id="_Grupo_85" data-name="&lt;Grupo&gt;"><path class="cls-6" d="M48.51,162.32a.89.89,0,0,0,.25-.15.66.66,0,0,0,.24-.56,2.92,2.92,0,0,0-.6-1.27,2.91,2.91,0,0,0-.46,1.33.66.66,0,0,0,.3.53A.88.88,0,0,0,48.51,162.32Z"/></g><g id="_Grupo_86" data-name="&lt;Grupo&gt;"><path class="cls-4" d="M48.51,162.32a.89.89,0,0,0,.25-.15.66.66,0,0,0,.24-.56,2.92,2.92,0,0,0-.6-1.27Z"/></g><g id="_Grupo_87" data-name="&lt;Grupo&gt;"><path class="cls-6" d="M25.59,172.7a1.24,1.24,0,0,0,.35-.21.91.91,0,0,0,.33-.77,4,4,0,0,0-.83-1.75,4,4,0,0,0-.63,1.83.91.91,0,0,0,.41.73A1.25,1.25,0,0,0,25.59,172.7Z"/></g><g id="_Grupo_88" data-name="&lt;Grupo&gt;"><path class="cls-4" d="M25.59,172.7a1.24,1.24,0,0,0,.35-.21.91.91,0,0,0,.33-.77,4,4,0,0,0-.83-1.75Z"/></g><g id="_Grupo_89" data-name="&lt;Grupo&gt;"><path class="cls-6" d="M22.63,175.21A1.29,1.29,0,0,0,23,175a.94.94,0,0,0,.34-.8,4.15,4.15,0,0,0-.86-1.82,4.15,4.15,0,0,0-.65,1.9.94.94,0,0,0,.43.76A1.31,1.31,0,0,0,22.63,175.21Z"/></g><g id="_Grupo_90" data-name="&lt;Grupo&gt;"><path class="cls-4" d="M22.63,175.21A1.29,1.29,0,0,0,23,175a.94.94,0,0,0,.34-.8,4.15,4.15,0,0,0-.86-1.82Z"/></g><g id="_Grupo_91" data-name="&lt;Grupo&gt;"><path class="cls-6" d="M20.07,178.17a1.32,1.32,0,0,0,.37-.22,1,1,0,0,0,.34-.82,4.22,4.22,0,0,0-.88-1.85,4.21,4.21,0,0,0-.67,1.93,1,1,0,0,0,.43.77A1.33,1.33,0,0,0,20.07,178.17Z"/></g><g id="_Grupo_92" data-name="&lt;Grupo&gt;"><path class="cls-4" d="M20.07,178.17a1.32,1.32,0,0,0,.37-.22,1,1,0,0,0,.34-.82,4.22,4.22,0,0,0-.88-1.85Z"/></g><g id="_Grupo_93" data-name="&lt;Grupo&gt;"><path class="cls-6" d="M17.3,181.28a1.3,1.3,0,0,0,.37-.22,1,1,0,0,0,.35-.82,4.25,4.25,0,0,0-.88-1.86,4.24,4.24,0,0,0-.67,1.94,1,1,0,0,0,.44.78A1.31,1.31,0,0,0,17.3,181.28Z"/></g><g id="_Grupo_94" data-name="&lt;Grupo&gt;"><path class="cls-4" d="M17.3,181.28a1.3,1.3,0,0,0,.37-.22,1,1,0,0,0,.35-.82,4.25,4.25,0,0,0-.88-1.86Z"/></g><g id="_Grupo_95" data-name="&lt;Grupo&gt;"><path class="cls-6" d="M32.55,171.34a1.14,1.14,0,0,0,.32-.19.82.82,0,0,0,.3-.7,3.64,3.64,0,0,0-.75-1.59,3.63,3.63,0,0,0-.57,1.66.82.82,0,0,0,.37.66A1.14,1.14,0,0,0,32.55,171.34Z"/></g><g id="_Grupo_96" data-name="&lt;Grupo&gt;"><path class="cls-4" d="M32.55,171.34a1.14,1.14,0,0,0,.32-.19.82.82,0,0,0,.3-.7,3.64,3.64,0,0,0-.75-1.59Z"/></g><g id="_Grupo_97" data-name="&lt;Grupo&gt;"><path class="cls-6" d="M35.35,169.41a1.12,1.12,0,0,0,.32-.19.83.83,0,0,0,.3-.7,3.64,3.64,0,0,0-.75-1.59,3.64,3.64,0,0,0-.57,1.66.83.83,0,0,0,.37.67A1.13,1.13,0,0,0,35.35,169.41Z"/></g><g id="_Grupo_98" data-name="&lt;Grupo&gt;"><path class="cls-4" d="M35.35,169.41a1.12,1.12,0,0,0,.32-.19.83.83,0,0,0,.3-.7,3.64,3.64,0,0,0-.75-1.59Z"/></g><g id="_Grupo_99" data-name="&lt;Grupo&gt;"><path class="cls-6" d="M38.27,167.63a1.13,1.13,0,0,0,.32-.19.83.83,0,0,0,.3-.7,3.63,3.63,0,0,0-.76-1.59,3.62,3.62,0,0,0-.57,1.66.82.82,0,0,0,.37.66A1.12,1.12,0,0,0,38.27,167.63Z"/></g><g id="_Grupo_100" data-name="&lt;Grupo&gt;"><path class="cls-4" d="M38.27,167.63a1.13,1.13,0,0,0,.32-.19.83.83,0,0,0,.3-.7,3.63,3.63,0,0,0-.76-1.59Z"/></g><g id="_Grupo_101" data-name="&lt;Grupo&gt;"><path class="cls-6" d="M41.15,166a1,1,0,0,0,.29-.18.76.76,0,0,0,.27-.65,3.36,3.36,0,0,0-.7-1.46,3.35,3.35,0,0,0-.53,1.53.76.76,0,0,0,.35.61A1,1,0,0,0,41.15,166Z"/></g><g id="_Grupo_102" data-name="&lt;Grupo&gt;"><path class="cls-4" d="M41.15,166a1,1,0,0,0,.29-.18.76.76,0,0,0,.27-.65,3.36,3.36,0,0,0-.7-1.46Z"/></g><g id="_Grupo_103" data-name="&lt;Grupo&gt;"><path class="cls-6" d="M44.48,164.88a.9.9,0,0,0,.26-.15.66.66,0,0,0,.24-.57,2.92,2.92,0,0,0-.61-1.28,2.92,2.92,0,0,0-.46,1.34.66.66,0,0,0,.3.54A.87.87,0,0,0,44.48,164.88Z"/></g><g id="_Grupo_104" data-name="&lt;Grupo&gt;"><path class="cls-4" d="M44.48,164.88a.9.9,0,0,0,.26-.15.66.66,0,0,0,.24-.57,2.92,2.92,0,0,0-.61-1.28Z"/></g><g id="_Grupo_105" data-name="&lt;Grupo&gt;"><path class="cls-6" d="M47.37,164.28a.9.9,0,0,0,.26-.15.67.67,0,0,0,.24-.57,2.92,2.92,0,0,0-.61-1.28,2.93,2.93,0,0,0-.46,1.34.67.67,0,0,0,.3.54A.9.9,0,0,0,47.37,164.28Z"/></g><g id="_Grupo_106" data-name="&lt;Grupo&gt;"><path class="cls-4" d="M47.37,164.28a.9.9,0,0,0,.26-.15.67.67,0,0,0,.24-.57,2.92,2.92,0,0,0-.61-1.28Z"/></g><g id="_Grupo_107" data-name="&lt;Grupo&gt;"><path class="cls-6" d="M51,163.49a.86.86,0,0,0,.26-.15.66.66,0,0,0,.24-.56,2.9,2.9,0,0,0-.6-1.27,2.9,2.9,0,0,0-.46,1.33.66.66,0,0,0,.3.53A.87.87,0,0,0,51,163.49Z"/></g><g id="_Grupo_108" data-name="&lt;Grupo&gt;"><path class="cls-4" d="M51,163.49a.86.86,0,0,0,.26-.15.66.66,0,0,0,.24-.56,2.9,2.9,0,0,0-.6-1.27Z"/></g><g id="_Grupo_109" data-name="&lt;Grupo&gt;"><path class="cls-6" d="M30,173.92a1.18,1.18,0,0,0,.34-.2.87.87,0,0,0,.31-.74,3.84,3.84,0,0,0-.8-1.68,3.83,3.83,0,0,0-.61,1.76.87.87,0,0,0,.4.7A1.2,1.2,0,0,0,30,173.92Z"/></g><g id="_Grupo_110" data-name="&lt;Grupo&gt;"><path class="cls-4" d="M30,173.92a1.18,1.18,0,0,0,.34-.2.87.87,0,0,0,.31-.74,3.84,3.84,0,0,0-.8-1.68Z"/></g><g id="_Grupo_111" data-name="&lt;Grupo&gt;"><path class="cls-6" d="M27.54,176.29a1.24,1.24,0,0,0,.35-.21.91.91,0,0,0,.33-.77,4,4,0,0,0-.83-1.75,4,4,0,0,0-.63,1.83.91.91,0,0,0,.41.73A1.24,1.24,0,0,0,27.54,176.29Z"/></g><g id="_Grupo_112" data-name="&lt;Grupo&gt;"><path class="cls-4" d="M27.54,176.29a1.24,1.24,0,0,0,.35-.21.91.91,0,0,0,.33-.77,4,4,0,0,0-.83-1.75Z"/></g><g id="_Grupo_113" data-name="&lt;Grupo&gt;"><path class="cls-6" d="M25.09,178.87a1.25,1.25,0,0,0,.36-.21.92.92,0,0,0,.33-.78,4.06,4.06,0,0,0-.84-1.77A4.06,4.06,0,0,0,24.3,178a.92.92,0,0,0,.42.74A1.25,1.25,0,0,0,25.09,178.87Z"/></g><g id="_Grupo_114" data-name="&lt;Grupo&gt;"><path class="cls-4" d="M25.09,178.87a1.25,1.25,0,0,0,.36-.21.92.92,0,0,0,.33-.78,4.06,4.06,0,0,0-.84-1.77Z"/></g><g id="_Grupo_115" data-name="&lt;Grupo&gt;"><path class="cls-6" d="M22.47,181.92a1.22,1.22,0,0,0,.36-.21.93.93,0,0,0,.33-.79,4.08,4.08,0,0,0-.85-1.78,4.08,4.08,0,0,0-.64,1.87.93.93,0,0,0,.42.75A1.24,1.24,0,0,0,22.47,181.92Z"/></g><g id="_Grupo_116" data-name="&lt;Grupo&gt;"><path class="cls-4" d="M22.47,181.92a1.22,1.22,0,0,0,.36-.21.93.93,0,0,0,.33-.79,4.08,4.08,0,0,0-.85-1.78Z"/></g><g id="_Grupo_117" data-name="&lt;Grupo&gt;"><path class="cls-6" d="M37.74,172.82a1.13,1.13,0,0,0,.32-.19.83.83,0,0,0,.3-.7,3.64,3.64,0,0,0-.76-1.59A3.65,3.65,0,0,0,37,172a.83.83,0,0,0,.37.66A1.14,1.14,0,0,0,37.74,172.82Z"/></g><g id="_Grupo_118" data-name="&lt;Grupo&gt;"><path class="cls-4" d="M37.74,172.82a1.13,1.13,0,0,0,.32-.19.83.83,0,0,0,.3-.7,3.64,3.64,0,0,0-.76-1.59Z"/></g><g id="_Grupo_119" data-name="&lt;Grupo&gt;"><path class="cls-6" d="M35.14,175.1a1.14,1.14,0,0,0,.32-.19.82.82,0,0,0,.3-.7,3.63,3.63,0,0,0-.75-1.59,3.64,3.64,0,0,0-.57,1.66.83.83,0,0,0,.37.66A1.12,1.12,0,0,0,35.14,175.1Z"/></g><g id="_Grupo_120" data-name="&lt;Grupo&gt;"><path class="cls-4" d="M35.14,175.1a1.14,1.14,0,0,0,.32-.19.82.82,0,0,0,.3-.7,3.63,3.63,0,0,0-.75-1.59Z"/></g><g id="_Grupo_121" data-name="&lt;Grupo&gt;"><path class="cls-6" d="M40.41,170.62a1.12,1.12,0,0,0,.32-.19.83.83,0,0,0,.3-.7,3.64,3.64,0,0,0-.75-1.59,3.62,3.62,0,0,0-.57,1.66.82.82,0,0,0,.37.66A1.13,1.13,0,0,0,40.41,170.62Z"/></g><g id="_Grupo_122" data-name="&lt;Grupo&gt;"><path class="cls-4" d="M40.41,170.62a1.12,1.12,0,0,0,.32-.19.83.83,0,0,0,.3-.7,3.64,3.64,0,0,0-.75-1.59Z"/></g><g id="_Grupo_123" data-name="&lt;Grupo&gt;"><path class="cls-6" d="M43.19,169a1.12,1.12,0,0,0,.32-.19.83.83,0,0,0,.3-.7,3.65,3.65,0,0,0-.75-1.59,3.63,3.63,0,0,0-.57,1.66.83.83,0,0,0,.37.67A1.13,1.13,0,0,0,43.19,169Z"/></g><g id="_Grupo_124" data-name="&lt;Grupo&gt;"><path class="cls-4" d="M43.19,169a1.12,1.12,0,0,0,.32-.19.83.83,0,0,0,.3-.7,3.65,3.65,0,0,0-.75-1.59Z"/></g><g id="_Grupo_125" data-name="&lt;Grupo&gt;"><path class="cls-6" d="M46.2,167.39a1,1,0,0,0,.29-.18.76.76,0,0,0,.27-.65,3.37,3.37,0,0,0-.69-1.46,3.34,3.34,0,0,0-.53,1.53.76.76,0,0,0,.34.61A1,1,0,0,0,46.2,167.39Z"/></g><g id="_Grupo_126" data-name="&lt;Grupo&gt;"><path class="cls-4" d="M46.2,167.39a1,1,0,0,0,.29-.18.76.76,0,0,0,.27-.65,3.37,3.37,0,0,0-.69-1.46Z"/></g><g id="_Grupo_127" data-name="&lt;Grupo&gt;"><path class="cls-6" d="M49.25,166.37a.87.87,0,0,0,.26-.15.66.66,0,0,0,.24-.56,2.93,2.93,0,0,0-.61-1.28,2.93,2.93,0,0,0-.46,1.34.66.66,0,0,0,.3.54A.89.89,0,0,0,49.25,166.37Z"/></g><g id="_Grupo_128" data-name="&lt;Grupo&gt;"><path class="cls-4" d="M49.25,166.37a.87.87,0,0,0,.26-.15.66.66,0,0,0,.24-.56,2.93,2.93,0,0,0-.61-1.28Z"/></g><g id="_Grupo_129" data-name="&lt;Grupo&gt;"><path class="cls-6" d="M52.14,165.63a.91.91,0,0,0,.26-.15.67.67,0,0,0,.24-.57,2.93,2.93,0,0,0-.61-1.28,2.93,2.93,0,0,0-.46,1.34.67.67,0,0,0,.3.54A.88.88,0,0,0,52.14,165.63Z"/></g><g id="_Grupo_130" data-name="&lt;Grupo&gt;"><path class="cls-4" d="M52.14,165.63a.91.91,0,0,0,.26-.15.67.67,0,0,0,.24-.57,2.93,2.93,0,0,0-.61-1.28Z"/></g><g id="_Grupo_131" data-name="&lt;Grupo&gt;"><path class="cls-6" d="M54.89,165.26a.91.91,0,0,0,.25-.15.66.66,0,0,0,.24-.56,2.9,2.9,0,0,0-.6-1.27,2.9,2.9,0,0,0-.46,1.33.66.66,0,0,0,.3.53A.88.88,0,0,0,54.89,165.26Z"/></g><g id="_Grupo_132" data-name="&lt;Grupo&gt;"><path class="cls-4" d="M54.89,165.26a.91.91,0,0,0,.25-.15.66.66,0,0,0,.24-.56,2.9,2.9,0,0,0-.6-1.27Z"/></g><g id="_Grupo_133" data-name="&lt;Grupo&gt;"><path class="cls-6" d="M32.48,177.51a1.18,1.18,0,0,0,.34-.2.87.87,0,0,0,.31-.74,3.84,3.84,0,0,0-.8-1.68,3.83,3.83,0,0,0-.6,1.76.87.87,0,0,0,.39.7A1.2,1.2,0,0,0,32.48,177.51Z"/></g><g id="_Grupo_134" data-name="&lt;Grupo&gt;"><path class="cls-4" d="M32.48,177.51a1.18,1.18,0,0,0,.34-.2.87.87,0,0,0,.31-.74,3.84,3.84,0,0,0-.8-1.68Z"/></g><g id="_Grupo_135" data-name="&lt;Grupo&gt;"><path class="cls-6" d="M30.08,180a1.24,1.24,0,0,0,.35-.21.91.91,0,0,0,.33-.77,4,4,0,0,0-.83-1.75,4,4,0,0,0-.63,1.83.91.91,0,0,0,.41.73A1.24,1.24,0,0,0,30.08,180Z"/></g><g id="_Grupo_136" data-name="&lt;Grupo&gt;"><path class="cls-4" d="M30.08,180a1.24,1.24,0,0,0,.35-.21.91.91,0,0,0,.33-.77,4,4,0,0,0-.83-1.75Z"/></g><g id="_Grupo_137" data-name="&lt;Grupo&gt;"><path class="cls-6" d="M27.72,182.62a1.26,1.26,0,0,0,.36-.21.92.92,0,0,0,.33-.78,4.06,4.06,0,0,0-.84-1.77,4.06,4.06,0,0,0-.64,1.86.92.92,0,0,0,.42.74A1.26,1.26,0,0,0,27.72,182.62Z"/></g><g id="_Grupo_138" data-name="&lt;Grupo&gt;"><path class="cls-4" d="M27.72,182.62a1.26,1.26,0,0,0,.36-.21.92.92,0,0,0,.33-.78,4.06,4.06,0,0,0-.84-1.77Z"/></g><g id="_Grupo_139" data-name="&lt;Grupo&gt;"><path class="cls-6" d="M41.53,175.22a1.13,1.13,0,0,0,.32-.19.83.83,0,0,0,.3-.7,3.64,3.64,0,0,0-.76-1.59,3.64,3.64,0,0,0-.57,1.66.82.82,0,0,0,.37.66A1.13,1.13,0,0,0,41.53,175.22Z"/></g><g id="_Grupo_140" data-name="&lt;Grupo&gt;"><path class="cls-4" d="M41.53,175.22a1.13,1.13,0,0,0,.32-.19.83.83,0,0,0,.3-.7,3.64,3.64,0,0,0-.76-1.59Z"/></g><g id="_Grupo_141" data-name="&lt;Grupo&gt;"><path class="cls-6" d="M38.93,177.5a1.13,1.13,0,0,0,.32-.19.82.82,0,0,0,.3-.7,3.63,3.63,0,0,0-.76-1.59,3.64,3.64,0,0,0-.57,1.66.83.83,0,0,0,.37.67A1.13,1.13,0,0,0,38.93,177.5Z"/></g><g id="_Grupo_142" data-name="&lt;Grupo&gt;"><path class="cls-4" d="M38.93,177.5a1.13,1.13,0,0,0,.32-.19.82.82,0,0,0,.3-.7,3.63,3.63,0,0,0-.76-1.59Z"/></g><g id="_Grupo_143" data-name="&lt;Grupo&gt;"><path class="cls-6" d="M44.2,173a1.13,1.13,0,0,0,.32-.19.82.82,0,0,0,.3-.7,3.64,3.64,0,0,0-.75-1.59,3.63,3.63,0,0,0-.57,1.66.82.82,0,0,0,.37.66A1.15,1.15,0,0,0,44.2,173Z"/></g><g id="_Grupo_144" data-name="&lt;Grupo&gt;"><path class="cls-4" d="M44.2,173a1.13,1.13,0,0,0,.32-.19.82.82,0,0,0,.3-.7,3.64,3.64,0,0,0-.75-1.59Z"/></g><g id="_Grupo_145" data-name="&lt;Grupo&gt;"><path class="cls-6" d="M47.12,171.23a1.13,1.13,0,0,0,.32-.19.83.83,0,0,0,.3-.7,3.63,3.63,0,0,0-.76-1.59,3.63,3.63,0,0,0-.57,1.66.82.82,0,0,0,.37.66A1.14,1.14,0,0,0,47.12,171.23Z"/></g><g id="_Grupo_146" data-name="&lt;Grupo&gt;"><path class="cls-4" d="M47.12,171.23a1.13,1.13,0,0,0,.32-.19.83.83,0,0,0,.3-.7,3.63,3.63,0,0,0-.76-1.59Z"/></g><g id="_Grupo_147" data-name="&lt;Grupo&gt;"><path class="cls-6" d="M50.13,169.65a1,1,0,0,0,.29-.18.76.76,0,0,0,.27-.65,3.36,3.36,0,0,0-.69-1.46,3.34,3.34,0,0,0-.53,1.53.76.76,0,0,0,.34.61A1,1,0,0,0,50.13,169.65Z"/></g><g id="_Grupo_148" data-name="&lt;Grupo&gt;"><path class="cls-4" d="M50.13,169.65a1,1,0,0,0,.29-.18.76.76,0,0,0,.27-.65,3.36,3.36,0,0,0-.69-1.46Z"/></g><g id="_Grupo_149" data-name="&lt;Grupo&gt;"><path class="cls-6" d="M53.18,168.48a.9.9,0,0,0,.26-.15.66.66,0,0,0,.24-.56,2.92,2.92,0,0,0-.61-1.28,2.92,2.92,0,0,0-.46,1.34.66.66,0,0,0,.3.54A.91.91,0,0,0,53.18,168.48Z"/></g><g id="_Grupo_150" data-name="&lt;Grupo&gt;"><path class="cls-4" d="M53.18,168.48a.9.9,0,0,0,.26-.15.66.66,0,0,0,.24-.56,2.92,2.92,0,0,0-.61-1.28Z"/></g><g id="_Grupo_151" data-name="&lt;Grupo&gt;"><path class="cls-6" d="M55.93,167.75a.91.91,0,0,0,.26-.15.67.67,0,0,0,.24-.57,2.94,2.94,0,0,0-.61-1.28,2.93,2.93,0,0,0-.46,1.34.67.67,0,0,0,.3.54A.92.92,0,0,0,55.93,167.75Z"/></g><g id="_Grupo_152" data-name="&lt;Grupo&gt;"><path class="cls-4" d="M55.93,167.75a.91.91,0,0,0,.26-.15.67.67,0,0,0,.24-.57,2.94,2.94,0,0,0-.61-1.28Z"/></g><g id="_Grupo_153" data-name="&lt;Grupo&gt;"><path class="cls-6" d="M58.54,167.52a.91.91,0,0,0,.25-.15.66.66,0,0,0,.24-.56,2.91,2.91,0,0,0-.6-1.27,2.91,2.91,0,0,0-.46,1.33.66.66,0,0,0,.3.53A.92.92,0,0,0,58.54,167.52Z"/></g><g id="_Grupo_154" data-name="&lt;Grupo&gt;"><path class="cls-4" d="M58.54,167.52a.91.91,0,0,0,.25-.15.66.66,0,0,0,.24-.56,2.91,2.91,0,0,0-.6-1.27Z"/></g><g id="_Grupo_155" data-name="&lt;Grupo&gt;"><path class="cls-6" d="M36.86,180.11a1.2,1.2,0,0,0,.34-.2.87.87,0,0,0,.31-.74,3.84,3.84,0,0,0-.8-1.68,3.83,3.83,0,0,0-.61,1.76.87.87,0,0,0,.4.7A1.2,1.2,0,0,0,36.86,180.11Z"/></g><g id="_Grupo_156" data-name="&lt;Grupo&gt;"><path class="cls-4" d="M36.86,180.11a1.2,1.2,0,0,0,.34-.2.87.87,0,0,0,.31-.74,3.84,3.84,0,0,0-.8-1.68Z"/></g><g id="_Grupo_157" data-name="&lt;Grupo&gt;"><path class="cls-6" d="M34.78,182.67a1.23,1.23,0,0,0,.35-.21.91.91,0,0,0,.33-.77,4,4,0,0,0-.83-1.75,4,4,0,0,0-.63,1.83.91.91,0,0,0,.41.73A1.24,1.24,0,0,0,34.78,182.67Z"/></g><g id="_Grupo_158" data-name="&lt;Grupo&gt;"><path class="cls-4" d="M34.78,182.67a1.23,1.23,0,0,0,.35-.21.91.91,0,0,0,.33-.77,4,4,0,0,0-.83-1.75Z"/></g><g id="_Grupo_159" data-name="&lt;Grupo&gt;"><path class="cls-6" d="M44.36,179a1.14,1.14,0,0,0,.32-.19.83.83,0,0,0,.3-.7,3.63,3.63,0,0,0-.75-1.59,3.63,3.63,0,0,0-.57,1.66.83.83,0,0,0,.37.66A1.15,1.15,0,0,0,44.36,179Z"/></g><g id="_Grupo_160" data-name="&lt;Grupo&gt;"><path class="cls-4" d="M44.36,179a1.14,1.14,0,0,0,.32-.19.83.83,0,0,0,.3-.7,3.63,3.63,0,0,0-.75-1.59Z"/></g><g id="_Grupo_161" data-name="&lt;Grupo&gt;"><path class="cls-6" d="M41.76,181.39a1.12,1.12,0,0,0,.32-.19.83.83,0,0,0,.3-.7,3.65,3.65,0,0,0-.76-1.59,3.62,3.62,0,0,0-.57,1.66.83.83,0,0,0,.37.66A1.14,1.14,0,0,0,41.76,181.39Z"/></g><g id="_Grupo_162" data-name="&lt;Grupo&gt;"><path class="cls-4" d="M41.76,181.39a1.12,1.12,0,0,0,.32-.19.83.83,0,0,0,.3-.7,3.65,3.65,0,0,0-.76-1.59Z"/></g><g id="_Grupo_163" data-name="&lt;Grupo&gt;"><path class="cls-6" d="M47,176.35a1.13,1.13,0,0,0,.32-.19.83.83,0,0,0,.3-.7,3.64,3.64,0,0,0-.75-1.59,3.63,3.63,0,0,0-.57,1.66.82.82,0,0,0,.38.67A1.13,1.13,0,0,0,47,176.35Z"/></g><g id="_Grupo_164" data-name="&lt;Grupo&gt;"><path class="cls-4" d="M47,176.35a1.13,1.13,0,0,0,.32-.19.83.83,0,0,0,.3-.7,3.64,3.64,0,0,0-.75-1.59Z"/></g><g id="_Grupo_165" data-name="&lt;Grupo&gt;"><path class="cls-6" d="M49.94,174.42a1.12,1.12,0,0,0,.32-.19.83.83,0,0,0,.3-.7,3.63,3.63,0,0,0-.75-1.59,3.63,3.63,0,0,0-.57,1.66.83.83,0,0,0,.37.66A1.11,1.11,0,0,0,49.94,174.42Z"/></g><g id="_Grupo_166" data-name="&lt;Grupo&gt;"><path class="cls-4" d="M49.94,174.42a1.12,1.12,0,0,0,.32-.19.83.83,0,0,0,.3-.7,3.63,3.63,0,0,0-.75-1.59Z"/></g><g id="_Grupo_167" data-name="&lt;Grupo&gt;"><path class="cls-6" d="M53,172.56a1,1,0,0,0,.29-.18.76.76,0,0,0,.27-.65,3.34,3.34,0,0,0-.69-1.46,3.34,3.34,0,0,0-.53,1.53.76.76,0,0,0,.34.61A1,1,0,0,0,53,172.56Z"/></g><g id="_Grupo_168" data-name="&lt;Grupo&gt;"><path class="cls-4" d="M53,172.56a1,1,0,0,0,.29-.18.76.76,0,0,0,.27-.65,3.34,3.34,0,0,0-.69-1.46Z"/></g><g id="_Grupo_169" data-name="&lt;Grupo&gt;"><path class="cls-6" d="M55.73,171.12A.89.89,0,0,0,56,171a.67.67,0,0,0,.24-.57,2.93,2.93,0,0,0-.61-1.28,2.94,2.94,0,0,0-.46,1.34.66.66,0,0,0,.3.53A.9.9,0,0,0,55.73,171.12Z"/></g><g id="_Grupo_170" data-name="&lt;Grupo&gt;"><path class="cls-4" d="M55.73,171.12A.89.89,0,0,0,56,171a.67.67,0,0,0,.24-.57,2.93,2.93,0,0,0-.61-1.28Z"/></g><g id="_Grupo_171" data-name="&lt;Grupo&gt;"><path class="cls-6" d="M58.34,170.1a.93.93,0,0,0,.26-.15.67.67,0,0,0,.24-.57,2.94,2.94,0,0,0-.61-1.28,2.93,2.93,0,0,0-.46,1.34.67.67,0,0,0,.3.54A.92.92,0,0,0,58.34,170.1Z"/></g><g id="_Grupo_172" data-name="&lt;Grupo&gt;"><path class="cls-4" d="M58.34,170.1a.93.93,0,0,0,.26-.15.67.67,0,0,0,.24-.57,2.94,2.94,0,0,0-.61-1.28Z"/></g><g id="_Grupo_173" data-name="&lt;Grupo&gt;"><path class="cls-6" d="M60.8,169.31a.91.91,0,0,0,.25-.15.66.66,0,0,0,.24-.56,2.9,2.9,0,0,0-.6-1.27,2.91,2.91,0,0,0-.46,1.33.66.66,0,0,0,.3.53A.88.88,0,0,0,60.8,169.31Z"/></g><g id="_Grupo_174" data-name="&lt;Grupo&gt;"><path class="cls-4" d="M60.8,169.31a.91.91,0,0,0,.25-.15.66.66,0,0,0,.24-.56,2.9,2.9,0,0,0-.6-1.27Z"/></g><g id="_Grupo_175" data-name="&lt;Grupo&gt;"><path class="cls-6" d="M49.19,181.54a1.13,1.13,0,0,0,.32-.19.83.83,0,0,0,.3-.7,3.64,3.64,0,0,0-.75-1.59,3.63,3.63,0,0,0-.57,1.66.83.83,0,0,0,.37.66A1.14,1.14,0,0,0,49.19,181.54Z"/></g><g id="_Grupo_176" data-name="&lt;Grupo&gt;"><path class="cls-4" d="M49.19,181.54a1.13,1.13,0,0,0,.32-.19.83.83,0,0,0,.3-.7,3.64,3.64,0,0,0-.75-1.59Z"/></g><g id="_Grupo_177" data-name="&lt;Grupo&gt;"><path class="cls-6" d="M51.89,179a1.12,1.12,0,0,0,.32-.19.82.82,0,0,0,.3-.7,3.64,3.64,0,0,0-.75-1.59,3.63,3.63,0,0,0-.57,1.66.83.83,0,0,0,.37.66A1.14,1.14,0,0,0,51.89,179Z"/></g><g id="_Grupo_178" data-name="&lt;Grupo&gt;"><path class="cls-4" d="M51.89,179a1.12,1.12,0,0,0,.32-.19.82.82,0,0,0,.3-.7,3.64,3.64,0,0,0-.75-1.59Z"/></g><g id="_Grupo_179" data-name="&lt;Grupo&gt;"><path class="cls-6" d="M54.67,176.4a1.12,1.12,0,0,0,.32-.19.83.83,0,0,0,.3-.7,3.65,3.65,0,0,0-.76-1.59,3.63,3.63,0,0,0-.57,1.66.83.83,0,0,0,.37.66A1.12,1.12,0,0,0,54.67,176.4Z"/></g><g id="_Grupo_180" data-name="&lt;Grupo&gt;"><path class="cls-4" d="M54.67,176.4a1.12,1.12,0,0,0,.32-.19.83.83,0,0,0,.3-.7,3.65,3.65,0,0,0-.76-1.59Z"/></g><g id="_Grupo_181" data-name="&lt;Grupo&gt;"><path class="cls-6" d="M57.6,174.2a1,1,0,0,0,.29-.18.76.76,0,0,0,.27-.65,3.35,3.35,0,0,0-.7-1.46,3.35,3.35,0,0,0-.53,1.53.76.76,0,0,0,.34.61A1,1,0,0,0,57.6,174.2Z"/></g><g id="_Grupo_182" data-name="&lt;Grupo&gt;"><path class="cls-4" d="M57.6,174.2a1,1,0,0,0,.29-.18.76.76,0,0,0,.27-.65,3.35,3.35,0,0,0-.7-1.46Z"/></g><g id="_Grupo_183" data-name="&lt;Grupo&gt;"><path class="cls-6" d="M60.27,172.76a.9.9,0,0,0,.26-.16.66.66,0,0,0,.24-.56,2.93,2.93,0,0,0-.61-1.28,2.92,2.92,0,0,0-.46,1.34.66.66,0,0,0,.3.54A.92.92,0,0,0,60.27,172.76Z"/></g><g id="_Grupo_184" data-name="&lt;Grupo&gt;"><path class="cls-4" d="M60.27,172.76a.9.9,0,0,0,.26-.16.66.66,0,0,0,.24-.56,2.93,2.93,0,0,0-.61-1.28Z"/></g><g id="_Grupo_185" data-name="&lt;Grupo&gt;"><path class="cls-6" d="M63.31,171.88a.91.91,0,0,0,.26-.15.67.67,0,0,0,.24-.57,2.94,2.94,0,0,0-.61-1.28,2.93,2.93,0,0,0-.46,1.34.67.67,0,0,0,.3.54A.91.91,0,0,0,63.31,171.88Z"/></g><g id="_Grupo_186" data-name="&lt;Grupo&gt;"><path class="cls-4" d="M63.31,171.88a.91.91,0,0,0,.26-.15.67.67,0,0,0,.24-.57,2.94,2.94,0,0,0-.61-1.28Z"/></g><g id="_Grupo_187" data-name="&lt;Grupo&gt;"><path class="cls-6" d="M56.76,180.22a1.13,1.13,0,0,0,.32-.19.83.83,0,0,0,.3-.7,3.63,3.63,0,0,0-.75-1.59,3.64,3.64,0,0,0-.57,1.66.82.82,0,0,0,.37.67A1.13,1.13,0,0,0,56.76,180.22Z"/></g><g id="_Grupo_188" data-name="&lt;Grupo&gt;"><path class="cls-4" d="M56.76,180.22a1.13,1.13,0,0,0,.32-.19.83.83,0,0,0,.3-.7,3.63,3.63,0,0,0-.75-1.59Z"/></g><g id="_Grupo_189" data-name="&lt;Grupo&gt;"><path class="cls-6" d="M59.26,177.64a1.15,1.15,0,0,0,.32-.19.82.82,0,0,0,.3-.7,3.63,3.63,0,0,0-.76-1.59,3.64,3.64,0,0,0-.57,1.66.83.83,0,0,0,.37.66A1.14,1.14,0,0,0,59.26,177.64Z"/></g><g id="_Grupo_190" data-name="&lt;Grupo&gt;"><path class="cls-4" d="M59.26,177.64a1.15,1.15,0,0,0,.32-.19.82.82,0,0,0,.3-.7,3.63,3.63,0,0,0-.76-1.59Z"/></g><g id="_Grupo_191" data-name="&lt;Grupo&gt;"><path class="cls-6" d="M62.05,175.4a1,1,0,0,0,.29-.18.76.76,0,0,0,.27-.65,3.36,3.36,0,0,0-.7-1.46,3.35,3.35,0,0,0-.53,1.53.76.76,0,0,0,.35.61A1,1,0,0,0,62.05,175.4Z"/></g><g id="_Grupo_192" data-name="&lt;Grupo&gt;"><path class="cls-4" d="M62.05,175.4a1,1,0,0,0,.29-.18.76.76,0,0,0,.27-.65,3.36,3.36,0,0,0-.7-1.46Z"/></g><g id="_Grupo_193" data-name="&lt;Grupo&gt;"><path class="cls-6" d="M64.76,174.26a.92.92,0,0,0,.26-.15.66.66,0,0,0,.24-.57,2.93,2.93,0,0,0-.61-1.28,2.92,2.92,0,0,0-.46,1.34.66.66,0,0,0,.3.54A.94.94,0,0,0,64.76,174.26Z"/></g><g id="_Grupo_194" data-name="&lt;Grupo&gt;"><path class="cls-4" d="M64.76,174.26a.92.92,0,0,0,.26-.15.66.66,0,0,0,.24-.57,2.93,2.93,0,0,0-.61-1.28Z"/></g><g id="_Grupo_195" data-name="&lt;Grupo&gt;"><path class="cls-6" d="M62.46,179a1.14,1.14,0,0,0,.32-.19.83.83,0,0,0,.3-.7,3.63,3.63,0,0,0-.76-1.59,3.63,3.63,0,0,0-.57,1.66.83.83,0,0,0,.37.66A1.14,1.14,0,0,0,62.46,179Z"/></g><g id="_Grupo_196" data-name="&lt;Grupo&gt;"><path class="cls-4" d="M62.46,179a1.14,1.14,0,0,0,.32-.19.83.83,0,0,0,.3-.7,3.63,3.63,0,0,0-.76-1.59Z"/></g><g id="_Grupo_197" data-name="&lt;Grupo&gt;"><path class="cls-6" d="M64.83,177.49a1.06,1.06,0,0,0,.29-.18.76.76,0,0,0,.27-.65,3.36,3.36,0,0,0-.69-1.46,3.34,3.34,0,0,0-.53,1.53.76.76,0,0,0,.34.61A1,1,0,0,0,64.83,177.49Z"/></g><g id="_Grupo_198" data-name="&lt;Grupo&gt;"><path class="cls-4" d="M64.83,177.49a1.06,1.06,0,0,0,.29-.18.76.76,0,0,0,.27-.65,3.36,3.36,0,0,0-.69-1.46Z"/></g><g id="_Grupo_199" data-name="&lt;Grupo&gt;"><path class="cls-6" d="M67.24,175.92a.89.89,0,0,0,.26-.15.66.66,0,0,0,.24-.57,2.93,2.93,0,0,0-.61-1.28,2.93,2.93,0,0,0-.46,1.34.66.66,0,0,0,.3.54A.9.9,0,0,0,67.24,175.92Z"/></g><g id="_Grupo_200" data-name="&lt;Grupo&gt;"><path class="cls-4" d="M67.24,175.92a.89.89,0,0,0,.26-.15.66.66,0,0,0,.24-.57,2.93,2.93,0,0,0-.61-1.28Z"/></g><circle class="cls-6" cx="14.07" cy="144.57" r="4.63"/><circle class="cls-4" cx="14.07" cy="144.57" r="4.01"/><circle class="cls-1" cx="14.07" cy="144.57" r="3.19"/><g id="_Grupo_201" data-name="&lt;Grupo&gt;"><path class="cls-6" d="M0,145.71H13a1.08,1.08,0,0,0-1.39-.89,3.11,3.11,0,0,0-3-2.25,3.35,3.35,0,0,0-2.15.78,2.29,2.29,0,0,0-1.41-.42,2.21,2.21,0,0,0-2,1A2.42,2.42,0,0,0,0,145.71Z"/></g><g id="_Grupo_202" data-name="&lt;Grupo&gt;"><g id="_Grupo_203" data-name="&lt;Grupo&gt;"><path class="cls-1" d="M4.91,155.15,4.78,155a1.27,1.27,0,0,0-1.56-.1.14.14,0,0,1-.17-.22,1.53,1.53,0,0,1,1.78,0,1.76,1.76,0,0,1,.19-.25A1.63,1.63,0,0,1,6.55,154a.14.14,0,0,1,.12.16.14.14,0,0,1-.16.12,1.35,1.35,0,0,0-1.29.39A1.53,1.53,0,0,0,5,155Z"/></g></g><g id="_Grupo_204" data-name="&lt;Grupo&gt;"><g id="_Grupo_205" data-name="&lt;Grupo&gt;"><path class="cls-1" d="M8.63,153.82l-.1-.14a1.27,1.27,0,0,0-1.47-.54.14.14,0,0,1-.1-.26,1.53,1.53,0,0,1,1.7.52,1.78,1.78,0,0,1,.26-.18,1.63,1.63,0,0,1,1.61,0,.14.14,0,1,1-.12.25,1.36,1.36,0,0,0-1.34,0,1.53,1.53,0,0,0-.32.25Z"/></g></g><g id="_Grupo_206" data-name="&lt;Grupo&gt;"><g id="_Grupo_207" data-name="&lt;Grupo&gt;"><path class="cls-1" d="M61.9,158.41l-.12-.12a1.54,1.54,0,0,0-.31-.26,1.36,1.36,0,0,0-1.34,0,.14.14,0,0,1-.12-.25,1.63,1.63,0,0,1,1.61.06,1.81,1.81,0,0,1,.25.19,1.53,1.53,0,0,1,1.71-.47.14.14,0,1,1-.11.26,1.27,1.27,0,0,0-1.48.5Z"/></g></g><g id="_Grupo_208" data-name="&lt;Grupo&gt;"><path class="cls-6" d="M56.29,154.11H65.7a.78.78,0,0,0-1-.65,2.25,2.25,0,0,0-2.18-1.62,2.42,2.42,0,0,0-1.55.56,1.65,1.65,0,0,0-1-.3,1.6,1.6,0,0,0-1.41.75A1.75,1.75,0,0,0,56.29,154.11Z"/></g><path class="cls-6" d="M68.61,176.65l-.16.16C68.57,176.72,68.63,176.67,68.61,176.65Z"/><path class="cls-4" d="M44.38,123.6l-2.81,7.12-2.25-.88a2.31,2.31,0,0,0,1.39,3.06l12.64,5.41,4-10.15Z"/><polygon class="cls-4" points="57.36 128.16 44.38 123.6 40.72 132.9 45.77 135.06 36.65 136.97 36.96 138.84 50.46 137.07 53.36 138.31 57.36 128.16"/><path class="cls-4" d="M45.73,123.94a4.8,4.8,0,0,0-.33,1.57l1.69.6A3.16,3.16,0,1,1,52.41,128l1.69.59a4.83,4.83,0,1,0-8.38-4.63Z"/><polygon class="cls-1" points="36.8 137.88 36.96 138.84 50.46 137.07 47.82 135.94 36.8 137.88"/><path class="cls-4" d="M42.6,132.84c.23.09.36.29.3.44l-1.38,3.48c-.06.15-.3.2-.52.11h0c-.23-.09-.36-.29-.3-.44l1.38-3.48c.06-.15.3-.2.52-.11Z"/><path class="cls-4" d="M41.39,132.36"/><rect class="cls-1" x="49.17" y="132.56" width="12.13" height="1.25" transform="translate(-88.93 135.74) rotate(-68.49)"/><path class="cls-4" d="M42.83,128.71l-1.14,2.06-2.36-.93a2.31,2.31,0,0,0,1.39,3.06c1.71.67,2.58-1.3,2.58-1.3Z"/><path class="cls-1" d="M42.57,128.17l-1,2.55-2.25-.88a2.31,2.31,0,0,0,1.39,3.06l12.64,5.41,2-5.08Z"/><polygon class="cls-4" points="33.91 135.44 37.09 137.22 37.26 138.63 35.14 141.76 33.91 135.44"/><polygon class="cls-1" points="34.47 138.31 35.14 141.76 37.26 138.63 37.16 137.82 34.47 138.31"/><g id="_Grupo_209" data-name="&lt;Grupo&gt;"><path class="cls-7" d="M27.41,146.66a.68.68,0,0,0,.39-.12,1,1,0,0,0,.4-.81,4.28,4.28,0,0,0-.78-1.92,4.28,4.28,0,0,0-.78,1.92,1,1,0,0,0,.4.81A.68.68,0,0,0,27.41,146.66Z"/></g><g id="_Grupo_210" data-name="&lt;Grupo&gt;"><path class="cls-7" d="M33.74,148.4a.68.68,0,0,0,.39-.12,1,1,0,0,0,.4-.81,4.28,4.28,0,0,0-.78-1.92,4.28,4.28,0,0,0-.78,1.92,1,1,0,0,0,.4.81A.68.68,0,0,0,33.74,148.4Z"/></g><g id="_Grupo_211" data-name="&lt;Grupo&gt;"><path class="cls-8" d="M34.24,154.15a.68.68,0,0,0,.39-.12,1,1,0,0,0,.4-.81,4.28,4.28,0,0,0-.78-1.92,4.28,4.28,0,0,0-.78,1.92,1,1,0,0,0,.4.81A.68.68,0,0,0,34.24,154.15Z"/></g><g id="_Grupo_212" data-name="&lt;Grupo&gt;"><path class="cls-8" d="M31.77,144.57a1,1,0,0,0,.56-.17,1.4,1.4,0,0,0,.57-1.17,6.2,6.2,0,0,0-1.13-2.77,6.18,6.18,0,0,0-1.13,2.77,1.41,1.41,0,0,0,.57,1.17A1,1,0,0,0,31.77,144.57Z"/></g><g id="_Grupo_213" data-name="&lt;Grupo&gt;"><path class="cls-7" d="M30.33,150.85a.91.91,0,0,0,.52-.16,1.29,1.29,0,0,0,.53-1.07,5.7,5.7,0,0,0-1-2.56,5.7,5.7,0,0,0-1,2.56,1.3,1.3,0,0,0,.53,1.07A.91.91,0,0,0,30.33,150.85Z"/></g><g id="_Grupo_214" data-name="&lt;Grupo&gt;"><g id="_Grupo_215" data-name="&lt;Grupo&gt;"><g id="_Grupo_216" data-name="&lt;Grupo&gt;"><path class="cls-9" d="M49.59,83.38a8.76,8.76,0,0,1-8.76,8.76H44.2A8.76,8.76,0,0,0,53,83.38V82H49.59Z"/></g><g id="_Grupo_217" data-name="&lt;Grupo&gt;"><path class="cls-9" d="M35.75,82H32.69a8.76,8.76,0,0,0-8.76,8.76v1.4H27v-1.4A8.76,8.76,0,0,1,35.75,82Z"/></g><g id="_Grupo_218" data-name="&lt;Grupo&gt;"><path class="cls-10" d="M49.59,83.38V82H46.53v1.4a8.76,8.76,0,0,1-8.76,8.76h3.06A8.76,8.76,0,0,0,49.59,83.38Z"/></g><g id="_Grupo_219" data-name="&lt;Grupo&gt;"><path class="cls-10" d="M39.11,82H35.75A8.76,8.76,0,0,0,27,90.73v1.4h3.36v-1.4A8.76,8.76,0,0,1,39.11,82Z"/></g><g id="_Grupo_220" data-name="&lt;Grupo&gt;"><path class="cls-11" d="M46.53,83.38V82H39.11a8.76,8.76,0,0,0-8.76,8.76v1.4h7.42A8.76,8.76,0,0,0,46.53,83.38Z"/></g><g id="_Grupo_221" data-name="&lt;Grupo&gt;"><path class="cls-12" d="M41,66.54H37.63a12,12,0,0,1,12,12v1.91H53V78.5A12,12,0,0,0,41,66.54Z"/></g><g id="_Grupo_222" data-name="&lt;Grupo&gt;"><path class="cls-13" d="M37.63,66.54H34.57a12,12,0,0,1,12,12v1.91h3.06V78.5A12,12,0,0,0,37.63,66.54Z"/></g><g id="_Grupo_223" data-name="&lt;Grupo&gt;"><path class="cls-12" d="M18.71,68.45V66.54H15.66v1.91a12,12,0,0,0,12,12h3.06A12,12,0,0,1,18.71,68.45Z"/></g><g id="_Grupo_224" data-name="&lt;Grupo&gt;"><path class="cls-13" d="M22.08,68.45V66.54H18.71v1.91a12,12,0,0,0,12,12H34A12,12,0,0,1,22.08,68.45Z"/></g><g id="_Grupo_225" data-name="&lt;Grupo&gt;"><path class="cls-14" d="M34.57,66.54H22.08v1.91a12,12,0,0,0,12,12H46.53V78.5A12,12,0,0,0,34.57,66.54Z"/></g></g></g><rect class="cls-3" x="11.1" y="3.8" width="16.3" height="26.66"/><g class="cls-5"><rect class="cls-6" x="19.25" y="3.8" width="8.15" height="26.66"/></g><path class="cls-10" d="M29.26,30.47a.61.61,0,0,0-.61-.61h-19a.61.61,0,0,0-.61.61h0a.61.61,0,0,0,.61.61h19a.61.61,0,0,0,.61-.61Z"/><path class="cls-6" d="M19.25,31.07h9.4a.61.61,0,0,0,.61-.61h0a.61.61,0,0,0-.61-.61h-9.4"/><path class="cls-10" d="M29.26,3.8a.61.61,0,0,0-.61-.61h-19a.61.61,0,0,0-.61.61h0a.61.61,0,0,0,.61.61h19a.61.61,0,0,0,.61-.61Z"/><path class="cls-6" d="M19.25,4.41h9.4a.61.61,0,0,0,.61-.61h0a.61.61,0,0,0-.61-.61h-9.4"/><g class="cls-15"><path class="cls-6" d="M16.28,18.9a2.23,2.23,0,0,0-.34.58,1.64,1.64,0,0,0-.11.4,1.19,1.19,0,0,0,.11.69v0a1.38,1.38,0,0,0,1.18.61l1.23,0,0-2.33Z"/><path class="cls-6" d="M22.83,18.69a2.24,2.24,0,0,0,.67,0,1.67,1.67,0,0,0,.4-.11,1.19,1.19,0,0,0,.54-.44l0,0v0a1.38,1.38,0,0,0-.06-1.32l-.6-1.08-2,1.19Z"/><path class="cls-6" d="M19.38,13.12a2.21,2.21,0,0,0-.33-.58,1.65,1.65,0,0,0-.29-.29A1.19,1.19,0,0,0,18.1,12h0a1.38,1.38,0,0,0-1.11.72l-.64,1.06,2,1.14Z"/><path class="cls-6" d="M15.89,19.24l1.23-2.14h0l.09-.16,1.11.64L17,15l-2.92.18,1.11.64-.09.16-.6,1a1.48,1.48,0,0,0,0,1.45v0l0,0,0,.05,1.15,2A1.45,1.45,0,0,1,15.89,19.24Z"/><path class="cls-6" d="M23.33,18.86H20.68V17.58L19.07,20l1.61,2.44V21.19h1.38a1.48,1.48,0,0,0,1.26-.71l0,0,0,0,0-.05h0l1.14-2A1.45,1.45,0,0,1,23.33,18.86Z"/><path class="cls-6" d="M19.28,12.6l1.33,2.3-1.11.64,2.92.18,1.31-2.62-1.11.64-.09-.16-.6-1a1.48,1.48,0,0,0-1.25-.73H18.26A1.45,1.45,0,0,1,19.28,12.6Z"/></g><rect class="cls-3" x="41.4" y="3.8" width="16.3" height="26.66"/><g class="cls-5"><rect class="cls-6" x="49.55" y="3.8" width="8.15" height="26.66"/></g><path class="cls-10" d="M59.55,30.47a.61.61,0,0,0-.61-.61H40a.61.61,0,0,0-.61.61h0a.61.61,0,0,0,.61.61h19a.61.61,0,0,0,.61-.61Z"/><path class="cls-6" d="M49.55,31.07h9.4a.61.61,0,0,0,.61-.61h0a.61.61,0,0,0-.61-.61h-9.4"/><path class="cls-10" d="M59.55,3.8a.61.61,0,0,0-.61-.61H40a.61.61,0,0,0-.61.61h0a.61.61,0,0,0,.61.61h19a.61.61,0,0,0,.61-.61Z"/><path class="cls-6" d="M49.55,4.41h9.4a.61.61,0,0,0,.61-.61h0a.61.61,0,0,0-.61-.61h-9.4"/><g class="cls-15"><path class="cls-6" d="M46.58,18.9a2.23,2.23,0,0,0-.34.58,1.62,1.62,0,0,0-.11.4,1.19,1.19,0,0,0,.11.69v0h0a1.38,1.38,0,0,0,1.18.61l1.23,0,0-2.33Z"/><path class="cls-6" d="M53.13,18.69a2.25,2.25,0,0,0,.67,0,1.67,1.67,0,0,0,.4-.11,1.19,1.19,0,0,0,.54-.44l0,0v0a1.38,1.38,0,0,0-.06-1.32l-.6-1.08-2,1.19Z"/><path class="cls-6" d="M49.68,13.12a2.21,2.21,0,0,0-.33-.58,1.68,1.68,0,0,0-.29-.29A1.19,1.19,0,0,0,48.4,12h0a1.38,1.38,0,0,0-1.11.72l-.64,1.06,2,1.14Z"/><path class="cls-6" d="M46.19,19.24l1.23-2.14h0l.09-.16,1.11.64L47.31,15l-2.92.18,1.11.64-.09.16-.6,1a1.48,1.48,0,0,0,0,1.45v0l0,0,0,.05,1.15,2A1.45,1.45,0,0,1,46.19,19.24Z"/><path class="cls-6" d="M53.63,18.86H51V17.58L49.37,20,51,22.46V21.19h1.38a1.48,1.48,0,0,0,1.26-.71l0,0,0,0,0-.05h0l1.14-2A1.45,1.45,0,0,1,53.63,18.86Z"/><path class="cls-6" d="M49.58,12.6l1.32,2.3-1.11.64,2.92.18L54,13.09l-1.11.64-.09-.16-.6-1A1.48,1.48,0,0,0,51,11.81H48.56A1.45,1.45,0,0,1,49.58,12.6Z"/></g><rect class="cls-3" x="24.83" y="0.72" width="19.33" height="31.62"/><g class="cls-5"><rect class="cls-6" x="34.5" y="0.72" width="9.67" height="31.62"/></g><path class="cls-10" d="M46.36,32.34a.72.72,0,0,0-.72-.72H23.13a.72.72,0,0,0-.72.72h0a.72.72,0,0,0,.72.72H45.64a.72.72,0,0,0,.72-.72Z"/><path class="cls-6" d="M34.5,33.06H45.64a.72.72,0,0,0,.72-.72h0a.72.72,0,0,0-.72-.72H34.5"/><path class="cls-10" d="M46.36.72A.72.72,0,0,0,45.64,0H23.13a.72.72,0,0,0-.72.72h0a.72.72,0,0,0,.72.72H45.64a.72.72,0,0,0,.72-.72Z"/><path class="cls-6" d="M34.5,1.44H45.64a.72.72,0,0,0,.72-.72h0A.72.72,0,0,0,45.64,0H34.5"/><g class="cls-15"><path class="cls-6" d="M31,18.62a2.62,2.62,0,0,0-.4.69,1.92,1.92,0,0,0-.13.48,1.41,1.41,0,0,0,.13.82l0,0v0a1.64,1.64,0,0,0,1.4.72l1.46,0,0-2.76Z"/><path class="cls-6" d="M38.74,18.38a2.65,2.65,0,0,0,.8,0,2,2,0,0,0,.48-.13,1.41,1.41,0,0,0,.64-.52l0,0v0a1.64,1.64,0,0,0-.08-1.57l-.71-1.28-2.37,1.41Z"/><path class="cls-6" d="M34.65,11.77a2.62,2.62,0,0,0-.39-.69,2,2,0,0,0-.35-.35,1.41,1.41,0,0,0-.77-.3h-.06a1.64,1.64,0,0,0-1.32.85L31,12.53l2.41,1.35Z"/><path class="cls-6" d="M30.51,19,32,16.5h0l.11-.19,1.31.76L31.84,14l-3.46.21,1.31.76-.11.19-.71,1.22a1.75,1.75,0,0,0,0,1.71l0,0,0,0,0,.06,1.36,2.35A1.72,1.72,0,0,1,30.51,19Z"/><path class="cls-6" d="M39.34,18.58H36.19V17.06L34.28,20l1.91,2.89V21.34h1.63a1.76,1.76,0,0,0,1.49-.84l0,0,0,0,0-.06h0L40.75,18A1.72,1.72,0,0,1,39.34,18.58Z"/><path class="cls-6" d="M34.53,11.16l1.57,2.72-1.31.76,3.46.21,1.55-3.1-1.31.76-.11-.19-.71-1.22a1.76,1.76,0,0,0-1.48-.87H33.32A1.72,1.72,0,0,1,34.53,11.16Z"/></g><path class="cls-12" d="M34.89,54.16a.58.58,0,0,1-.58.58h0a.58.58,0,0,1-.58-.58v-10a.58.58,0,0,1,.58-.58h0a.58.58,0,0,1,.58.58Z"/><path class="cls-12" d="M29.29,49.73a.58.58,0,0,1-.58-.58h0a.58.58,0,0,1,.58-.58h10a.58.58,0,0,1,.58.58h0a.58.58,0,0,1-.58.58Z"/><path class="cls-12" d="M29.29,109.56a.58.58,0,0,1-.58-.58h0a.58.58,0,0,1,.58-.58h10a.58.58,0,0,1,.58.58h0a.58.58,0,0,1-.58.58Z"/><path class="cls-12" d="M29.29,106.45a.58.58,0,0,1-.58-.58h0a.58.58,0,0,1,.58-.58h10a.58.58,0,0,1,.58.58h0a.58.58,0,0,1-.58.58Z"/></g></g></svg>