<svg xmlns="http://www.w3.org/2000/svg" viewBox="0 0 144.94 139"><defs><style>.cls-1{fill:#7ac7fa;}.cls-2{fill:#7abc39;}.cls-3{fill:#b6e436;}.cls-4,.cls-5{fill:#5ca126;}.cls-5{opacity:0.4;}</style></defs><title>Recurso 3</title><g id="Capa_2" data-name="Capa 2"><g id="Capa_1-2" data-name="Capa 1"><path class="cls-1" d="M15.53,96.92v36.69a3,3,0,0,0,3,3h0a3,3,0,0,0,3-3V96.92Z"/><path id="_Trazado_" data-name="&lt;Trazado&gt;" class="cls-2" d="M118.76,8.95A2.14,2.14,0,0,0,120,8.57,3.06,3.06,0,0,0,121.22,6c0-2.19-1.84-5.11-2.46-6-.62.93-2.46,3.84-2.46,6a3.06,3.06,0,0,0,1.24,2.54A2.15,2.15,0,0,0,118.76,8.95Z"/><path id="_Trazado_2" data-name="&lt;Trazado&gt;" class="cls-3" d="M125.35,17.46a2.15,2.15,0,0,0,1.22-.38,3.06,3.06,0,0,0,1.24-2.54c0-2.19-1.84-5.11-2.46-6-.62.93-2.46,3.84-2.46,6a3.06,3.06,0,0,0,1.24,2.54A2.15,2.15,0,0,0,125.35,17.46Z"/><path id="_Trazado_3" data-name="&lt;Trazado&gt;" class="cls-3" d="M135.37,25.11a2.14,2.14,0,0,0,1.22-.38,3.06,3.06,0,0,0,1.24-2.54c0-2.19-1.84-5.11-2.46-6-.62.93-2.46,3.84-2.46,6a3.06,3.06,0,0,0,1.24,2.54A2.15,2.15,0,0,0,135.37,25.11Z"/><path id="_Trazado_4" data-name="&lt;Trazado&gt;" class="cls-2" d="M132.91,8.95a2.15,2.15,0,0,0,1.22-.38A3.05,3.05,0,0,0,135.37,6c0-2.19-1.84-5.11-2.46-6-.62.93-2.46,3.84-2.46,6a3.06,3.06,0,0,0,1.24,2.54A2.15,2.15,0,0,0,132.91,8.95Z"/><path id="_Trazado_5" data-name="&lt;Trazado&gt;" class="cls-3" d="M126.79,34.06a2.15,2.15,0,0,0,1.22-.38,3.06,3.06,0,0,0,1.24-2.54c0-2.19-1.84-5.11-2.46-6-.62.93-2.46,3.84-2.46,6a3.06,3.06,0,0,0,1.24,2.54A2.15,2.15,0,0,0,126.79,34.06Z"/><path id="_Trazado_6" data-name="&lt;Trazado&gt;" class="cls-2" d="M117.08,27.36a2.18,2.18,0,0,0,1.24-.39,3.11,3.11,0,0,0,1.27-2.58c0-2.23-1.87-5.19-2.5-6.13-.63.94-2.51,3.91-2.51,6.13A3.11,3.11,0,0,0,115.84,27,2.19,2.19,0,0,0,117.08,27.36Z"/><path class="cls-4" d="M144.94,30.39H109.72l15,11.74v13.2a2.29,2.29,0,0,0,0,.23c0,3.13-.08,4.47-4.86,4.47H108a2.23,2.23,0,1,0,0,4.46h12.92c3.07.1,8.28.32,8.28-5.35V42.82Z"/><rect class="cls-2" x="122.31" y="44.82" width="9.48" height="2.63" rx="0.68" ry="0.68"/><rect class="cls-2" x="122.31" y="52.91" width="9.48" height="2.63" rx="0.68" ry="0.68"/><rect class="cls-2" x="10.02" y="79.66" width="5.51" height="3.01"/><path class="cls-2" d="M31.13,58A1.84,1.84,0,0,1,33,56.17h0A1.84,1.84,0,0,1,34.8,58V70.82A1.84,1.84,0,0,1,33,72.66h0a1.84,1.84,0,0,1-1.84-1.84Z"/><path class="cls-4" d="M20.93,67.44h30v4.3l-28.8-.5a1.28,1.28,0,0,0-1.38,1.16V97.76h-4.3V71.22C16.43,69.13,18.45,67.44,20.93,67.44Z"/><rect class="cls-2" x="26.66" y="66.05" width="13.07" height="7.14" rx="0.92" ry="0.92"/><path class="cls-4" d="M13.19,81.46v-.41a.59.59,0,0,0-.58-.6l-.39-1a.59.59,0,0,0,0-.83l-.28-.3a.59.59,0,0,0-.83,0l-1-.43a.59.59,0,0,0-.58-.6H9.17a.59.59,0,0,0-.6.58l-1,.39a.59.59,0,0,0-.83,0l-.3.28a.59.59,0,0,0,0,.83l-.43,1a.59.59,0,0,0-.6.58v.41a.59.59,0,0,0,.58.6l.39,1a.59.59,0,0,0,0,.83l.28.3a.59.59,0,0,0,.83,0l1,.43a.59.59,0,0,0,.58.6H9.4a.59.59,0,0,0,.6-.58l1-.39a.59.59,0,0,0,.83,0l.3-.28a.59.59,0,0,0,0-.83l.43-1A.59.59,0,0,0,13.19,81.46Z"/><path class="cls-3" d="M12.27,81.23A.24.24,0,0,0,12,81l-.59-1.53a.24.24,0,0,0-.34-.35l-1.5-.66a.24.24,0,1,0-.49,0L7.57,79a.24.24,0,0,0-.35.34l-.66,1.5a.24.24,0,1,0,0,.49l.59,1.53a.24.24,0,1,0,.34.35L9,83.9a.24.24,0,0,0,.49,0L11,83.32a.24.24,0,0,0,.17.08.24.24,0,0,0,.18-.41l.66-1.5A.24.24,0,0,0,12.27,81.23Z"/><path class="cls-4" d="M11.28,81.21a.16.16,0,0,0-.16-.17l-.4-1a.16.16,0,0,0-.23-.24l-1-.44a.16.16,0,0,0-.33,0l-1,.4a.16.16,0,1,0-.24.23l-.44,1a.16.16,0,1,0,0,.33l.4,1a.16.16,0,1,0,.23.24l1,.44a.16.16,0,0,0,.33,0l1-.4a.16.16,0,1,0,.24-.23l.44-1A.16.16,0,0,0,11.28,81.21Z"/><path class="cls-2" d="M10.17,81.19a.07.07,0,0,0-.07-.07l-.18-.45a.07.07,0,0,0-.1-.1l-.45-.2a.07.07,0,0,0-.07-.07.07.07,0,0,0-.07.07l-.45.18a.07.07,0,0,0-.1.1l-.2.45a.07.07,0,0,0,0,.15l.18.45a.07.07,0,0,0,0,.1l.05,0,.05,0,.45.2a.07.07,0,1,0,.14,0l.45-.18.05,0,.05,0a.07.07,0,0,0,0-.1l.2-.44A.07.07,0,0,0,10.17,81.19Z"/><rect class="cls-3" x="31.86" y="50.76" width="1.92" height="6.31" transform="translate(-1.3 0.81) rotate(-1.39)"/><rect class="cls-3" x="35.2" y="55.47" width="1.92" height="6.31" transform="translate(-32.59 62.83) rotate(-61.84)"/><rect class="cls-3" x="26.61" y="57.49" width="6.31" height="1.92" transform="translate(-22.61 18.96) rotate(-26)"/><path class="cls-4" d="M32.73,50A7.08,7.08,0,1,0,40,56.86,7.08,7.08,0,0,0,32.73,50ZM33,62.87a5.84,5.84,0,1,1,5.69-6A5.84,5.84,0,0,1,33,62.87Z"/><circle class="cls-4" cx="32.9" cy="57.03" r="2.22" transform="translate(-1.38 0.82) rotate(-1.39)"/><circle class="cls-2" cx="32.9" cy="57.03" r="1.34" transform="translate(-1.37 0.81) rotate(-1.39)"/><rect class="cls-2" x="14.11" y="77.6" width="9.15" height="7.14" rx="0.5" ry="0.5"/><rect class="cls-4" x="94.87" y="38.84" width="7.06" height="1.84" transform="translate(14.78 105.11) rotate(-60.01)"/><circle class="cls-3" cx="100.54" cy="36.05" r="2" transform="translate(-2.9 9.45) rotate(-5.31)"/><path class="cls-2" d="M96.62,42a5.37,5.37,0,0,0-5.37,5.37H102A5.37,5.37,0,0,0,96.62,42Z"/><rect class="cls-3" x="14.62" y="95.8" width="7.71" height="2.72" rx="0.92" ry="0.92"/><path class="cls-4" d="M61.19,103.69H52.34c-.65,0,1.14-2.36,1.8-2.36h5.1C59.89,101.33,61.84,103.69,61.19,103.69Z"/><path class="cls-4" d="M105.4,103.69H96.54c-.65,0,1.14-2.36,1.8-2.36h5.1C104.1,101.33,106,103.69,105.4,103.69Z"/><rect class="cls-2" x="54.13" y="92.99" width="5.23" height="8.34"/><rect class="cls-2" x="98.35" y="92.99" width="5.23" height="8.34"/><rect class="cls-3" x="45.91" y="47.16" width="68.03" height="46.87" rx="3.7" ry="3.7"/><path class="cls-3" d="M60.81,46.49a.6.6,0,0,1-.6.59H55a.6.6,0,0,1-.59-.59L55,43.27a.55.55,0,0,1,.48-.59h4.19a.55.55,0,0,1,.48.59Z"/><path class="cls-2" d="M61.62,46.46a.7.7,0,0,1-.7.7H54.27a.7.7,0,0,1-.7-.7h0a.7.7,0,0,1,.7-.7h6.65a.7.7,0,0,1,.7.7Z"/><path class="cls-4" d="M70.58,46.49a.6.6,0,0,1-.6.59H64.75a.59.59,0,0,1-.59-.59l.64-3.22a.55.55,0,0,1,.48-.59h4.19a.55.55,0,0,1,.48.59Z"/><path class="cls-2" d="M71.39,46.46a.7.7,0,0,1-.7.7H64a.7.7,0,0,1-.7-.7h0a.7.7,0,0,1,.7-.7h6.65a.7.7,0,0,1,.7.7Z"/><polygon class="cls-5" points="52.2 52.91 52.2 87.96 107.52 87.96 52.2 52.91"/><path class="cls-4" d="M75.38,58.64l-.81,1.6L76,61.46a9.53,9.53,0,0,0-.29,1.08l-1.83.31-.12,1.79,1.79.6a9.44,9.44,0,0,0,.13.94l-1.61,1,.56,1.7,1.92-.12a9.55,9.55,0,0,0,.59,1L76,71.36l1.19,1.34,1.73-.88c.21.17.42.34.64.49l-.44,1.88,1.6.81L82,73.55q.45.15.91.26l.31,1.9,1.79.14L85.64,74a9.83,9.83,0,0,0,1-.12l1,1.62,1.7-.56-.11-1.9q.42-.2.82-.45l1.52,1.11L93,72.59l-.8-1.68a9.49,9.49,0,0,0,.71-.88l1.79.42.81-1.6-1.36-1.21a9.65,9.65,0,0,0,.32-1.11l1.77-.3.12-1.79-1.69-.57a9.76,9.76,0,0,0-.12-1L96,61.9l-.56-1.7-1.75.11a9.65,9.65,0,0,0-.65-1.14l1-1.43-1.19-1.34-1.54.79a9.67,9.67,0,0,0-.78-.6l.39-1.68-1.6-.81-1.15,1.3a9.61,9.61,0,0,0-1.08-.31l-.27-1.7L85,53.24l-.57,1.65A9.68,9.68,0,0,0,83.3,55l-.92-1.48-1.7.56.11,1.77a9.56,9.56,0,0,0-.9.51l-1.43-1L77.08,56.5l.78,1.63a9.52,9.52,0,0,0-.71.93Zm13.24-1.21A7.88,7.88,0,1,1,78,60.9,7.87,7.87,0,0,1,88.62,57.43Z"/><polygon class="cls-4" points="84.02 61.86 82.71 62.83 78.61 58.89 81.54 56.71 84.02 61.86"/><polygon class="cls-4" points="87.55 63.19 86.48 61.97 90.05 57.55 92.47 60.29 87.55 63.19"/><polygon class="cls-4" points="82.82 65.35 83.82 66.63 79.98 70.83 77.73 67.95 82.82 65.35"/><polygon class="cls-4" points="86.12 66.74 87.26 65.58 91.93 68.83 89.37 71.44 86.12 66.74"/><path class="cls-4" d="M83.35,67.72a3.59,3.59,0,1,0-1.5-4.85A3.59,3.59,0,0,0,83.35,67.72Zm2.33-4.47a1.45,1.45,0,1,1-1.95.64A1.45,1.45,0,0,1,85.68,63.25Z"/><path class="cls-4" d="M107.31,76.17a6.39,6.39,0,0,0,.62-1.67l1-.14L109,73.2l-.94-.35a6.43,6.43,0,0,0-1-3.2l.61-.83-.75-.89-.94.45a6.43,6.43,0,0,0-2.78-1.48l-.14-1-1.15-.12-.37,1a6.44,6.44,0,0,0-3.13.89L97.62,67l-.91.72.4.91a6.41,6.41,0,0,0-1.67,3l-.94.13-.11,1.16.88.32a6.43,6.43,0,0,0,1,3.32l-.54.73.75.89.82-.39a6.43,6.43,0,0,0,2.91,1.55l.12.9,1.15.12.33-.86a6.43,6.43,0,0,0,3.23-1l.74.57.91-.72-.39-.87A6.42,6.42,0,0,0,107.31,76.17ZM99.25,77.6a5.09,5.09,0,1,1,6.9-2.06A5.09,5.09,0,0,1,99.25,77.6Z"/><polygon class="cls-4" points="102.74 71.67 101.74 71.26 102.56 67.59 104.8 68.5 102.74 71.67"/><polygon class="cls-4" points="100.03 73.13 100.33 74.17 96.93 75.78 96.27 73.46 100.03 73.13"/><polygon class="cls-4" points="102 74.74 102.89 74.14 105.49 76.85 103.49 78.21 102 74.74"/><path class="cls-4" d="M99.77,74.72a2.37,2.37,0,1,0,.29-3.34A2.37,2.37,0,0,0,99.77,74.72Zm2.54-2.15a1,1,0,1,1-1.35-.09A1,1,0,0,1,102.3,72.56Z"/><path class="cls-4" d="M90.2,84a4.9,4.9,0,0,0,.48-1.28l.75-.11.09-.88-.72-.27A4.92,4.92,0,0,0,90,79.06l.46-.63-.57-.68-.72.34A4.92,4.92,0,0,0,87.06,77l-.1-.78-.88-.09-.28.74a4.92,4.92,0,0,0-2.4.68L82.79,77l-.69.55.31.69a4.9,4.9,0,0,0-1.28,2.31l-.72.1-.09.88.67.25a4.92,4.92,0,0,0,.77,2.54l-.41.56.57.68.63-.3a4.93,4.93,0,0,0,2.23,1.18l.09.69.88.09.25-.65a4.93,4.93,0,0,0,2.47-.73l.57.44.69-.55-.3-.67A4.91,4.91,0,0,0,90.2,84ZM84,85.14a3.89,3.89,0,1,1,5.28-1.57A3.89,3.89,0,0,1,84,85.14Z"/><path class="cls-4" d="M84.43,82.94a1.81,1.81,0,1,0,.22-2.56A1.81,1.81,0,0,0,84.43,82.94Zm1.94-1.65a.73.73,0,1,1-1-.07A.73.73,0,0,1,86.37,81.29Z"/><circle class="cls-4" cx="52.2" cy="52.91" r="1.37"/><circle class="cls-4" cx="52.2" cy="87.96" r="1.37"/><circle class="cls-4" cx="108.89" cy="87.96" r="1.37"/><circle class="cls-4" cx="108.89" cy="52.91" r="1.37"/><path class="cls-4" d="M65.21,84.08a.39.39,0,0,0,.39-.39h0a.39.39,0,0,0-.39-.39h-8.8a.39.39,0,0,0-.39.39h0a.39.39,0,0,0,.39.39Z"/><path class="cls-3" d="M65.34,84h-8.8a.39.39,0,0,1-.33-.6.39.39,0,0,0,.21.73h8.8a.39.39,0,0,0,.33-.19A.39.39,0,0,1,65.34,84Z"/><path class="cls-4" d="M65.21,82.17a.39.39,0,0,0,.39-.39h0a.39.39,0,0,0-.39-.39h-8.8a.39.39,0,0,0-.39.39h0a.39.39,0,0,0,.39.39Z"/><path class="cls-3" d="M65.34,82h-8.8a.39.39,0,0,1-.39-.39.39.39,0,0,1,.06-.21.39.39,0,0,0,.21.72h8.8a.39.39,0,0,0,.33-.19A.39.39,0,0,1,65.34,82Z"/><path class="cls-4" d="M65.21,80.26a.39.39,0,0,0,.39-.39h0a.39.39,0,0,0-.39-.39h-8.8a.39.39,0,0,0-.39.39h0a.39.39,0,0,0,.39.39Z"/><path class="cls-3" d="M65.34,80.13h-8.8a.39.39,0,0,1-.33-.6.39.39,0,0,0,.21.72h8.8a.39.39,0,0,0,.33-.19A.39.39,0,0,1,65.34,80.13Z"/><path class="cls-4" d="M65.21,78.34A.39.39,0,0,0,65.6,78h0a.39.39,0,0,0-.39-.39h-8.8A.39.39,0,0,0,56,78h0a.39.39,0,0,0,.39.39Z"/><path class="cls-3" d="M65.34,78.22h-8.8a.39.39,0,0,1-.39-.39.39.39,0,0,1,.06-.21.39.39,0,0,0,.21.72h8.8a.39.39,0,0,0,.33-.19A.39.39,0,0,1,65.34,78.22Z"/><path class="cls-4" d="M65.21,76.43A.39.39,0,0,0,65.6,76h0a.39.39,0,0,0-.39-.39h-8.8A.39.39,0,0,0,56,76h0a.39.39,0,0,0,.39.39Z"/><path class="cls-3" d="M65.34,76.31h-8.8a.39.39,0,0,1-.33-.6.39.39,0,0,0,.21.72h8.8a.39.39,0,0,0,.33-.19A.39.39,0,0,1,65.34,76.31Z"/><path class="cls-4" d="M65.21,74.52a.39.39,0,0,0,.39-.39h0a.39.39,0,0,0-.39-.39h-8.8a.39.39,0,0,0-.39.39h0a.39.39,0,0,0,.39.39Z"/><path class="cls-3" d="M65.34,74.39h-8.8a.39.39,0,0,1-.33-.6.39.39,0,0,0,.21.72h8.8a.39.39,0,0,0,.33-.19A.39.39,0,0,1,65.34,74.39Z"/><path class="cls-4" d="M65.21,72.61a.39.39,0,0,0,.39-.39h0a.39.39,0,0,0-.39-.39h-8.8a.39.39,0,0,0-.39.39h0a.39.39,0,0,0,.39.39Z"/><path class="cls-3" d="M65.34,72.48h-8.8a.39.39,0,0,1-.33-.6.39.39,0,0,0,.21.73h8.8a.39.39,0,0,0,.33-.19A.39.39,0,0,1,65.34,72.48Z"/><path class="cls-4" d="M65.21,70.7a.39.39,0,0,0,.39-.39h0a.39.39,0,0,0-.39-.39h-8.8a.39.39,0,0,0-.39.39h0a.39.39,0,0,0,.39.39Z"/><path class="cls-3" d="M65.34,70.57h-8.8a.39.39,0,0,1-.33-.6.39.39,0,0,0,.21.72h8.8a.39.39,0,0,0,.33-.19A.38.38,0,0,1,65.34,70.57Z"/><path class="cls-4" d="M65.21,68.78a.39.39,0,0,0,.39-.39h0a.39.39,0,0,0-.39-.39h-8.8a.39.39,0,0,0-.39.39h0a.39.39,0,0,0,.39.39Z"/><path class="cls-3" d="M65.34,68.66h-8.8a.39.39,0,0,1-.33-.6.39.39,0,0,0,.21.73h8.8a.39.39,0,0,0,.33-.19A.39.39,0,0,1,65.34,68.66Z"/><path class="cls-4" d="M65.21,66.87a.39.39,0,0,0,.39-.39h0a.39.39,0,0,0-.39-.39h-8.8a.39.39,0,0,0-.39.39h0a.39.39,0,0,0,.39.39Z"/><path class="cls-3" d="M65.34,66.75h-8.8a.39.39,0,0,1-.33-.6.39.39,0,0,0,.21.72h8.8a.39.39,0,0,0,.33-.19A.39.39,0,0,1,65.34,66.75Z"/><path class="cls-4" d="M65.21,65a.39.39,0,0,0,.39-.39h0a.39.39,0,0,0-.39-.39h-8.8a.39.39,0,0,0-.39.39h0a.39.39,0,0,0,.39.39Z"/><path class="cls-3" d="M65.34,64.83h-8.8a.39.39,0,0,1-.33-.6.39.39,0,0,0,.21.73h8.8a.39.39,0,0,0,.33-.19A.39.39,0,0,1,65.34,64.83Z"/><ellipse class="cls-1" cx="18.48" cy="136.56" rx="18.48" ry="2.44"/></g></g></svg>