<svg xmlns="http://www.w3.org/2000/svg" xmlns:xlink="http://www.w3.org/1999/xlink" viewBox="0 0 193.51 109"><defs><style>.cls-1{fill:#4c7ff1;}.cls-2,.cls-8{fill:#7ac7fa;}.cls-3,.cls-7{fill:none;stroke:#4c7ff1;stroke-miterlimit:10;}.cls-3{stroke-width:1.3px;}.cls-4{fill:#5e9df3;}.cls-5,.cls-9{fill:#3b69e0;}.cls-6{fill:url(#linear-gradient);}.cls-7{stroke-linecap:round;stroke-width:2px;}.cls-8,.cls-9{opacity:0.5;}</style><linearGradient id="linear-gradient" x1="129.12" y1="52.64" x2="129.24" y2="62.05" gradientUnits="userSpaceOnUse"><stop offset="0" stop-color="#3b69e0"/><stop offset="1" stop-color="#7ac7fa"/></linearGradient></defs><title>Recurso 2</title><g id="Capa_2" data-name="Capa 2"><g id="Capa_1-2" data-name="Capa 1"><path class="cls-1" d="M49.24,85.82s48.08,4.21,86,3.84c31.77-.31,58.65-5.15,58.21-5.73-5.51-7.31-27.46-32-65.69-32C89.94,51.91,69,57.87,49.24,85.82Z"/><path class="cls-2" d="M47.77,86.17l39.87,6.75,42.69-7.07s-23-24.77-63.91-24.77c-31.22,0-56,16.21-66.42,24.78Z"/><path class="cls-2" d="M122.85,48.92V34.74s0-5.38-5.12-5.38H102.5s-5.84-.26-6.3,5.51v7.9h1.86l.14-7.9s.26-3.18,4.56-3.15,14.77.07,14.77.07,3.15.13,3.15,3.15,0,14,0,14Z"/><circle class="cls-1" cx="104.13" cy="48.44" r="2.42"/><line class="cls-3" x1="104.13" y1="50.37" x2="104.13" y2="54.88"/><polygon class="cls-2" points="100.76 42.77 92.65 42.77 92.65 57.49 97.52 57.49 97.52 47.52 99.56 47.52 99.56 57.49 99.54 57.49 100.79 57.49 100.79 42.77 100.76 42.77"/><path class="cls-4" d="M96.72,57.49h4.07V42.77H96.72"/><rect class="cls-4" x="93.34" y="43.44" width="0.93" height="1.66"/><rect class="cls-2" x="93.54" y="43.53" width="0.55" height="0.7" transform="translate(49.93 137.7) rotate(-90)"/><rect class="cls-2" x="93.54" y="44.27" width="0.55" height="0.7" transform="translate(49.2 138.44) rotate(-90)"/><rect class="cls-4" x="95.07" y="43.44" width="0.93" height="1.66"/><rect class="cls-2" x="95.27" y="43.53" width="0.55" height="0.7" transform="translate(51.66 139.43) rotate(-90)"/><rect class="cls-2" x="95.27" y="44.27" width="0.55" height="0.7" transform="translate(50.93 140.17) rotate(-90)"/><rect class="cls-4" x="97.23" y="43.44" width="0.93" height="1.66"/><rect class="cls-2" x="97.43" y="43.53" width="0.55" height="0.7" transform="translate(53.82 141.59) rotate(-90)"/><rect class="cls-2" x="97.43" y="44.27" width="0.55" height="0.7" transform="translate(53.08 142.33) rotate(-90)"/><rect class="cls-4" x="98.96" y="43.44" width="0.93" height="1.66"/><rect class="cls-2" x="99.16" y="43.53" width="0.55" height="0.7" transform="translate(55.55 143.32) rotate(-90)"/><rect class="cls-2" x="99.16" y="44.27" width="0.55" height="0.7" transform="translate(54.81 144.06) rotate(-90)"/><rect class="cls-4" x="93.34" y="46.02" width="0.93" height="1.66"/><rect class="cls-2" x="93.54" y="46.12" width="0.55" height="0.7" transform="translate(47.35 140.28) rotate(-90)"/><rect class="cls-2" x="93.54" y="46.86" width="0.55" height="0.7" transform="translate(46.61 141.02) rotate(-90)"/><rect class="cls-4" x="95.07" y="46.02" width="0.93" height="1.66"/><rect class="cls-2" x="95.27" y="46.12" width="0.55" height="0.7" transform="translate(49.08 142.01) rotate(-90)"/><rect class="cls-2" x="95.27" y="46.86" width="0.55" height="0.7" transform="translate(48.34 142.75) rotate(-90)"/><rect class="cls-4" x="97.23" y="46.02" width="0.93" height="1.66"/><rect class="cls-2" x="97.43" y="46.12" width="0.55" height="0.7" transform="translate(51.24 144.17) rotate(-90)"/><rect class="cls-2" x="97.43" y="46.86" width="0.55" height="0.7" transform="translate(50.5 144.91) rotate(-90)"/><rect class="cls-4" x="98.96" y="46.02" width="0.93" height="1.66"/><rect class="cls-2" x="99.16" y="46.12" width="0.55" height="0.7" transform="translate(52.97 145.9) rotate(-90)"/><rect class="cls-2" x="99.16" y="46.86" width="0.55" height="0.7" transform="translate(52.23 146.64) rotate(-90)"/><rect class="cls-4" x="93.34" y="48.61" width="0.93" height="1.66"/><rect class="cls-2" x="93.54" y="48.7" width="0.55" height="0.7" transform="translate(44.77 142.87) rotate(-90)"/><rect class="cls-2" x="93.54" y="49.44" width="0.55" height="0.7" transform="translate(44.03 143.61) rotate(-90)"/><rect class="cls-4" x="95.07" y="48.61" width="0.93" height="1.66"/><rect class="cls-2" x="95.27" y="48.7" width="0.55" height="0.7" transform="translate(46.5 144.6) rotate(-90)"/><rect class="cls-2" x="95.27" y="49.44" width="0.55" height="0.7" transform="translate(45.76 145.34) rotate(-90)"/><rect class="cls-4" x="97.23" y="48.61" width="0.93" height="1.66"/><rect class="cls-2" x="97.43" y="48.7" width="0.55" height="0.7" transform="translate(48.65 146.76) rotate(-90)"/><rect class="cls-2" x="97.43" y="49.44" width="0.55" height="0.7" transform="translate(47.92 147.5) rotate(-90)"/><rect class="cls-4" x="98.96" y="48.61" width="0.93" height="1.66"/><rect class="cls-2" x="99.16" y="48.7" width="0.55" height="0.7" transform="translate(50.38 148.49) rotate(-90)"/><rect class="cls-2" x="99.16" y="49.44" width="0.55" height="0.7" transform="translate(49.65 149.22) rotate(-90)"/><rect class="cls-4" x="93.34" y="51.19" width="0.93" height="1.66"/><rect class="cls-2" x="93.54" y="51.29" width="0.55" height="0.7" transform="translate(42.18 145.45) rotate(-90)"/><rect class="cls-2" x="93.54" y="52.02" width="0.55" height="0.7" transform="translate(41.44 146.19) rotate(-90)"/><rect class="cls-4" x="95.07" y="51.19" width="0.93" height="1.66"/><rect class="cls-2" x="95.27" y="51.29" width="0.55" height="0.7" transform="translate(43.91 147.18) rotate(-90)"/><rect class="cls-2" x="95.27" y="52.02" width="0.55" height="0.7" transform="translate(43.17 147.92) rotate(-90)"/><rect class="cls-4" x="97.23" y="51.19" width="0.93" height="1.66"/><rect class="cls-2" x="97.43" y="51.29" width="0.55" height="0.7" transform="translate(46.07 149.34) rotate(-90)"/><rect class="cls-2" x="97.43" y="52.02" width="0.55" height="0.7" transform="translate(45.33 150.08) rotate(-90)"/><rect class="cls-4" x="98.96" y="51.19" width="0.93" height="1.66"/><rect class="cls-2" x="99.16" y="51.29" width="0.55" height="0.7" transform="translate(47.8 151.07) rotate(-90)"/><rect class="cls-2" x="99.16" y="52.02" width="0.55" height="0.7" transform="translate(47.06 151.81) rotate(-90)"/><rect class="cls-1" x="120.06" y="41.7" width="3.38" height="1.12"/><rect class="cls-1" x="120.06" y="48.76" width="3.38" height="1.12"/><rect class="cls-1" x="120.06" y="34.94" width="3.38" height="1.12"/><rect class="cls-1" x="115.74" y="28.81" width="1.12" height="3.38" transform="translate(-0.07 0.27) rotate(-0.13)"/><rect class="cls-1" x="108.96" y="28.81" width="1.12" height="3.38" transform="translate(-0.07 0.26) rotate(-0.13)"/><rect class="cls-1" x="101.43" y="28.81" width="1.12" height="3.38" transform="translate(-0.07 0.24) rotate(-0.13)"/><rect class="cls-1" x="95.54" y="35.1" width="3.38" height="1.12" transform="translate(-0.08 0.22) rotate(-0.13)"/><rect class="cls-1" x="95.37" y="41.65" width="3.38" height="1.12" transform="translate(-0.1 0.22) rotate(-0.13)"/><polygon class="cls-2" points="108.21 39.9 107.92 39.9 107.22 53.81 108.85 53.81 108.21 39.9"/><rect class="cls-2" x="104.93" y="37.04" width="0.43" height="5.38" rx="0.17" ry="0.17" transform="matrix(0.13, -0.99, 0.99, 0.13, 52.46, 139.02)"/><rect class="cls-2" x="109.19" y="40.08" width="0.43" height="5.38" rx="0.17" ry="0.17" transform="translate(-8 46.73) rotate(-23.29)"/><rect class="cls-2" x="107.01" y="37.67" width="5.38" height="0.43" rx="0.17" ry="0.17" transform="translate(14.19 103.82) rotate(-53.67)"/><circle class="cls-1" cx="108.12" cy="40.07" r="0.54" transform="translate(10.78 101.87) rotate(-52.75)"/><rect class="cls-2" x="59.35" y="54.03" width="22.99" height="2.1"/><rect class="cls-1" x="69.75" y="53.39" width="1.12" height="3.38" transform="translate(-0.12 0.15) rotate(-0.13)"/><rect class="cls-1" x="79.97" y="53.39" width="1.12" height="3.38" transform="translate(-0.13 0.18) rotate(-0.13)"/><rect class="cls-1" x="62.88" y="53.39" width="1.12" height="3.38" transform="translate(-0.13 0.14) rotate(-0.13)"/><rect class="cls-2" x="26" y="58.32" width="27.88" height="2.1"/><rect class="cls-1" x="52.76" y="57.69" width="1.12" height="3.38" transform="translate(-0.14 0.13) rotate(-0.13)"/><rect class="cls-1" x="39.56" y="57.69" width="1.12" height="3.38" transform="translate(-0.13 0.09) rotate(-0.13)"/><rect class="cls-1" x="27.79" y="57.69" width="1.12" height="3.38" transform="translate(-0.13 0.06) rotate(-0.13)"/><polygon class="cls-2" points="23.93 68.58 23.93 63.44 23.93 63.36 23.93 68.58"/><path class="cls-2" d="M21.91,68.6V62.53s.25-3.93,4.09-4.2,0,2.1,0,2.1-1.77.28-2.07,2.74V68.6Z"/><rect class="cls-1" x="21.23" y="64.04" width="3.38" height="1.12" transform="translate(-0.15 0.05) rotate(-0.13)"/><rect class="cls-1" x="21.23" y="67.48" width="3.38" height="1.12" transform="translate(-0.16 0.05) rotate(-0.13)"/><rect class="cls-1" x="53.88" y="48.1" width="9" height="14.86"/><polygon class="cls-1" points="65.47 45.67 58.38 52.65 51.29 45.67 65.47 45.67"/><path class="cls-2" d="M58.88,50h0l.18-.08a3.35,3.35,0,0,1,.43-.14c.14,0,.21,0,.18.16l0,0-.06.12a2.1,2.1,0,0,0-.4,0l-.15,0Zm-1.23.51v-.05l0-.56c0-.16.12-.22.24-.15l.14.08h0L58,50,58,50.2A.81.81,0,0,1,57.66,50.54Zm-.09,1.09-.1,0a2.58,2.58,0,0,1-.57-.28c-.15-.1-.16-.19,0-.2l.21,0,0,0,.26.19A.46.46,0,0,1,57.57,51.63Zm1.13.27a.57.57,0,0,0-.16.13,3.91,3.91,0,0,1-.38.43c-.1.09-.2,0-.23-.08l0-.2.35-.21A.59.59,0,0,1,58.7,51.91Zm.71-.83v0c.1.2.2.42.3.65s0,.27-.14.21h0l-.15,0-.09-.55a.55.55,0,0,1,0-.13.73.73,0,0,1,.05-.24Z"/><path class="cls-1" d="M58.7,51.91a.59.59,0,0,0-.47.07l-.35.21v0l-.08-.27a.43.43,0,0,0-.13-.18l-.1-.07a.46.46,0,0,0-.2-.35l-.26-.19,0,0,.11,0,.2-.09a.58.58,0,0,0,.26-.4.81.81,0,0,0,.3-.34L58,50l0-.09.32.17a.65.65,0,0,0,.48,0l.16.06.15,0a2.1,2.1,0,0,1,.4,0l-.21.43a.68.68,0,0,0,0,.43.73.73,0,0,0-.05.24.55.55,0,0,0,0,.13l.09.55a3.11,3.11,0,0,0-.43-.08h-.05A.58.58,0,0,0,58.7,51.91Z"/><path class="cls-4" d="M59.6,50.13h0l.18,0c.16,0,.2.2.08.28a4.94,4.94,0,0,0-.43.38.45.45,0,0,0-.09.15.68.68,0,0,1,0-.43Zm-1.52-.26.11-.26c.06-.15.18-.17.26-.07l.31.4a.34.34,0,0,0,.11.09.65.65,0,0,1-.48,0Zm-1,1.2-.19-.16c-.12-.11-.1-.18.05-.19a2,2,0,0,0,.61-.13l0,0,.05,0a.58.58,0,0,1-.26.4l-.2.09Zm.79,1.11-.14.06h0c-.13.05-.22,0-.21-.12l0-.35v-.15l.1.07a.43.43,0,0,1,.13.18l.08.27Zm1.58-.06c0,.14-.08.19-.2.1a3.33,3.33,0,0,0-.43-.26l-.1,0h0a.58.58,0,0,1,.24-.08H59a3.11,3.11,0,0,1,.43.08l0,.15A.32.32,0,0,1,59.45,52.12Z"/><rect class="cls-4" x="15.26" y="74.13" width="19.74" height="5.51"/><rect class="cls-1" x="15.26" y="68.6" width="19.74" height="5.53"/><rect class="cls-2" x="16.6" y="69.73" width="17.07" height="1.83"/><rect class="cls-5" x="114.05" y="55.39" width="19.74" height="5.51"/><rect class="cls-4" x="114.05" y="49.87" width="19.74" height="5.53"/><rect class="cls-5" x="115.39" y="50.99" width="17.07" height="1.83"/><rect class="cls-5" x="125.69" y="71.5" width="29.91" height="5.51"/><rect class="cls-4" x="125.69" y="65.97" width="29.91" height="5.53"/><rect class="cls-2" x="127.03" y="67.1" width="27" height="1.83"/><rect class="cls-6" x="128.1" y="51.91" width="2.23" height="16.83"/><rect class="cls-2" x="83.24" y="55.93" width="0.89" height="0.71"/><rect class="cls-2" x="84.48" y="55.93" width="0.89" height="0.71"/><rect class="cls-2" x="84.48" y="55.03" width="0.89" height="0.6"/><rect class="cls-2" x="83.24" y="55.03" width="0.89" height="0.6"/><path class="cls-2" d="M90.64,53.19l-4.38-3.62h0l-2.18,1.89v-.63H83v1.56l-.92.8v5h5.14V54.81h1.91V58.2h1.54v-5Zm-5,3.7H83v-2.1h2.66Z"/><path class="cls-1" d="M86.38,58.2h4.3v-5h0l-4.38-3.62"/><rect class="cls-4" x="78.78" y="57.54" width="0.59" height="2.79"/><rect class="cls-4" x="80.56" y="57.54" width="0.59" height="2.79"/><rect class="cls-4" x="82.34" y="57.54" width="0.59" height="2.79"/><rect class="cls-4" x="84.11" y="57.54" width="0.59" height="2.79"/><rect class="cls-4" x="85.89" y="57.54" width="0.59" height="2.79"/><rect class="cls-4" x="87.67" y="57.54" width="0.59" height="2.79"/><rect class="cls-4" x="89.44" y="57.54" width="0.59" height="2.79"/><rect class="cls-4" x="91.22" y="57.54" width="0.59" height="2.79"/><rect class="cls-4" x="78.78" y="59.38" width="13.03" height="0.26"/><rect class="cls-4" x="78.78" y="58.42" width="13.03" height="0.26"/><circle class="cls-2" cx="52.48" cy="8.83" r="8.83"/><circle class="cls-4" cx="52.48" cy="8.83" r="7.64"/><circle class="cls-1" cx="52.48" cy="8.83" r="6.07"/><path id="_Trazado_" data-name="&lt;Trazado&gt;" class="cls-2" d="M92.93,8.19h25.48a2.1,2.1,0,0,0-2.71-1.75A6.09,6.09,0,0,0,109.8,2a6.57,6.57,0,0,0-4.2,1.52,4.46,4.46,0,0,0-2.76-.82,4.32,4.32,0,0,0-3.82,2C95.56,3.93,93.34,6.08,92.93,8.19Z"/><path id="_Trazado_2" data-name="&lt;Trazado&gt;" class="cls-2" d="M155,31h20.67a1.71,1.71,0,0,0-2.2-1.42A4.94,4.94,0,0,0,168.67,26a5.33,5.33,0,0,0-3.41,1.23,3.62,3.62,0,0,0-2.24-.67,3.5,3.5,0,0,0-3.1,1.64A3.84,3.84,0,0,0,155,31Z"/><path id="_Trazado_3" data-name="&lt;Trazado&gt;" class="cls-2" d="M25.67,11H50.48a2,2,0,0,0-2.64-1.7A5.93,5.93,0,0,0,42.09,5,6.39,6.39,0,0,0,38,6.5a4.35,4.35,0,0,0-2.69-.8,4.21,4.21,0,0,0-3.72,2C28.22,6.87,26.07,9,25.67,11Z"/><g id="_Grupo_" data-name="&lt;Grupo&gt;"><path id="_Trazado_4" data-name="&lt;Trazado&gt;" class="cls-7" d="M33.41,35.86a2.74,2.74,0,0,1,3.36.19,3.29,3.29,0,0,1,.49-.7A2.89,2.89,0,0,1,40,34.51"/></g><g id="_Grupo_2" data-name="&lt;Grupo&gt;"><path id="_Trazado_5" data-name="&lt;Trazado&gt;" class="cls-7" d="M40.95,32.33a2.74,2.74,0,0,1,3.17,1.15,3.28,3.28,0,0,1,.67-.53,2.89,2.89,0,0,1,2.86,0"/></g><path class="cls-1" d="M0,85.85c6.88,0,20.3-3.8,29.79-3.26s25.79,4.16,35.38,3.26,18.75-4.93,28.74-4.1,16.36,5.47,24.67,4.24,27.69-5.94,38.09-2.86,31.94,2.66,36.83.79c0,0-14.14,18.32-77.47,12.88-19.52-.72-36.58,1.92-49.61,3.8C32.54,105.5,0,85.85,0,85.85Z"/><path class="cls-8" d="M0,85.85c6.88,0,20.3-3.8,29.79-3.26s25.79,4.16,35.38,3.26,18.75-4.93,28.74-4.1,16.36,5.47,24.67,4.24,31.1-6.71,52.28-5.2c9.61.68,10,1.67,22.64,3.13,0,0-20.61,6.13-111.69,6.13C20.45,90.05,0,85.85,0,85.85Z"/><path class="cls-9" d="M17.86,88c6.88,0,20.93-3.87,30.41-3.33s25.79,4.16,35.38,3.26,18.75-4.93,28.74-4.1,16.36,5.47,24.67,4.24,28.42-5.11,39.24-4.35c9.84.69,12.31,2.13,17.2.26,0,0-2.12,10.32-93.2,10.32C38.94,94.25,17.86,88,17.86,88Z"/><path class="cls-8" d="M126.83,103.39a1.13,1.13,0,0,1,1,.06,2.84,2.84,0,0,1,.79.75,9.85,9.85,0,0,1,4.4-1.65,2.52,2.52,0,0,1,2.09,1,3.37,3.37,0,0,1,.53,1,3.41,3.41,0,0,1-.53,1,2.52,2.52,0,0,1-2.1,1,9.64,9.64,0,0,1-4.28-1.6,3.07,3.07,0,0,1-.88.89,1.12,1.12,0,0,1-1,.07,1.51,1.51,0,0,1-.43-.27l1.79-1-1.8-1A1.53,1.53,0,0,1,126.83,103.39Z"/><path class="cls-8" d="M86.55,100.62a.82.82,0,0,1,.23-.15.6.6,0,0,1,.56,0,1.51,1.51,0,0,1,.42.4,5.28,5.28,0,0,1,2.36-.88,1.35,1.35,0,0,1,1.12.55,1.83,1.83,0,0,1,.28.54,1.82,1.82,0,0,1-.28.54,1.35,1.35,0,0,1-1.12.55,5.16,5.16,0,0,1-2.3-.86,1.65,1.65,0,0,1-.47.48.6.6,0,0,1-.56,0,.81.81,0,0,1-.23-.15l1-.55Z"/><path class="cls-1" d="M102.86,107.11a.66.66,0,0,1,.61,0,1.67,1.67,0,0,1,.47.44,5.76,5.76,0,0,1,2.58-1,1.47,1.47,0,0,1,1.23.61,2,2,0,0,1,.31.59,2,2,0,0,1-.31.59,1.48,1.48,0,0,1-1.23.6,5.65,5.65,0,0,1-2.51-.94,1.8,1.8,0,0,1-.52.52.66.66,0,0,1-.61,0,.89.89,0,0,1-.25-.16l1-.6-1.06-.59A.88.88,0,0,1,102.86,107.11Z"/><path class="cls-8" d="M106.47,93.88a.6.6,0,0,1-.56,0,.8.8,0,0,1-.23-.14l1-.55-1-.54a.79.79,0,0,1,.23-.15.6.6,0,0,1,.56,0,1.52,1.52,0,0,1,.42.4,5.29,5.29,0,0,1,2.36-.88,1.35,1.35,0,0,1,1.12.55,1.8,1.8,0,0,1,.28.54,1.8,1.8,0,0,1-.28.54,1.36,1.36,0,0,1-1.12.55,5.15,5.15,0,0,1-2.3-.86A1.65,1.65,0,0,1,106.47,93.88Z"/><path class="cls-2" d="M130.59,92.56a.85.85,0,1,0,.85.85A.85.85,0,0,0,130.59,92.56Zm.36.54a.16.16,0,1,1,.16-.16A.16.16,0,0,1,131,93.11Zm.22.31a.09.09,0,1,1,.09-.09A.09.09,0,0,1,131.17,93.42Z"/><path class="cls-2" d="M110.51,102.84a.6.6,0,1,0,.6.6A.6.6,0,0,0,110.51,102.84Zm.26.39a.11.11,0,1,1,.11-.11A.11.11,0,0,1,110.76,103.22Zm.16.22a.06.06,0,1,1,.06-.06A.06.06,0,0,1,110.92,103.44Z"/><path class="cls-8" d="M94.88,96.62a.82.82,0,1,0,.82.82A.82.82,0,0,0,94.88,96.62Zm.35.53a.16.16,0,1,1,.16-.16A.16.16,0,0,1,95.23,97.15Zm.21.3a.09.09,0,1,1,.09-.09A.09.09,0,0,1,95.45,97.45Z"/><path class="cls-2" d="M128.3,97a.49.49,0,1,0,.49.49A.49.49,0,0,0,128.3,97Zm.21.31a.09.09,0,1,1,.09-.09A.09.09,0,0,1,128.51,97.27Zm.13.18a.05.05,0,1,1,.05-.05A.05.05,0,0,1,128.63,97.45Z"/><path class="cls-2" d="M131,100a.39.39,0,1,0,.39.38A.38.38,0,0,0,131,100Zm.16.25a.07.07,0,1,1,.07-.07A.07.07,0,0,1,131.2,100.26Zm.1.14a0,0,0,1,1,0-.08,0,0,0,0,1,0,.08A0,0,0,0,1,131.3,100.4Z"/><polygon class="cls-2" points="144.6 68.6 146.84 68.6 146.84 86.5 144.6 86.81 144.6 68.6"/></g></g></svg>