<svg xmlns="http://www.w3.org/2000/svg" viewBox="0 0 34.49 23.67"><defs><style>.cls-1{fill:#b8e636;}.cls-2{fill:#92d03f;}.cls-3{fill:#7bbe39;}.cls-4{fill:#7bc9fc;}.cls-5{fill:#60a1f7;}.cls-6{fill:#4d82f5;}</style></defs><title>Recurso 12</title><g id="Capa_2" data-name="Capa 2"><g id="Capa_1-2" data-name="Capa 1"><g id="_Grupo_" data-name="&lt;Grupo&gt;"><g id="_Grupo_2" data-name="&lt;Grupo&gt;"><g id="_Grupo_3" data-name="&lt;Grupo&gt;"><path class="cls-1" d="M31.38,15.57a8.1,8.1,0,0,1-8.1,8.1h3.11a8.1,8.1,0,0,0,8.1-8.1V14.28H31.38Z"/></g><g id="_Grupo_4" data-name="&lt;Grupo&gt;"><path class="cls-1" d="M18.58,14.28H15.76a8.1,8.1,0,0,0-8.1,8.1v1.29h2.83V22.37A8.1,8.1,0,0,1,18.58,14.28Z"/></g><g id="_Grupo_5" data-name="&lt;Grupo&gt;"><path class="cls-2" d="M31.38,15.57V14.28H28.55v1.29a8.1,8.1,0,0,1-8.1,8.1h2.83A8.1,8.1,0,0,0,31.38,15.57Z"/></g><g id="_Grupo_6" data-name="&lt;Grupo&gt;"><path class="cls-2" d="M21.69,14.28H18.58a8.1,8.1,0,0,0-8.1,8.1v1.29H13.6V22.37A8.1,8.1,0,0,1,21.69,14.28Z"/></g><g id="_Grupo_7" data-name="&lt;Grupo&gt;"><path class="cls-3" d="M28.55,15.57V14.28H21.69a8.1,8.1,0,0,0-8.1,8.1v1.29h6.86A8.1,8.1,0,0,0,28.55,15.57Z"/></g><g id="_Grupo_8" data-name="&lt;Grupo&gt;"><path class="cls-4" d="M23.43,0H20.32A11.06,11.06,0,0,1,31.38,11.06v1.77h3.11V11.06A11.06,11.06,0,0,0,23.43,0Z"/></g><g id="_Grupo_9" data-name="&lt;Grupo&gt;"><path class="cls-5" d="M20.32,0H17.49A11.06,11.06,0,0,1,28.55,11.06v1.77h2.83V11.06A11.06,11.06,0,0,0,20.32,0Z"/></g><g id="_Grupo_10" data-name="&lt;Grupo&gt;"><path class="cls-4" d="M2.83,1.77V0H0V1.77A11.06,11.06,0,0,0,11.06,12.83h2.83A11.06,11.06,0,0,1,2.83,1.77Z"/></g><g id="_Grupo_11" data-name="&lt;Grupo&gt;"><path class="cls-5" d="M5.94,1.77V0H2.83V1.77A11.06,11.06,0,0,0,13.89,12.83H17A11.06,11.06,0,0,1,5.94,1.77Z"/></g><g id="_Grupo_12" data-name="&lt;Grupo&gt;"><path class="cls-6" d="M17.49,0H5.94V1.77A11.06,11.06,0,0,0,17,12.83H28.55V11.06A11.06,11.06,0,0,0,17.49,0Z"/></g></g></g></g></g></svg>