<svg xmlns="http://www.w3.org/2000/svg" viewBox="0 0 288.92 41.53"><defs><style>.cls-1{fill:#fff;}.cls-2{fill:#a4e800;}.cls-3{fill:#6fd227;}.cls-4{fill:#4bc022;}.cls-5{fill:#3bcbff;}.cls-6{fill:#22a4fb;}.cls-7{fill:#1884fa;}</style></defs><title>logo</title><g id="Capa_2" data-name="Capa 2"><g id="Capa_1-2" data-name="Capa 1"><g id="_Grupo_" data-name="&lt;Grupo&gt;"><g id="_Grupo_2" data-name="&lt;Grupo&gt;"><polygon id="_Trazado_" data-name="&lt;Trazado&gt;" class="cls-1" points="69.96 36.84 71.12 36.84 71.12 41.36 71.65 41.36 71.65 36.84 72.8 36.84 72.8 36.31 69.96 36.31 69.96 36.84"/><path id="_Trazado_2" data-name="&lt;Trazado&gt;" class="cls-1" d="M79.78,40a1,1,0,0,1-2,0V36.31h-.53V40a1.52,1.52,0,0,0,3,0V36.31h-.53Z"/><path id="_Trazado_3" data-name="&lt;Trazado&gt;" class="cls-1" d="M86.78,38.46l-.3-.08c-.57-.15-.8-.39-.8-.82a.85.85,0,0,1,.88-.83.79.79,0,0,1,.84.88v.17h.54v-.17a1.31,1.31,0,0,0-1.38-1.41,1.37,1.37,0,0,0-1.42,1.35c0,.47.21,1.08,1.2,1.33l.32.08c.92.23,1,.58,1,1a1,1,0,0,1-1.1,1,1.06,1.06,0,0,1-1.09-1.15v-.17h-.54v.17a1.58,1.58,0,0,0,1.63,1.67,1.53,1.53,0,0,0,1.63-1.53C88.19,39,87.65,38.7,86.78,38.46Z"/><path id="_Trazado_compuesto_" data-name="&lt;Trazado compuesto&gt;" class="cls-1" d="M100.07,39.06a1.38,1.38,0,1,0,0-2.75H98.92v5h.53v-2l1.59,2h.69l-1.81-2.29Zm0-.52h-.63V36.84h.63a.86.86,0,1,1,0,1.71Z"/><polygon id="_Trazado_4" data-name="&lt;Trazado&gt;" class="cls-1" points="106.24 41.36 108.48 41.36 108.48 40.83 106.76 40.83 106.76 38.9 108.48 38.9 108.48 38.37 106.76 38.37 106.76 36.84 108.48 36.84 108.48 36.31 106.24 36.31 106.24 41.36"/><path id="_Trazado_5" data-name="&lt;Trazado&gt;" class="cls-1" d="M114.65,38.46l-.3-.08c-.57-.15-.8-.39-.8-.82a.85.85,0,0,1,.88-.83.79.79,0,0,1,.84.88v.17h.54v-.17a1.31,1.31,0,0,0-1.38-1.41A1.37,1.37,0,0,0,113,37.56c0,.47.21,1.07,1.2,1.33l.32.08c.92.23,1,.58,1,1a1,1,0,0,1-1.1,1,1.06,1.06,0,0,1-1.09-1.15v-.17h-.54v.17a1.58,1.58,0,0,0,1.63,1.67,1.53,1.53,0,0,0,1.63-1.53C116.07,39,115.53,38.7,114.65,38.46Z"/><rect id="_Trazado_6" data-name="&lt;Trazado&gt;" class="cls-1" x="120.74" y="36.31" width="0.53" height="5.04"/><path id="_Trazado_compuesto_2" data-name="&lt;Trazado compuesto&gt;" class="cls-1" d="M126.67,36.31h-.36v5h.35a2.52,2.52,0,1,0,0-5Zm.17,4.51v-4a2,2,0,0,1,0,4Z"/><path id="_Trazado_7" data-name="&lt;Trazado&gt;" class="cls-1" d="M136.49,40a1,1,0,0,1-2,0V36.31H134V40a1.52,1.52,0,0,0,3,0V36.31h-.53Z"/><path id="_Trazado_compuesto_3" data-name="&lt;Trazado compuesto&gt;" class="cls-1" d="M144.32,36.21a2.62,2.62,0,1,0,2.62,2.62A2.54,2.54,0,0,0,144.32,36.21Zm0,4.72a2.1,2.1,0,1,1,2.08-2.1A2,2,0,0,1,144.32,40.93Z"/><path id="_Trazado_8" data-name="&lt;Trazado&gt;" class="cls-1" d="M153.13,38.46l-.3-.08c-.57-.15-.8-.39-.8-.82a.85.85,0,0,1,.88-.83.79.79,0,0,1,.84.88v.17h.54v-.17a1.3,1.3,0,0,0-1.38-1.41,1.37,1.37,0,0,0-1.42,1.35c0,.47.21,1.07,1.2,1.33L153,39c.92.23,1,.58,1,1a1,1,0,0,1-1.1,1,1.06,1.06,0,0,1-1.09-1.15v-.17h-.54v.17a1.58,1.58,0,0,0,1.63,1.67,1.53,1.53,0,0,0,1.63-1.53C154.55,39,154,38.7,153.13,38.46Z"/><polygon id="_Trazado_9" data-name="&lt;Trazado&gt;" class="cls-1" points="165.28 41.36 167.52 41.36 167.52 40.83 165.81 40.83 165.81 38.9 167.52 38.9 167.52 38.37 165.81 38.37 165.81 36.84 167.52 36.84 167.52 36.31 165.28 36.31 165.28 41.36"/><polygon id="_Trazado_10" data-name="&lt;Trazado&gt;" class="cls-1" points="175.29 40.29 172.75 36.31 172.53 36.31 172.49 36.25 172.49 36.31 172.3 36.31 172.3 41.36 172.83 41.36 172.83 37.4 175.36 41.36 175.57 41.36 175.62 41.44 175.62 41.36 175.81 41.36 175.81 36.31 175.29 36.31 175.29 40.29"/><polygon id="_Trazado_11" data-name="&lt;Trazado&gt;" class="cls-1" points="188.98 38.52 187.36 36.31 186.91 36.31 186.91 41.36 187.44 41.36 187.44 37.33 188.98 39.39 190.51 37.33 190.51 41.36 191.04 41.36 191.04 36.31 190.59 36.31 188.98 38.52"/><path id="_Trazado_compuesto_4" data-name="&lt;Trazado compuesto&gt;" class="cls-1" d="M197.57,36.31l0-.06,0,.06h-.2l-1.81,5h.57l.69-2h1.53l.7,2h.57l-1.81-5Zm-.6,2.56.58-1.62.58,1.62Z"/><polygon id="_Trazado_12" data-name="&lt;Trazado&gt;" class="cls-1" points="207.03 40.29 204.5 36.31 204.28 36.31 204.24 36.25 204.24 36.31 204.05 36.31 204.05 41.36 204.57 41.36 204.57 37.4 207.11 41.36 207.32 41.36 207.37 41.44 207.37 41.36 207.56 41.36 207.56 36.31 207.03 36.31 207.03 40.29"/><path id="_Trazado_compuesto_5" data-name="&lt;Trazado compuesto&gt;" class="cls-1" d="M214.91,36.21a2.62,2.62,0,1,0,2.62,2.62A2.54,2.54,0,0,0,214.91,36.21Zm0,4.72a2.1,2.1,0,1,1,2.08-2.1A2,2,0,0,1,214.91,40.93Z"/><path id="_Trazado_13" data-name="&lt;Trazado&gt;" class="cls-1" d="M223.71,38.46l-.3-.08c-.57-.15-.8-.39-.8-.82a.85.85,0,0,1,.88-.83.79.79,0,0,1,.84.88v.17h.54v-.17a1.31,1.31,0,0,0-1.38-1.41,1.37,1.37,0,0,0-1.42,1.35c0,.47.21,1.08,1.2,1.33l.32.08c.92.23,1,.58,1,1a1,1,0,0,1-1.1,1,1.06,1.06,0,0,1-1.09-1.15v-.17h-.54v.17a1.58,1.58,0,0,0,1.63,1.67,1.53,1.53,0,0,0,1.63-1.53C225.13,39,224.59,38.7,223.71,38.46Z"/><polygon id="_Trazado_14" data-name="&lt;Trazado&gt;" class="cls-1" points="235.86 41.36 238.1 41.36 238.1 40.83 236.39 40.83 236.39 38.9 238.1 38.9 238.1 38.37 236.39 38.37 236.39 36.84 238.1 36.84 238.1 36.31 235.86 36.31 235.86 41.36"/><polygon id="_Trazado_15" data-name="&lt;Trazado&gt;" class="cls-1" points="244.82 36.31 243.9 38.24 242.98 36.31 242.41 36.31 243.61 38.84 242.41 41.36 242.98 41.36 243.9 39.44 244.82 41.36 245.4 41.36 244.18 38.84 245.4 36.31 244.82 36.31"/><path id="_Trazado_compuesto_6" data-name="&lt;Trazado compuesto&gt;" class="cls-1" d="M251.3,36.31H250v5h.53V39.06h.81a1.38,1.38,0,1,0,0-2.75Zm0,2.23h-.81V36.84h.81a.81.81,0,0,1,.91.85A.82.82,0,0,1,251.3,38.55Z"/><polygon id="_Trazado_16" data-name="&lt;Trazado&gt;" class="cls-1" points="257.33 41.36 259.57 41.36 259.57 40.83 257.85 40.83 257.85 38.9 259.57 38.9 259.57 38.37 257.85 38.37 257.85 36.84 259.57 36.84 259.57 36.31 257.33 36.31 257.33 41.36"/><path id="_Trazado_compuesto_7" data-name="&lt;Trazado compuesto&gt;" class="cls-1" d="M265.49,39.06a1.38,1.38,0,1,0,0-2.75h-1.15v5h.53v-2l1.59,2h.69l-1.81-2.29Zm0-.52h-.63V36.84h.63a.81.81,0,0,1,.91.85A.82.82,0,0,1,265.49,38.55Z"/><polygon id="_Trazado_17" data-name="&lt;Trazado&gt;" class="cls-1" points="271.09 36.84 272.26 36.84 272.26 41.36 272.78 41.36 272.78 36.84 273.93 36.84 273.93 36.31 271.09 36.31 271.09 36.84"/><path id="_Trazado_compuesto_8" data-name="&lt;Trazado compuesto&gt;" class="cls-1" d="M279.63,36.31l0-.06,0,.06h-.2l-1.81,5h.57l.69-2h1.53l.7,2h.57l-1.81-5Zm-.6,2.56.58-1.62.58,1.62Z"/><path id="_Trazado_18" data-name="&lt;Trazado&gt;" class="cls-1" d="M287.51,38.46l-.3-.08c-.57-.15-.8-.39-.8-.82a.85.85,0,0,1,.88-.83.79.79,0,0,1,.84.88v.17h.54v-.17a1.31,1.31,0,0,0-1.38-1.41,1.37,1.37,0,0,0-1.42,1.35c0,.47.21,1.08,1.2,1.33l.32.08c.92.23,1,.58,1,1a1,1,0,0,1-1.1,1,1.06,1.06,0,0,1-1.09-1.15v-.17h-.54v.17a1.58,1.58,0,0,0,1.63,1.67,1.53,1.53,0,0,0,1.63-1.53C288.92,39,288.38,38.7,287.51,38.46Z"/></g><path id="_Trazado_compuesto_9" data-name="&lt;Trazado compuesto&gt;" class="cls-1" d="M83.8,14.31a6,6,0,0,0,2.88-5.36c0-6-5.74-6.66-8.21-6.66H70.18V28.37h8.28c5.86,0,9.22-2.74,9.22-7.52C87.68,17.73,86.29,15.43,83.8,14.31ZM78.47,25.95H72.71V4.71h5.76c3.78,0,5.69,1.43,5.69,4.24s-1.8,4.27-5.07,4.27h-.16v2.42h.16c4,0,6.11,1.8,6.11,5.21C85.2,25.06,81.54,25.95,78.47,25.95Z"/><rect id="_Trazado_19" data-name="&lt;Trazado&gt;" class="cls-1" x="94.85" y="2.29" width="2.52" height="26.08"/><path id="_Trazado_compuesto_10" data-name="&lt;Trazado compuesto&gt;" class="cls-1" d="M114.34,1.94c-5.8,0-9.7,3.63-9.7,9v9c0,5.16,4,8.77,9.7,8.77S124,25.11,124,19.95V11C124,5.58,120.12,1.94,114.34,1.94Zm0,24.32c-4.31,0-7.21-2.54-7.21-6.31V11c0-4,2.83-6.62,7.21-6.62S121.51,7,121.51,11v9C121.51,23.72,118.63,26.26,114.34,26.26Z"/><path id="_Trazado_compuesto_11" data-name="&lt;Trazado compuesto&gt;" class="cls-1" d="M140.38,2.29h-9.11V28.37h9.11c5.64,0,9.15-3.52,9.15-9.18V11.58C149.53,5.85,146,2.29,140.38,2.29Zm-6.59,2.42h6.56c4.23,0,6.66,2.5,6.66,6.87v7.61c0,4.34-2.36,6.73-6.66,6.73h-6.56Z"/><path id="_Trazado_20" data-name="&lt;Trazado&gt;" class="cls-1" d="M159.32,2.29H156.8V28.37h2.52Z"/><polygon id="_Trazado_21" data-name="&lt;Trazado&gt;" class="cls-1" points="185.91 2.29 177.43 24.58 168.97 2.29 166.3 2.29 176.24 28.37 178.62 28.37 188.56 2.29 185.91 2.29"/><polygon id="_Trazado_22" data-name="&lt;Trazado&gt;" class="cls-1" points="211.34 25.95 198.06 25.95 198.06 16.3 206.78 16.3 206.78 13.88 198.06 13.88 198.06 4.71 210.82 4.71 210.82 2.29 195.53 2.29 195.53 28.37 211.34 28.37 211.34 25.95"/><path id="_Trazado_23" data-name="&lt;Trazado&gt;" class="cls-1" d="M236.78,28.37,228.49,17.7c4.41-.64,7-3.41,7-7.61,0-4.81-3.41-7.8-8.91-7.8H218.1V28.37h2.52V4.71h6c4.14,0,6.42,1.91,6.42,5.38s-2.28,5.34-6.42,5.34h-1.07v2.42h0l8.09,10.51Z"/><path id="_Trazado_24" data-name="&lt;Trazado&gt;" class="cls-1" d="M252,13.86h0c-4.85-1.15-6.75-2.61-6.75-5.19,0-3.18,3.17-4.31,6.13-4.31a11.18,11.18,0,0,1,7.16,2.45l0,0,1.38-2a13,13,0,0,0-8.44-2.88c-5.43,0-8.8,2.55-8.8,6.66,0,5.09,5,6.82,8.72,7.68,5.93,1.36,7,2.83,7,5.22,0,4.29-4.63,4.76-6.62,4.76a10.7,10.7,0,0,1-7.39-2.89l-.06,0-1.54,1.94,0,0a12.77,12.77,0,0,0,8.94,3.41c5.64,0,9.15-2.76,9.15-7.21S257.6,15.18,252,13.86Z"/><path id="_Trazado_25" data-name="&lt;Trazado&gt;" class="cls-1" d="M287.79,28.37,278.28,2.92a.94.94,0,0,0-.88-.63h-1a.92.92,0,0,0-.84.61l-9.53,25.47h2.64l2.43-6.49h0l1.36-3.68h0l4.45-12,4.45,12h0l1.36,3.68,2.39,6.49Z"/><g id="_Grupo_3" data-name="&lt;Grupo&gt;"><path id="_Trazado_26" data-name="&lt;Trazado&gt;" class="cls-2" d="M55.07,27.32A14.21,14.21,0,0,1,40.86,41.53h5.46A14.21,14.21,0,0,0,60.53,27.32V25.05H55.07Z"/><path id="_Trazado_27" data-name="&lt;Trazado&gt;" class="cls-2" d="M32.61,25.05h-5A14.21,14.21,0,0,0,13.44,39.26v2.27h5V39.26A14.21,14.21,0,0,1,32.61,25.05Z"/><path id="_Trazado_28" data-name="&lt;Trazado&gt;" class="cls-3" d="M55.07,27.32V25.05h-5v2.27A14.21,14.21,0,0,1,35.9,41.53h5A14.21,14.21,0,0,0,55.07,27.32Z"/><path id="_Trazado_29" data-name="&lt;Trazado&gt;" class="cls-3" d="M38.07,25.05H32.61A14.21,14.21,0,0,0,18.4,39.26v2.27h5.46V39.26A14.21,14.21,0,0,1,38.07,25.05Z"/><path id="_Trazado_30" data-name="&lt;Trazado&gt;" class="cls-4" d="M50.11,27.32V25.05h-12A14.21,14.21,0,0,0,23.86,39.26v2.27h12A14.21,14.21,0,0,0,50.11,27.32Z"/><path id="_Trazado_31" data-name="&lt;Trazado&gt;" class="cls-5" d="M41.11,0H35.66A19.42,19.42,0,0,1,55.07,19.42v3.1h5.46v-3.1A19.42,19.42,0,0,0,41.11,0Z"/><path id="_Trazado_32" data-name="&lt;Trazado&gt;" class="cls-6" d="M35.66,0h-5A19.42,19.42,0,0,1,50.11,19.42v3.1h5v-3.1A19.42,19.42,0,0,0,35.66,0Z"/><path id="_Trazado_33" data-name="&lt;Trazado&gt;" class="cls-5" d="M5,3.1V0H0V3.1A19.42,19.42,0,0,0,19.42,22.52h5A19.42,19.42,0,0,1,5,3.1Z"/><path id="_Trazado_34" data-name="&lt;Trazado&gt;" class="cls-6" d="M10.42,3.1V0H5V3.1A19.42,19.42,0,0,0,24.38,22.52h5.46A19.42,19.42,0,0,1,10.42,3.1Z"/><path id="_Trazado_35" data-name="&lt;Trazado&gt;" class="cls-7" d="M30.69,0H10.42V3.1A19.42,19.42,0,0,0,29.83,22.52H50.11v-3.1A19.42,19.42,0,0,0,30.69,0Z"/></g></g></g></g></svg>