<svg xmlns="http://www.w3.org/2000/svg" viewBox="0 0 79.82 94.85"><defs><style>.cls-1{fill:#b6e436;}.cls-2{fill:#7ac7fa;}.cls-3{fill:#3b69e0;}.cls-4{fill:#fff;}</style></defs><title>Recurso 6</title><g id="Capa_2" data-name="Capa 2"><g id="Capa_1-2" data-name="Capa 1"><path class="cls-1" d="M.65,94.85a.64.64,0,0,1-.4-1.15s.55-.44,1.59-1.17a.64.64,0,0,1,.74,1.06c-1,.7-1.52,1.11-1.52,1.12A.64.64,0,0,1,.65,94.85Z"/><path class="cls-1" d="M5.35,91.64A.64.64,0,0,1,5,90.44c1-.64,2.14-1.3,3.27-1.94a.64.64,0,0,1,.64,1.12c-1.12.63-2.2,1.27-3.22,1.91A.64.64,0,0,1,5.35,91.64Zm6.56-3.72a.64.64,0,0,1-.3-1.22c1.1-.57,2.24-1.14,3.39-1.69a.64.64,0,0,1,.56,1.16c-1.14.55-2.27,1.11-3.35,1.68A.64.64,0,0,1,11.91,87.92Zm6.8-3.26a.64.64,0,0,1-.26-1.23c1.14-.51,2.31-1,3.49-1.49a.64.64,0,1,1,.49,1.19c-1.16.48-2.32,1-3.45,1.47A.64.64,0,0,1,18.71,84.65Zm7-2.86a.64.64,0,0,1-.23-1.25c1.17-.44,2.36-.88,3.56-1.29a.64.64,0,1,1,.42,1.22c-1.19.41-2.37.84-3.53,1.28A.64.64,0,0,1,25.69,81.79Zm7.12-2.48a.65.65,0,0,1-.2-1.26c1.19-.38,2.41-.75,3.62-1.11a.64.64,0,0,1,.36,1.24c-1.2.35-2.41.72-3.59,1.1A.64.64,0,0,1,32.8,79.31ZM40,77.19a.64.64,0,0,1-.17-1.27c1.21-.32,2.44-.64,3.67-.93a.64.64,0,0,1,.3,1.25c-1.22.29-2.44.61-3.64.93Zm7.33-1.77a.64.64,0,0,1-.14-1.28c1.22-.27,2.47-.52,3.71-.76a.64.64,0,1,1,.25,1.27c-1.23.24-2.47.49-3.68.76ZM54.77,74a.64.64,0,0,1-.11-1.28c1.23-.21,2.49-.41,3.74-.6a.64.64,0,1,1,.19,1.28c-1.24.19-2.49.39-3.71.6Zm7.46-1.12a.64.64,0,0,1-.08-1.28c1.24-.16,2.51-.31,3.76-.44A.64.64,0,0,1,66,72.42c-1.24.13-2.5.28-3.73.44Zm7.5-.8a.64.64,0,0,1-.05-1.29c1.24-.11,2.51-.2,3.77-.29a.64.64,0,0,1,.09,1.29c-1.25.08-2.51.18-3.75.29Z"/><path class="cls-1" d="M77.24,71.56a.64.64,0,0,1,0-1.29l1.94-.08a.65.65,0,0,1,.67.62.64.64,0,0,1-.62.67l-1.93.08Z"/><path class="cls-1" d="M79.17,94.85a.64.64,0,0,1-.4-.14s-.52-.42-1.52-1.12A.64.64,0,1,1,78,92.53c1,.73,1.57,1.15,1.59,1.17a.64.64,0,0,1-.4,1.15Z"/><path class="cls-1" d="M74.47,91.64a.64.64,0,0,1-.34-.1c-1-.64-2.11-1.28-3.22-1.91a.64.64,0,0,1,.64-1.12c1.13.64,2.23,1.29,3.27,1.94a.64.64,0,0,1-.34,1.19Zm-6.56-3.72a.64.64,0,0,1-.3-.07c-1.09-.57-2.22-1.13-3.35-1.68A.64.64,0,0,1,64.81,85c1.15.55,2.29,1.12,3.39,1.69a.64.64,0,0,1-.3,1.22Zm-6.8-3.26a.64.64,0,0,1-.26-.06c-1.13-.5-2.29-1-3.45-1.47a.64.64,0,0,1,.49-1.19c1.17.48,2.35,1,3.49,1.49a.64.64,0,0,1-.26,1.23Zm-7-2.86a.64.64,0,0,1-.23,0c-1.16-.44-2.34-.87-3.53-1.28a.64.64,0,1,1,.42-1.22c1.2.42,2.39.85,3.56,1.29a.64.64,0,0,1-.23,1.25ZM47,79.31a.64.64,0,0,1-.2,0c-1.18-.38-2.39-.75-3.59-1.1a.64.64,0,1,1,.36-1.24c1.21.36,2.43.73,3.62,1.11a.65.65,0,0,1-.2,1.26Zm-7.23-2.12-.17,0c-1.2-.32-2.42-.63-3.64-.93a.64.64,0,0,1,.3-1.25c1.23.3,2.46.61,3.67.93a.64.64,0,0,1-.17,1.27Zm-7.33-1.77-.14,0c-1.21-.26-2.45-.52-3.68-.76a.64.64,0,1,1,.25-1.27c1.24.24,2.49.5,3.71.76a.64.64,0,0,1-.14,1.28ZM25.05,74h-.11c-1.22-.21-2.47-.41-3.71-.6a.64.64,0,1,1,.19-1.28c1.25.19,2.51.39,3.74.6A.64.64,0,0,1,25.05,74ZM17.6,72.86h-.08c-1.24-.16-2.49-.31-3.73-.44a.64.64,0,0,1,.14-1.28c1.25.13,2.51.28,3.76.44a.64.64,0,0,1-.08,1.28Zm-7.5-.8H10c-1.24-.11-2.5-.2-3.75-.29a.64.64,0,0,1,.09-1.29c1.26.08,2.53.18,3.77.29a.64.64,0,0,1-.05,1.29Z"/><path class="cls-1" d="M2.58,71.56h0L.62,71.47A.64.64,0,0,1,0,70.8a.66.66,0,0,1,.67-.62l1.94.08a.64.64,0,0,1,0,1.29Z"/><path class="cls-2" d="M64.19,23.38A23.38,23.38,0,1,0,17.58,26.1l-.08,0c0,15.13,22.41,50.46,22.41,50.46S64.19,40.22,64.19,26.12a5.74,5.74,0,0,0-.07-.91Q64.19,24.31,64.19,23.38Z"/><path class="cls-3" d="M40.81,0A23.38,23.38,0,0,0,17.58,26.1l-.08,0c0,15.13,22.41,50.46,22.41,50.46Z"/><circle class="cls-4" cx="40.81" cy="23.38" r="11"/></g></g></svg>